%TF.GenerationSoftware,KiCad,Pcbnew,8.0.4*%
%TF.CreationDate,2025-10-26T14:32:28+11:00*%
%TF.ProjectId,USBPowerBlock,55534250-6f77-4657-9242-6c6f636b2e6b,rev?*%
%TF.SameCoordinates,Original*%
%TF.FileFunction,Copper,L2,Bot*%
%TF.FilePolarity,Positive*%
%FSLAX46Y46*%
G04 Gerber Fmt 4.6, Leading zero omitted, Abs format (unit mm)*
G04 Created by KiCad (PCBNEW 8.0.4) date 2025-10-26 14:32:28*
%MOMM*%
%LPD*%
G01*
G04 APERTURE LIST*
G04 Aperture macros list*
%AMRoundRect*
0 Rectangle with rounded corners*
0 $1 Rounding radius*
0 $2 $3 $4 $5 $6 $7 $8 $9 X,Y pos of 4 corners*
0 Add a 4 corners polygon primitive as box body*
4,1,4,$2,$3,$4,$5,$6,$7,$8,$9,$2,$3,0*
0 Add four circle primitives for the rounded corners*
1,1,$1+$1,$2,$3*
1,1,$1+$1,$4,$5*
1,1,$1+$1,$6,$7*
1,1,$1+$1,$8,$9*
0 Add four rect primitives between the rounded corners*
20,1,$1+$1,$2,$3,$4,$5,0*
20,1,$1+$1,$4,$5,$6,$7,0*
20,1,$1+$1,$6,$7,$8,$9,0*
20,1,$1+$1,$8,$9,$2,$3,0*%
G04 Aperture macros list end*
%TA.AperFunction,ComponentPad*%
%ADD10R,1.300000X1.300000*%
%TD*%
%TA.AperFunction,ComponentPad*%
%ADD11C,1.300000*%
%TD*%
%TA.AperFunction,ComponentPad*%
%ADD12O,2.900000X1.900000*%
%TD*%
%TA.AperFunction,ComponentPad*%
%ADD13R,1.575000X1.575000*%
%TD*%
%TA.AperFunction,ComponentPad*%
%ADD14C,1.575000*%
%TD*%
%TA.AperFunction,ComponentPad*%
%ADD15R,1.000000X1.000000*%
%TD*%
%TA.AperFunction,ComponentPad*%
%ADD16O,1.000000X1.000000*%
%TD*%
%TA.AperFunction,ComponentPad*%
%ADD17R,0.900000X1.300000*%
%TD*%
%TA.AperFunction,ComponentPad*%
%ADD18O,0.950000X2.000000*%
%TD*%
%TA.AperFunction,SMDPad,CuDef*%
%ADD19RoundRect,0.250000X0.450000X-0.350000X0.450000X0.350000X-0.450000X0.350000X-0.450000X-0.350000X0*%
%TD*%
%TA.AperFunction,SMDPad,CuDef*%
%ADD20RoundRect,0.250000X0.450000X-0.325000X0.450000X0.325000X-0.450000X0.325000X-0.450000X-0.325000X0*%
%TD*%
%TA.AperFunction,SMDPad,CuDef*%
%ADD21RoundRect,0.250000X-0.450000X0.350000X-0.450000X-0.350000X0.450000X-0.350000X0.450000X0.350000X0*%
%TD*%
%TA.AperFunction,SMDPad,CuDef*%
%ADD22RoundRect,0.250000X0.475000X-0.337500X0.475000X0.337500X-0.475000X0.337500X-0.475000X-0.337500X0*%
%TD*%
%TA.AperFunction,SMDPad,CuDef*%
%ADD23RoundRect,0.250000X-0.350000X-0.450000X0.350000X-0.450000X0.350000X0.450000X-0.350000X0.450000X0*%
%TD*%
%TA.AperFunction,SMDPad,CuDef*%
%ADD24RoundRect,0.250000X-0.475000X0.337500X-0.475000X-0.337500X0.475000X-0.337500X0.475000X0.337500X0*%
%TD*%
%TA.AperFunction,SMDPad,CuDef*%
%ADD25RoundRect,0.375000X0.375000X-0.625000X0.375000X0.625000X-0.375000X0.625000X-0.375000X-0.625000X0*%
%TD*%
%TA.AperFunction,SMDPad,CuDef*%
%ADD26RoundRect,0.500000X1.400000X-0.500000X1.400000X0.500000X-1.400000X0.500000X-1.400000X-0.500000X0*%
%TD*%
%TA.AperFunction,SMDPad,CuDef*%
%ADD27RoundRect,0.250000X0.337500X0.475000X-0.337500X0.475000X-0.337500X-0.475000X0.337500X-0.475000X0*%
%TD*%
%TA.AperFunction,SMDPad,CuDef*%
%ADD28RoundRect,0.250000X0.350000X0.450000X-0.350000X0.450000X-0.350000X-0.450000X0.350000X-0.450000X0*%
%TD*%
%TA.AperFunction,SMDPad,CuDef*%
%ADD29RoundRect,0.250000X-0.450000X0.325000X-0.450000X-0.325000X0.450000X-0.325000X0.450000X0.325000X0*%
%TD*%
%TA.AperFunction,ViaPad*%
%ADD30C,1.000000*%
%TD*%
%TA.AperFunction,ViaPad*%
%ADD31C,0.500000*%
%TD*%
%TA.AperFunction,ViaPad*%
%ADD32C,0.600000*%
%TD*%
%TA.AperFunction,Conductor*%
%ADD33C,1.500000*%
%TD*%
%TA.AperFunction,Conductor*%
%ADD34C,0.400000*%
%TD*%
%TA.AperFunction,Conductor*%
%ADD35C,0.600000*%
%TD*%
%TA.AperFunction,Conductor*%
%ADD36C,0.200000*%
%TD*%
G04 APERTURE END LIST*
D10*
%TO.P,J5,1,VBUS*%
%TO.N,5V5*%
X147690000Y-91380000D03*
D11*
%TO.P,J5,2,D-*%
%TO.N,unconnected-(J5-D--Pad2)*%
X147690000Y-88880000D03*
%TO.P,J5,3,D+*%
%TO.N,unconnected-(J5-D+-Pad3)*%
X147690000Y-86880000D03*
%TO.P,J5,4,GND*%
%TO.N,GND5*%
X147690000Y-84380000D03*
D12*
%TO.P,J5,5,Shield*%
%TO.N,unconnected-(J5-Shield-Pad5)*%
X150110000Y-94550000D03*
X150120000Y-81210000D03*
%TD*%
D10*
%TO.P,J3,1,VBUS*%
%TO.N,5V3*%
X127670000Y-91380000D03*
D11*
%TO.P,J3,2,D-*%
%TO.N,unconnected-(J3-D--Pad2)*%
X127670000Y-88880000D03*
%TO.P,J3,3,D+*%
%TO.N,unconnected-(J3-D+-Pad3)*%
X127670000Y-86880000D03*
%TO.P,J3,4,GND*%
%TO.N,GND3*%
X127670000Y-84380000D03*
D12*
%TO.P,J3,5,Shield*%
%TO.N,unconnected-(J3-Shield-Pad5)*%
X130090000Y-94550000D03*
X130100000Y-81210000D03*
%TD*%
D10*
%TO.P,J1,1,VBUS*%
%TO.N,5V1*%
X107630000Y-91410000D03*
D11*
%TO.P,J1,2,D-*%
%TO.N,unconnected-(J1-D--Pad2)*%
X107630000Y-88910000D03*
%TO.P,J1,3,D+*%
%TO.N,unconnected-(J1-D+-Pad3)*%
X107630000Y-86910000D03*
%TO.P,J1,4,GND*%
%TO.N,GND1*%
X107630000Y-84410000D03*
D12*
%TO.P,J1,5,Shield*%
%TO.N,unconnected-(J1-Shield-Pad5)*%
X110050000Y-94580000D03*
X110060000Y-81240000D03*
%TD*%
D10*
%TO.P,J2,1,VBUS*%
%TO.N,5V2*%
X117650000Y-91400000D03*
D11*
%TO.P,J2,2,D-*%
%TO.N,unconnected-(J2-D--Pad2)*%
X117650000Y-88900000D03*
%TO.P,J2,3,D+*%
%TO.N,unconnected-(J2-D+-Pad3)*%
X117650000Y-86900000D03*
%TO.P,J2,4,GND*%
%TO.N,GND2*%
X117650000Y-84400000D03*
D12*
%TO.P,J2,5,Shield*%
%TO.N,unconnected-(J2-Shield-Pad5)*%
X120070000Y-94570000D03*
X120080000Y-81230000D03*
%TD*%
D10*
%TO.P,J4,1,VBUS*%
%TO.N,5V4*%
X137690000Y-91410000D03*
D11*
%TO.P,J4,2,D-*%
%TO.N,unconnected-(J4-D--Pad2)*%
X137690000Y-88910000D03*
%TO.P,J4,3,D+*%
%TO.N,unconnected-(J4-D+-Pad3)*%
X137690000Y-86910000D03*
%TO.P,J4,4,GND*%
%TO.N,GND4*%
X137690000Y-84410000D03*
D12*
%TO.P,J4,5,Shield*%
%TO.N,unconnected-(J4-Shield-Pad5)*%
X140110000Y-94580000D03*
X140120000Y-81240000D03*
%TD*%
D13*
%TO.P,J7,1,1*%
%TO.N,5V*%
X165510000Y-69510000D03*
D14*
%TO.P,J7,2,2*%
%TO.N,GND*%
X165510000Y-72010000D03*
%TD*%
D15*
%TO.P,J6,1,Pin_1*%
%TO.N,3V3*%
X102500000Y-78130000D03*
D16*
%TO.P,J6,2,Pin_2*%
%TO.N,RXD*%
X102500000Y-79400000D03*
%TO.P,J6,3,Pin_3*%
%TO.N,TXD*%
X102500000Y-80670000D03*
%TO.P,J6,4,Pin_4*%
%TO.N,IO0*%
X102500000Y-81940000D03*
%TO.P,J6,5,Pin_5*%
%TO.N,GND*%
X102500000Y-83210000D03*
%TD*%
D17*
%TO.P,U1,1,VDD*%
%TO.N,3V3*%
X176380000Y-76690000D03*
D18*
X176380000Y-78540000D03*
D17*
%TO.P,U1,2,EN*%
%TO.N,EN*%
X174880000Y-76690000D03*
D18*
X174880000Y-78540000D03*
D17*
%TO.P,U1,3,IO14*%
%TO.N,IO14*%
X173380000Y-76690000D03*
D18*
X173380000Y-78540000D03*
D17*
%TO.P,U1,4,IO12*%
%TO.N,IO12*%
X171880000Y-76690000D03*
D18*
X171880000Y-78540000D03*
D17*
%TO.P,U1,5,IO13*%
%TO.N,IO13*%
X170380000Y-76690000D03*
D18*
X170380000Y-78540000D03*
D17*
%TO.P,U1,6,IO15*%
%TO.N,IO15*%
X168880000Y-76690000D03*
D18*
X168880000Y-78540000D03*
D17*
%TO.P,U1,7,IO2*%
%TO.N,IO2*%
X167380000Y-76690000D03*
D18*
X167380000Y-78540000D03*
D17*
%TO.P,U1,8,IO0*%
%TO.N,IO0*%
X165880000Y-76690000D03*
D18*
X165880000Y-78540000D03*
D17*
%TO.P,U1,9,GND*%
%TO.N,GND*%
X164380000Y-76690000D03*
D18*
X164380000Y-78540000D03*
%TO.P,U1,10,IO4*%
%TO.N,IO4*%
X164420000Y-96440000D03*
D17*
X164420000Y-98290000D03*
D18*
%TO.P,U1,11,RXD*%
%TO.N,RXD*%
X165920000Y-96440000D03*
D17*
X165920000Y-98290000D03*
D18*
%TO.P,U1,12,TXD*%
%TO.N,TXD*%
X167420000Y-96440000D03*
D17*
X167420000Y-98290000D03*
D18*
%TO.P,U1,13,GND*%
%TO.N,GND*%
X168920000Y-96440000D03*
D17*
X168920000Y-98290000D03*
D18*
%TO.P,U1,14,IO5*%
%TO.N,IO5*%
X170420000Y-96440000D03*
D17*
X170420000Y-98290000D03*
D18*
%TO.P,U1,15,RST*%
%TO.N,unconnected-(U1-RST-Pad15)*%
X171920000Y-96440000D03*
D17*
X171920000Y-98290000D03*
D18*
%TO.P,U1,16,TOUT*%
%TO.N,unconnected-(U1-TOUT-Pad16)*%
X173420000Y-96440000D03*
D17*
X173420000Y-98290000D03*
D18*
%TO.P,U1,17,IO16*%
%TO.N,IO16*%
X174920000Y-96440000D03*
D17*
X174920000Y-98290000D03*
D18*
%TO.P,U1,18,GND*%
%TO.N,GND*%
X176420000Y-96440000D03*
D17*
X176420000Y-98290000D03*
%TD*%
D19*
%TO.P,R10,1*%
%TO.N,IO13*%
X142340000Y-68290000D03*
%TO.P,R10,2*%
%TO.N,Net-(Q4-G)*%
X142340000Y-66290000D03*
%TD*%
D20*
%TO.P,F1,1*%
%TO.N,5V*%
X115340000Y-96995000D03*
%TO.P,F1,2*%
%TO.N,5V1*%
X115340000Y-94945000D03*
%TD*%
D21*
%TO.P,R15,1,1*%
%TO.N,IO15*%
X168730000Y-81530000D03*
%TO.P,R15,2,2*%
%TO.N,GND*%
X168730000Y-83530000D03*
%TD*%
D22*
%TO.P,C3,1,1*%
%TO.N,3V3*%
X168410000Y-66907500D03*
%TO.P,C3,2,2*%
%TO.N,GND*%
X168410000Y-64832500D03*
%TD*%
D20*
%TO.P,F3,1*%
%TO.N,5V*%
X135650000Y-97015000D03*
%TO.P,F3,2*%
%TO.N,5V3*%
X135650000Y-94965000D03*
%TD*%
D23*
%TO.P,R3,1,1*%
%TO.N,EN*%
X173610000Y-83140000D03*
%TO.P,R3,2,2*%
%TO.N,3V3*%
X175610000Y-83140000D03*
%TD*%
D19*
%TO.P,R8,1*%
%TO.N,IO12*%
X132360000Y-67940000D03*
%TO.P,R8,2*%
%TO.N,Net-(Q3-G)*%
X132360000Y-65940000D03*
%TD*%
D21*
%TO.P,R4,1,1*%
%TO.N,IO0*%
X163470000Y-86260000D03*
%TO.P,R4,2,2*%
%TO.N,3V3*%
X163470000Y-88260000D03*
%TD*%
D22*
%TO.P,C6,1*%
%TO.N,3V3*%
X165470000Y-66917500D03*
%TO.P,C6,2*%
%TO.N,GND*%
X165470000Y-64842500D03*
%TD*%
D24*
%TO.P,C1,1,1*%
%TO.N,EN*%
X171250000Y-83142500D03*
%TO.P,C1,2,2*%
%TO.N,GND*%
X171250000Y-85217500D03*
%TD*%
D19*
%TO.P,R12,1*%
%TO.N,IO14*%
X152660000Y-68160000D03*
%TO.P,R12,2*%
%TO.N,Net-(Q5-G)*%
X152660000Y-66160000D03*
%TD*%
D25*
%TO.P,U2,1,GND*%
%TO.N,GND*%
X162332500Y-72800000D03*
%TO.P,U2,2,VO*%
%TO.N,3V3*%
X160032500Y-72800000D03*
D26*
X160032500Y-66500000D03*
D25*
%TO.P,U2,3,VI*%
%TO.N,5V*%
X157732500Y-72800000D03*
%TD*%
D19*
%TO.P,R2,1*%
%TO.N,IO4*%
X112290000Y-67880000D03*
%TO.P,R2,2*%
%TO.N,Net-(Q1-G)*%
X112290000Y-65880000D03*
%TD*%
D27*
%TO.P,C5,1*%
%TO.N,GND*%
X159807500Y-81730000D03*
%TO.P,C5,2*%
%TO.N,5V*%
X157732500Y-81730000D03*
%TD*%
D28*
%TO.P,R17,1*%
%TO.N,IO16*%
X173810000Y-93190000D03*
%TO.P,R17,2*%
%TO.N,Net-(D3-A)*%
X171810000Y-93190000D03*
%TD*%
D20*
%TO.P,F2,1*%
%TO.N,5V*%
X125710000Y-97015000D03*
%TO.P,F2,2*%
%TO.N,5V2*%
X125710000Y-94965000D03*
%TD*%
D19*
%TO.P,R6,1*%
%TO.N,IO5*%
X122320000Y-67990000D03*
%TO.P,R6,2*%
%TO.N,Net-(Q2-G)*%
X122320000Y-65990000D03*
%TD*%
D27*
%TO.P,C4,1,1*%
%TO.N,IO0*%
X165917500Y-81650000D03*
%TO.P,C4,2,2*%
%TO.N,GND*%
X163842500Y-81650000D03*
%TD*%
D24*
%TO.P,C2,1,1*%
%TO.N,3V3*%
X175520000Y-86452500D03*
%TO.P,C2,2,2*%
%TO.N,GND*%
X175520000Y-88527500D03*
%TD*%
D29*
%TO.P,F5,1*%
%TO.N,5V*%
X157730000Y-87915000D03*
%TO.P,F5,2*%
%TO.N,5V5*%
X157730000Y-89965000D03*
%TD*%
D21*
%TO.P,R16,1,1*%
%TO.N,IO2*%
X166260000Y-87130000D03*
%TO.P,R16,2,2*%
%TO.N,3V3*%
X166260000Y-89130000D03*
%TD*%
D20*
%TO.P,F4,1*%
%TO.N,5V*%
X145710000Y-97045000D03*
%TO.P,F4,2*%
%TO.N,5V4*%
X145710000Y-94995000D03*
%TD*%
D30*
%TO.N,5V*%
X157720000Y-84400000D03*
X149650000Y-97290000D03*
D31*
%TO.N,3V3*%
X163760000Y-66500000D03*
X162830000Y-74910000D03*
D30*
%TO.N,GND*%
X161870000Y-77140000D03*
X109650000Y-69630000D03*
X103000000Y-73850000D03*
X155730000Y-65550000D03*
X169850000Y-88700000D03*
X135730000Y-66660000D03*
X103120000Y-85600000D03*
X115830000Y-66700000D03*
X120120000Y-70010000D03*
X110120000Y-87750000D03*
X125700000Y-66720000D03*
X160450000Y-86140000D03*
X145850000Y-66600000D03*
X176760000Y-70790000D03*
X102460000Y-92860000D03*
D32*
%TO.N,IO0*%
X162770000Y-84200000D03*
D31*
%TO.N,Net-(Q1-G)*%
X112245000Y-64820000D03*
%TO.N,Net-(Q2-G)*%
X122430000Y-64500000D03*
%TO.N,Net-(Q3-G)*%
X132500000Y-64540000D03*
%TO.N,Net-(Q4-G)*%
X142370000Y-64460000D03*
%TO.N,Net-(Q5-G)*%
X152710000Y-64520000D03*
%TO.N,IO4*%
X109700000Y-67820000D03*
%TO.N,IO5*%
X119700000Y-68050000D03*
%TO.N,IO12*%
X129930000Y-67990000D03*
X155170000Y-73060000D03*
%TO.N,IO13*%
X139820000Y-68240000D03*
X155150000Y-71150000D03*
%TO.N,IO14*%
X150090000Y-68190000D03*
X155410000Y-69160000D03*
%TO.N,Net-(D3-A)*%
X162300000Y-91550000D03*
%TD*%
D33*
%TO.N,5V2*%
X122220000Y-91400000D02*
X117650000Y-91400000D01*
X125710000Y-94890000D02*
X122220000Y-91400000D01*
%TO.N,5V1*%
X111860000Y-91410000D02*
X107630000Y-91410000D01*
X115340000Y-94890000D02*
X111860000Y-91410000D01*
%TO.N,5V3*%
X132140000Y-91380000D02*
X127670000Y-91380000D01*
X135650000Y-94890000D02*
X132140000Y-91380000D01*
%TO.N,5V4*%
X145610000Y-91940000D02*
X145080000Y-91410000D01*
X145610000Y-94890000D02*
X145610000Y-91940000D01*
X145710000Y-94890000D02*
X145610000Y-94890000D01*
X145080000Y-91410000D02*
X137690000Y-91410000D01*
%TO.N,5V5*%
X153275000Y-89965000D02*
X151860000Y-91380000D01*
X151860000Y-91380000D02*
X147690000Y-91380000D01*
X157730000Y-89965000D02*
X153275000Y-89965000D01*
%TO.N,5V*%
X157732500Y-84387500D02*
X157720000Y-84400000D01*
X157732500Y-71087500D02*
X159310000Y-69510000D01*
X157732500Y-74790000D02*
X157732500Y-72800000D01*
X149650000Y-97290000D02*
X115475000Y-97290000D01*
X157730000Y-84410000D02*
X157730000Y-87915000D01*
X157732500Y-81730000D02*
X157732500Y-74790000D01*
X157720000Y-84400000D02*
X157730000Y-84410000D01*
X157732500Y-74790000D02*
X157732500Y-71087500D01*
X157732500Y-81730000D02*
X157732500Y-84387500D01*
X159310000Y-69510000D02*
X165510000Y-69510000D01*
D34*
%TO.N,EN*%
X174880000Y-78540000D02*
X174880000Y-80140000D01*
X173610000Y-81410000D02*
X173610000Y-83140000D01*
X173607500Y-83142500D02*
X173610000Y-83140000D01*
X171250000Y-83142500D02*
X173607500Y-83142500D01*
X174880000Y-80140000D02*
X173610000Y-81410000D01*
X173302500Y-82832500D02*
X173610000Y-83140000D01*
%TO.N,3V3*%
X176380000Y-75040000D02*
X176380000Y-76990000D01*
X166260000Y-89130000D02*
X165750000Y-89130000D01*
X173500000Y-87280000D02*
X173500000Y-91540000D01*
X162840000Y-74920000D02*
X176260000Y-74920000D01*
X165750000Y-89130000D02*
X164105000Y-90775000D01*
X175520000Y-86452500D02*
X175520000Y-83230000D01*
X175520000Y-86452500D02*
X174327500Y-86452500D01*
X175960000Y-80900000D02*
X176380000Y-80480000D01*
X173480000Y-91560000D02*
X164890000Y-91560000D01*
X175740000Y-80900000D02*
X175960000Y-80900000D01*
X163470000Y-90140000D02*
X163470000Y-88260000D01*
X175610000Y-83140000D02*
X175610000Y-81030000D01*
D35*
X168410000Y-66907500D02*
X165480000Y-66907500D01*
D34*
X161330000Y-74920000D02*
X162820000Y-74920000D01*
X162820000Y-74920000D02*
X162830000Y-74910000D01*
X176260000Y-74920000D02*
X176380000Y-75040000D01*
X164890000Y-91560000D02*
X164105000Y-90775000D01*
X164105000Y-90775000D02*
X163470000Y-90140000D01*
X175520000Y-83230000D02*
X175610000Y-83140000D01*
X162830000Y-74910000D02*
X162840000Y-74920000D01*
X173500000Y-91540000D02*
X173480000Y-91560000D01*
X174327500Y-86452500D02*
X173500000Y-87280000D01*
D35*
X163760000Y-66500000D02*
X164177500Y-66917500D01*
D34*
X175610000Y-81030000D02*
X175740000Y-80900000D01*
D35*
X165480000Y-66907500D02*
X165470000Y-66917500D01*
D34*
X160032500Y-73622500D02*
X161330000Y-74920000D01*
X176380000Y-80480000D02*
X176380000Y-78540000D01*
D35*
X163760000Y-66500000D02*
X160032500Y-66500000D01*
D34*
X160032500Y-72800000D02*
X160032500Y-73622500D01*
D35*
X164177500Y-66917500D02*
X165470000Y-66917500D01*
%TO.N,GND*%
X176420000Y-96440000D02*
X176420000Y-97990000D01*
X176420000Y-92270000D02*
X175520000Y-91370000D01*
X168920000Y-96440000D02*
X168920000Y-97990000D01*
X175520000Y-91370000D02*
X175520000Y-88527500D01*
X176420000Y-96440000D02*
X176420000Y-92270000D01*
X164380000Y-76990000D02*
X164380000Y-78540000D01*
D33*
X164720000Y-72800000D02*
X165510000Y-72010000D01*
X162332500Y-72800000D02*
X164720000Y-72800000D01*
D36*
X113160000Y-64220000D02*
X111410000Y-64220000D01*
D34*
%TO.N,IO0*%
X165917500Y-81650000D02*
X165917500Y-83852500D01*
X163470000Y-84900000D02*
X162770000Y-84200000D01*
X165880000Y-78540000D02*
X165880000Y-81612500D01*
X165880000Y-81612500D02*
X165917500Y-81650000D01*
X165917500Y-83852500D02*
X163117500Y-83852500D01*
X165927500Y-78587500D02*
X165880000Y-78540000D01*
X163117500Y-83852500D02*
X162770000Y-84200000D01*
X163470000Y-86260000D02*
X163470000Y-84900000D01*
D35*
%TO.N,Net-(Q1-G)*%
X112245000Y-64820000D02*
X112245000Y-65835000D01*
X112245000Y-65835000D02*
X112290000Y-65880000D01*
%TO.N,Net-(Q2-G)*%
X122430000Y-65880000D02*
X122320000Y-65990000D01*
X122430000Y-64500000D02*
X122430000Y-65880000D01*
%TO.N,Net-(Q3-G)*%
X132500000Y-65800000D02*
X132360000Y-65940000D01*
X132500000Y-64540000D02*
X132500000Y-65800000D01*
%TO.N,Net-(Q4-G)*%
X142370000Y-66260000D02*
X142340000Y-66290000D01*
X142370000Y-64460000D02*
X142370000Y-66260000D01*
%TO.N,Net-(Q5-G)*%
X152710000Y-66110000D02*
X152660000Y-66160000D01*
X152710000Y-64520000D02*
X152710000Y-66110000D01*
D34*
%TO.N,IO4*%
X157480000Y-93510000D02*
X161390000Y-93510000D01*
X112290000Y-67880000D02*
X112290000Y-69790000D01*
X161390000Y-93510000D02*
X164320000Y-96440000D01*
X110950000Y-99210000D02*
X151780000Y-99210000D01*
X104330000Y-77750000D02*
X104330000Y-92590000D01*
X151780000Y-99210000D02*
X157480000Y-93510000D01*
X104330000Y-92590000D02*
X110950000Y-99210000D01*
X112230000Y-67820000D02*
X112290000Y-67880000D01*
X112290000Y-69790000D02*
X104330000Y-77750000D01*
X164320000Y-96440000D02*
X164420000Y-96440000D01*
X109700000Y-67820000D02*
X112230000Y-67820000D01*
%TO.N,IO5*%
X122320000Y-67990000D02*
X116360000Y-67990000D01*
X119746479Y-68085107D02*
X122276479Y-68085107D01*
X111450000Y-98540000D02*
X151010000Y-98540000D01*
X151010000Y-98540000D02*
X156720000Y-92830000D01*
X116360000Y-67990000D02*
X105620000Y-78730000D01*
X170050000Y-93940000D02*
X170420000Y-94310000D01*
X163590000Y-93940000D02*
X170050000Y-93940000D01*
X105620000Y-78730000D02*
X105620000Y-92710000D01*
X170420000Y-94310000D02*
X170420000Y-96440000D01*
X162480000Y-92830000D02*
X163590000Y-93940000D01*
X156720000Y-92830000D02*
X162480000Y-92830000D01*
X105620000Y-92710000D02*
X111450000Y-98540000D01*
%TO.N,IO12*%
X129910000Y-68010000D02*
X129930000Y-67990000D01*
X139420000Y-73030000D02*
X155170000Y-73060000D01*
X132360000Y-67940000D02*
X134330000Y-67940000D01*
X129930000Y-67990000D02*
X129950000Y-68010000D01*
X137870000Y-71480000D02*
X139420000Y-73030000D01*
X129895000Y-68010000D02*
X129910000Y-68010000D01*
X155170000Y-73060000D02*
X155170000Y-73030000D01*
X134330000Y-67940000D02*
X137870000Y-71480000D01*
X129950000Y-68010000D02*
X132425000Y-68010000D01*
%TO.N,IO13*%
X147390000Y-71150000D02*
X155150000Y-71150000D01*
X139765000Y-68210000D02*
X139790000Y-68210000D01*
X139790000Y-68210000D02*
X139820000Y-68240000D01*
X144530000Y-68290000D02*
X146480000Y-70240000D01*
X146480000Y-70240000D02*
X147390000Y-71150000D01*
X139850000Y-68210000D02*
X142295000Y-68210000D01*
X139820000Y-68240000D02*
X139850000Y-68210000D01*
X142340000Y-68290000D02*
X144530000Y-68290000D01*
X155150000Y-71150000D02*
X155120000Y-71150000D01*
%TO.N,IO14*%
X155410000Y-69160000D02*
X155430000Y-69180000D01*
X150075000Y-68170000D02*
X150090000Y-68190000D01*
X152660000Y-68160000D02*
X154410000Y-68160000D01*
X150090000Y-68190000D02*
X152605000Y-68170000D01*
X154410000Y-68160000D02*
X155410000Y-69160000D01*
%TO.N,Net-(D3-A)*%
X162790000Y-91520000D02*
X162330000Y-91520000D01*
X162330000Y-91520000D02*
X162300000Y-91550000D01*
X164460000Y-93190000D02*
X162790000Y-91520000D01*
X162300000Y-91550000D02*
X162270000Y-91520000D01*
X171810000Y-93190000D02*
X164460000Y-93190000D01*
X162270000Y-91520000D02*
X162240000Y-91520000D01*
%TO.N,IO15*%
X168730000Y-78690000D02*
X168880000Y-78540000D01*
X168730000Y-81530000D02*
X168730000Y-78690000D01*
%TO.N,IO2*%
X167380000Y-79850000D02*
X167380000Y-78540000D01*
X167260000Y-79970000D02*
X167380000Y-79850000D01*
X167260000Y-84170000D02*
X167260000Y-79970000D01*
X166260000Y-85170000D02*
X167260000Y-84170000D01*
X166260000Y-87130000D02*
X166260000Y-85170000D01*
%TO.N,IO16*%
X174920000Y-94300000D02*
X174920000Y-96440000D01*
X173810000Y-93190000D02*
X174920000Y-94300000D01*
%TD*%
%TA.AperFunction,Conductor*%
%TO.N,GND*%
G36*
X111584689Y-64140185D02*
G01*
X111630444Y-64192989D01*
X111640388Y-64262147D01*
X111620752Y-64313391D01*
X111535609Y-64440814D01*
X111535602Y-64440827D01*
X111475264Y-64586498D01*
X111475261Y-64586510D01*
X111444500Y-64741153D01*
X111444500Y-64822958D01*
X111424815Y-64889997D01*
X111385597Y-64928496D01*
X111371347Y-64937285D01*
X111371343Y-64937288D01*
X111247289Y-65061342D01*
X111155187Y-65210663D01*
X111155185Y-65210668D01*
X111152991Y-65217289D01*
X111100001Y-65377203D01*
X111100001Y-65377204D01*
X111100000Y-65377204D01*
X111089500Y-65479983D01*
X111089500Y-66280001D01*
X111089501Y-66280019D01*
X111100000Y-66382796D01*
X111100001Y-66382799D01*
X111155185Y-66549331D01*
X111155187Y-66549336D01*
X111190069Y-66605888D01*
X111243052Y-66691789D01*
X111247289Y-66698657D01*
X111340951Y-66792319D01*
X111374436Y-66853642D01*
X111369452Y-66923334D01*
X111340951Y-66967681D01*
X111247288Y-67061343D01*
X111242807Y-67067011D01*
X111241642Y-67066089D01*
X111195797Y-67107323D01*
X111142210Y-67119500D01*
X109991476Y-67119500D01*
X109950521Y-67112541D01*
X109868060Y-67083686D01*
X109700003Y-67064751D01*
X109699997Y-67064751D01*
X109531943Y-67083685D01*
X109372305Y-67139545D01*
X109372302Y-67139547D01*
X109229115Y-67229518D01*
X109229109Y-67229523D01*
X109109523Y-67349109D01*
X109109518Y-67349115D01*
X109019547Y-67492302D01*
X109019545Y-67492305D01*
X108963685Y-67651943D01*
X108944751Y-67819997D01*
X108944751Y-67820002D01*
X108963685Y-67988056D01*
X109019545Y-68147694D01*
X109019547Y-68147697D01*
X109109518Y-68290884D01*
X109109523Y-68290890D01*
X109229109Y-68410476D01*
X109229115Y-68410481D01*
X109372302Y-68500452D01*
X109372305Y-68500454D01*
X109372309Y-68500455D01*
X109372310Y-68500456D01*
X109421562Y-68517690D01*
X109531943Y-68556314D01*
X109699997Y-68575249D01*
X109700000Y-68575249D01*
X109700003Y-68575249D01*
X109868059Y-68556313D01*
X109868061Y-68556313D01*
X109950521Y-68527459D01*
X109991476Y-68520500D01*
X111068194Y-68520500D01*
X111135233Y-68540185D01*
X111173731Y-68579401D01*
X111247288Y-68698656D01*
X111371344Y-68822712D01*
X111520666Y-68914814D01*
X111520667Y-68914814D01*
X111526813Y-68918605D01*
X111525706Y-68920399D01*
X111570337Y-68959687D01*
X111589500Y-69025908D01*
X111589500Y-69448480D01*
X111569815Y-69515519D01*
X111553181Y-69536161D01*
X103785888Y-77303453D01*
X103785887Y-77303454D01*
X103709223Y-77418192D01*
X103696153Y-77449745D01*
X103652311Y-77504147D01*
X103586017Y-77526211D01*
X103518318Y-77508931D01*
X103470708Y-77457793D01*
X103465411Y-77445622D01*
X103443798Y-77387673D01*
X103443793Y-77387664D01*
X103357547Y-77272455D01*
X103357544Y-77272452D01*
X103242335Y-77186206D01*
X103242328Y-77186202D01*
X103107482Y-77135908D01*
X103107483Y-77135908D01*
X103047883Y-77129501D01*
X103047881Y-77129500D01*
X103047873Y-77129500D01*
X103047864Y-77129500D01*
X101952129Y-77129500D01*
X101952123Y-77129501D01*
X101892516Y-77135908D01*
X101757671Y-77186202D01*
X101757664Y-77186206D01*
X101642455Y-77272452D01*
X101642452Y-77272455D01*
X101556206Y-77387664D01*
X101556202Y-77387671D01*
X101505908Y-77522517D01*
X101499501Y-77582116D01*
X101499500Y-77582135D01*
X101499500Y-78677870D01*
X101499501Y-78677876D01*
X101505908Y-78737483D01*
X101556202Y-78872328D01*
X101556204Y-78872331D01*
X101562231Y-78880382D01*
X101586648Y-78945846D01*
X101573105Y-79009470D01*
X101573518Y-79009641D01*
X101572595Y-79011869D01*
X101572324Y-79013143D01*
X101571188Y-79015267D01*
X101571186Y-79015272D01*
X101571186Y-79015273D01*
X101554124Y-79071519D01*
X101513975Y-79203870D01*
X101494659Y-79400000D01*
X101513975Y-79596129D01*
X101513976Y-79596132D01*
X101569600Y-79779500D01*
X101571188Y-79784733D01*
X101664086Y-79958532D01*
X101667473Y-79963601D01*
X101665836Y-79964694D01*
X101689596Y-80020663D01*
X101677795Y-80089529D01*
X101667109Y-80106156D01*
X101667473Y-80106399D01*
X101664086Y-80111467D01*
X101571188Y-80285266D01*
X101513975Y-80473870D01*
X101494659Y-80670000D01*
X101513975Y-80866129D01*
X101513976Y-80866132D01*
X101543498Y-80963454D01*
X101571188Y-81054733D01*
X101664086Y-81228532D01*
X101667473Y-81233601D01*
X101665836Y-81234694D01*
X101689596Y-81290663D01*
X101677795Y-81359529D01*
X101667109Y-81376156D01*
X101667473Y-81376399D01*
X101664086Y-81381467D01*
X101571188Y-81555266D01*
X101513975Y-81743870D01*
X101494659Y-81940000D01*
X101513975Y-82136129D01*
X101513976Y-82136132D01*
X101556950Y-82277799D01*
X101571188Y-82324733D01*
X101664086Y-82498532D01*
X101664090Y-82498539D01*
X101789116Y-82650883D01*
X101941460Y-82775909D01*
X101941467Y-82775913D01*
X102115266Y-82868811D01*
X102115269Y-82868811D01*
X102115273Y-82868814D01*
X102303868Y-82926024D01*
X102500000Y-82945341D01*
X102696132Y-82926024D01*
X102884727Y-82868814D01*
X103058538Y-82775910D01*
X103210883Y-82650883D01*
X103335910Y-82498538D01*
X103366130Y-82442000D01*
X103396142Y-82385853D01*
X103445104Y-82336009D01*
X103513242Y-82320548D01*
X103578921Y-82344379D01*
X103621290Y-82399937D01*
X103629500Y-82444306D01*
X103629500Y-92521006D01*
X103629500Y-92658994D01*
X103629500Y-92658996D01*
X103629499Y-92658996D01*
X103656418Y-92794322D01*
X103656421Y-92794332D01*
X103709222Y-92921807D01*
X103785887Y-93036545D01*
X103785888Y-93036546D01*
X109977162Y-99227819D01*
X110010647Y-99289142D01*
X110005663Y-99358834D01*
X109963791Y-99414767D01*
X109898327Y-99439184D01*
X109889481Y-99439500D01*
X104618329Y-99439500D01*
X104551290Y-99419815D01*
X104505535Y-99367011D01*
X104495591Y-99297853D01*
X104524616Y-99234297D01*
X104570876Y-99200939D01*
X104615806Y-99182328D01*
X104710212Y-99143224D01*
X104920289Y-99021936D01*
X105112738Y-98874265D01*
X105284265Y-98702738D01*
X105431936Y-98510289D01*
X105553224Y-98300212D01*
X105646054Y-98076100D01*
X105708838Y-97841789D01*
X105740500Y-97601288D01*
X105740500Y-97358712D01*
X105708838Y-97118211D01*
X105646054Y-96883900D01*
X105553224Y-96659788D01*
X105431936Y-96449711D01*
X105284265Y-96257262D01*
X105284260Y-96257256D01*
X105112743Y-96085739D01*
X105112736Y-96085733D01*
X104920293Y-95938067D01*
X104920292Y-95938066D01*
X104920289Y-95938064D01*
X104713924Y-95818919D01*
X104710214Y-95816777D01*
X104710205Y-95816773D01*
X104486104Y-95723947D01*
X104251785Y-95661161D01*
X104011289Y-95629500D01*
X104011288Y-95629500D01*
X103768712Y-95629500D01*
X103768711Y-95629500D01*
X103528214Y-95661161D01*
X103293895Y-95723947D01*
X103069794Y-95816773D01*
X103069785Y-95816777D01*
X102859706Y-95938067D01*
X102667263Y-96085733D01*
X102667256Y-96085739D01*
X102495739Y-96257256D01*
X102495733Y-96257263D01*
X102348067Y-96449706D01*
X102226777Y-96659785D01*
X102226773Y-96659794D01*
X102133947Y-96883895D01*
X102071161Y-97118214D01*
X102039500Y-97358711D01*
X102039500Y-97601288D01*
X102071161Y-97841785D01*
X102133947Y-98076104D01*
X102210207Y-98260212D01*
X102226776Y-98300212D01*
X102348064Y-98510289D01*
X102348066Y-98510292D01*
X102348067Y-98510293D01*
X102495733Y-98702736D01*
X102495739Y-98702743D01*
X102667256Y-98874260D01*
X102667262Y-98874265D01*
X102859711Y-99021936D01*
X103069788Y-99143224D01*
X103157915Y-99179727D01*
X103209124Y-99200939D01*
X103263527Y-99244780D01*
X103285592Y-99311074D01*
X103268313Y-99378773D01*
X103217176Y-99426384D01*
X103161671Y-99439500D01*
X101204500Y-99439500D01*
X101137461Y-99419815D01*
X101091706Y-99367011D01*
X101080500Y-99315500D01*
X101080500Y-66218711D01*
X101339500Y-66218711D01*
X101339500Y-66461288D01*
X101371161Y-66701785D01*
X101433947Y-66936104D01*
X101510676Y-67121344D01*
X101526776Y-67160212D01*
X101648064Y-67370289D01*
X101648066Y-67370292D01*
X101648067Y-67370293D01*
X101795733Y-67562736D01*
X101795739Y-67562743D01*
X101967256Y-67734260D01*
X101967263Y-67734266D01*
X101982407Y-67745886D01*
X102159711Y-67881936D01*
X102369788Y-68003224D01*
X102593900Y-68096054D01*
X102828211Y-68158838D01*
X102992753Y-68180500D01*
X103068711Y-68190500D01*
X103068712Y-68190500D01*
X103311289Y-68190500D01*
X103359388Y-68184167D01*
X103551789Y-68158838D01*
X103786100Y-68096054D01*
X104010212Y-68003224D01*
X104220289Y-67881936D01*
X104412738Y-67734265D01*
X104584265Y-67562738D01*
X104731936Y-67370289D01*
X104853224Y-67160212D01*
X104946054Y-66936100D01*
X105008838Y-66701789D01*
X105040500Y-66461288D01*
X105040500Y-66218712D01*
X105039183Y-66208712D01*
X105025048Y-66101342D01*
X105008838Y-65978211D01*
X104946054Y-65743900D01*
X104853224Y-65519788D01*
X104731936Y-65309711D01*
X104661018Y-65217289D01*
X104584266Y-65117263D01*
X104584260Y-65117256D01*
X104412743Y-64945739D01*
X104412736Y-64945733D01*
X104220293Y-64798067D01*
X104220292Y-64798066D01*
X104220289Y-64798064D01*
X104010212Y-64676776D01*
X104010205Y-64676773D01*
X103786104Y-64583947D01*
X103551785Y-64521161D01*
X103311289Y-64489500D01*
X103311288Y-64489500D01*
X103068712Y-64489500D01*
X103068711Y-64489500D01*
X102828214Y-64521161D01*
X102593895Y-64583947D01*
X102369794Y-64676773D01*
X102369785Y-64676777D01*
X102159706Y-64798067D01*
X101967263Y-64945733D01*
X101967256Y-64945739D01*
X101795739Y-65117256D01*
X101795733Y-65117263D01*
X101648067Y-65309706D01*
X101526777Y-65519785D01*
X101526773Y-65519794D01*
X101433947Y-65743895D01*
X101371161Y-65978214D01*
X101339500Y-66218711D01*
X101080500Y-66218711D01*
X101080500Y-64244500D01*
X101100185Y-64177461D01*
X101152989Y-64131706D01*
X101204500Y-64120500D01*
X111517650Y-64120500D01*
X111584689Y-64140185D01*
G37*
%TD.AperFunction*%
%TA.AperFunction,Conductor*%
G36*
X169662539Y-94660185D02*
G01*
X169708294Y-94712989D01*
X169719500Y-94764500D01*
X169719500Y-95184572D01*
X169699815Y-95251611D01*
X169683181Y-95272253D01*
X169662282Y-95293151D01*
X169662279Y-95293155D01*
X169555521Y-95452929D01*
X169555520Y-95452931D01*
X169481989Y-95630452D01*
X169481986Y-95630464D01*
X169444500Y-95818917D01*
X169444500Y-97061082D01*
X169481986Y-97249535D01*
X169481989Y-97249547D01*
X169515654Y-97330822D01*
X169523123Y-97400291D01*
X169517275Y-97421607D01*
X169475908Y-97532517D01*
X169470500Y-97582826D01*
X169469501Y-97592123D01*
X169469500Y-97592135D01*
X169469500Y-98987870D01*
X169469501Y-98987876D01*
X169475908Y-99047483D01*
X169526202Y-99182328D01*
X169526204Y-99182331D01*
X169570265Y-99241189D01*
X169594683Y-99306652D01*
X169579832Y-99374925D01*
X169530427Y-99424331D01*
X169470999Y-99439500D01*
X168369001Y-99439500D01*
X168301962Y-99419815D01*
X168256207Y-99367011D01*
X168246263Y-99297853D01*
X168269734Y-99241189D01*
X168313796Y-99182331D01*
X168364091Y-99047483D01*
X168370500Y-98987873D01*
X168370499Y-97592128D01*
X168364091Y-97532517D01*
X168344744Y-97480646D01*
X168322724Y-97421606D01*
X168317740Y-97351914D01*
X168324342Y-97330828D01*
X168358012Y-97249543D01*
X168395500Y-97061078D01*
X168395500Y-95818922D01*
X168395500Y-95818919D01*
X168395499Y-95818917D01*
X168387116Y-95776773D01*
X168358012Y-95630457D01*
X168354162Y-95621162D01*
X168284479Y-95452931D01*
X168284478Y-95452929D01*
X168264344Y-95422797D01*
X168177720Y-95293155D01*
X168177717Y-95293151D01*
X168041848Y-95157282D01*
X168041844Y-95157279D01*
X167882070Y-95050521D01*
X167882068Y-95050520D01*
X167704547Y-94976989D01*
X167704535Y-94976986D01*
X167516081Y-94939500D01*
X167516078Y-94939500D01*
X167323922Y-94939500D01*
X167323919Y-94939500D01*
X167135464Y-94976986D01*
X167135452Y-94976989D01*
X166957931Y-95050520D01*
X166957929Y-95050521D01*
X166798155Y-95157279D01*
X166798151Y-95157282D01*
X166757681Y-95197753D01*
X166696358Y-95231238D01*
X166626666Y-95226254D01*
X166582319Y-95197753D01*
X166541848Y-95157282D01*
X166541844Y-95157279D01*
X166382070Y-95050521D01*
X166382068Y-95050520D01*
X166204547Y-94976989D01*
X166204535Y-94976986D01*
X166016081Y-94939500D01*
X166016078Y-94939500D01*
X165823922Y-94939500D01*
X165823919Y-94939500D01*
X165635464Y-94976986D01*
X165635452Y-94976989D01*
X165457931Y-95050520D01*
X165457929Y-95050521D01*
X165298155Y-95157279D01*
X165298151Y-95157282D01*
X165257681Y-95197753D01*
X165196358Y-95231238D01*
X165126666Y-95226254D01*
X165082319Y-95197753D01*
X165041848Y-95157282D01*
X165041844Y-95157279D01*
X164882070Y-95050521D01*
X164882068Y-95050520D01*
X164704547Y-94976989D01*
X164704535Y-94976986D01*
X164516081Y-94939500D01*
X164516078Y-94939500D01*
X164323922Y-94939500D01*
X164323919Y-94939500D01*
X164135464Y-94976986D01*
X164135452Y-94976989D01*
X164008489Y-95029579D01*
X163939020Y-95037048D01*
X163876541Y-95005773D01*
X163873356Y-95002699D01*
X163722838Y-94852181D01*
X163689353Y-94790858D01*
X163694337Y-94721166D01*
X163736209Y-94665233D01*
X163801673Y-94640816D01*
X163810519Y-94640500D01*
X169595500Y-94640500D01*
X169662539Y-94660185D01*
G37*
%TD.AperFunction*%
%TA.AperFunction,Conductor*%
G36*
X177164659Y-80821498D02*
G01*
X177201379Y-80880941D01*
X177205797Y-80913654D01*
X177219541Y-99315407D01*
X177199906Y-99382462D01*
X177147137Y-99428256D01*
X177095541Y-99439500D01*
X175869001Y-99439500D01*
X175801962Y-99419815D01*
X175756207Y-99367011D01*
X175746263Y-99297853D01*
X175769734Y-99241189D01*
X175813796Y-99182331D01*
X175864091Y-99047483D01*
X175870500Y-98987873D01*
X175870499Y-97592128D01*
X175864091Y-97532517D01*
X175844744Y-97480646D01*
X175822724Y-97421606D01*
X175817740Y-97351914D01*
X175824342Y-97330828D01*
X175858012Y-97249543D01*
X175895500Y-97061078D01*
X175895500Y-95818922D01*
X175895500Y-95818919D01*
X175895499Y-95818917D01*
X175887116Y-95776773D01*
X175858012Y-95630457D01*
X175854162Y-95621162D01*
X175784479Y-95452931D01*
X175784478Y-95452929D01*
X175764344Y-95422797D01*
X175677720Y-95293155D01*
X175677717Y-95293151D01*
X175656819Y-95272253D01*
X175623334Y-95210930D01*
X175620500Y-95184572D01*
X175620500Y-94231008D01*
X175620500Y-94231007D01*
X175620367Y-94230340D01*
X175620336Y-94230185D01*
X175600091Y-94128405D01*
X175593580Y-94095672D01*
X175585167Y-94075360D01*
X175540777Y-93968192D01*
X175464112Y-93853454D01*
X174946818Y-93336160D01*
X174913333Y-93274837D01*
X174910499Y-93248479D01*
X174910499Y-92689998D01*
X174910498Y-92689981D01*
X174899999Y-92587203D01*
X174899998Y-92587200D01*
X174890615Y-92558884D01*
X174844814Y-92420666D01*
X174752712Y-92271344D01*
X174628656Y-92147288D01*
X174516109Y-92077869D01*
X174479336Y-92055187D01*
X174479331Y-92055185D01*
X174477862Y-92054698D01*
X174312797Y-92000001D01*
X174312795Y-92000000D01*
X174243326Y-91992903D01*
X174178635Y-91966506D01*
X174138484Y-91909325D01*
X174135622Y-91839514D01*
X174141369Y-91822092D01*
X174173580Y-91744329D01*
X174181204Y-91706001D01*
X174184933Y-91687254D01*
X174184933Y-91687251D01*
X174200500Y-91608993D01*
X174200500Y-87621518D01*
X174220185Y-87554479D01*
X174236815Y-87533841D01*
X174394463Y-87376192D01*
X174455786Y-87342708D01*
X174525478Y-87347692D01*
X174569825Y-87376193D01*
X174576344Y-87382712D01*
X174725666Y-87474814D01*
X174892203Y-87529999D01*
X174994991Y-87540500D01*
X176045008Y-87540499D01*
X176045016Y-87540498D01*
X176045019Y-87540498D01*
X176110225Y-87533837D01*
X176147797Y-87529999D01*
X176314334Y-87474814D01*
X176463656Y-87382712D01*
X176587712Y-87258656D01*
X176679814Y-87109334D01*
X176734999Y-86942797D01*
X176745500Y-86840009D01*
X176745499Y-86064992D01*
X176734999Y-85962203D01*
X176679814Y-85795666D01*
X176587712Y-85646344D01*
X176463656Y-85522288D01*
X176314334Y-85430186D01*
X176314333Y-85430185D01*
X176314332Y-85430185D01*
X176305493Y-85427256D01*
X176248049Y-85387482D01*
X176221228Y-85322965D01*
X176220500Y-85309551D01*
X176220500Y-84380309D01*
X176240185Y-84313270D01*
X176279401Y-84274772D01*
X176428656Y-84182712D01*
X176552712Y-84058656D01*
X176644814Y-83909334D01*
X176699999Y-83742797D01*
X176710500Y-83640009D01*
X176710499Y-82639992D01*
X176709529Y-82630500D01*
X176699999Y-82537203D01*
X176699998Y-82537200D01*
X176682920Y-82485663D01*
X176644814Y-82370666D01*
X176552712Y-82221344D01*
X176428656Y-82097288D01*
X176428655Y-82097287D01*
X176369402Y-82060739D01*
X176322678Y-82008791D01*
X176310500Y-81955201D01*
X176310500Y-81574566D01*
X176330185Y-81507527D01*
X176365609Y-81471464D01*
X176406543Y-81444114D01*
X176924114Y-80926543D01*
X176978695Y-80844856D01*
X177032306Y-80800052D01*
X177101631Y-80791344D01*
X177164659Y-80821498D01*
G37*
%TD.AperFunction*%
%TA.AperFunction,Conductor*%
G36*
X159176690Y-74164746D02*
G01*
X159177544Y-74163412D01*
X159183207Y-74167032D01*
X159353802Y-74251639D01*
X159353803Y-74251639D01*
X159353807Y-74251641D01*
X159538611Y-74297600D01*
X159581377Y-74300500D01*
X159668480Y-74300499D01*
X159735518Y-74320183D01*
X159756161Y-74336818D01*
X160883453Y-75464111D01*
X160883454Y-75464112D01*
X160998192Y-75540777D01*
X161125667Y-75593578D01*
X161125672Y-75593580D01*
X161125676Y-75593580D01*
X161125677Y-75593581D01*
X161261003Y-75620500D01*
X161261006Y-75620500D01*
X161261007Y-75620500D01*
X162567102Y-75620500D01*
X162608056Y-75627458D01*
X162661941Y-75646313D01*
X162661942Y-75646313D01*
X162661945Y-75646314D01*
X162829997Y-75665249D01*
X162830000Y-75665249D01*
X162830003Y-75665249D01*
X162998054Y-75646314D01*
X162998055Y-75646313D01*
X162998059Y-75646313D01*
X163051944Y-75627458D01*
X163092898Y-75620500D01*
X164873954Y-75620500D01*
X164940993Y-75640185D01*
X164986748Y-75692989D01*
X164996692Y-75762147D01*
X164987820Y-75788806D01*
X164989303Y-75789359D01*
X164935908Y-75932517D01*
X164929501Y-75992116D01*
X164929500Y-75992135D01*
X164929500Y-77387870D01*
X164929501Y-77387876D01*
X164935908Y-77447483D01*
X164977275Y-77558392D01*
X164982259Y-77628084D01*
X164975655Y-77649176D01*
X164941987Y-77730460D01*
X164941985Y-77730464D01*
X164904500Y-77918917D01*
X164904500Y-79161082D01*
X164941986Y-79349535D01*
X164941989Y-79349547D01*
X165015520Y-79527068D01*
X165015521Y-79527070D01*
X165122278Y-79686843D01*
X165122279Y-79686844D01*
X165122280Y-79686845D01*
X165143181Y-79707746D01*
X165176666Y-79769067D01*
X165179500Y-79795427D01*
X165179500Y-80471042D01*
X165159815Y-80538081D01*
X165120598Y-80576580D01*
X165111344Y-80582287D01*
X164987289Y-80706342D01*
X164895187Y-80855663D01*
X164895185Y-80855668D01*
X164883696Y-80890339D01*
X164840001Y-81022203D01*
X164840001Y-81022204D01*
X164840000Y-81022204D01*
X164829500Y-81124983D01*
X164829500Y-82175001D01*
X164829501Y-82175019D01*
X164840000Y-82277796D01*
X164840001Y-82277799D01*
X164895185Y-82444331D01*
X164895187Y-82444336D01*
X164917541Y-82480578D01*
X164987288Y-82593656D01*
X165111344Y-82717712D01*
X165158096Y-82746548D01*
X165204820Y-82798494D01*
X165217000Y-82852087D01*
X165217000Y-83028000D01*
X165197315Y-83095039D01*
X165144511Y-83140794D01*
X165093000Y-83152000D01*
X163048503Y-83152000D01*
X162940090Y-83173565D01*
X162940089Y-83173565D01*
X162913171Y-83178920D01*
X162785689Y-83231724D01*
X162670957Y-83308385D01*
X162670953Y-83308389D01*
X162570707Y-83408633D01*
X162523983Y-83437992D01*
X162420476Y-83474211D01*
X162420475Y-83474212D01*
X162267737Y-83570184D01*
X162140184Y-83697737D01*
X162044211Y-83850476D01*
X161984631Y-84020745D01*
X161984630Y-84020750D01*
X161964435Y-84199996D01*
X161964435Y-84200003D01*
X161984630Y-84379249D01*
X161984631Y-84379254D01*
X162044211Y-84549523D01*
X162095783Y-84631599D01*
X162140184Y-84702262D01*
X162267738Y-84829816D01*
X162420478Y-84925789D01*
X162523986Y-84962008D01*
X162570712Y-84991369D01*
X162654014Y-85074671D01*
X162687499Y-85135994D01*
X162682515Y-85205686D01*
X162640643Y-85261619D01*
X162631430Y-85267891D01*
X162551342Y-85317289D01*
X162427289Y-85441342D01*
X162335187Y-85590663D01*
X162335185Y-85590668D01*
X162322121Y-85630092D01*
X162280001Y-85757203D01*
X162280001Y-85757204D01*
X162280000Y-85757204D01*
X162269500Y-85859983D01*
X162269500Y-86660001D01*
X162269501Y-86660019D01*
X162280000Y-86762796D01*
X162280001Y-86762799D01*
X162335185Y-86929331D01*
X162335187Y-86929336D01*
X162370069Y-86985888D01*
X162425447Y-87075672D01*
X162427289Y-87078657D01*
X162520951Y-87172319D01*
X162554436Y-87233642D01*
X162549452Y-87303334D01*
X162520951Y-87347681D01*
X162427289Y-87441342D01*
X162335187Y-87590663D01*
X162335185Y-87590668D01*
X162321226Y-87632795D01*
X162280001Y-87757203D01*
X162280001Y-87757204D01*
X162280000Y-87757204D01*
X162269500Y-87859983D01*
X162269500Y-88660001D01*
X162269501Y-88660019D01*
X162280000Y-88762796D01*
X162280001Y-88762799D01*
X162335185Y-88929331D01*
X162335187Y-88929336D01*
X162353487Y-88959005D01*
X162427288Y-89078656D01*
X162551344Y-89202712D01*
X162700666Y-89294814D01*
X162700667Y-89294814D01*
X162706813Y-89298605D01*
X162705706Y-89300399D01*
X162750337Y-89339687D01*
X162769500Y-89405908D01*
X162769500Y-90071006D01*
X162769500Y-90208994D01*
X162769500Y-90208996D01*
X162769499Y-90208996D01*
X162796418Y-90344322D01*
X162796421Y-90344332D01*
X162849222Y-90471807D01*
X162925887Y-90586545D01*
X162947161Y-90607819D01*
X162980646Y-90669142D01*
X162975662Y-90738834D01*
X162933790Y-90794767D01*
X162868326Y-90819184D01*
X162859480Y-90819500D01*
X162505741Y-90819500D01*
X162475064Y-90814287D01*
X162474848Y-90815236D01*
X162468058Y-90813686D01*
X162300003Y-90794751D01*
X162299997Y-90794751D01*
X162131941Y-90813686D01*
X162050188Y-90842292D01*
X162041092Y-90844775D01*
X162035668Y-90846421D01*
X162024062Y-90851227D01*
X162017586Y-90853699D01*
X161972313Y-90869542D01*
X161972306Y-90869546D01*
X161966581Y-90873143D01*
X161948073Y-90882703D01*
X161908192Y-90899222D01*
X161908186Y-90899226D01*
X161793462Y-90975882D01*
X161793454Y-90975888D01*
X161695888Y-91073454D01*
X161695885Y-91073458D01*
X161619228Y-91188182D01*
X161619221Y-91188195D01*
X161566421Y-91315667D01*
X161566418Y-91315677D01*
X161539500Y-91451004D01*
X161539500Y-91588997D01*
X161560725Y-91695703D01*
X161562327Y-91706001D01*
X161563686Y-91718054D01*
X161563687Y-91718059D01*
X161572880Y-91744331D01*
X161619544Y-91877692D01*
X161658399Y-91939527D01*
X161677400Y-92006764D01*
X161657033Y-92073599D01*
X161603765Y-92118813D01*
X161553406Y-92129500D01*
X156651005Y-92129500D01*
X156587991Y-92142034D01*
X156556484Y-92148302D01*
X156515671Y-92156420D01*
X156515669Y-92156420D01*
X156515668Y-92156421D01*
X156515660Y-92156423D01*
X156462865Y-92178292D01*
X156388191Y-92209223D01*
X156351739Y-92233580D01*
X156293745Y-92272331D01*
X156288705Y-92275698D01*
X156273454Y-92285888D01*
X151112181Y-97447161D01*
X151050858Y-97480646D01*
X150981166Y-97475662D01*
X150925233Y-97433790D01*
X150900816Y-97368326D01*
X150900500Y-97359480D01*
X150900500Y-97191577D01*
X150869709Y-96997173D01*
X150808882Y-96809970D01*
X150719523Y-96634594D01*
X150603828Y-96475354D01*
X150464646Y-96336172D01*
X150311380Y-96224817D01*
X150268716Y-96169488D01*
X150262737Y-96099874D01*
X150295343Y-96038079D01*
X150356182Y-96003722D01*
X150384267Y-96000500D01*
X150724162Y-96000500D01*
X150949660Y-95964784D01*
X150980344Y-95954814D01*
X151166799Y-95894231D01*
X151370228Y-95790579D01*
X151554937Y-95656379D01*
X151716379Y-95494937D01*
X151850579Y-95310228D01*
X151954231Y-95106799D01*
X152024784Y-94889660D01*
X152040433Y-94790858D01*
X152060500Y-94664162D01*
X152060500Y-94435837D01*
X152024784Y-94210339D01*
X151980926Y-94075360D01*
X151954231Y-93993201D01*
X151954229Y-93993198D01*
X151954229Y-93993196D01*
X151883028Y-93853457D01*
X151850579Y-93789772D01*
X151716379Y-93605063D01*
X151554937Y-93443621D01*
X151370228Y-93309421D01*
X151351428Y-93299842D01*
X151166803Y-93205770D01*
X150949660Y-93135215D01*
X150724162Y-93099500D01*
X150724157Y-93099500D01*
X149495843Y-93099500D01*
X149495838Y-93099500D01*
X149270339Y-93135215D01*
X149053196Y-93205770D01*
X148849771Y-93309421D01*
X148665061Y-93443622D01*
X148503622Y-93605061D01*
X148369421Y-93789771D01*
X148265770Y-93993196D01*
X148195215Y-94210339D01*
X148159500Y-94435837D01*
X148159500Y-94664162D01*
X148195215Y-94889660D01*
X148265770Y-95106803D01*
X148344637Y-95261587D01*
X148369421Y-95310228D01*
X148503621Y-95494937D01*
X148665063Y-95656379D01*
X148758060Y-95723946D01*
X148849773Y-95790580D01*
X148878104Y-95805015D01*
X148928900Y-95852989D01*
X148945696Y-95920810D01*
X148923159Y-95986945D01*
X148868444Y-96030397D01*
X148821810Y-96039500D01*
X146801230Y-96039500D01*
X146734191Y-96019815D01*
X146688436Y-95967011D01*
X146678492Y-95897853D01*
X146707517Y-95834297D01*
X146713549Y-95827819D01*
X146730789Y-95810579D01*
X146752712Y-95788656D01*
X146844814Y-95639334D01*
X146899999Y-95472797D01*
X146910500Y-95370009D01*
X146910499Y-95261584D01*
X146916569Y-95223263D01*
X146916570Y-95223261D01*
X146929709Y-95182826D01*
X146946504Y-95076784D01*
X146960500Y-94988422D01*
X146960500Y-94791577D01*
X146936571Y-94640500D01*
X146929709Y-94597174D01*
X146929708Y-94597170D01*
X146929708Y-94597169D01*
X146867379Y-94405342D01*
X146868440Y-94404997D01*
X146860500Y-94365068D01*
X146860500Y-92654268D01*
X146880185Y-92587229D01*
X146932989Y-92541474D01*
X146988805Y-92530896D01*
X146988805Y-92530500D01*
X146990896Y-92530499D01*
X146991171Y-92530448D01*
X146992100Y-92530497D01*
X146992127Y-92530500D01*
X147165066Y-92530499D01*
X147204994Y-92538442D01*
X147205341Y-92537378D01*
X147209973Y-92538883D01*
X147209975Y-92538884D01*
X147276499Y-92560499D01*
X147397173Y-92599709D01*
X147591578Y-92630500D01*
X147591583Y-92630500D01*
X151958422Y-92630500D01*
X152152826Y-92599709D01*
X152191315Y-92587203D01*
X152340026Y-92538884D01*
X152340894Y-92538442D01*
X152355703Y-92530896D01*
X152515405Y-92449524D01*
X152674646Y-92333828D01*
X153756655Y-91251819D01*
X153817978Y-91218334D01*
X153844336Y-91215500D01*
X157828422Y-91215500D01*
X158022826Y-91184709D01*
X158210025Y-91123884D01*
X158385405Y-91034524D01*
X158425378Y-91005480D01*
X158459258Y-90988093D01*
X158499334Y-90974814D01*
X158648656Y-90882712D01*
X158772712Y-90758656D01*
X158864814Y-90609334D01*
X158919999Y-90442797D01*
X158930500Y-90340009D01*
X158930499Y-90336595D01*
X158936567Y-90298268D01*
X158949709Y-90257826D01*
X158952285Y-90241562D01*
X158980500Y-90063422D01*
X158980500Y-89866577D01*
X158949709Y-89672173D01*
X158936568Y-89631730D01*
X158930499Y-89593411D01*
X158930499Y-89589998D01*
X158930498Y-89589981D01*
X158919999Y-89487203D01*
X158919998Y-89487200D01*
X158887290Y-89388495D01*
X158864814Y-89320666D01*
X158772712Y-89171344D01*
X158648656Y-89047288D01*
X158645819Y-89045538D01*
X158644283Y-89043830D01*
X158642989Y-89042807D01*
X158643163Y-89042585D01*
X158599096Y-88993594D01*
X158587872Y-88924632D01*
X158615713Y-88860549D01*
X158645817Y-88834462D01*
X158648656Y-88832712D01*
X158772712Y-88708656D01*
X158864814Y-88559334D01*
X158919999Y-88392797D01*
X158930500Y-88290009D01*
X158930499Y-88286595D01*
X158936567Y-88248268D01*
X158949709Y-88207826D01*
X158961783Y-88131593D01*
X158980500Y-88013422D01*
X158980500Y-84511457D01*
X158982027Y-84492059D01*
X158983000Y-84485915D01*
X158983000Y-74264869D01*
X159002685Y-74197830D01*
X159055489Y-74152075D01*
X159124647Y-74142131D01*
X159176690Y-74164746D01*
G37*
%TD.AperFunction*%
%TA.AperFunction,Conductor*%
G36*
X131688768Y-64140185D02*
G01*
X131734523Y-64192989D01*
X131744467Y-64262147D01*
X131736290Y-64291953D01*
X131730263Y-64306502D01*
X131730261Y-64306510D01*
X131699500Y-64461153D01*
X131699500Y-64779580D01*
X131679815Y-64846619D01*
X131627011Y-64892374D01*
X131614507Y-64897285D01*
X131590667Y-64905185D01*
X131441342Y-64997289D01*
X131317289Y-65121342D01*
X131225187Y-65270663D01*
X131225185Y-65270668D01*
X131208617Y-65320668D01*
X131170001Y-65437203D01*
X131170001Y-65437204D01*
X131170000Y-65437204D01*
X131159500Y-65539983D01*
X131159500Y-66340001D01*
X131159501Y-66340019D01*
X131170000Y-66442796D01*
X131170001Y-66442799D01*
X131225185Y-66609331D01*
X131225186Y-66609334D01*
X131282212Y-66701789D01*
X131317289Y-66758657D01*
X131410951Y-66852319D01*
X131444436Y-66913642D01*
X131439452Y-66983334D01*
X131410951Y-67027681D01*
X131317289Y-67121342D01*
X131306060Y-67139547D01*
X131239364Y-67247681D01*
X131237565Y-67250597D01*
X131185617Y-67297321D01*
X131132026Y-67309500D01*
X130278633Y-67309500D01*
X130237678Y-67302541D01*
X130098060Y-67253686D01*
X129930003Y-67234751D01*
X129929997Y-67234751D01*
X129761943Y-67253685D01*
X129602305Y-67309545D01*
X129602302Y-67309547D01*
X129459115Y-67399518D01*
X129459109Y-67399523D01*
X129339523Y-67519109D01*
X129339518Y-67519115D01*
X129249547Y-67662302D01*
X129249545Y-67662305D01*
X129193685Y-67821943D01*
X129174751Y-67989997D01*
X129174751Y-67990002D01*
X129193685Y-68158056D01*
X129249545Y-68317694D01*
X129249547Y-68317697D01*
X129339518Y-68460884D01*
X129339523Y-68460890D01*
X129459109Y-68580476D01*
X129459115Y-68580481D01*
X129602302Y-68670452D01*
X129602305Y-68670454D01*
X129602309Y-68670455D01*
X129602310Y-68670456D01*
X129655635Y-68689115D01*
X129761943Y-68726314D01*
X129929997Y-68745249D01*
X129930000Y-68745249D01*
X129930003Y-68745249D01*
X130098055Y-68726314D01*
X130098057Y-68726313D01*
X130098059Y-68726313D01*
X130112638Y-68721211D01*
X130123366Y-68717458D01*
X130164319Y-68710500D01*
X131219178Y-68710500D01*
X131286217Y-68730185D01*
X131312089Y-68753640D01*
X131312181Y-68753549D01*
X131314043Y-68755411D01*
X131316441Y-68757585D01*
X131317287Y-68758655D01*
X131317288Y-68758656D01*
X131441344Y-68882712D01*
X131590666Y-68974814D01*
X131757203Y-69029999D01*
X131859991Y-69040500D01*
X132860008Y-69040499D01*
X132860016Y-69040498D01*
X132860019Y-69040498D01*
X132916302Y-69034748D01*
X132962797Y-69029999D01*
X133129334Y-68974814D01*
X133278656Y-68882712D01*
X133402712Y-68758656D01*
X133439259Y-68699402D01*
X133491207Y-68652679D01*
X133544798Y-68640500D01*
X133988481Y-68640500D01*
X134055520Y-68660185D01*
X134076162Y-68676819D01*
X137325886Y-71926543D01*
X138924385Y-73525042D01*
X138972422Y-73573262D01*
X138972425Y-73573264D01*
X138972436Y-73573275D01*
X138973248Y-73573942D01*
X138973450Y-73574108D01*
X138973455Y-73574112D01*
X138973457Y-73574114D01*
X138973460Y-73574116D01*
X139030178Y-73612014D01*
X139030374Y-73612145D01*
X139087019Y-73650150D01*
X139087363Y-73650334D01*
X139087576Y-73650448D01*
X139088166Y-73650764D01*
X139088183Y-73650771D01*
X139088189Y-73650775D01*
X139150920Y-73676759D01*
X139151109Y-73676911D01*
X139151136Y-73676849D01*
X139190702Y-73693325D01*
X139214389Y-73703190D01*
X139214390Y-73703190D01*
X139214392Y-73703191D01*
X139214803Y-73703316D01*
X139215015Y-73703381D01*
X139215657Y-73703577D01*
X139282699Y-73716912D01*
X139282697Y-73716917D01*
X139282895Y-73716951D01*
X139349673Y-73730367D01*
X139349676Y-73730367D01*
X139349691Y-73730370D01*
X139350645Y-73730464D01*
X139350864Y-73730486D01*
X139351004Y-73730500D01*
X139419498Y-73730500D01*
X154877167Y-73759943D01*
X154917885Y-73766901D01*
X154951464Y-73778650D01*
X155001941Y-73796313D01*
X155023499Y-73798742D01*
X155169997Y-73815249D01*
X155170000Y-73815249D01*
X155170003Y-73815249D01*
X155338056Y-73796314D01*
X155338059Y-73796313D01*
X155497690Y-73740456D01*
X155497692Y-73740454D01*
X155497694Y-73740454D01*
X155497697Y-73740452D01*
X155640884Y-73650481D01*
X155640885Y-73650480D01*
X155640890Y-73650477D01*
X155760477Y-73530890D01*
X155850452Y-73387697D01*
X155850454Y-73387694D01*
X155850454Y-73387692D01*
X155850456Y-73387690D01*
X155906313Y-73228059D01*
X155906313Y-73228058D01*
X155906314Y-73228056D01*
X155925249Y-73060002D01*
X155925249Y-73059997D01*
X155906314Y-72891943D01*
X155850454Y-72732305D01*
X155850452Y-72732302D01*
X155760481Y-72589115D01*
X155760476Y-72589109D01*
X155640890Y-72469523D01*
X155640884Y-72469518D01*
X155497697Y-72379547D01*
X155497694Y-72379545D01*
X155338056Y-72323685D01*
X155170003Y-72304751D01*
X155169997Y-72304751D01*
X155001941Y-72323686D01*
X154921059Y-72351987D01*
X154879870Y-72358945D01*
X139761932Y-72330149D01*
X139694930Y-72310337D01*
X139674487Y-72293830D01*
X138316543Y-70935886D01*
X134776546Y-67395888D01*
X134776545Y-67395887D01*
X134661807Y-67319222D01*
X134534332Y-67266421D01*
X134534322Y-67266418D01*
X134398996Y-67239500D01*
X134398994Y-67239500D01*
X134398993Y-67239500D01*
X133544798Y-67239500D01*
X133477759Y-67219815D01*
X133439259Y-67180597D01*
X133402712Y-67121344D01*
X133309049Y-67027681D01*
X133275564Y-66966358D01*
X133280548Y-66896666D01*
X133309049Y-66852319D01*
X133352712Y-66808656D01*
X133402712Y-66758656D01*
X133494814Y-66609334D01*
X133549999Y-66442797D01*
X133560500Y-66340009D01*
X133560499Y-65539992D01*
X133549999Y-65437203D01*
X133494814Y-65270666D01*
X133402712Y-65121344D01*
X133336819Y-65055451D01*
X133303334Y-64994128D01*
X133300500Y-64967770D01*
X133300500Y-64461155D01*
X133300499Y-64461153D01*
X133269738Y-64306510D01*
X133269737Y-64306503D01*
X133263709Y-64291952D01*
X133256241Y-64222483D01*
X133287516Y-64160004D01*
X133347605Y-64124352D01*
X133378271Y-64120500D01*
X141470254Y-64120500D01*
X141537293Y-64140185D01*
X141583048Y-64192989D01*
X141592992Y-64262147D01*
X141591871Y-64268692D01*
X141569500Y-64381155D01*
X141569500Y-65186697D01*
X141549815Y-65253736D01*
X141510597Y-65292235D01*
X141421347Y-65347285D01*
X141421343Y-65347288D01*
X141297289Y-65471342D01*
X141205187Y-65620663D01*
X141205185Y-65620668D01*
X141201256Y-65632525D01*
X141150001Y-65787203D01*
X141150001Y-65787204D01*
X141150000Y-65787204D01*
X141139500Y-65889983D01*
X141139500Y-66690001D01*
X141139501Y-66690019D01*
X141150000Y-66792796D01*
X141150001Y-66792799D01*
X141170163Y-66853642D01*
X141205186Y-66959334D01*
X141281886Y-67083686D01*
X141297289Y-67108657D01*
X141390951Y-67202319D01*
X141424436Y-67263642D01*
X141419452Y-67333334D01*
X141390951Y-67377681D01*
X141295451Y-67473181D01*
X141234128Y-67506666D01*
X141207770Y-67509500D01*
X140025741Y-67509500D01*
X139995064Y-67504287D01*
X139994848Y-67505236D01*
X139988058Y-67503686D01*
X139820003Y-67484751D01*
X139819997Y-67484751D01*
X139651943Y-67503685D01*
X139522250Y-67549067D01*
X139492310Y-67559544D01*
X139492308Y-67559544D01*
X139492308Y-67559545D01*
X139476911Y-67569219D01*
X139458397Y-67578783D01*
X139433188Y-67589225D01*
X139433186Y-67589226D01*
X139318462Y-67665882D01*
X139318454Y-67665888D01*
X139220888Y-67763454D01*
X139220885Y-67763458D01*
X139144228Y-67878182D01*
X139144221Y-67878195D01*
X139091421Y-68005667D01*
X139091418Y-68005677D01*
X139064500Y-68141004D01*
X139064500Y-68278992D01*
X139074195Y-68327737D01*
X139075796Y-68338038D01*
X139083687Y-68408059D01*
X139095030Y-68440476D01*
X139139544Y-68567692D01*
X139139547Y-68567697D01*
X139229518Y-68710884D01*
X139229523Y-68710890D01*
X139349109Y-68830476D01*
X139349115Y-68830481D01*
X139492302Y-68920452D01*
X139492305Y-68920454D01*
X139492309Y-68920455D01*
X139492310Y-68920456D01*
X139520114Y-68930185D01*
X139651943Y-68976314D01*
X139819997Y-68995249D01*
X139820000Y-68995249D01*
X139820003Y-68995249D01*
X139988056Y-68976314D01*
X139992343Y-68974814D01*
X140147690Y-68920456D01*
X140147691Y-68920455D01*
X140154262Y-68918156D01*
X140154918Y-68920031D01*
X140196666Y-68910500D01*
X141105858Y-68910500D01*
X141172897Y-68930185D01*
X141211395Y-68969401D01*
X141297288Y-69108656D01*
X141421344Y-69232712D01*
X141570666Y-69324814D01*
X141737203Y-69379999D01*
X141839991Y-69390500D01*
X142840008Y-69390499D01*
X142840016Y-69390498D01*
X142840019Y-69390498D01*
X142896302Y-69384748D01*
X142942797Y-69379999D01*
X143109334Y-69324814D01*
X143258656Y-69232712D01*
X143382712Y-69108656D01*
X143419259Y-69049402D01*
X143471207Y-69002679D01*
X143524798Y-68990500D01*
X144188481Y-68990500D01*
X144255520Y-69010185D01*
X144276162Y-69026819D01*
X145931545Y-70682201D01*
X145931566Y-70682224D01*
X146845886Y-71596542D01*
X146943458Y-71694114D01*
X146943459Y-71694115D01*
X147058182Y-71770771D01*
X147058189Y-71770775D01*
X147129951Y-71800499D01*
X147129953Y-71800501D01*
X147185666Y-71823578D01*
X147185671Y-71823580D01*
X147185680Y-71823581D01*
X147185681Y-71823582D01*
X147212545Y-71828925D01*
X147212551Y-71828926D01*
X147212591Y-71828934D01*
X147302937Y-71846905D01*
X147321006Y-71850500D01*
X147321007Y-71850500D01*
X154858524Y-71850500D01*
X154899479Y-71857459D01*
X154981939Y-71886313D01*
X155149997Y-71905249D01*
X155150000Y-71905249D01*
X155150003Y-71905249D01*
X155318056Y-71886314D01*
X155318059Y-71886313D01*
X155477690Y-71830456D01*
X155477692Y-71830454D01*
X155477694Y-71830454D01*
X155477697Y-71830452D01*
X155620884Y-71740481D01*
X155620885Y-71740480D01*
X155620890Y-71740477D01*
X155740477Y-71620890D01*
X155755776Y-71596542D01*
X155830452Y-71477697D01*
X155830454Y-71477694D01*
X155830454Y-71477692D01*
X155830456Y-71477690D01*
X155886313Y-71318059D01*
X155886313Y-71318058D01*
X155886314Y-71318056D01*
X155905249Y-71150002D01*
X155905249Y-71149997D01*
X155886314Y-70981943D01*
X155830454Y-70822305D01*
X155830452Y-70822302D01*
X155740481Y-70679115D01*
X155740476Y-70679109D01*
X155620890Y-70559523D01*
X155620884Y-70559518D01*
X155477697Y-70469547D01*
X155477694Y-70469545D01*
X155318056Y-70413685D01*
X155150003Y-70394751D01*
X155149997Y-70394751D01*
X154981940Y-70413686D01*
X154981938Y-70413686D01*
X154899479Y-70442541D01*
X154858524Y-70449500D01*
X147731518Y-70449500D01*
X147664479Y-70429815D01*
X147643837Y-70413181D01*
X146922224Y-69691566D01*
X146922201Y-69691545D01*
X144976546Y-67745888D01*
X144976545Y-67745887D01*
X144861807Y-67669222D01*
X144734332Y-67616421D01*
X144734322Y-67616418D01*
X144598996Y-67589500D01*
X144598994Y-67589500D01*
X144598993Y-67589500D01*
X143524798Y-67589500D01*
X143457759Y-67569815D01*
X143419259Y-67530597D01*
X143412174Y-67519110D01*
X143382712Y-67471344D01*
X143289049Y-67377681D01*
X143255564Y-67316358D01*
X143260548Y-67246666D01*
X143289049Y-67202319D01*
X143331368Y-67160000D01*
X143382712Y-67108656D01*
X143474814Y-66959334D01*
X143529999Y-66792797D01*
X143540500Y-66690009D01*
X143540499Y-65889992D01*
X143539295Y-65878209D01*
X143529999Y-65787203D01*
X143529998Y-65787200D01*
X143494414Y-65679815D01*
X143474814Y-65620666D01*
X143382712Y-65471344D01*
X143258656Y-65347288D01*
X143258652Y-65347285D01*
X143229401Y-65329242D01*
X143182677Y-65277293D01*
X143170500Y-65223705D01*
X143170500Y-64381155D01*
X143148129Y-64268692D01*
X143154356Y-64199100D01*
X143197219Y-64143923D01*
X143263108Y-64120678D01*
X143269746Y-64120500D01*
X151823445Y-64120500D01*
X151890484Y-64140185D01*
X151936239Y-64192989D01*
X151946183Y-64262147D01*
X151941159Y-64280411D01*
X151942031Y-64280676D01*
X151940261Y-64286510D01*
X151909500Y-64441153D01*
X151909500Y-65044362D01*
X151889815Y-65111401D01*
X151850598Y-65149899D01*
X151790940Y-65186697D01*
X151741342Y-65217289D01*
X151617289Y-65341342D01*
X151525187Y-65490663D01*
X151525185Y-65490668D01*
X151515537Y-65519785D01*
X151470001Y-65657203D01*
X151470001Y-65657204D01*
X151470000Y-65657204D01*
X151459500Y-65759983D01*
X151459500Y-66560001D01*
X151459501Y-66560019D01*
X151470000Y-66662796D01*
X151470001Y-66662799D01*
X151501766Y-66758657D01*
X151525186Y-66829334D01*
X151608027Y-66963642D01*
X151617289Y-66978657D01*
X151710951Y-67072319D01*
X151744436Y-67133642D01*
X151739452Y-67203334D01*
X151710951Y-67247681D01*
X151617288Y-67341343D01*
X151617285Y-67341347D01*
X151568988Y-67419649D01*
X151517040Y-67466374D01*
X151464436Y-67478548D01*
X150375913Y-67487204D01*
X150333973Y-67480250D01*
X150258057Y-67453686D01*
X150090003Y-67434751D01*
X150089997Y-67434751D01*
X149921943Y-67453685D01*
X149762305Y-67509545D01*
X149762302Y-67509547D01*
X149619115Y-67599518D01*
X149619109Y-67599523D01*
X149499523Y-67719109D01*
X149499518Y-67719115D01*
X149409547Y-67862302D01*
X149409545Y-67862305D01*
X149353685Y-68021943D01*
X149334751Y-68189997D01*
X149334751Y-68190002D01*
X149353685Y-68358056D01*
X149409545Y-68517694D01*
X149409547Y-68517697D01*
X149499518Y-68660884D01*
X149499523Y-68660890D01*
X149619109Y-68780476D01*
X149619115Y-68780481D01*
X149762302Y-68870452D01*
X149762305Y-68870454D01*
X149762309Y-68870455D01*
X149762310Y-68870456D01*
X149786342Y-68878865D01*
X149921943Y-68926314D01*
X150089997Y-68945249D01*
X150090000Y-68945249D01*
X150090003Y-68945249D01*
X150258054Y-68926314D01*
X150258055Y-68926313D01*
X150258059Y-68926313D01*
X150347227Y-68895111D01*
X150387188Y-68888157D01*
X151485885Y-68879420D01*
X151553078Y-68898571D01*
X151592406Y-68938316D01*
X151617288Y-68978656D01*
X151741344Y-69102712D01*
X151890666Y-69194814D01*
X152057203Y-69249999D01*
X152159991Y-69260500D01*
X153160008Y-69260499D01*
X153160016Y-69260498D01*
X153160019Y-69260498D01*
X153216302Y-69254748D01*
X153262797Y-69249999D01*
X153429334Y-69194814D01*
X153578656Y-69102712D01*
X153702712Y-68978656D01*
X153739259Y-68919402D01*
X153791207Y-68872679D01*
X153844798Y-68860500D01*
X154068481Y-68860500D01*
X154135520Y-68880185D01*
X154156162Y-68896819D01*
X154700117Y-69440774D01*
X154725857Y-69481735D01*
X154726522Y-69481415D01*
X154729362Y-69487312D01*
X154729474Y-69487490D01*
X154729544Y-69487690D01*
X154747030Y-69515519D01*
X154819523Y-69630890D01*
X154939109Y-69750476D01*
X154939115Y-69750481D01*
X155082302Y-69840452D01*
X155082305Y-69840454D01*
X155082309Y-69840455D01*
X155082310Y-69840456D01*
X155135289Y-69858994D01*
X155241943Y-69896314D01*
X155409997Y-69915249D01*
X155410000Y-69915249D01*
X155410003Y-69915249D01*
X155578056Y-69896314D01*
X155578059Y-69896313D01*
X155737690Y-69840456D01*
X155737692Y-69840454D01*
X155737694Y-69840454D01*
X155737697Y-69840452D01*
X155880884Y-69750481D01*
X155880885Y-69750480D01*
X155880890Y-69750477D01*
X156000477Y-69630890D01*
X156000481Y-69630884D01*
X156090452Y-69487697D01*
X156090454Y-69487694D01*
X156090454Y-69487692D01*
X156090456Y-69487690D01*
X156146313Y-69328059D01*
X156146313Y-69328058D01*
X156146314Y-69328056D01*
X156165249Y-69160002D01*
X156165249Y-69159997D01*
X156146314Y-68991943D01*
X156090454Y-68832305D01*
X156090452Y-68832302D01*
X156000481Y-68689115D01*
X156000476Y-68689109D01*
X155880890Y-68569523D01*
X155859868Y-68556314D01*
X155737690Y-68479544D01*
X155737689Y-68479543D01*
X155737688Y-68479543D01*
X155737587Y-68479508D01*
X155737490Y-68479474D01*
X155737312Y-68479362D01*
X155731415Y-68476522D01*
X155731735Y-68475857D01*
X155690774Y-68450117D01*
X154856546Y-67615888D01*
X154856545Y-67615887D01*
X154741807Y-67539222D01*
X154614332Y-67486421D01*
X154614322Y-67486418D01*
X154478996Y-67459500D01*
X154478994Y-67459500D01*
X154478993Y-67459500D01*
X153844798Y-67459500D01*
X153777759Y-67439815D01*
X153739259Y-67400597D01*
X153738597Y-67399523D01*
X153702712Y-67341344D01*
X153609049Y-67247681D01*
X153575564Y-67186358D01*
X153580548Y-67116666D01*
X153609049Y-67072319D01*
X153653687Y-67027681D01*
X153702712Y-66978656D01*
X153794814Y-66829334D01*
X153849999Y-66662797D01*
X153860500Y-66560009D01*
X153860499Y-65759992D01*
X153849999Y-65657203D01*
X153794814Y-65490666D01*
X153702712Y-65341344D01*
X153578656Y-65217288D01*
X153578655Y-65217287D01*
X153569402Y-65211580D01*
X153522678Y-65159632D01*
X153510500Y-65106042D01*
X153510500Y-64441155D01*
X153510499Y-64441153D01*
X153498565Y-64381158D01*
X153479737Y-64286503D01*
X153479732Y-64286492D01*
X153477969Y-64280676D01*
X153480720Y-64279841D01*
X153474497Y-64222641D01*
X153505691Y-64160122D01*
X153565734Y-64124392D01*
X153596555Y-64120500D01*
X183405500Y-64120500D01*
X183472539Y-64140185D01*
X183518294Y-64192989D01*
X183529500Y-64244500D01*
X183529500Y-73026000D01*
X183509815Y-73093039D01*
X183457011Y-73138794D01*
X183405500Y-73150000D01*
X177200000Y-73150000D01*
X177201082Y-74599102D01*
X177181447Y-74666157D01*
X177128678Y-74711951D01*
X177059527Y-74721946D01*
X176995949Y-74692969D01*
X176973981Y-74668087D01*
X176932146Y-74605478D01*
X176932141Y-74605470D01*
X176924119Y-74593462D01*
X176924115Y-74593458D01*
X176706546Y-74375888D01*
X176706545Y-74375887D01*
X176591807Y-74299222D01*
X176464332Y-74246421D01*
X176464322Y-74246418D01*
X176328996Y-74219500D01*
X176328994Y-74219500D01*
X176328993Y-74219500D01*
X163150055Y-74219500D01*
X163109102Y-74212542D01*
X163072729Y-74199815D01*
X162998056Y-74173685D01*
X162830003Y-74154751D01*
X162829997Y-74154751D01*
X162661943Y-74173685D01*
X162575026Y-74204099D01*
X162550897Y-74212542D01*
X162509945Y-74219500D01*
X161671519Y-74219500D01*
X161604480Y-74199815D01*
X161583838Y-74183181D01*
X161262031Y-73861374D01*
X161228546Y-73800051D01*
X161233014Y-73735341D01*
X161232518Y-73735218D01*
X161233216Y-73732407D01*
X161233319Y-73730929D01*
X161234138Y-73728698D01*
X161234141Y-73728693D01*
X161280100Y-73543889D01*
X161283000Y-73501123D01*
X161282999Y-72098878D01*
X161280100Y-72056111D01*
X161234141Y-71871307D01*
X161169255Y-71740476D01*
X161149532Y-71700707D01*
X161149530Y-71700704D01*
X161030222Y-71552278D01*
X161030221Y-71552277D01*
X160881795Y-71432969D01*
X160881792Y-71432967D01*
X160711197Y-71348360D01*
X160526392Y-71302400D01*
X160500729Y-71300660D01*
X160483623Y-71299500D01*
X160483621Y-71299500D01*
X159588334Y-71299500D01*
X159521295Y-71279815D01*
X159475540Y-71227011D01*
X159465596Y-71157853D01*
X159494621Y-71094297D01*
X159500618Y-71087855D01*
X159791657Y-70796816D01*
X159852978Y-70763334D01*
X159879336Y-70760500D01*
X164509286Y-70760500D01*
X164552618Y-70768317D01*
X164615017Y-70791591D01*
X164674627Y-70798000D01*
X166345372Y-70797999D01*
X166404983Y-70791591D01*
X166539831Y-70741296D01*
X166655046Y-70655046D01*
X166741296Y-70539831D01*
X166791591Y-70404983D01*
X166798000Y-70345373D01*
X166797999Y-68674628D01*
X166791591Y-68615017D01*
X166778708Y-68580477D01*
X166741297Y-68480171D01*
X166741293Y-68480164D01*
X166655047Y-68364955D01*
X166655044Y-68364952D01*
X166539835Y-68278706D01*
X166539828Y-68278702D01*
X166404982Y-68228408D01*
X166404983Y-68228408D01*
X166345383Y-68222001D01*
X166345381Y-68222000D01*
X166345373Y-68222000D01*
X166345365Y-68222000D01*
X166181177Y-68222000D01*
X166114138Y-68202315D01*
X166068383Y-68149511D01*
X166058439Y-68080353D01*
X166087464Y-68016797D01*
X166142172Y-67980294D01*
X166264334Y-67939814D01*
X166413656Y-67847712D01*
X166517050Y-67744318D01*
X166578373Y-67710834D01*
X166604731Y-67708000D01*
X167285270Y-67708000D01*
X167352309Y-67727685D01*
X167372950Y-67744318D01*
X167466344Y-67837712D01*
X167615666Y-67929814D01*
X167782203Y-67984999D01*
X167884991Y-67995500D01*
X168935008Y-67995499D01*
X168935016Y-67995498D01*
X168935019Y-67995498D01*
X169007841Y-67988059D01*
X169037797Y-67984999D01*
X169204334Y-67929814D01*
X169353656Y-67837712D01*
X169477712Y-67713656D01*
X169569814Y-67564334D01*
X169624999Y-67397797D01*
X169635500Y-67295009D01*
X169635499Y-66519992D01*
X169627613Y-66442797D01*
X169624999Y-66417203D01*
X169624998Y-66417200D01*
X169615985Y-66390001D01*
X169569814Y-66250666D01*
X169543936Y-66208711D01*
X171169500Y-66208711D01*
X171169500Y-66451288D01*
X171200928Y-66690016D01*
X171201162Y-66691789D01*
X171203842Y-66701789D01*
X171263947Y-66926104D01*
X171356773Y-67150205D01*
X171356777Y-67150214D01*
X171372482Y-67177415D01*
X171478064Y-67360289D01*
X171478066Y-67360292D01*
X171478067Y-67360293D01*
X171625733Y-67552736D01*
X171625739Y-67552743D01*
X171797256Y-67724260D01*
X171797263Y-67724266D01*
X171836429Y-67754319D01*
X171989711Y-67871936D01*
X172199788Y-67993224D01*
X172395269Y-68074195D01*
X172410136Y-68080353D01*
X172423900Y-68086054D01*
X172658211Y-68148838D01*
X172838586Y-68172584D01*
X172898711Y-68180500D01*
X172898712Y-68180500D01*
X173141289Y-68180500D01*
X173189388Y-68174167D01*
X173381789Y-68148838D01*
X173616100Y-68086054D01*
X173840212Y-67993224D01*
X174050289Y-67871936D01*
X174242738Y-67724265D01*
X174414265Y-67552738D01*
X174561936Y-67360289D01*
X174683224Y-67150212D01*
X174776054Y-66926100D01*
X174838838Y-66691789D01*
X174870500Y-66451288D01*
X174870500Y-66208712D01*
X174838838Y-65968211D01*
X174776054Y-65733900D01*
X174683224Y-65509788D01*
X174561936Y-65299711D01*
X174493607Y-65210663D01*
X174414266Y-65107263D01*
X174414260Y-65107256D01*
X174242743Y-64935739D01*
X174242736Y-64935733D01*
X174050293Y-64788067D01*
X174050292Y-64788066D01*
X174050289Y-64788064D01*
X173840212Y-64666776D01*
X173840205Y-64666773D01*
X173616104Y-64573947D01*
X173381785Y-64511161D01*
X173141289Y-64479500D01*
X173141288Y-64479500D01*
X172898712Y-64479500D01*
X172898711Y-64479500D01*
X172658214Y-64511161D01*
X172423895Y-64573947D01*
X172199794Y-64666773D01*
X172199785Y-64666777D01*
X171989706Y-64788067D01*
X171797263Y-64935733D01*
X171797256Y-64935739D01*
X171625739Y-65107256D01*
X171625733Y-65107263D01*
X171478067Y-65299706D01*
X171478064Y-65299710D01*
X171478064Y-65299711D01*
X171461817Y-65327851D01*
X171356777Y-65509785D01*
X171356773Y-65509794D01*
X171263947Y-65733895D01*
X171201161Y-65968214D01*
X171169500Y-66208711D01*
X169543936Y-66208711D01*
X169477712Y-66101344D01*
X169353656Y-65977288D01*
X169260888Y-65920069D01*
X169204336Y-65885187D01*
X169204331Y-65885185D01*
X169183279Y-65878209D01*
X169037797Y-65830001D01*
X169037795Y-65830000D01*
X168935010Y-65819500D01*
X167884998Y-65819500D01*
X167884980Y-65819501D01*
X167782203Y-65830000D01*
X167782200Y-65830001D01*
X167615668Y-65885185D01*
X167615663Y-65885187D01*
X167466342Y-65977289D01*
X167372951Y-66070681D01*
X167311628Y-66104166D01*
X167285270Y-66107000D01*
X166584730Y-66107000D01*
X166517691Y-66087315D01*
X166497049Y-66070681D01*
X166413657Y-65987289D01*
X166413656Y-65987288D01*
X166264334Y-65895186D01*
X166097797Y-65840001D01*
X166097795Y-65840000D01*
X165995010Y-65829500D01*
X164944998Y-65829500D01*
X164944980Y-65829501D01*
X164842203Y-65840000D01*
X164842200Y-65840001D01*
X164675668Y-65895185D01*
X164675663Y-65895187D01*
X164599828Y-65941963D01*
X164526344Y-65987288D01*
X164526342Y-65987289D01*
X164520197Y-65991080D01*
X164518698Y-65988650D01*
X164465953Y-66009890D01*
X164397320Y-65996807D01*
X164366237Y-65974159D01*
X164270289Y-65878211D01*
X164270288Y-65878210D01*
X164270287Y-65878209D01*
X164139185Y-65790609D01*
X164139172Y-65790602D01*
X163993501Y-65730264D01*
X163993489Y-65730261D01*
X163838845Y-65699500D01*
X163838842Y-65699500D01*
X162479384Y-65699500D01*
X162412345Y-65679815D01*
X162370729Y-65631788D01*
X162369320Y-65632525D01*
X162366409Y-65626953D01*
X162366409Y-65626951D01*
X162272198Y-65446593D01*
X162215618Y-65377203D01*
X162143609Y-65288890D01*
X161985909Y-65160304D01*
X161985910Y-65160304D01*
X161985907Y-65160302D01*
X161805549Y-65066091D01*
X161805548Y-65066090D01*
X161805545Y-65066089D01*
X161688329Y-65032550D01*
X161609918Y-65010114D01*
X161609915Y-65010113D01*
X161609913Y-65010113D01*
X161543602Y-65004217D01*
X161490537Y-64999500D01*
X161490532Y-64999500D01*
X158574471Y-64999500D01*
X158574465Y-64999500D01*
X158574464Y-64999501D01*
X158562816Y-65000536D01*
X158455084Y-65010113D01*
X158259454Y-65066089D01*
X158180633Y-65107262D01*
X158079093Y-65160302D01*
X158079091Y-65160303D01*
X158079090Y-65160304D01*
X157921390Y-65288890D01*
X157792804Y-65446590D01*
X157792802Y-65446593D01*
X157775356Y-65479992D01*
X157698589Y-65626954D01*
X157653832Y-65783376D01*
X157651764Y-65790606D01*
X157642614Y-65822583D01*
X157642613Y-65822586D01*
X157632000Y-65941966D01*
X157632000Y-67058028D01*
X157632001Y-67058034D01*
X157642613Y-67177415D01*
X157698589Y-67373045D01*
X157698590Y-67373048D01*
X157698591Y-67373049D01*
X157792802Y-67553407D01*
X157822008Y-67589225D01*
X157921390Y-67711109D01*
X157985587Y-67763454D01*
X158079093Y-67839698D01*
X158259451Y-67933909D01*
X158455082Y-67989886D01*
X158574463Y-68000500D01*
X161490536Y-68000499D01*
X161609918Y-67989886D01*
X161805549Y-67933909D01*
X161985907Y-67839698D01*
X162143609Y-67711109D01*
X162272198Y-67553407D01*
X162366409Y-67373049D01*
X162366410Y-67373045D01*
X162369320Y-67367475D01*
X162371831Y-67368787D01*
X162407472Y-67323482D01*
X162473503Y-67300640D01*
X162479384Y-67300500D01*
X163377060Y-67300500D01*
X163444099Y-67320185D01*
X163464741Y-67336819D01*
X163555711Y-67427789D01*
X163612673Y-67484751D01*
X163667212Y-67539290D01*
X163798317Y-67626892D01*
X163798319Y-67626892D01*
X163798321Y-67626894D01*
X163919861Y-67677237D01*
X163919862Y-67677238D01*
X163943998Y-67687235D01*
X163944003Y-67687237D01*
X163944007Y-67687237D01*
X163944008Y-67687238D01*
X164098654Y-67718000D01*
X164098657Y-67718000D01*
X164098658Y-67718000D01*
X164345270Y-67718000D01*
X164412309Y-67737685D01*
X164432951Y-67754319D01*
X164526344Y-67847712D01*
X164675666Y-67939814D01*
X164797831Y-67980295D01*
X164855274Y-68020066D01*
X164882098Y-68084582D01*
X164869783Y-68153358D01*
X164822241Y-68204558D01*
X164758827Y-68222000D01*
X164674630Y-68222000D01*
X164674623Y-68222001D01*
X164615016Y-68228408D01*
X164552619Y-68251682D01*
X164509286Y-68259500D01*
X159211578Y-68259500D01*
X159082099Y-68280008D01*
X159082098Y-68280008D01*
X159017174Y-68290290D01*
X159017173Y-68290290D01*
X158829969Y-68351117D01*
X158654594Y-68440476D01*
X158572043Y-68500454D01*
X158495354Y-68556172D01*
X158495352Y-68556174D01*
X158495351Y-68556174D01*
X156778674Y-70272851D01*
X156778674Y-70272852D01*
X156778672Y-70272854D01*
X156728985Y-70341241D01*
X156662976Y-70432094D01*
X156573615Y-70607473D01*
X156573614Y-70607476D01*
X156530135Y-70741295D01*
X156512790Y-70794676D01*
X156512790Y-70794677D01*
X156482000Y-70989077D01*
X156482000Y-84212902D01*
X156480473Y-84232301D01*
X156469500Y-84301578D01*
X156469500Y-84498420D01*
X156477973Y-84551913D01*
X156479500Y-84571312D01*
X156479500Y-88013422D01*
X156510291Y-88207826D01*
X156510292Y-88207833D01*
X156523431Y-88248270D01*
X156529500Y-88286568D01*
X156529500Y-88290005D01*
X156540001Y-88392797D01*
X156540001Y-88392799D01*
X156562491Y-88460668D01*
X156586628Y-88533509D01*
X156592589Y-88551496D01*
X156594991Y-88621324D01*
X156559259Y-88681366D01*
X156496739Y-88712559D01*
X156474883Y-88714500D01*
X153176578Y-88714500D01*
X152982173Y-88745290D01*
X152794969Y-88806117D01*
X152619594Y-88895476D01*
X152572988Y-88929338D01*
X152460354Y-89011172D01*
X152460352Y-89011174D01*
X152460351Y-89011174D01*
X151378345Y-90093181D01*
X151317022Y-90126666D01*
X151290664Y-90129500D01*
X148293270Y-90129500D01*
X148226231Y-90109815D01*
X148180476Y-90057011D01*
X148170532Y-89987853D01*
X148199557Y-89924297D01*
X148227993Y-89900073D01*
X148337850Y-89832052D01*
X148386302Y-89802052D01*
X148543872Y-89658407D01*
X148672366Y-89488255D01*
X148722040Y-89388495D01*
X148767403Y-89297394D01*
X148767403Y-89297393D01*
X148767405Y-89297389D01*
X148825756Y-89092310D01*
X148845429Y-88880000D01*
X148825756Y-88667690D01*
X148767405Y-88462611D01*
X148767403Y-88462606D01*
X148767403Y-88462605D01*
X148672367Y-88271746D01*
X148566527Y-88131593D01*
X148543872Y-88101593D01*
X148401317Y-87971636D01*
X148365036Y-87911926D01*
X148366797Y-87842078D01*
X148401318Y-87788363D01*
X148543872Y-87658407D01*
X148672366Y-87488255D01*
X148728166Y-87376193D01*
X148767403Y-87297394D01*
X148767403Y-87297393D01*
X148767405Y-87297389D01*
X148825756Y-87092310D01*
X148845429Y-86880000D01*
X148825756Y-86667690D01*
X148767405Y-86462611D01*
X148767403Y-86462606D01*
X148767403Y-86462605D01*
X148672367Y-86271746D01*
X148543872Y-86101593D01*
X148503723Y-86064992D01*
X148386302Y-85957948D01*
X148205019Y-85845702D01*
X148205017Y-85845701D01*
X148083640Y-85798680D01*
X148006198Y-85768679D01*
X147916375Y-85751888D01*
X147854096Y-85720221D01*
X147818823Y-85659908D01*
X147821757Y-85590100D01*
X147861966Y-85532960D01*
X147916374Y-85508111D01*
X148006198Y-85491321D01*
X148205019Y-85414298D01*
X148386302Y-85302052D01*
X148543872Y-85158407D01*
X148672366Y-84988255D01*
X148747089Y-84838190D01*
X148767403Y-84797394D01*
X148767403Y-84797393D01*
X148767405Y-84797389D01*
X148825756Y-84592310D01*
X148845429Y-84380000D01*
X148845359Y-84379249D01*
X148840796Y-84329998D01*
X148825756Y-84167690D01*
X148767405Y-83962611D01*
X148767403Y-83962606D01*
X148767403Y-83962605D01*
X148672367Y-83771746D01*
X148543872Y-83601593D01*
X148509418Y-83570184D01*
X148386302Y-83457948D01*
X148205019Y-83345702D01*
X148205017Y-83345701D01*
X148083640Y-83298680D01*
X148006198Y-83268679D01*
X147796610Y-83229500D01*
X147583390Y-83229500D01*
X147373802Y-83268679D01*
X147373799Y-83268679D01*
X147373799Y-83268680D01*
X147174982Y-83345701D01*
X147174980Y-83345702D01*
X146993699Y-83457947D01*
X146836127Y-83601593D01*
X146707632Y-83771746D01*
X146612596Y-83962605D01*
X146612596Y-83962607D01*
X146554244Y-84167689D01*
X146534571Y-84379999D01*
X146534571Y-84380000D01*
X146554244Y-84592310D01*
X146612596Y-84797392D01*
X146612596Y-84797394D01*
X146707632Y-84988253D01*
X146819202Y-85135994D01*
X146836128Y-85158407D01*
X146993698Y-85302052D01*
X147174981Y-85414298D01*
X147373802Y-85491321D01*
X147463623Y-85508111D01*
X147525903Y-85539780D01*
X147561176Y-85600092D01*
X147558242Y-85669900D01*
X147518033Y-85727040D01*
X147463623Y-85751888D01*
X147373802Y-85768679D01*
X147373799Y-85768679D01*
X147373799Y-85768680D01*
X147174982Y-85845701D01*
X147174980Y-85845702D01*
X146993699Y-85957947D01*
X146836127Y-86101593D01*
X146707632Y-86271746D01*
X146612596Y-86462605D01*
X146612596Y-86462607D01*
X146556427Y-86660019D01*
X146554244Y-86667690D01*
X146534571Y-86880000D01*
X146554244Y-87092310D01*
X146588016Y-87211006D01*
X146612596Y-87297392D01*
X146612596Y-87297394D01*
X146707632Y-87488253D01*
X146836127Y-87658406D01*
X146978682Y-87788363D01*
X147014963Y-87848075D01*
X147013202Y-87917922D01*
X146978682Y-87971637D01*
X146836127Y-88101593D01*
X146707632Y-88271746D01*
X146612596Y-88462605D01*
X146612596Y-88462607D01*
X146554244Y-88667689D01*
X146549907Y-88714500D01*
X146534571Y-88880000D01*
X146554244Y-89092310D01*
X146576731Y-89171344D01*
X146612596Y-89297392D01*
X146612596Y-89297394D01*
X146707632Y-89488253D01*
X146816788Y-89632797D01*
X146836128Y-89658407D01*
X146993698Y-89802052D01*
X147174981Y-89914298D01*
X147296744Y-89961468D01*
X147352145Y-90004041D01*
X147375736Y-90069807D01*
X147360025Y-90137888D01*
X147310002Y-90186667D01*
X147290270Y-90195026D01*
X147255762Y-90206238D01*
X147209975Y-90221116D01*
X147209971Y-90221117D01*
X147205345Y-90222621D01*
X147205001Y-90221562D01*
X147165069Y-90229500D01*
X146992130Y-90229500D01*
X146992123Y-90229501D01*
X146932516Y-90235908D01*
X146797671Y-90286202D01*
X146797664Y-90286206D01*
X146682455Y-90372452D01*
X146682452Y-90372455D01*
X146596206Y-90487664D01*
X146596202Y-90487671D01*
X146545908Y-90622517D01*
X146539501Y-90682116D01*
X146539500Y-90682135D01*
X146539500Y-90801664D01*
X146519815Y-90868703D01*
X146467011Y-90914458D01*
X146397853Y-90924402D01*
X146334297Y-90895377D01*
X146327819Y-90889345D01*
X145894648Y-90456174D01*
X145894646Y-90456172D01*
X145735405Y-90340476D01*
X145689221Y-90316944D01*
X145560030Y-90251117D01*
X145372826Y-90190290D01*
X145178422Y-90159500D01*
X145178417Y-90159500D01*
X138293270Y-90159500D01*
X138226231Y-90139815D01*
X138180476Y-90087011D01*
X138170532Y-90017853D01*
X138199557Y-89954297D01*
X138227993Y-89930073D01*
X138386302Y-89832052D01*
X138543872Y-89688407D01*
X138672366Y-89518255D01*
X138736978Y-89388495D01*
X138767403Y-89327394D01*
X138767403Y-89327393D01*
X138767405Y-89327389D01*
X138825756Y-89122310D01*
X138845429Y-88910000D01*
X138825756Y-88697690D01*
X138767405Y-88492611D01*
X138767403Y-88492606D01*
X138767403Y-88492605D01*
X138672367Y-88301746D01*
X138585931Y-88187288D01*
X138543872Y-88131593D01*
X138532900Y-88121591D01*
X138401318Y-88001637D01*
X138365036Y-87941926D01*
X138366797Y-87872078D01*
X138401318Y-87818363D01*
X138419210Y-87802052D01*
X138543872Y-87688407D01*
X138672366Y-87518255D01*
X138743104Y-87376193D01*
X138767403Y-87327394D01*
X138767403Y-87327393D01*
X138767405Y-87327389D01*
X138825756Y-87122310D01*
X138845429Y-86910000D01*
X138825756Y-86697690D01*
X138767405Y-86492611D01*
X138767403Y-86492606D01*
X138767403Y-86492605D01*
X138672367Y-86301746D01*
X138543872Y-86131593D01*
X138510964Y-86101593D01*
X138386302Y-85987948D01*
X138205019Y-85875702D01*
X138205017Y-85875701D01*
X138091500Y-85831725D01*
X138006198Y-85798679D01*
X137916375Y-85781888D01*
X137854096Y-85750221D01*
X137818823Y-85689908D01*
X137821757Y-85620100D01*
X137861966Y-85562960D01*
X137916374Y-85538111D01*
X138006198Y-85521321D01*
X138205019Y-85444298D01*
X138386302Y-85332052D01*
X138543872Y-85188407D01*
X138672366Y-85018255D01*
X138677346Y-85008253D01*
X138767403Y-84827394D01*
X138767403Y-84827393D01*
X138767405Y-84827389D01*
X138825756Y-84622310D01*
X138845429Y-84410000D01*
X138825756Y-84197690D01*
X138767405Y-83992611D01*
X138767403Y-83992606D01*
X138767403Y-83992605D01*
X138672367Y-83801746D01*
X138543872Y-83631593D01*
X138432439Y-83530008D01*
X138386302Y-83487948D01*
X138205019Y-83375702D01*
X138205017Y-83375701D01*
X138105608Y-83337190D01*
X138006198Y-83298679D01*
X137796610Y-83259500D01*
X137583390Y-83259500D01*
X137373802Y-83298679D01*
X137373799Y-83298679D01*
X137373799Y-83298680D01*
X137174982Y-83375701D01*
X137174980Y-83375702D01*
X136993699Y-83487947D01*
X136836127Y-83631593D01*
X136707632Y-83801746D01*
X136612596Y-83992605D01*
X136612596Y-83992607D01*
X136554244Y-84197689D01*
X136534571Y-84409999D01*
X136534571Y-84410000D01*
X136554244Y-84622310D01*
X136612596Y-84827392D01*
X136612596Y-84827394D01*
X136707632Y-85018253D01*
X136828576Y-85178407D01*
X136836128Y-85188407D01*
X136993698Y-85332052D01*
X137174981Y-85444298D01*
X137373802Y-85521321D01*
X137463623Y-85538111D01*
X137525903Y-85569780D01*
X137561176Y-85630092D01*
X137558242Y-85699900D01*
X137518033Y-85757040D01*
X137463623Y-85781888D01*
X137373802Y-85798679D01*
X137373799Y-85798679D01*
X137373799Y-85798680D01*
X137174982Y-85875701D01*
X137174980Y-85875702D01*
X136993699Y-85987947D01*
X136836127Y-86131593D01*
X136707632Y-86301746D01*
X136612596Y-86492605D01*
X136612596Y-86492607D01*
X136557090Y-86687689D01*
X136554244Y-86697690D01*
X136534571Y-86910000D01*
X136554244Y-87122310D01*
X136600920Y-87286358D01*
X136612596Y-87327392D01*
X136612596Y-87327394D01*
X136707632Y-87518253D01*
X136828576Y-87678407D01*
X136836128Y-87688407D01*
X136960790Y-87802052D01*
X136978682Y-87818363D01*
X137014963Y-87878075D01*
X137013202Y-87947922D01*
X136978682Y-88001637D01*
X136836127Y-88131593D01*
X136707632Y-88301746D01*
X136612596Y-88492605D01*
X136612596Y-88492607D01*
X136557090Y-88687689D01*
X136554244Y-88697690D01*
X136534571Y-88910000D01*
X136554244Y-89122310D01*
X136603326Y-89294814D01*
X136612596Y-89327392D01*
X136612596Y-89327394D01*
X136707632Y-89518253D01*
X136828576Y-89678407D01*
X136836128Y-89688407D01*
X136993698Y-89832052D01*
X137174981Y-89944298D01*
X137296744Y-89991468D01*
X137352145Y-90034041D01*
X137375736Y-90099807D01*
X137360025Y-90167888D01*
X137310002Y-90216667D01*
X137290270Y-90225026D01*
X137256780Y-90235908D01*
X137209975Y-90251116D01*
X137209971Y-90251117D01*
X137205345Y-90252621D01*
X137205001Y-90251562D01*
X137165069Y-90259500D01*
X136992130Y-90259500D01*
X136992123Y-90259501D01*
X136932516Y-90265908D01*
X136797671Y-90316202D01*
X136797664Y-90316206D01*
X136682455Y-90402452D01*
X136682452Y-90402455D01*
X136596206Y-90517664D01*
X136596202Y-90517671D01*
X136545908Y-90652517D01*
X136539501Y-90712116D01*
X136539500Y-90712135D01*
X136539500Y-90885068D01*
X136531559Y-90924997D01*
X136532621Y-90925342D01*
X136470291Y-91117169D01*
X136470291Y-91117172D01*
X136439500Y-91311577D01*
X136439500Y-91508422D01*
X136470291Y-91702827D01*
X136470291Y-91702830D01*
X136532621Y-91894658D01*
X136531556Y-91895003D01*
X136539500Y-91934930D01*
X136539500Y-92107869D01*
X136539501Y-92107876D01*
X136545908Y-92167483D01*
X136596202Y-92302328D01*
X136596206Y-92302335D01*
X136682452Y-92417544D01*
X136682455Y-92417547D01*
X136797664Y-92503793D01*
X136797671Y-92503797D01*
X136842618Y-92520561D01*
X136932517Y-92554091D01*
X136992127Y-92560500D01*
X137165066Y-92560499D01*
X137204994Y-92568442D01*
X137205341Y-92567378D01*
X137209973Y-92568883D01*
X137209975Y-92568884D01*
X137266346Y-92587200D01*
X137397173Y-92629709D01*
X137591578Y-92660500D01*
X137591583Y-92660500D01*
X144235500Y-92660500D01*
X144302539Y-92680185D01*
X144348294Y-92732989D01*
X144359500Y-92784500D01*
X144359500Y-94988422D01*
X144390290Y-95182826D01*
X144451118Y-95370032D01*
X144540471Y-95545397D01*
X144540802Y-95545937D01*
X144541378Y-95547177D01*
X144542688Y-95549748D01*
X144542594Y-95549795D01*
X144552784Y-95571729D01*
X144575185Y-95639331D01*
X144575187Y-95639336D01*
X144598034Y-95676377D01*
X144659960Y-95776776D01*
X144667289Y-95788657D01*
X144706451Y-95827819D01*
X144739936Y-95889142D01*
X144734952Y-95958834D01*
X144693080Y-96014767D01*
X144627616Y-96039184D01*
X144618770Y-96039500D01*
X141450542Y-96039500D01*
X141383503Y-96019815D01*
X141337748Y-95967011D01*
X141327804Y-95897853D01*
X141356829Y-95834297D01*
X141377656Y-95815182D01*
X141554937Y-95686379D01*
X141716379Y-95524937D01*
X141850579Y-95340228D01*
X141954231Y-95136799D01*
X142024784Y-94919660D01*
X142035472Y-94852181D01*
X142060500Y-94694162D01*
X142060500Y-94465837D01*
X142024784Y-94240339D01*
X141981997Y-94108656D01*
X141954231Y-94023201D01*
X141954229Y-94023198D01*
X141954229Y-94023196D01*
X141867742Y-93853457D01*
X141850579Y-93819772D01*
X141716379Y-93635063D01*
X141554937Y-93473621D01*
X141370228Y-93339421D01*
X141292550Y-93299842D01*
X141166803Y-93235770D01*
X140949660Y-93165215D01*
X140724162Y-93129500D01*
X140724157Y-93129500D01*
X139495843Y-93129500D01*
X139495838Y-93129500D01*
X139270339Y-93165215D01*
X139053196Y-93235770D01*
X138849771Y-93339421D01*
X138665061Y-93473622D01*
X138503622Y-93635061D01*
X138369421Y-93819771D01*
X138265770Y-94023196D01*
X138195215Y-94240339D01*
X138159500Y-94465837D01*
X138159500Y-94694162D01*
X138195215Y-94919660D01*
X138265770Y-95136803D01*
X138345434Y-95293151D01*
X138369421Y-95340228D01*
X138503621Y-95524937D01*
X138665063Y-95686379D01*
X138842344Y-95815182D01*
X138885009Y-95870512D01*
X138890988Y-95940126D01*
X138858382Y-96001921D01*
X138797543Y-96036278D01*
X138769458Y-96039500D01*
X136711230Y-96039500D01*
X136644191Y-96019815D01*
X136598436Y-95967011D01*
X136588492Y-95897853D01*
X136617517Y-95834297D01*
X136623549Y-95827819D01*
X136646353Y-95805015D01*
X136692712Y-95758656D01*
X136784814Y-95609334D01*
X136839999Y-95442797D01*
X136850500Y-95340009D01*
X136850499Y-95261585D01*
X136856569Y-95223264D01*
X136869709Y-95182827D01*
X136886504Y-95076785D01*
X136900500Y-94988422D01*
X136900500Y-94791578D01*
X136876571Y-94640500D01*
X136869709Y-94597174D01*
X136869707Y-94597169D01*
X136869707Y-94597166D01*
X136846844Y-94526804D01*
X136841417Y-94501091D01*
X136839999Y-94487203D01*
X136784814Y-94320666D01*
X136692712Y-94171344D01*
X136629609Y-94108241D01*
X136616973Y-94093447D01*
X136603829Y-94075355D01*
X132954646Y-90426172D01*
X132795405Y-90310476D01*
X132771428Y-90298259D01*
X132620030Y-90221117D01*
X132432826Y-90160290D01*
X132238422Y-90129500D01*
X132238417Y-90129500D01*
X128273270Y-90129500D01*
X128206231Y-90109815D01*
X128160476Y-90057011D01*
X128150532Y-89987853D01*
X128179557Y-89924297D01*
X128207993Y-89900073D01*
X128317850Y-89832052D01*
X128366302Y-89802052D01*
X128523872Y-89658407D01*
X128652366Y-89488255D01*
X128702040Y-89388495D01*
X128747403Y-89297394D01*
X128747403Y-89297393D01*
X128747405Y-89297389D01*
X128805756Y-89092310D01*
X128825429Y-88880000D01*
X128805756Y-88667690D01*
X128747405Y-88462611D01*
X128747403Y-88462606D01*
X128747403Y-88462605D01*
X128652367Y-88271746D01*
X128546527Y-88131593D01*
X128523872Y-88101593D01*
X128381317Y-87971636D01*
X128345036Y-87911926D01*
X128346797Y-87842078D01*
X128381318Y-87788363D01*
X128523872Y-87658407D01*
X128652366Y-87488255D01*
X128708166Y-87376193D01*
X128747403Y-87297394D01*
X128747403Y-87297393D01*
X128747405Y-87297389D01*
X128805756Y-87092310D01*
X128825429Y-86880000D01*
X128805756Y-86667690D01*
X128747405Y-86462611D01*
X128747403Y-86462606D01*
X128747403Y-86462605D01*
X128652367Y-86271746D01*
X128523872Y-86101593D01*
X128483723Y-86064992D01*
X128366302Y-85957948D01*
X128185019Y-85845702D01*
X128185017Y-85845701D01*
X128063640Y-85798680D01*
X127986198Y-85768679D01*
X127896375Y-85751888D01*
X127834096Y-85720221D01*
X127798823Y-85659908D01*
X127801757Y-85590100D01*
X127841966Y-85532960D01*
X127896374Y-85508111D01*
X127986198Y-85491321D01*
X128185019Y-85414298D01*
X128366302Y-85302052D01*
X128523872Y-85158407D01*
X128652366Y-84988255D01*
X128727089Y-84838190D01*
X128747403Y-84797394D01*
X128747403Y-84797393D01*
X128747405Y-84797389D01*
X128805756Y-84592310D01*
X128825429Y-84380000D01*
X128825359Y-84379249D01*
X128820796Y-84329998D01*
X128805756Y-84167690D01*
X128747405Y-83962611D01*
X128747403Y-83962606D01*
X128747403Y-83962605D01*
X128652367Y-83771746D01*
X128523872Y-83601593D01*
X128489418Y-83570184D01*
X128366302Y-83457948D01*
X128185019Y-83345702D01*
X128185017Y-83345701D01*
X128063640Y-83298680D01*
X127986198Y-83268679D01*
X127776610Y-83229500D01*
X127563390Y-83229500D01*
X127353802Y-83268679D01*
X127353799Y-83268679D01*
X127353799Y-83268680D01*
X127154982Y-83345701D01*
X127154980Y-83345702D01*
X126973699Y-83457947D01*
X126816127Y-83601593D01*
X126687632Y-83771746D01*
X126592596Y-83962605D01*
X126592596Y-83962607D01*
X126534244Y-84167689D01*
X126514571Y-84379999D01*
X126514571Y-84380000D01*
X126534244Y-84592310D01*
X126592596Y-84797392D01*
X126592596Y-84797394D01*
X126687632Y-84988253D01*
X126799202Y-85135994D01*
X126816128Y-85158407D01*
X126973698Y-85302052D01*
X127154981Y-85414298D01*
X127353802Y-85491321D01*
X127443623Y-85508111D01*
X127505903Y-85539780D01*
X127541176Y-85600092D01*
X127538242Y-85669900D01*
X127498033Y-85727040D01*
X127443623Y-85751888D01*
X127353802Y-85768679D01*
X127353799Y-85768679D01*
X127353799Y-85768680D01*
X127154982Y-85845701D01*
X127154980Y-85845702D01*
X126973699Y-85957947D01*
X126816127Y-86101593D01*
X126687632Y-86271746D01*
X126592596Y-86462605D01*
X126592596Y-86462607D01*
X126536427Y-86660019D01*
X126534244Y-86667690D01*
X126514571Y-86880000D01*
X126534244Y-87092310D01*
X126568016Y-87211006D01*
X126592596Y-87297392D01*
X126592596Y-87297394D01*
X126687632Y-87488253D01*
X126816127Y-87658406D01*
X126958682Y-87788363D01*
X126994963Y-87848075D01*
X126993202Y-87917922D01*
X126958682Y-87971637D01*
X126816127Y-88101593D01*
X126687632Y-88271746D01*
X126592596Y-88462605D01*
X126592596Y-88462607D01*
X126534244Y-88667689D01*
X126529907Y-88714500D01*
X126514571Y-88880000D01*
X126534244Y-89092310D01*
X126556731Y-89171344D01*
X126592596Y-89297392D01*
X126592596Y-89297394D01*
X126687632Y-89488253D01*
X126796788Y-89632797D01*
X126816128Y-89658407D01*
X126973698Y-89802052D01*
X127154981Y-89914298D01*
X127276744Y-89961468D01*
X127332145Y-90004041D01*
X127355736Y-90069807D01*
X127340025Y-90137888D01*
X127290002Y-90186667D01*
X127270270Y-90195026D01*
X127235762Y-90206238D01*
X127189975Y-90221116D01*
X127189971Y-90221117D01*
X127185345Y-90222621D01*
X127185001Y-90221562D01*
X127145069Y-90229500D01*
X126972130Y-90229500D01*
X126972123Y-90229501D01*
X126912516Y-90235908D01*
X126777671Y-90286202D01*
X126777664Y-90286206D01*
X126662455Y-90372452D01*
X126662452Y-90372455D01*
X126576206Y-90487664D01*
X126576202Y-90487671D01*
X126525908Y-90622517D01*
X126519501Y-90682116D01*
X126519500Y-90682135D01*
X126519500Y-90855068D01*
X126511559Y-90894997D01*
X126512621Y-90895342D01*
X126450291Y-91087169D01*
X126450291Y-91087172D01*
X126419500Y-91281577D01*
X126419500Y-91478422D01*
X126450291Y-91672827D01*
X126450291Y-91672830D01*
X126512621Y-91864658D01*
X126511556Y-91865003D01*
X126519500Y-91904930D01*
X126519500Y-92077869D01*
X126519501Y-92077876D01*
X126525908Y-92137483D01*
X126576202Y-92272328D01*
X126576206Y-92272335D01*
X126662452Y-92387544D01*
X126662455Y-92387547D01*
X126777664Y-92473793D01*
X126777671Y-92473797D01*
X126819774Y-92489500D01*
X126912517Y-92524091D01*
X126972127Y-92530500D01*
X127145066Y-92530499D01*
X127184994Y-92538442D01*
X127185341Y-92537378D01*
X127189973Y-92538883D01*
X127189975Y-92538884D01*
X127256499Y-92560499D01*
X127377173Y-92599709D01*
X127571578Y-92630500D01*
X127571583Y-92630500D01*
X131570664Y-92630500D01*
X131637703Y-92650185D01*
X131658345Y-92666819D01*
X134451944Y-95460418D01*
X134481969Y-95509094D01*
X134493999Y-95545397D01*
X134515186Y-95609334D01*
X134594952Y-95738656D01*
X134607289Y-95758657D01*
X134676451Y-95827819D01*
X134709936Y-95889142D01*
X134704952Y-95958834D01*
X134663080Y-96014767D01*
X134597616Y-96039184D01*
X134588770Y-96039500D01*
X131378190Y-96039500D01*
X131311151Y-96019815D01*
X131265396Y-95967011D01*
X131255452Y-95897853D01*
X131284477Y-95834297D01*
X131321896Y-95805015D01*
X131350226Y-95790580D01*
X131350225Y-95790580D01*
X131350228Y-95790579D01*
X131534937Y-95656379D01*
X131696379Y-95494937D01*
X131830579Y-95310228D01*
X131934231Y-95106799D01*
X132004784Y-94889660D01*
X132020433Y-94790858D01*
X132040500Y-94664162D01*
X132040500Y-94435837D01*
X132004784Y-94210339D01*
X131960926Y-94075360D01*
X131934231Y-93993201D01*
X131934229Y-93993198D01*
X131934229Y-93993196D01*
X131863028Y-93853457D01*
X131830579Y-93789772D01*
X131696379Y-93605063D01*
X131534937Y-93443621D01*
X131350228Y-93309421D01*
X131331428Y-93299842D01*
X131146803Y-93205770D01*
X130929660Y-93135215D01*
X130704162Y-93099500D01*
X130704157Y-93099500D01*
X129475843Y-93099500D01*
X129475838Y-93099500D01*
X129250339Y-93135215D01*
X129033196Y-93205770D01*
X128829771Y-93309421D01*
X128645061Y-93443622D01*
X128483622Y-93605061D01*
X128349421Y-93789771D01*
X128245770Y-93993196D01*
X128175215Y-94210339D01*
X128139500Y-94435837D01*
X128139500Y-94664162D01*
X128175215Y-94889660D01*
X128245770Y-95106803D01*
X128324637Y-95261587D01*
X128349421Y-95310228D01*
X128483621Y-95494937D01*
X128645063Y-95656379D01*
X128738060Y-95723946D01*
X128829773Y-95790580D01*
X128858104Y-95805015D01*
X128908900Y-95852989D01*
X128925696Y-95920810D01*
X128903159Y-95986945D01*
X128848444Y-96030397D01*
X128801810Y-96039500D01*
X126771230Y-96039500D01*
X126704191Y-96019815D01*
X126658436Y-95967011D01*
X126648492Y-95897853D01*
X126677517Y-95834297D01*
X126683549Y-95827819D01*
X126706353Y-95805015D01*
X126752712Y-95758656D01*
X126844814Y-95609334D01*
X126899999Y-95442797D01*
X126910500Y-95340009D01*
X126910499Y-95261584D01*
X126916569Y-95223263D01*
X126916570Y-95223261D01*
X126929709Y-95182826D01*
X126948332Y-95065241D01*
X126960500Y-94988421D01*
X126960500Y-94791577D01*
X126939689Y-94660185D01*
X126929709Y-94597173D01*
X126906841Y-94526796D01*
X126901417Y-94501092D01*
X126899999Y-94487203D01*
X126844814Y-94320666D01*
X126752712Y-94171344D01*
X126689609Y-94108241D01*
X126676974Y-94093447D01*
X126663832Y-94075360D01*
X126663828Y-94075354D01*
X123034646Y-90446172D01*
X122875405Y-90330476D01*
X122836153Y-90310476D01*
X122700030Y-90241117D01*
X122512826Y-90180290D01*
X122318422Y-90149500D01*
X122318417Y-90149500D01*
X118253270Y-90149500D01*
X118186231Y-90129815D01*
X118140476Y-90077011D01*
X118130532Y-90007853D01*
X118159557Y-89944297D01*
X118187993Y-89920073D01*
X118197320Y-89914298D01*
X118346302Y-89822052D01*
X118503872Y-89678407D01*
X118632366Y-89508255D01*
X118716302Y-89339687D01*
X118727403Y-89317394D01*
X118727403Y-89317393D01*
X118727405Y-89317389D01*
X118785756Y-89112310D01*
X118805429Y-88900000D01*
X118785756Y-88687690D01*
X118727405Y-88482611D01*
X118727403Y-88482606D01*
X118727403Y-88482605D01*
X118632367Y-88291746D01*
X118542945Y-88173334D01*
X118503872Y-88121593D01*
X118450252Y-88072712D01*
X118361318Y-87991637D01*
X118325036Y-87931926D01*
X118326797Y-87862078D01*
X118361318Y-87808363D01*
X118417437Y-87757203D01*
X118503872Y-87678407D01*
X118632366Y-87508255D01*
X118642326Y-87488253D01*
X118727403Y-87317394D01*
X118727403Y-87317393D01*
X118727405Y-87317389D01*
X118785756Y-87112310D01*
X118805429Y-86900000D01*
X118785756Y-86687690D01*
X118727405Y-86482611D01*
X118727403Y-86482606D01*
X118727403Y-86482605D01*
X118632367Y-86291746D01*
X118503872Y-86121593D01*
X118474905Y-86095186D01*
X118346302Y-85977948D01*
X118165019Y-85865702D01*
X118165017Y-85865701D01*
X118065608Y-85827190D01*
X117966198Y-85788679D01*
X117876375Y-85771888D01*
X117814096Y-85740221D01*
X117778823Y-85679908D01*
X117781757Y-85610100D01*
X117821966Y-85552960D01*
X117876374Y-85528111D01*
X117966198Y-85511321D01*
X118165019Y-85434298D01*
X118346302Y-85322052D01*
X118503872Y-85178407D01*
X118632366Y-85008255D01*
X118691999Y-84888495D01*
X118727403Y-84817394D01*
X118727403Y-84817393D01*
X118727405Y-84817389D01*
X118785756Y-84612310D01*
X118805429Y-84400000D01*
X118785756Y-84187690D01*
X118727405Y-83982611D01*
X118727403Y-83982606D01*
X118727403Y-83982605D01*
X118632367Y-83791746D01*
X118503872Y-83621593D01*
X118447479Y-83570184D01*
X118346302Y-83477948D01*
X118165019Y-83365702D01*
X118165017Y-83365701D01*
X118017065Y-83308385D01*
X117966198Y-83288679D01*
X117756610Y-83249500D01*
X117543390Y-83249500D01*
X117333802Y-83288679D01*
X117333799Y-83288679D01*
X117333799Y-83288680D01*
X117134982Y-83365701D01*
X117134980Y-83365702D01*
X116953699Y-83477947D01*
X116796127Y-83621593D01*
X116667632Y-83791746D01*
X116572596Y-83982605D01*
X116572596Y-83982607D01*
X116514244Y-84187689D01*
X116500085Y-84340498D01*
X116494571Y-84400000D01*
X116514244Y-84612310D01*
X116566904Y-84797389D01*
X116572596Y-84817392D01*
X116572596Y-84817394D01*
X116667632Y-85008253D01*
X116796127Y-85178406D01*
X116796128Y-85178407D01*
X116953698Y-85322052D01*
X117134981Y-85434298D01*
X117333802Y-85511321D01*
X117423623Y-85528111D01*
X117485903Y-85559780D01*
X117521176Y-85620092D01*
X117518242Y-85689900D01*
X117478033Y-85747040D01*
X117423623Y-85771888D01*
X117333802Y-85788679D01*
X117333799Y-85788679D01*
X117333799Y-85788680D01*
X117134982Y-85865701D01*
X117134980Y-85865702D01*
X116953699Y-85977947D01*
X116796127Y-86121593D01*
X116667632Y-86291746D01*
X116572596Y-86482605D01*
X116572596Y-86482607D01*
X116514244Y-86687689D01*
X116507285Y-86762796D01*
X116494571Y-86900000D01*
X116514244Y-87112310D01*
X116566904Y-87297389D01*
X116572596Y-87317392D01*
X116572596Y-87317394D01*
X116667632Y-87508253D01*
X116796127Y-87678406D01*
X116938682Y-87808363D01*
X116974963Y-87868075D01*
X116973202Y-87937922D01*
X116938682Y-87991637D01*
X116796127Y-88121593D01*
X116667632Y-88291746D01*
X116572596Y-88482605D01*
X116572596Y-88482607D01*
X116514244Y-88687689D01*
X116507285Y-88762796D01*
X116494571Y-88900000D01*
X116514244Y-89112310D01*
X116567250Y-89298605D01*
X116572596Y-89317392D01*
X116572596Y-89317394D01*
X116667632Y-89508253D01*
X116791420Y-89672173D01*
X116796128Y-89678407D01*
X116953698Y-89822052D01*
X117134981Y-89934298D01*
X117256744Y-89981468D01*
X117312145Y-90024041D01*
X117335736Y-90089807D01*
X117320025Y-90157888D01*
X117270002Y-90206667D01*
X117250270Y-90215026D01*
X117218405Y-90225380D01*
X117169975Y-90241116D01*
X117169971Y-90241117D01*
X117165345Y-90242621D01*
X117165001Y-90241562D01*
X117125069Y-90249500D01*
X116952130Y-90249500D01*
X116952123Y-90249501D01*
X116892516Y-90255908D01*
X116757671Y-90306202D01*
X116757664Y-90306206D01*
X116642455Y-90392452D01*
X116642452Y-90392455D01*
X116556206Y-90507664D01*
X116556202Y-90507671D01*
X116505908Y-90642517D01*
X116499501Y-90702116D01*
X116499500Y-90702135D01*
X116499500Y-90875068D01*
X116491559Y-90914997D01*
X116492621Y-90915342D01*
X116430291Y-91107169D01*
X116430291Y-91107172D01*
X116399500Y-91301577D01*
X116399500Y-91498422D01*
X116430291Y-91692827D01*
X116430291Y-91692830D01*
X116492621Y-91884658D01*
X116491556Y-91885003D01*
X116499500Y-91924930D01*
X116499500Y-92097869D01*
X116499501Y-92097876D01*
X116505908Y-92157483D01*
X116556202Y-92292328D01*
X116556206Y-92292335D01*
X116642452Y-92407544D01*
X116642455Y-92407547D01*
X116757664Y-92493793D01*
X116757671Y-92493797D01*
X116767015Y-92497282D01*
X116892517Y-92544091D01*
X116952127Y-92550500D01*
X117125066Y-92550499D01*
X117164994Y-92558442D01*
X117165341Y-92557378D01*
X117169973Y-92558883D01*
X117169975Y-92558884D01*
X117200752Y-92568884D01*
X117357173Y-92619709D01*
X117551578Y-92650500D01*
X117551583Y-92650500D01*
X121650664Y-92650500D01*
X121717703Y-92670185D01*
X121738345Y-92686819D01*
X124511944Y-95460418D01*
X124541969Y-95509094D01*
X124553999Y-95545397D01*
X124575186Y-95609334D01*
X124654952Y-95738656D01*
X124667289Y-95758657D01*
X124736451Y-95827819D01*
X124769936Y-95889142D01*
X124764952Y-95958834D01*
X124723080Y-96014767D01*
X124657616Y-96039184D01*
X124648770Y-96039500D01*
X121396334Y-96039500D01*
X121329295Y-96019815D01*
X121283540Y-95967011D01*
X121273596Y-95897853D01*
X121302621Y-95834297D01*
X121326640Y-95813930D01*
X121326286Y-95813443D01*
X121357755Y-95790579D01*
X121514937Y-95676379D01*
X121676379Y-95514937D01*
X121810579Y-95330228D01*
X121914231Y-95126799D01*
X121984784Y-94909660D01*
X121993888Y-94852181D01*
X122020500Y-94684162D01*
X122020500Y-94455837D01*
X121984784Y-94230339D01*
X121941030Y-94095679D01*
X121914231Y-94013201D01*
X121914229Y-94013198D01*
X121914229Y-94013196D01*
X121859550Y-93905884D01*
X121810579Y-93809772D01*
X121676379Y-93625063D01*
X121514937Y-93463621D01*
X121330228Y-93329421D01*
X121272176Y-93299842D01*
X121126803Y-93225770D01*
X120909660Y-93155215D01*
X120684162Y-93119500D01*
X120684157Y-93119500D01*
X119455843Y-93119500D01*
X119455838Y-93119500D01*
X119230339Y-93155215D01*
X119013196Y-93225770D01*
X118809771Y-93329421D01*
X118625061Y-93463622D01*
X118463622Y-93625061D01*
X118329421Y-93809771D01*
X118225770Y-94013196D01*
X118155215Y-94230339D01*
X118119500Y-94455837D01*
X118119500Y-94684162D01*
X118155215Y-94909660D01*
X118225770Y-95126803D01*
X118324214Y-95320009D01*
X118329421Y-95330228D01*
X118463621Y-95514937D01*
X118625063Y-95676379D01*
X118763247Y-95776776D01*
X118813714Y-95813443D01*
X118812850Y-95814631D01*
X118855329Y-95861581D01*
X118866754Y-95930510D01*
X118839099Y-95994674D01*
X118781145Y-96033700D01*
X118743666Y-96039500D01*
X116381230Y-96039500D01*
X116314191Y-96019815D01*
X116268436Y-95967011D01*
X116258492Y-95897853D01*
X116287517Y-95834297D01*
X116293549Y-95827819D01*
X116332712Y-95788656D01*
X116382712Y-95738656D01*
X116474814Y-95589334D01*
X116529999Y-95422797D01*
X116540500Y-95320009D01*
X116540499Y-95261583D01*
X116546569Y-95223263D01*
X116559709Y-95182826D01*
X116578332Y-95065241D01*
X116590500Y-94988421D01*
X116590500Y-94791577D01*
X116566571Y-94640500D01*
X116559709Y-94597174D01*
X116559707Y-94597169D01*
X116559707Y-94597166D01*
X116539824Y-94535975D01*
X116534397Y-94510259D01*
X116529999Y-94467203D01*
X116474814Y-94300666D01*
X116382712Y-94151344D01*
X116258656Y-94027288D01*
X116237338Y-94014138D01*
X116214758Y-93996284D01*
X112674648Y-90456174D01*
X112674646Y-90456172D01*
X112515405Y-90340476D01*
X112469221Y-90316944D01*
X112340030Y-90251117D01*
X112152826Y-90190290D01*
X111958422Y-90159500D01*
X111958417Y-90159500D01*
X108233270Y-90159500D01*
X108166231Y-90139815D01*
X108120476Y-90087011D01*
X108110532Y-90017853D01*
X108139557Y-89954297D01*
X108167993Y-89930073D01*
X108326302Y-89832052D01*
X108483872Y-89688407D01*
X108612366Y-89518255D01*
X108676978Y-89388495D01*
X108707403Y-89327394D01*
X108707403Y-89327393D01*
X108707405Y-89327389D01*
X108765756Y-89122310D01*
X108785429Y-88910000D01*
X108765756Y-88697690D01*
X108707405Y-88492611D01*
X108707403Y-88492606D01*
X108707403Y-88492605D01*
X108612367Y-88301746D01*
X108525931Y-88187288D01*
X108483872Y-88131593D01*
X108472900Y-88121591D01*
X108341318Y-88001637D01*
X108305036Y-87941926D01*
X108306797Y-87872078D01*
X108341318Y-87818363D01*
X108359210Y-87802052D01*
X108483872Y-87688407D01*
X108612366Y-87518255D01*
X108683104Y-87376193D01*
X108707403Y-87327394D01*
X108707403Y-87327393D01*
X108707405Y-87327389D01*
X108765756Y-87122310D01*
X108785429Y-86910000D01*
X108765756Y-86697690D01*
X108707405Y-86492611D01*
X108707403Y-86492606D01*
X108707403Y-86492605D01*
X108612367Y-86301746D01*
X108483872Y-86131593D01*
X108450964Y-86101593D01*
X108326302Y-85987948D01*
X108145019Y-85875702D01*
X108145017Y-85875701D01*
X108031500Y-85831725D01*
X107946198Y-85798679D01*
X107856375Y-85781888D01*
X107794096Y-85750221D01*
X107758823Y-85689908D01*
X107761757Y-85620100D01*
X107801966Y-85562960D01*
X107856374Y-85538111D01*
X107946198Y-85521321D01*
X108145019Y-85444298D01*
X108326302Y-85332052D01*
X108483872Y-85188407D01*
X108612366Y-85018255D01*
X108617346Y-85008253D01*
X108707403Y-84827394D01*
X108707403Y-84827393D01*
X108707405Y-84827389D01*
X108765756Y-84622310D01*
X108785429Y-84410000D01*
X108765756Y-84197690D01*
X108707405Y-83992611D01*
X108707403Y-83992606D01*
X108707403Y-83992605D01*
X108612367Y-83801746D01*
X108483872Y-83631593D01*
X108372439Y-83530008D01*
X108326302Y-83487948D01*
X108145019Y-83375702D01*
X108145017Y-83375701D01*
X108045608Y-83337190D01*
X107946198Y-83298679D01*
X107736610Y-83259500D01*
X107523390Y-83259500D01*
X107313802Y-83298679D01*
X107313799Y-83298679D01*
X107313799Y-83298680D01*
X107114982Y-83375701D01*
X107114980Y-83375702D01*
X106933699Y-83487947D01*
X106776127Y-83631593D01*
X106647632Y-83801746D01*
X106555500Y-83986775D01*
X106507997Y-84038013D01*
X106440335Y-84055434D01*
X106373994Y-84033509D01*
X106330039Y-83979197D01*
X106320500Y-83931504D01*
X106320500Y-81125837D01*
X108109500Y-81125837D01*
X108109500Y-81354162D01*
X108145215Y-81579660D01*
X108215770Y-81796803D01*
X108304135Y-81970228D01*
X108319421Y-82000228D01*
X108453621Y-82184937D01*
X108615063Y-82346379D01*
X108799772Y-82480579D01*
X108835007Y-82498532D01*
X109003196Y-82584229D01*
X109003198Y-82584229D01*
X109003201Y-82584231D01*
X109094020Y-82613740D01*
X109220339Y-82654784D01*
X109445838Y-82690500D01*
X109445843Y-82690500D01*
X110674162Y-82690500D01*
X110899660Y-82654784D01*
X110911666Y-82650883D01*
X111116799Y-82584231D01*
X111320228Y-82480579D01*
X111504937Y-82346379D01*
X111666379Y-82184937D01*
X111800579Y-82000228D01*
X111904231Y-81796799D01*
X111974784Y-81579660D01*
X111982743Y-81529407D01*
X112010500Y-81354162D01*
X112010500Y-81125837D01*
X112008916Y-81115837D01*
X118129500Y-81115837D01*
X118129500Y-81344162D01*
X118165215Y-81569660D01*
X118235770Y-81786803D01*
X118339421Y-81990228D01*
X118473621Y-82174937D01*
X118635063Y-82336379D01*
X118819772Y-82470579D01*
X118874633Y-82498532D01*
X119023196Y-82574229D01*
X119023198Y-82574229D01*
X119023201Y-82574231D01*
X119082985Y-82593656D01*
X119240339Y-82644784D01*
X119465838Y-82680500D01*
X119465843Y-82680500D01*
X120694162Y-82680500D01*
X120919660Y-82644784D01*
X120963621Y-82630500D01*
X121136799Y-82574231D01*
X121340228Y-82470579D01*
X121524937Y-82336379D01*
X121686379Y-82174937D01*
X121820579Y-81990228D01*
X121924231Y-81786799D01*
X121994784Y-81569660D01*
X121998137Y-81548488D01*
X122030500Y-81344162D01*
X122030500Y-81115837D01*
X122027332Y-81095837D01*
X128149500Y-81095837D01*
X128149500Y-81324162D01*
X128185215Y-81549660D01*
X128255770Y-81766803D01*
X128338928Y-81930009D01*
X128359421Y-81970228D01*
X128493621Y-82154937D01*
X128655063Y-82316379D01*
X128839772Y-82450579D01*
X128908638Y-82485668D01*
X129043196Y-82554229D01*
X129043198Y-82554229D01*
X129043201Y-82554231D01*
X129135525Y-82584229D01*
X129260339Y-82624784D01*
X129485838Y-82660500D01*
X129485843Y-82660500D01*
X130714162Y-82660500D01*
X130939660Y-82624784D01*
X130958154Y-82618775D01*
X131156799Y-82554231D01*
X131360228Y-82450579D01*
X131544937Y-82316379D01*
X131706379Y-82154937D01*
X131840579Y-81970228D01*
X131944231Y-81766799D01*
X132014784Y-81549660D01*
X132021457Y-81507527D01*
X132050500Y-81324162D01*
X132050500Y-81125837D01*
X138169500Y-81125837D01*
X138169500Y-81354162D01*
X138205215Y-81579660D01*
X138275770Y-81796803D01*
X138364135Y-81970228D01*
X138379421Y-82000228D01*
X138513621Y-82184937D01*
X138675063Y-82346379D01*
X138859772Y-82480579D01*
X138895007Y-82498532D01*
X139063196Y-82584229D01*
X139063198Y-82584229D01*
X139063201Y-82584231D01*
X139154020Y-82613740D01*
X139280339Y-82654784D01*
X139505838Y-82690500D01*
X139505843Y-82690500D01*
X140734162Y-82690500D01*
X140959660Y-82654784D01*
X140971666Y-82650883D01*
X141176799Y-82584231D01*
X141380228Y-82480579D01*
X141564937Y-82346379D01*
X141726379Y-82184937D01*
X141860579Y-82000228D01*
X141964231Y-81796799D01*
X142034784Y-81579660D01*
X142042743Y-81529407D01*
X142070500Y-81354162D01*
X142070500Y-81125837D01*
X142065748Y-81095837D01*
X148169500Y-81095837D01*
X148169500Y-81324162D01*
X148205215Y-81549660D01*
X148275770Y-81766803D01*
X148358928Y-81930009D01*
X148379421Y-81970228D01*
X148513621Y-82154937D01*
X148675063Y-82316379D01*
X148859772Y-82450579D01*
X148928638Y-82485668D01*
X149063196Y-82554229D01*
X149063198Y-82554229D01*
X149063201Y-82554231D01*
X149155525Y-82584229D01*
X149280339Y-82624784D01*
X149505838Y-82660500D01*
X149505843Y-82660500D01*
X150734162Y-82660500D01*
X150959660Y-82624784D01*
X150978154Y-82618775D01*
X151176799Y-82554231D01*
X151380228Y-82450579D01*
X151564937Y-82316379D01*
X151726379Y-82154937D01*
X151860579Y-81970228D01*
X151964231Y-81766799D01*
X152034784Y-81549660D01*
X152041457Y-81507527D01*
X152070500Y-81324162D01*
X152070500Y-81095837D01*
X152034784Y-80870339D01*
X151981498Y-80706344D01*
X151964231Y-80653201D01*
X151964229Y-80653198D01*
X151964229Y-80653196D01*
X151905575Y-80538081D01*
X151860579Y-80449772D01*
X151726379Y-80265063D01*
X151564937Y-80103621D01*
X151380228Y-79969421D01*
X151358857Y-79958532D01*
X151176803Y-79865770D01*
X150959660Y-79795215D01*
X150734162Y-79759500D01*
X150734157Y-79759500D01*
X149505843Y-79759500D01*
X149505838Y-79759500D01*
X149280339Y-79795215D01*
X149063196Y-79865770D01*
X148859771Y-79969421D01*
X148675061Y-80103622D01*
X148513622Y-80265061D01*
X148379421Y-80449771D01*
X148275770Y-80653196D01*
X148205215Y-80870339D01*
X148169500Y-81095837D01*
X142065748Y-81095837D01*
X142034784Y-80900339D01*
X141973375Y-80711344D01*
X141964231Y-80683201D01*
X141964229Y-80683198D01*
X141964229Y-80683196D01*
X141890289Y-80538081D01*
X141860579Y-80479772D01*
X141726379Y-80295063D01*
X141564937Y-80133621D01*
X141380228Y-79999421D01*
X141343080Y-79980493D01*
X141176803Y-79895770D01*
X140959660Y-79825215D01*
X140734162Y-79789500D01*
X140734157Y-79789500D01*
X139505843Y-79789500D01*
X139505838Y-79789500D01*
X139280339Y-79825215D01*
X139063196Y-79895770D01*
X138859771Y-79999421D01*
X138675061Y-80133622D01*
X138513622Y-80295061D01*
X138379421Y-80479771D01*
X138275770Y-80683196D01*
X138205215Y-80900339D01*
X138169500Y-81125837D01*
X132050500Y-81125837D01*
X132050500Y-81095837D01*
X132014784Y-80870339D01*
X131961498Y-80706344D01*
X131944231Y-80653201D01*
X131944229Y-80653198D01*
X131944229Y-80653196D01*
X131885575Y-80538081D01*
X131840579Y-80449772D01*
X131706379Y-80265063D01*
X131544937Y-80103621D01*
X131360228Y-79969421D01*
X131338857Y-79958532D01*
X131156803Y-79865770D01*
X130939660Y-79795215D01*
X130714162Y-79759500D01*
X130714157Y-79759500D01*
X129485843Y-79759500D01*
X129485838Y-79759500D01*
X129260339Y-79795215D01*
X129043196Y-79865770D01*
X128839771Y-79969421D01*
X128655061Y-80103622D01*
X128493622Y-80265061D01*
X128359421Y-80449771D01*
X128255770Y-80653196D01*
X128185215Y-80870339D01*
X128149500Y-81095837D01*
X122027332Y-81095837D01*
X121994784Y-80890339D01*
X121927480Y-80683201D01*
X121924231Y-80673201D01*
X121924229Y-80673198D01*
X121924229Y-80673196D01*
X121869550Y-80565884D01*
X121820579Y-80469772D01*
X121686379Y-80285063D01*
X121524937Y-80123621D01*
X121340228Y-79989421D01*
X121322706Y-79980493D01*
X121136803Y-79885770D01*
X120919660Y-79815215D01*
X120694162Y-79779500D01*
X120694157Y-79779500D01*
X119465843Y-79779500D01*
X119465838Y-79779500D01*
X119240339Y-79815215D01*
X119023196Y-79885770D01*
X118819771Y-79989421D01*
X118635061Y-80123622D01*
X118473622Y-80285061D01*
X118339421Y-80469771D01*
X118235770Y-80673196D01*
X118165215Y-80890339D01*
X118129500Y-81115837D01*
X112008916Y-81115837D01*
X111974784Y-80900339D01*
X111913375Y-80711344D01*
X111904231Y-80683201D01*
X111904229Y-80683198D01*
X111904229Y-80683196D01*
X111830289Y-80538081D01*
X111800579Y-80479772D01*
X111666379Y-80295063D01*
X111504937Y-80133621D01*
X111320228Y-79999421D01*
X111283080Y-79980493D01*
X111116803Y-79895770D01*
X110899660Y-79825215D01*
X110674162Y-79789500D01*
X110674157Y-79789500D01*
X109445843Y-79789500D01*
X109445838Y-79789500D01*
X109220339Y-79825215D01*
X109003196Y-79895770D01*
X108799771Y-79999421D01*
X108615061Y-80133622D01*
X108453622Y-80295061D01*
X108319421Y-80479771D01*
X108215770Y-80683196D01*
X108145215Y-80900339D01*
X108109500Y-81125837D01*
X106320500Y-81125837D01*
X106320500Y-79071519D01*
X106340185Y-79004480D01*
X106356819Y-78983838D01*
X116613838Y-68726819D01*
X116675161Y-68693334D01*
X116701519Y-68690500D01*
X119272996Y-68690500D01*
X119338968Y-68709506D01*
X119341171Y-68710890D01*
X119372310Y-68730456D01*
X119493621Y-68772904D01*
X119531943Y-68786314D01*
X119699997Y-68805249D01*
X119700000Y-68805249D01*
X119700003Y-68805249D01*
X119867406Y-68786387D01*
X119881290Y-68785607D01*
X121202876Y-68785607D01*
X121269915Y-68805292D01*
X121290557Y-68821925D01*
X121401344Y-68932712D01*
X121550666Y-69024814D01*
X121717203Y-69079999D01*
X121819991Y-69090500D01*
X122820008Y-69090499D01*
X122820016Y-69090498D01*
X122820019Y-69090498D01*
X122876302Y-69084748D01*
X122922797Y-69079999D01*
X123089334Y-69024814D01*
X123238656Y-68932712D01*
X123362712Y-68808656D01*
X123454814Y-68659334D01*
X123509999Y-68492797D01*
X123520500Y-68390009D01*
X123520499Y-67589992D01*
X123517715Y-67562743D01*
X123509999Y-67487203D01*
X123509998Y-67487200D01*
X123507611Y-67479998D01*
X123454814Y-67320666D01*
X123362712Y-67171344D01*
X123269049Y-67077681D01*
X123235564Y-67016358D01*
X123240548Y-66946666D01*
X123269049Y-66902319D01*
X123291368Y-66880000D01*
X123362712Y-66808656D01*
X123454814Y-66659334D01*
X123509999Y-66492797D01*
X123520500Y-66390009D01*
X123520499Y-65589992D01*
X123515391Y-65539992D01*
X123509999Y-65487203D01*
X123509998Y-65487200D01*
X123507611Y-65479998D01*
X123454814Y-65320666D01*
X123362712Y-65171344D01*
X123266819Y-65075451D01*
X123233334Y-65014128D01*
X123230500Y-64987770D01*
X123230500Y-64421155D01*
X123230499Y-64421153D01*
X123200173Y-64268691D01*
X123206400Y-64199100D01*
X123249263Y-64143922D01*
X123315153Y-64120678D01*
X123321790Y-64120500D01*
X131621729Y-64120500D01*
X131688768Y-64140185D01*
G37*
%TD.AperFunction*%
%TA.AperFunction,Conductor*%
G36*
X172673332Y-79753745D02*
G01*
X172717682Y-79782247D01*
X172758151Y-79822717D01*
X172758154Y-79822719D01*
X172758155Y-79822720D01*
X172917927Y-79929477D01*
X172917928Y-79929477D01*
X172917929Y-79929478D01*
X172917931Y-79929479D01*
X173095452Y-80003010D01*
X173095457Y-80003012D01*
X173256272Y-80035000D01*
X173283917Y-80040499D01*
X173283920Y-80040500D01*
X173283922Y-80040500D01*
X173476080Y-80040500D01*
X173476081Y-80040499D01*
X173664543Y-80003012D01*
X173706217Y-79985749D01*
X173775685Y-79978281D01*
X173838164Y-80009556D01*
X173873817Y-80069644D01*
X173871324Y-80139470D01*
X173841350Y-80187992D01*
X173065888Y-80963453D01*
X173065887Y-80963454D01*
X172989223Y-81078192D01*
X172936421Y-81205668D01*
X172936418Y-81205680D01*
X172927607Y-81249976D01*
X172927607Y-81249977D01*
X172909500Y-81341004D01*
X172909500Y-81955201D01*
X172889815Y-82022240D01*
X172850598Y-82060739D01*
X172791344Y-82097287D01*
X172667289Y-82221342D01*
X172667288Y-82221344D01*
X172588762Y-82348657D01*
X172571395Y-82376813D01*
X172570273Y-82376121D01*
X172529140Y-82422842D01*
X172462926Y-82442000D01*
X172452088Y-82442000D01*
X172385049Y-82422315D01*
X172346549Y-82383097D01*
X172342673Y-82376813D01*
X172317712Y-82336344D01*
X172193656Y-82212288D01*
X172044334Y-82120186D01*
X171877797Y-82065001D01*
X171877795Y-82065000D01*
X171775010Y-82054500D01*
X170724998Y-82054500D01*
X170724980Y-82054501D01*
X170622203Y-82065000D01*
X170622200Y-82065001D01*
X170455668Y-82120185D01*
X170455663Y-82120187D01*
X170306342Y-82212289D01*
X170182289Y-82336342D01*
X170090187Y-82485663D01*
X170090185Y-82485668D01*
X170085920Y-82498539D01*
X170035001Y-82652203D01*
X170035001Y-82652204D01*
X170035000Y-82652204D01*
X170024500Y-82754983D01*
X170024500Y-83530001D01*
X170024501Y-83530019D01*
X170035000Y-83632796D01*
X170035001Y-83632799D01*
X170037393Y-83640016D01*
X170090186Y-83799334D01*
X170182288Y-83948656D01*
X170306344Y-84072712D01*
X170455666Y-84164814D01*
X170622203Y-84219999D01*
X170724991Y-84230500D01*
X171775008Y-84230499D01*
X171775016Y-84230498D01*
X171775019Y-84230498D01*
X171851747Y-84222660D01*
X171877797Y-84219999D01*
X172044334Y-84164814D01*
X172193656Y-84072712D01*
X172317712Y-83948656D01*
X172346549Y-83901902D01*
X172398497Y-83855179D01*
X172452088Y-83843000D01*
X172465257Y-83843000D01*
X172532296Y-83862685D01*
X172568980Y-83904676D01*
X172571395Y-83903187D01*
X172575185Y-83909331D01*
X172575186Y-83909334D01*
X172667288Y-84058656D01*
X172791344Y-84182712D01*
X172940666Y-84274814D01*
X173107203Y-84329999D01*
X173209991Y-84340500D01*
X174010008Y-84340499D01*
X174010016Y-84340498D01*
X174010019Y-84340498D01*
X174066302Y-84334748D01*
X174112797Y-84329999D01*
X174279334Y-84274814D01*
X174428656Y-84182712D01*
X174522321Y-84089046D01*
X174583640Y-84055564D01*
X174653332Y-84060548D01*
X174697680Y-84089048D01*
X174783182Y-84174550D01*
X174816666Y-84235871D01*
X174819500Y-84262230D01*
X174819500Y-85309551D01*
X174799815Y-85376590D01*
X174747011Y-85422345D01*
X174734507Y-85427256D01*
X174725667Y-85430185D01*
X174576342Y-85522289D01*
X174452289Y-85646342D01*
X174423451Y-85693097D01*
X174371503Y-85739821D01*
X174317912Y-85752000D01*
X174258504Y-85752000D01*
X174123177Y-85778918D01*
X174123167Y-85778921D01*
X173995692Y-85831722D01*
X173880954Y-85908387D01*
X172955887Y-86833454D01*
X172879222Y-86948192D01*
X172826421Y-87075667D01*
X172826418Y-87075679D01*
X172806215Y-87177249D01*
X172806215Y-87177252D01*
X172799500Y-87211006D01*
X172799500Y-90735500D01*
X172779815Y-90802539D01*
X172727011Y-90848294D01*
X172675500Y-90859500D01*
X165310517Y-90859500D01*
X165243478Y-90839815D01*
X165197723Y-90787011D01*
X165187779Y-90717853D01*
X165216804Y-90654297D01*
X165222836Y-90647819D01*
X165414483Y-90456172D01*
X165609599Y-90261055D01*
X165670920Y-90227572D01*
X165709877Y-90225380D01*
X165759991Y-90230500D01*
X166760008Y-90230499D01*
X166760016Y-90230498D01*
X166760019Y-90230498D01*
X166837129Y-90222621D01*
X166862797Y-90219999D01*
X167029334Y-90164814D01*
X167178656Y-90072712D01*
X167302712Y-89948656D01*
X167394814Y-89799334D01*
X167449999Y-89632797D01*
X167460500Y-89530009D01*
X167460499Y-88729992D01*
X167458916Y-88714500D01*
X167449999Y-88627203D01*
X167449998Y-88627200D01*
X167420444Y-88538013D01*
X167394814Y-88460666D01*
X167302712Y-88311344D01*
X167209049Y-88217681D01*
X167175564Y-88156358D01*
X167180548Y-88086666D01*
X167209049Y-88042319D01*
X167249731Y-88001637D01*
X167302712Y-87948656D01*
X167394814Y-87799334D01*
X167449999Y-87632797D01*
X167460500Y-87530009D01*
X167460499Y-86729992D01*
X167449999Y-86627203D01*
X167394814Y-86460666D01*
X167302712Y-86311344D01*
X167178656Y-86187288D01*
X167029334Y-86095186D01*
X167029332Y-86095185D01*
X167023187Y-86091395D01*
X167024290Y-86089605D01*
X166979649Y-86050290D01*
X166960500Y-85984091D01*
X166960500Y-85511519D01*
X166980185Y-85444480D01*
X166996819Y-85423838D01*
X167804112Y-84616545D01*
X167804114Y-84616543D01*
X167880775Y-84501811D01*
X167884815Y-84492059D01*
X167918804Y-84410000D01*
X167933580Y-84374328D01*
X167960500Y-84238994D01*
X167960500Y-84101006D01*
X167960500Y-82736478D01*
X167980185Y-82669439D01*
X168032989Y-82623684D01*
X168102147Y-82613740D01*
X168123499Y-82618771D01*
X168127203Y-82619999D01*
X168229991Y-82630500D01*
X169230008Y-82630499D01*
X169230016Y-82630498D01*
X169230019Y-82630498D01*
X169296723Y-82623684D01*
X169332797Y-82619999D01*
X169499334Y-82564814D01*
X169648656Y-82472712D01*
X169772712Y-82348656D01*
X169864814Y-82199334D01*
X169919999Y-82032797D01*
X169930500Y-81930009D01*
X169930499Y-81129992D01*
X169930493Y-81129936D01*
X169919999Y-81027203D01*
X169919998Y-81027200D01*
X169918342Y-81022203D01*
X169864814Y-80860666D01*
X169772712Y-80711344D01*
X169648656Y-80587288D01*
X169499334Y-80495186D01*
X169499332Y-80495185D01*
X169493187Y-80491395D01*
X169494290Y-80489605D01*
X169449649Y-80450290D01*
X169430500Y-80384091D01*
X169430500Y-79936670D01*
X169450185Y-79869631D01*
X169485610Y-79833567D01*
X169501845Y-79822720D01*
X169542318Y-79782247D01*
X169603641Y-79748761D01*
X169673332Y-79753745D01*
X169717682Y-79782247D01*
X169758151Y-79822717D01*
X169758154Y-79822719D01*
X169758155Y-79822720D01*
X169917927Y-79929477D01*
X169917928Y-79929477D01*
X169917929Y-79929478D01*
X169917931Y-79929479D01*
X170095452Y-80003010D01*
X170095457Y-80003012D01*
X170256272Y-80035000D01*
X170283917Y-80040499D01*
X170283920Y-80040500D01*
X170283922Y-80040500D01*
X170476080Y-80040500D01*
X170476081Y-80040499D01*
X170664543Y-80003012D01*
X170842073Y-79929477D01*
X171001845Y-79822720D01*
X171042318Y-79782247D01*
X171103641Y-79748761D01*
X171173332Y-79753745D01*
X171217682Y-79782247D01*
X171258151Y-79822717D01*
X171258154Y-79822719D01*
X171258155Y-79822720D01*
X171417927Y-79929477D01*
X171417928Y-79929477D01*
X171417929Y-79929478D01*
X171417931Y-79929479D01*
X171595452Y-80003010D01*
X171595457Y-80003012D01*
X171756272Y-80035000D01*
X171783917Y-80040499D01*
X171783920Y-80040500D01*
X171783922Y-80040500D01*
X171976080Y-80040500D01*
X171976081Y-80040499D01*
X172164543Y-80003012D01*
X172342073Y-79929477D01*
X172501845Y-79822720D01*
X172542318Y-79782247D01*
X172603641Y-79748761D01*
X172673332Y-79753745D01*
G37*
%TD.AperFunction*%
%TA.AperFunction,Conductor*%
G36*
X121605249Y-64140185D02*
G01*
X121651004Y-64192989D01*
X121660948Y-64262147D01*
X121659827Y-64268691D01*
X121629500Y-64421153D01*
X121629500Y-64839522D01*
X121609815Y-64906561D01*
X121557011Y-64952316D01*
X121555804Y-64952789D01*
X121550669Y-64955184D01*
X121401342Y-65047289D01*
X121277289Y-65171342D01*
X121185187Y-65320663D01*
X121185185Y-65320668D01*
X121178334Y-65341344D01*
X121130001Y-65487203D01*
X121130001Y-65487204D01*
X121130000Y-65487204D01*
X121119500Y-65589983D01*
X121119500Y-66390001D01*
X121119501Y-66390019D01*
X121130000Y-66492796D01*
X121130001Y-66492799D01*
X121185185Y-66659331D01*
X121185187Y-66659336D01*
X121205202Y-66691785D01*
X121267507Y-66792799D01*
X121277289Y-66808657D01*
X121370951Y-66902319D01*
X121404436Y-66963642D01*
X121399452Y-67033334D01*
X121370951Y-67077681D01*
X121277289Y-67171342D01*
X121271581Y-67180597D01*
X121241407Y-67229518D01*
X121240741Y-67230597D01*
X121188793Y-67277321D01*
X121135202Y-67289500D01*
X116291004Y-67289500D01*
X116155677Y-67316418D01*
X116155667Y-67316421D01*
X116028192Y-67369222D01*
X115913454Y-67445887D01*
X113120526Y-70238815D01*
X113059203Y-70272300D01*
X112989511Y-70267316D01*
X112933578Y-70225444D01*
X112909161Y-70159980D01*
X112918283Y-70103683D01*
X112963580Y-69994328D01*
X112979310Y-69915249D01*
X112990500Y-69858996D01*
X112990500Y-69025908D01*
X113010185Y-68958869D01*
X113054271Y-68920363D01*
X113053187Y-68918605D01*
X113059332Y-68914814D01*
X113059334Y-68914814D01*
X113208656Y-68822712D01*
X113332712Y-68698656D01*
X113424814Y-68549334D01*
X113479999Y-68382797D01*
X113490500Y-68280009D01*
X113490499Y-67479992D01*
X113490351Y-67478548D01*
X113479999Y-67377203D01*
X113479998Y-67377200D01*
X113476775Y-67367475D01*
X113424814Y-67210666D01*
X113332712Y-67061344D01*
X113239049Y-66967681D01*
X113205564Y-66906358D01*
X113210548Y-66836666D01*
X113239049Y-66792319D01*
X113272712Y-66758656D01*
X113332712Y-66698656D01*
X113424814Y-66549334D01*
X113479999Y-66382797D01*
X113490500Y-66280009D01*
X113490499Y-65479992D01*
X113489615Y-65471342D01*
X113479999Y-65377203D01*
X113479998Y-65377200D01*
X113457634Y-65309711D01*
X113424814Y-65210666D01*
X113332712Y-65061344D01*
X113208656Y-64937288D01*
X113104402Y-64872984D01*
X113057679Y-64821037D01*
X113045500Y-64767446D01*
X113045500Y-64741155D01*
X113045499Y-64741153D01*
X113032694Y-64676777D01*
X113014737Y-64586503D01*
X112983530Y-64511161D01*
X112954397Y-64440827D01*
X112954390Y-64440814D01*
X112869248Y-64313391D01*
X112848370Y-64246714D01*
X112866854Y-64179334D01*
X112918833Y-64132643D01*
X112972350Y-64120500D01*
X121538210Y-64120500D01*
X121605249Y-64140185D01*
G37*
%TD.AperFunction*%
%TD*%
M02*
