%TF.GenerationSoftware,KiCad,Pcbnew,8.0.4*%
%TF.CreationDate,2025-06-08T15:43:54+10:00*%
%TF.ProjectId,USBPowerBlock,55534250-6f77-4657-9242-6c6f636b2e6b,rev?*%
%TF.SameCoordinates,Original*%
%TF.FileFunction,Soldermask,Bot*%
%TF.FilePolarity,Negative*%
%FSLAX46Y46*%
G04 Gerber Fmt 4.6, Leading zero omitted, Abs format (unit mm)*
G04 Created by KiCad (PCBNEW 8.0.4) date 2025-06-08 15:43:54*
%MOMM*%
%LPD*%
G01*
G04 APERTURE LIST*
G04 Aperture macros list*
%AMRoundRect*
0 Rectangle with rounded corners*
0 $1 Rounding radius*
0 $2 $3 $4 $5 $6 $7 $8 $9 X,Y pos of 4 corners*
0 Add a 4 corners polygon primitive as box body*
4,1,4,$2,$3,$4,$5,$6,$7,$8,$9,$2,$3,0*
0 Add four circle primitives for the rounded corners*
1,1,$1+$1,$2,$3*
1,1,$1+$1,$4,$5*
1,1,$1+$1,$6,$7*
1,1,$1+$1,$8,$9*
0 Add four rect primitives between the rounded corners*
20,1,$1+$1,$2,$3,$4,$5,0*
20,1,$1+$1,$4,$5,$6,$7,0*
20,1,$1+$1,$6,$7,$8,$9,0*
20,1,$1+$1,$8,$9,$2,$3,0*%
G04 Aperture macros list end*
%ADD10C,3.200000*%
%ADD11RoundRect,0.102000X0.787500X-0.787500X0.787500X0.787500X-0.787500X0.787500X-0.787500X-0.787500X0*%
%ADD12C,1.779000*%
%ADD13R,1.300000X1.300000*%
%ADD14C,1.300000*%
%ADD15O,2.900000X1.900000*%
%ADD16R,1.000000X1.000000*%
%ADD17O,1.000000X1.000000*%
%ADD18R,0.900000X1.300000*%
%ADD19O,0.950000X2.000000*%
%ADD20RoundRect,0.250000X0.450000X-0.350000X0.450000X0.350000X-0.450000X0.350000X-0.450000X-0.350000X0*%
%ADD21RoundRect,0.250000X0.450000X-0.325000X0.450000X0.325000X-0.450000X0.325000X-0.450000X-0.325000X0*%
%ADD22RoundRect,0.250000X-0.450000X0.350000X-0.450000X-0.350000X0.450000X-0.350000X0.450000X0.350000X0*%
%ADD23RoundRect,0.250000X0.475000X-0.337500X0.475000X0.337500X-0.475000X0.337500X-0.475000X-0.337500X0*%
%ADD24RoundRect,0.250000X-0.350000X-0.450000X0.350000X-0.450000X0.350000X0.450000X-0.350000X0.450000X0*%
%ADD25RoundRect,0.250000X-0.475000X0.337500X-0.475000X-0.337500X0.475000X-0.337500X0.475000X0.337500X0*%
%ADD26RoundRect,0.375000X0.375000X-0.625000X0.375000X0.625000X-0.375000X0.625000X-0.375000X-0.625000X0*%
%ADD27RoundRect,0.500000X1.400000X-0.500000X1.400000X0.500000X-1.400000X0.500000X-1.400000X-0.500000X0*%
%ADD28RoundRect,0.250000X0.337500X0.475000X-0.337500X0.475000X-0.337500X-0.475000X0.337500X-0.475000X0*%
%ADD29RoundRect,0.250000X0.350000X0.450000X-0.350000X0.450000X-0.350000X-0.450000X0.350000X-0.450000X0*%
%ADD30RoundRect,0.250000X-0.450000X0.325000X-0.450000X-0.325000X0.450000X-0.325000X0.450000X0.325000X0*%
G04 APERTURE END LIST*
D10*
%TO.C,H3*%
X103890000Y-97480000D03*
%TD*%
%TO.C,H1*%
X173020000Y-66330000D03*
%TD*%
D11*
%TO.C,J7*%
X165510000Y-69510000D03*
D12*
X165510000Y-72010000D03*
%TD*%
D13*
%TO.C,J3*%
X132450000Y-91380000D03*
D14*
X132450000Y-88880000D03*
X132450000Y-86880000D03*
X132450000Y-84380000D03*
D15*
X130020000Y-94550000D03*
X130030000Y-81210000D03*
%TD*%
D13*
%TO.C,J5*%
X152470000Y-91380000D03*
D14*
X152470000Y-88880000D03*
X152470000Y-86880000D03*
X152470000Y-84380000D03*
D15*
X150040000Y-94550000D03*
X150050000Y-81210000D03*
%TD*%
D16*
%TO.C,J6*%
X102500000Y-78130000D03*
D17*
X102500000Y-79400000D03*
X102500000Y-80670000D03*
X102500000Y-81940000D03*
X102500000Y-83210000D03*
%TD*%
D10*
%TO.C,H4*%
X103190000Y-66340000D03*
%TD*%
D18*
%TO.C,U1*%
X176380000Y-76690000D03*
D19*
X176380000Y-78540000D03*
D18*
X174880000Y-76690000D03*
D19*
X174880000Y-78540000D03*
D18*
X173380000Y-76690000D03*
D19*
X173380000Y-78540000D03*
D18*
X171880000Y-76690000D03*
D19*
X171880000Y-78540000D03*
D18*
X170380000Y-76690000D03*
D19*
X170380000Y-78540000D03*
D18*
X168880000Y-76690000D03*
D19*
X168880000Y-78540000D03*
D18*
X167380000Y-76690000D03*
D19*
X167380000Y-78540000D03*
D18*
X165880000Y-76690000D03*
D19*
X165880000Y-78540000D03*
D18*
X164380000Y-76690000D03*
D19*
X164380000Y-78540000D03*
X164420000Y-96440000D03*
D18*
X164420000Y-98290000D03*
D19*
X165920000Y-96440000D03*
D18*
X165920000Y-98290000D03*
D19*
X167420000Y-96440000D03*
D18*
X167420000Y-98290000D03*
D19*
X168920000Y-96440000D03*
D18*
X168920000Y-98290000D03*
D19*
X170420000Y-96440000D03*
D18*
X170420000Y-98290000D03*
D19*
X171920000Y-96440000D03*
D18*
X171920000Y-98290000D03*
D19*
X173420000Y-96440000D03*
D18*
X173420000Y-98290000D03*
D19*
X174920000Y-96440000D03*
D18*
X174920000Y-98290000D03*
D19*
X176420000Y-96440000D03*
D18*
X176420000Y-98290000D03*
%TD*%
D13*
%TO.C,J1*%
X112410000Y-91410000D03*
D14*
X112410000Y-88910000D03*
X112410000Y-86910000D03*
X112410000Y-84410000D03*
D15*
X109980000Y-94580000D03*
X109990000Y-81240000D03*
%TD*%
D10*
%TO.C,H2*%
X159010000Y-97440000D03*
%TD*%
D13*
%TO.C,J2*%
X122430000Y-91400000D03*
D14*
X122430000Y-88900000D03*
X122430000Y-86900000D03*
X122430000Y-84400000D03*
D15*
X120000000Y-94570000D03*
X120010000Y-81230000D03*
%TD*%
D13*
%TO.C,J4*%
X142470000Y-91410000D03*
D14*
X142470000Y-88910000D03*
X142470000Y-86910000D03*
X142470000Y-84410000D03*
D15*
X140040000Y-94580000D03*
X140050000Y-81240000D03*
%TD*%
D20*
%TO.C,R10*%
X142340000Y-68290000D03*
X142340000Y-66290000D03*
%TD*%
D21*
%TO.C,F1*%
X115340000Y-96995000D03*
X115340000Y-94945000D03*
%TD*%
D22*
%TO.C,R15*%
X168730000Y-81530000D03*
X168730000Y-83530000D03*
%TD*%
D23*
%TO.C,C3*%
X168410000Y-66907500D03*
X168410000Y-64832500D03*
%TD*%
D21*
%TO.C,F3*%
X135650000Y-97015000D03*
X135650000Y-94965000D03*
%TD*%
D24*
%TO.C,R3*%
X173610000Y-83140000D03*
X175610000Y-83140000D03*
%TD*%
D20*
%TO.C,R8*%
X132360000Y-67940000D03*
X132360000Y-65940000D03*
%TD*%
D22*
%TO.C,R4*%
X163470000Y-86260000D03*
X163470000Y-88260000D03*
%TD*%
D23*
%TO.C,C6*%
X165470000Y-66917500D03*
X165470000Y-64842500D03*
%TD*%
D25*
%TO.C,C1*%
X171250000Y-83142500D03*
X171250000Y-85217500D03*
%TD*%
D20*
%TO.C,R12*%
X152660000Y-68160000D03*
X152660000Y-66160000D03*
%TD*%
D26*
%TO.C,U2*%
X162332500Y-72800000D03*
X160032500Y-72800000D03*
D27*
X160032500Y-66500000D03*
D26*
X157732500Y-72800000D03*
%TD*%
D20*
%TO.C,R2*%
X112290000Y-67880000D03*
X112290000Y-65880000D03*
%TD*%
D28*
%TO.C,C5*%
X159807500Y-81730000D03*
X157732500Y-81730000D03*
%TD*%
D29*
%TO.C,R17*%
X173810000Y-93190000D03*
X171810000Y-93190000D03*
%TD*%
D21*
%TO.C,F2*%
X125710000Y-97015000D03*
X125710000Y-94965000D03*
%TD*%
D20*
%TO.C,R6*%
X122320000Y-67990000D03*
X122320000Y-65990000D03*
%TD*%
D28*
%TO.C,C4*%
X165917500Y-81650000D03*
X163842500Y-81650000D03*
%TD*%
D25*
%TO.C,C2*%
X175520000Y-86452500D03*
X175520000Y-88527500D03*
%TD*%
D30*
%TO.C,F5*%
X157730000Y-87915000D03*
X157730000Y-89965000D03*
%TD*%
D22*
%TO.C,R16*%
X166260000Y-87130000D03*
X166260000Y-89130000D03*
%TD*%
D21*
%TO.C,F4*%
X145710000Y-97045000D03*
X145710000Y-94995000D03*
%TD*%
M02*
