%TF.GenerationSoftware,KiCad,Pcbnew,8.0.4*%
%TF.CreationDate,2025-06-08T15:43:54+10:00*%
%TF.ProjectId,USBPowerBlock,55534250-6f77-4657-9242-6c6f636b2e6b,rev?*%
%TF.SameCoordinates,Original*%
%TF.FileFunction,Copper,L1,Top*%
%TF.FilePolarity,Positive*%
%FSLAX46Y46*%
G04 Gerber Fmt 4.6, Leading zero omitted, Abs format (unit mm)*
G04 Created by KiCad (PCBNEW 8.0.4) date 2025-06-08 15:43:54*
%MOMM*%
%LPD*%
G01*
G04 APERTURE LIST*
G04 Aperture macros list*
%AMRoundRect*
0 Rectangle with rounded corners*
0 $1 Rounding radius*
0 $2 $3 $4 $5 $6 $7 $8 $9 X,Y pos of 4 corners*
0 Add a 4 corners polygon primitive as box body*
4,1,4,$2,$3,$4,$5,$6,$7,$8,$9,$2,$3,0*
0 Add four circle primitives for the rounded corners*
1,1,$1+$1,$2,$3*
1,1,$1+$1,$4,$5*
1,1,$1+$1,$6,$7*
1,1,$1+$1,$8,$9*
0 Add four rect primitives between the rounded corners*
20,1,$1+$1,$2,$3,$4,$5,0*
20,1,$1+$1,$4,$5,$6,$7,0*
20,1,$1+$1,$6,$7,$8,$9,0*
20,1,$1+$1,$8,$9,$2,$3,0*%
G04 Aperture macros list end*
%TA.AperFunction,SMDPad,CuDef*%
%ADD10R,1.270000X0.635000*%
%TD*%
%TA.AperFunction,SMDPad,CuDef*%
%ADD11RoundRect,0.250000X-0.350000X-0.450000X0.350000X-0.450000X0.350000X0.450000X-0.350000X0.450000X0*%
%TD*%
%TA.AperFunction,SMDPad,CuDef*%
%ADD12RoundRect,0.250000X0.450000X-0.350000X0.450000X0.350000X-0.450000X0.350000X-0.450000X-0.350000X0*%
%TD*%
%TA.AperFunction,ComponentPad*%
%ADD13R,1.575000X1.575000*%
%TD*%
%TA.AperFunction,ComponentPad*%
%ADD14C,1.575000*%
%TD*%
%TA.AperFunction,SMDPad,CuDef*%
%ADD15RoundRect,0.250000X-0.325000X-0.450000X0.325000X-0.450000X0.325000X0.450000X-0.325000X0.450000X0*%
%TD*%
%TA.AperFunction,SMDPad,CuDef*%
%ADD16RoundRect,0.250000X-0.350000X0.850000X-0.350000X-0.850000X0.350000X-0.850000X0.350000X0.850000X0*%
%TD*%
%TA.AperFunction,SMDPad,CuDef*%
%ADD17RoundRect,0.250000X-1.125000X1.275000X-1.125000X-1.275000X1.125000X-1.275000X1.125000X1.275000X0*%
%TD*%
%TA.AperFunction,SMDPad,CuDef*%
%ADD18RoundRect,0.249997X-2.650003X2.950003X-2.650003X-2.950003X2.650003X-2.950003X2.650003X2.950003X0*%
%TD*%
%TA.AperFunction,ComponentPad*%
%ADD19R,1.300000X1.300000*%
%TD*%
%TA.AperFunction,ComponentPad*%
%ADD20C,1.300000*%
%TD*%
%TA.AperFunction,ComponentPad*%
%ADD21O,2.900000X1.900000*%
%TD*%
%TA.AperFunction,ComponentPad*%
%ADD22R,1.000000X1.000000*%
%TD*%
%TA.AperFunction,ComponentPad*%
%ADD23O,1.000000X1.000000*%
%TD*%
%TA.AperFunction,SMDPad,CuDef*%
%ADD24RoundRect,0.250000X0.450000X-0.325000X0.450000X0.325000X-0.450000X0.325000X-0.450000X-0.325000X0*%
%TD*%
%TA.AperFunction,SMDPad,CuDef*%
%ADD25RoundRect,0.250000X0.350000X0.450000X-0.350000X0.450000X-0.350000X-0.450000X0.350000X-0.450000X0*%
%TD*%
%TA.AperFunction,ComponentPad*%
%ADD26R,0.900000X1.300000*%
%TD*%
%TA.AperFunction,ComponentPad*%
%ADD27O,0.950000X2.000000*%
%TD*%
%TA.AperFunction,SMDPad,CuDef*%
%ADD28R,4.000000X4.000000*%
%TD*%
%TA.AperFunction,SMDPad,CuDef*%
%ADD29RoundRect,0.250000X-0.450000X0.325000X-0.450000X-0.325000X0.450000X-0.325000X0.450000X0.325000X0*%
%TD*%
%TA.AperFunction,ViaPad*%
%ADD30C,1.000000*%
%TD*%
%TA.AperFunction,ViaPad*%
%ADD31C,0.500000*%
%TD*%
%TA.AperFunction,ViaPad*%
%ADD32C,0.600000*%
%TD*%
%TA.AperFunction,Conductor*%
%ADD33C,0.400000*%
%TD*%
%TA.AperFunction,Conductor*%
%ADD34C,1.500000*%
%TD*%
%TA.AperFunction,Conductor*%
%ADD35C,0.600000*%
%TD*%
%TA.AperFunction,Conductor*%
%ADD36C,0.200000*%
%TD*%
%TA.AperFunction,Conductor*%
%ADD37C,1.000000*%
%TD*%
G04 APERTURE END LIST*
D10*
%TO.P,JP1,1,A*%
%TO.N,GND1*%
X114790000Y-77953600D03*
%TO.P,JP1,2,B*%
%TO.N,GND*%
X114790000Y-78766400D03*
%TD*%
D11*
%TO.P,R5,1*%
%TO.N,GND*%
X117720000Y-66100000D03*
%TO.P,R5,2*%
%TO.N,IO5*%
X119720000Y-66100000D03*
%TD*%
D12*
%TO.P,R14,1*%
%TO.N,5V*%
X155680000Y-84380000D03*
%TO.P,R14,2*%
%TO.N,Net-(D2-A)*%
X155680000Y-82380000D03*
%TD*%
D13*
%TO.P,J7,1,1*%
%TO.N,5V*%
X165510000Y-69510000D03*
D14*
%TO.P,J7,2,2*%
%TO.N,GND*%
X165510000Y-72010000D03*
%TD*%
D15*
%TO.P,D1,1,K*%
%TO.N,GND*%
X157835000Y-66040000D03*
%TO.P,D1,2,A*%
%TO.N,Net-(D1-A)*%
X159885000Y-66040000D03*
%TD*%
D10*
%TO.P,JP3,1,A*%
%TO.N,GND3*%
X134950000Y-77877200D03*
%TO.P,JP3,2,B*%
%TO.N,GND*%
X134950000Y-78690000D03*
%TD*%
D16*
%TO.P,Q2,1,G*%
%TO.N,Net-(Q2-G)*%
X122290000Y-69410000D03*
D17*
%TO.P,Q2,2,S*%
%TO.N,GND2*%
X121535000Y-74035000D03*
X118485000Y-74035000D03*
D18*
X120010000Y-75710000D03*
D17*
X121535000Y-77385000D03*
X118485000Y-77385000D03*
D16*
%TO.P,Q2,3,D*%
%TO.N,GND*%
X117730000Y-69410000D03*
%TD*%
D11*
%TO.P,R7,1*%
%TO.N,GND*%
X127840000Y-66100000D03*
%TO.P,R7,2*%
%TO.N,IO12*%
X129840000Y-66100000D03*
%TD*%
D10*
%TO.P,JP5,1,A*%
%TO.N,GND5*%
X155240000Y-77983600D03*
%TO.P,JP5,2,B*%
%TO.N,GND*%
X155240000Y-78796400D03*
%TD*%
D19*
%TO.P,J3,1,VBUS*%
%TO.N,5V3*%
X132450000Y-91380000D03*
D20*
%TO.P,J3,2,D-*%
%TO.N,unconnected-(J3-D--Pad2)*%
X132450000Y-88880000D03*
%TO.P,J3,3,D+*%
%TO.N,unconnected-(J3-D+-Pad3)*%
X132450000Y-86880000D03*
%TO.P,J3,4,GND*%
%TO.N,GND3*%
X132450000Y-84380000D03*
D21*
%TO.P,J3,5,Shield*%
%TO.N,unconnected-(J3-Shield-Pad5)*%
X130020000Y-94550000D03*
X130030000Y-81210000D03*
%TD*%
D16*
%TO.P,Q4,1,G*%
%TO.N,Net-(Q4-G)*%
X142360000Y-69560000D03*
D17*
%TO.P,Q4,2,S*%
%TO.N,GND4*%
X141605000Y-74185000D03*
X138555000Y-74185000D03*
D18*
X140080000Y-75860000D03*
D17*
X141605000Y-77535000D03*
X138555000Y-77535000D03*
D16*
%TO.P,Q4,3,D*%
%TO.N,GND*%
X137800000Y-69560000D03*
%TD*%
D11*
%TO.P,R11,1*%
%TO.N,GND*%
X148060000Y-66030000D03*
%TO.P,R11,2*%
%TO.N,IO14*%
X150060000Y-66030000D03*
%TD*%
%TO.P,R1,1*%
%TO.N,GND*%
X107690000Y-66060000D03*
%TO.P,R1,2*%
%TO.N,IO4*%
X109690000Y-66060000D03*
%TD*%
D19*
%TO.P,J5,1,VBUS*%
%TO.N,5V5*%
X152470000Y-91380000D03*
D20*
%TO.P,J5,2,D-*%
%TO.N,unconnected-(J5-D--Pad2)*%
X152470000Y-88880000D03*
%TO.P,J5,3,D+*%
%TO.N,unconnected-(J5-D+-Pad3)*%
X152470000Y-86880000D03*
%TO.P,J5,4,GND*%
%TO.N,GND5*%
X152470000Y-84380000D03*
D21*
%TO.P,J5,5,Shield*%
%TO.N,unconnected-(J5-Shield-Pad5)*%
X150040000Y-94550000D03*
X150050000Y-81210000D03*
%TD*%
D22*
%TO.P,J6,1,Pin_1*%
%TO.N,3V3*%
X102500000Y-78130000D03*
D23*
%TO.P,J6,2,Pin_2*%
%TO.N,RXD*%
X102500000Y-79400000D03*
%TO.P,J6,3,Pin_3*%
%TO.N,TXD*%
X102500000Y-80670000D03*
%TO.P,J6,4,Pin_4*%
%TO.N,IO0*%
X102500000Y-81940000D03*
%TO.P,J6,5,Pin_5*%
%TO.N,GND*%
X102500000Y-83210000D03*
%TD*%
D10*
%TO.P,JP2,1,A*%
%TO.N,GND2*%
X124910000Y-77943600D03*
%TO.P,JP2,2,B*%
%TO.N,GND*%
X124910000Y-78756400D03*
%TD*%
D16*
%TO.P,Q5,1,G*%
%TO.N,Net-(Q5-G)*%
X152660000Y-69580000D03*
D17*
%TO.P,Q5,2,S*%
%TO.N,GND5*%
X151905000Y-74205000D03*
X148855000Y-74205000D03*
D18*
X150380000Y-75880000D03*
D17*
X151905000Y-77555000D03*
X148855000Y-77555000D03*
D16*
%TO.P,Q5,3,D*%
%TO.N,GND*%
X148100000Y-69580000D03*
%TD*%
D10*
%TO.P,JP4,1,A*%
%TO.N,GND4*%
X145080000Y-77877200D03*
%TO.P,JP4,2,B*%
%TO.N,GND*%
X145080000Y-78690000D03*
%TD*%
D11*
%TO.P,R9,1*%
%TO.N,GND*%
X137750000Y-66050000D03*
%TO.P,R9,2*%
%TO.N,IO13*%
X139750000Y-66050000D03*
%TD*%
D24*
%TO.P,D2,1,K*%
%TO.N,GND*%
X160640000Y-83342500D03*
%TO.P,D2,2,A*%
%TO.N,Net-(D2-A)*%
X160640000Y-81292500D03*
%TD*%
D25*
%TO.P,R13,1*%
%TO.N,3V3*%
X166960000Y-65070000D03*
%TO.P,R13,2*%
%TO.N,Net-(D1-A)*%
X164960000Y-65070000D03*
%TD*%
D26*
%TO.P,U1,1,VDD*%
%TO.N,3V3*%
X176380000Y-76690000D03*
D27*
X176380000Y-78540000D03*
D26*
%TO.P,U1,2,EN*%
%TO.N,EN*%
X174880000Y-76690000D03*
D27*
X174880000Y-78540000D03*
D26*
%TO.P,U1,3,IO14*%
%TO.N,IO14*%
X173380000Y-76690000D03*
D27*
X173380000Y-78540000D03*
D26*
%TO.P,U1,4,IO12*%
%TO.N,IO12*%
X171880000Y-76690000D03*
D27*
X171880000Y-78540000D03*
D26*
%TO.P,U1,5,IO13*%
%TO.N,IO13*%
X170380000Y-76690000D03*
D27*
X170380000Y-78540000D03*
D26*
%TO.P,U1,6,IO15*%
%TO.N,IO15*%
X168880000Y-76690000D03*
D27*
X168880000Y-78540000D03*
D26*
%TO.P,U1,7,IO2*%
%TO.N,IO2*%
X167380000Y-76690000D03*
D27*
X167380000Y-78540000D03*
D26*
%TO.P,U1,8,IO0*%
%TO.N,IO0*%
X165880000Y-76690000D03*
D27*
X165880000Y-78540000D03*
D26*
%TO.P,U1,9,GND*%
%TO.N,GND*%
X164380000Y-76690000D03*
D27*
X164380000Y-78540000D03*
%TO.P,U1,10,IO4*%
%TO.N,IO4*%
X164420000Y-96440000D03*
D26*
X164420000Y-98290000D03*
D27*
%TO.P,U1,11,RXD*%
%TO.N,RXD*%
X165920000Y-96440000D03*
D26*
X165920000Y-98290000D03*
D27*
%TO.P,U1,12,TXD*%
%TO.N,TXD*%
X167420000Y-96440000D03*
D26*
X167420000Y-98290000D03*
D27*
%TO.P,U1,13,GND*%
%TO.N,GND*%
X168920000Y-96440000D03*
D26*
X168920000Y-98290000D03*
D27*
%TO.P,U1,14,IO5*%
%TO.N,IO5*%
X170420000Y-96440000D03*
D26*
X170420000Y-98290000D03*
D27*
%TO.P,U1,15,RST*%
%TO.N,unconnected-(U1-RST-Pad15)*%
X171920000Y-96440000D03*
D26*
X171920000Y-98290000D03*
D27*
%TO.P,U1,16,TOUT*%
%TO.N,unconnected-(U1-TOUT-Pad16)*%
X173420000Y-96440000D03*
D26*
X173420000Y-98290000D03*
D27*
%TO.P,U1,17,IO16*%
%TO.N,IO16*%
X174920000Y-96440000D03*
D26*
X174920000Y-98290000D03*
D27*
%TO.P,U1,18,GND*%
%TO.N,GND*%
X176420000Y-96440000D03*
D26*
X176420000Y-98290000D03*
D28*
%TO.P,U1,19,GND*%
X169800000Y-88620000D03*
%TD*%
D19*
%TO.P,J1,1,VBUS*%
%TO.N,5V1*%
X112410000Y-91410000D03*
D20*
%TO.P,J1,2,D-*%
%TO.N,unconnected-(J1-D--Pad2)*%
X112410000Y-88910000D03*
%TO.P,J1,3,D+*%
%TO.N,unconnected-(J1-D+-Pad3)*%
X112410000Y-86910000D03*
%TO.P,J1,4,GND*%
%TO.N,GND1*%
X112410000Y-84410000D03*
D21*
%TO.P,J1,5,Shield*%
%TO.N,unconnected-(J1-Shield-Pad5)*%
X109980000Y-94580000D03*
X109990000Y-81240000D03*
%TD*%
D16*
%TO.P,Q1,1,G*%
%TO.N,Net-(Q1-G)*%
X112245000Y-69145000D03*
D17*
%TO.P,Q1,2,S*%
%TO.N,GND1*%
X111490000Y-73770000D03*
X108440000Y-73770000D03*
D18*
X109965000Y-75445000D03*
D17*
X111490000Y-77120000D03*
X108440000Y-77120000D03*
D16*
%TO.P,Q1,3,D*%
%TO.N,GND*%
X107685000Y-69145000D03*
%TD*%
%TO.P,Q3,1,G*%
%TO.N,Net-(Q3-G)*%
X132380000Y-69360000D03*
D17*
%TO.P,Q3,2,S*%
%TO.N,GND3*%
X131625000Y-73985000D03*
X128575000Y-73985000D03*
D18*
X130100000Y-75660000D03*
D17*
X131625000Y-77335000D03*
X128575000Y-77335000D03*
D16*
%TO.P,Q3,3,D*%
%TO.N,GND*%
X127820000Y-69360000D03*
%TD*%
D29*
%TO.P,D3,1,K*%
%TO.N,GND*%
X160390000Y-89285000D03*
%TO.P,D3,2,A*%
%TO.N,Net-(D3-A)*%
X160390000Y-91335000D03*
%TD*%
D19*
%TO.P,J2,1,VBUS*%
%TO.N,5V2*%
X122430000Y-91400000D03*
D20*
%TO.P,J2,2,D-*%
%TO.N,unconnected-(J2-D--Pad2)*%
X122430000Y-88900000D03*
%TO.P,J2,3,D+*%
%TO.N,unconnected-(J2-D+-Pad3)*%
X122430000Y-86900000D03*
%TO.P,J2,4,GND*%
%TO.N,GND2*%
X122430000Y-84400000D03*
D21*
%TO.P,J2,5,Shield*%
%TO.N,unconnected-(J2-Shield-Pad5)*%
X120000000Y-94570000D03*
X120010000Y-81230000D03*
%TD*%
D19*
%TO.P,J4,1,VBUS*%
%TO.N,5V4*%
X142470000Y-91410000D03*
D20*
%TO.P,J4,2,D-*%
%TO.N,unconnected-(J4-D--Pad2)*%
X142470000Y-88910000D03*
%TO.P,J4,3,D+*%
%TO.N,unconnected-(J4-D+-Pad3)*%
X142470000Y-86910000D03*
%TO.P,J4,4,GND*%
%TO.N,GND4*%
X142470000Y-84410000D03*
D21*
%TO.P,J4,5,Shield*%
%TO.N,unconnected-(J4-Shield-Pad5)*%
X140040000Y-94580000D03*
X140050000Y-81240000D03*
%TD*%
D30*
%TO.N,5V*%
X157720000Y-84400000D03*
X149650000Y-97290000D03*
D31*
%TO.N,3V3*%
X163760000Y-66500000D03*
X162830000Y-74910000D03*
D30*
%TO.N,GND*%
X161870000Y-77140000D03*
X109650000Y-69630000D03*
X103000000Y-73850000D03*
X155730000Y-65550000D03*
X169850000Y-88700000D03*
X135730000Y-66660000D03*
X103120000Y-85600000D03*
X150050000Y-92050000D03*
X115830000Y-66700000D03*
X120120000Y-70010000D03*
X114930000Y-89740000D03*
X125700000Y-66720000D03*
X160450000Y-86140000D03*
X145850000Y-66600000D03*
X176760000Y-70790000D03*
X102460000Y-92860000D03*
D32*
%TO.N,IO0*%
X162770000Y-84200000D03*
D31*
%TO.N,Net-(Q1-G)*%
X112245000Y-64820000D03*
%TO.N,Net-(Q2-G)*%
X122430000Y-64500000D03*
%TO.N,Net-(Q3-G)*%
X132500000Y-64540000D03*
%TO.N,Net-(Q4-G)*%
X142370000Y-64460000D03*
%TO.N,Net-(Q5-G)*%
X152710000Y-64520000D03*
%TO.N,IO4*%
X109700000Y-67820000D03*
%TO.N,IO5*%
X119700000Y-68050000D03*
%TO.N,IO12*%
X129930000Y-67990000D03*
X155170000Y-73060000D03*
%TO.N,IO13*%
X139820000Y-68240000D03*
X155150000Y-71150000D03*
%TO.N,IO14*%
X150090000Y-68190000D03*
X155410000Y-69160000D03*
%TO.N,Net-(D3-A)*%
X162300000Y-91550000D03*
%TD*%
D33*
%TO.N,3V3*%
X166950000Y-66930000D02*
X164190000Y-66930000D01*
X164190000Y-66930000D02*
X163760000Y-66500000D01*
D34*
%TO.N,5V*%
X151270000Y-97290000D02*
X157720000Y-90840000D01*
D33*
X155680000Y-84380000D02*
X157700000Y-84380000D01*
X158110000Y-84010000D02*
X157720000Y-84400000D01*
D34*
X157720000Y-90840000D02*
X157720000Y-84400000D01*
X149650000Y-97290000D02*
X151270000Y-97290000D01*
D33*
X157700000Y-84380000D02*
X157720000Y-84400000D01*
D35*
%TO.N,EN*%
X174880000Y-76990000D02*
X174880000Y-78540000D01*
D33*
%TO.N,3V3*%
X167510000Y-66930000D02*
X166950000Y-66930000D01*
D36*
X107300000Y-71470000D02*
X153130000Y-71470000D01*
X102500000Y-76270000D02*
X107300000Y-71470000D01*
D33*
X176380000Y-76990000D02*
X176380000Y-75800000D01*
X176380000Y-75800000D02*
X167510000Y-66930000D01*
X166960000Y-66920000D02*
X166950000Y-66930000D01*
D36*
X153770000Y-72110000D02*
X158570000Y-72110000D01*
X161370000Y-74910000D02*
X162830000Y-74910000D01*
X158570000Y-72110000D02*
X161370000Y-74910000D01*
X102500000Y-78130000D02*
X102500000Y-76270000D01*
D33*
X166960000Y-65070000D02*
X166960000Y-66920000D01*
D36*
X153130000Y-71470000D02*
X153770000Y-72110000D01*
D33*
X176380000Y-76990000D02*
X176380000Y-78540000D01*
D36*
%TO.N,GND*%
X111530000Y-64230000D02*
X112990000Y-64230000D01*
%TO.N,IO0*%
X104460000Y-83900000D02*
X104460000Y-91640000D01*
X161720000Y-84650000D02*
X162170000Y-84200000D01*
X102500000Y-81940000D02*
X104460000Y-83900000D01*
X111280000Y-98460000D02*
X151584924Y-98460000D01*
X162170000Y-84200000D02*
X162770000Y-84200000D01*
X104460000Y-91640000D02*
X111280000Y-98460000D01*
X158770000Y-91274924D02*
X158770000Y-85400000D01*
X159520000Y-84650000D02*
X161720000Y-84650000D01*
D35*
X165880000Y-76990000D02*
X165880000Y-78540000D01*
D36*
X158770000Y-85400000D02*
X159520000Y-84650000D01*
X151584924Y-98460000D02*
X158770000Y-91274924D01*
D37*
%TO.N,unconnected-(J2-D--Pad2)*%
X122450000Y-88880000D02*
X122430000Y-88900000D01*
%TO.N,GND1*%
X112410000Y-78040000D02*
X111490000Y-77120000D01*
D35*
X113961100Y-77120000D02*
X114790000Y-77948900D01*
X111490000Y-77120000D02*
X113961100Y-77120000D01*
D34*
X112410000Y-84410000D02*
X112410000Y-78040000D01*
D37*
%TO.N,unconnected-(J3-D+-Pad3)*%
X132430000Y-86900000D02*
X132450000Y-86880000D01*
%TO.N,GND2*%
X122430000Y-78280000D02*
X121535000Y-77385000D01*
D35*
X121535000Y-77385000D02*
X124356100Y-77385000D01*
X124356100Y-77385000D02*
X124910000Y-77938900D01*
D34*
X122430000Y-84400000D02*
X122430000Y-78280000D01*
D37*
%TO.N,unconnected-(J4-D+-Pad3)*%
X142440000Y-86880000D02*
X142470000Y-86910000D01*
%TO.N,unconnected-(J4-D--Pad2)*%
X142500000Y-88880000D02*
X142470000Y-88910000D01*
%TO.N,GND3*%
X132450000Y-78160000D02*
X131625000Y-77335000D01*
D35*
X131625000Y-77335000D02*
X134412500Y-77335000D01*
D34*
X132450000Y-84380000D02*
X132450000Y-78160000D01*
D35*
X134412500Y-77335000D02*
X134950000Y-77872500D01*
%TO.N,GND4*%
X141605000Y-77535000D02*
X144742500Y-77535000D01*
D34*
X142470000Y-84410000D02*
X142470000Y-78400000D01*
D35*
X144742500Y-77535000D02*
X145080000Y-77872500D01*
D37*
X142470000Y-78400000D02*
X141605000Y-77535000D01*
%TO.N,unconnected-(J5-D+-Pad3)*%
X152440000Y-86910000D02*
X152470000Y-86880000D01*
D34*
%TO.N,GND5*%
X152470000Y-84380000D02*
X152470000Y-78120000D01*
D35*
X151905000Y-77555000D02*
X154816100Y-77555000D01*
X154816100Y-77555000D02*
X155240000Y-77978900D01*
D37*
X152470000Y-78120000D02*
X151905000Y-77555000D01*
D35*
%TO.N,Net-(Q1-G)*%
X112245000Y-64820000D02*
X112245000Y-69145000D01*
%TO.N,Net-(Q2-G)*%
X122390000Y-64460000D02*
X122405000Y-64445000D01*
X122390000Y-69130000D02*
X122430000Y-64500000D01*
X122430000Y-64500000D02*
X122390000Y-64460000D01*
%TO.N,Net-(Q3-G)*%
X132500000Y-64540000D02*
X132460000Y-64500000D01*
X132460000Y-69150000D02*
X132460000Y-64580000D01*
X132460000Y-64500000D02*
X132460000Y-64480000D01*
X132460000Y-64580000D02*
X132500000Y-64540000D01*
X132460000Y-64480000D02*
X132475000Y-64465000D01*
%TO.N,Net-(Q4-G)*%
X142370000Y-69090000D02*
X142370000Y-64460000D01*
%TO.N,Net-(Q5-G)*%
X152710000Y-64520000D02*
X152690000Y-64500000D01*
X152690000Y-64540000D02*
X152710000Y-64520000D01*
X152690000Y-69090000D02*
X152690000Y-64540000D01*
D33*
%TO.N,IO4*%
X109690000Y-67860000D02*
X109700000Y-67870000D01*
X109700000Y-67820000D02*
X109690000Y-67830000D01*
X109690000Y-67810000D02*
X109700000Y-67820000D01*
D35*
X164420000Y-97990000D02*
X164420000Y-96440000D01*
D33*
X109690000Y-67830000D02*
X109690000Y-67860000D01*
D35*
X109690000Y-66060000D02*
X109690000Y-67810000D01*
%TO.N,IO5*%
X119700000Y-68050000D02*
X119736479Y-68075107D01*
X170420000Y-97990000D02*
X170420000Y-96440000D01*
X119736479Y-66325107D02*
X119700000Y-68050000D01*
D33*
%TO.N,IO12*%
X163070000Y-80960000D02*
X171470000Y-80960000D01*
D35*
X129885000Y-66250000D02*
X129885000Y-68000000D01*
D33*
X171880000Y-80550000D02*
X171880000Y-78540000D01*
D35*
X171880000Y-76990000D02*
X171880000Y-78540000D01*
D33*
X171470000Y-80960000D02*
X171880000Y-80550000D01*
X155170000Y-73060000D02*
X163070000Y-80960000D01*
D35*
%TO.N,IO13*%
X139755000Y-66450000D02*
X139755000Y-68200000D01*
D33*
X170380000Y-72260000D02*
X170380000Y-76990000D01*
X158120000Y-68180000D02*
X166555000Y-68180000D01*
X166697500Y-68577500D02*
X170380000Y-72260000D01*
X166555000Y-68180000D02*
X166697500Y-68322500D01*
D35*
X170380000Y-76990000D02*
X170380000Y-78540000D01*
D33*
X166697500Y-68322500D02*
X166697500Y-68577500D01*
X155150000Y-71150000D02*
X158120000Y-68180000D01*
%TO.N,IO14*%
X156990000Y-67580000D02*
X166840000Y-67580000D01*
X155410000Y-69160000D02*
X156990000Y-67580000D01*
D35*
X150065000Y-66410000D02*
X150065000Y-68160000D01*
D33*
X173380000Y-74120000D02*
X173380000Y-76990000D01*
X166840000Y-67580000D02*
X173380000Y-74120000D01*
D35*
X173380000Y-76990000D02*
X173380000Y-78540000D01*
%TO.N,unconnected-(U1-TOUT-Pad16)*%
X173420000Y-97990000D02*
X173420000Y-96440000D01*
D36*
%TO.N,TXD*%
X158370000Y-92880000D02*
X158380000Y-92870000D01*
X158380000Y-92870000D02*
X165720000Y-92870000D01*
X157730609Y-92880000D02*
X158370000Y-92880000D01*
D35*
X167420000Y-97990000D02*
X167420000Y-96440000D01*
D36*
X106127158Y-93872843D02*
X110557157Y-98302843D01*
X101700000Y-89445685D02*
X106127158Y-93872843D01*
X110557157Y-98302843D02*
X111114314Y-98860000D01*
X167420000Y-94570000D02*
X167420000Y-96440000D01*
X151984924Y-98625685D02*
X157730609Y-92880000D01*
X165720000Y-92870000D02*
X167420000Y-94570000D01*
X111114314Y-98860000D02*
X151750610Y-98860000D01*
X102500000Y-80670000D02*
X101700000Y-81470000D01*
X101700000Y-81470000D02*
X101700000Y-89445685D01*
X151750610Y-98860000D02*
X151984924Y-98625685D01*
D35*
%TO.N,unconnected-(U1-RST-Pad15)*%
X171920000Y-97990000D02*
X171920000Y-96440000D01*
%TO.N,RXD*%
X165920000Y-97990000D02*
X165920000Y-96440000D01*
D36*
X110948629Y-99260000D02*
X151916295Y-99260000D01*
X101300000Y-89611371D02*
X110948629Y-99260000D01*
X157706295Y-93470000D02*
X165350000Y-93470000D01*
X101300000Y-80600000D02*
X101300000Y-89611371D01*
X165350000Y-93470000D02*
X165920000Y-94040000D01*
X151916295Y-99260000D02*
X157706295Y-93470000D01*
X165920000Y-94040000D02*
X165920000Y-96440000D01*
X102500000Y-79400000D02*
X101300000Y-80600000D01*
D33*
%TO.N,Net-(D1-A)*%
X162600000Y-66020000D02*
X162360000Y-66020000D01*
X162340000Y-66040000D02*
X159885000Y-66040000D01*
X163550000Y-65070000D02*
X162600000Y-66020000D01*
X164960000Y-65070000D02*
X163550000Y-65070000D01*
X162360000Y-66020000D02*
X162340000Y-66040000D01*
%TO.N,Net-(D2-A)*%
X155680000Y-82100000D02*
X156850000Y-80930000D01*
X158842500Y-81292500D02*
X160640000Y-81292500D01*
X156850000Y-80930000D02*
X158480000Y-80930000D01*
X155680000Y-82380000D02*
X155680000Y-82100000D01*
X158480000Y-80930000D02*
X158842500Y-81292500D01*
%TO.N,Net-(D3-A)*%
X162300000Y-91550000D02*
X160605000Y-91550000D01*
X160605000Y-91550000D02*
X160390000Y-91335000D01*
D35*
%TO.N,IO15*%
X168880000Y-76990000D02*
X168880000Y-78540000D01*
%TO.N,IO2*%
X167380000Y-76990000D02*
X167380000Y-78540000D01*
%TO.N,IO16*%
X174920000Y-97990000D02*
X174920000Y-96440000D01*
%TD*%
%TA.AperFunction,Conductor*%
%TO.N,GND*%
G36*
X101285703Y-90446755D02*
G01*
X101292181Y-90452787D01*
X110067213Y-99227819D01*
X110100698Y-99289142D01*
X110095714Y-99358834D01*
X110053842Y-99414767D01*
X109988378Y-99439184D01*
X109979532Y-99439500D01*
X104618329Y-99439500D01*
X104551290Y-99419815D01*
X104505535Y-99367011D01*
X104495591Y-99297853D01*
X104524616Y-99234297D01*
X104570876Y-99200939D01*
X104615806Y-99182328D01*
X104710212Y-99143224D01*
X104920289Y-99021936D01*
X105112738Y-98874265D01*
X105284265Y-98702738D01*
X105431936Y-98510289D01*
X105553224Y-98300212D01*
X105646054Y-98076100D01*
X105708838Y-97841789D01*
X105740500Y-97601288D01*
X105740500Y-97358712D01*
X105708838Y-97118211D01*
X105646054Y-96883900D01*
X105553224Y-96659788D01*
X105431936Y-96449711D01*
X105284265Y-96257262D01*
X105284260Y-96257256D01*
X105112743Y-96085739D01*
X105112736Y-96085733D01*
X104920293Y-95938067D01*
X104920292Y-95938066D01*
X104920289Y-95938064D01*
X104713924Y-95818919D01*
X104710214Y-95816777D01*
X104710205Y-95816773D01*
X104486104Y-95723947D01*
X104251785Y-95661161D01*
X104011289Y-95629500D01*
X104011288Y-95629500D01*
X103768712Y-95629500D01*
X103768711Y-95629500D01*
X103528214Y-95661161D01*
X103293895Y-95723947D01*
X103069794Y-95816773D01*
X103069785Y-95816777D01*
X102859706Y-95938067D01*
X102667263Y-96085733D01*
X102667256Y-96085739D01*
X102495739Y-96257256D01*
X102495733Y-96257263D01*
X102348067Y-96449706D01*
X102226777Y-96659785D01*
X102226773Y-96659794D01*
X102133947Y-96883895D01*
X102071161Y-97118214D01*
X102039500Y-97358711D01*
X102039500Y-97601288D01*
X102071161Y-97841785D01*
X102133947Y-98076104D01*
X102210207Y-98260212D01*
X102226776Y-98300212D01*
X102348064Y-98510289D01*
X102348066Y-98510292D01*
X102348067Y-98510293D01*
X102495733Y-98702736D01*
X102495739Y-98702743D01*
X102667256Y-98874260D01*
X102667262Y-98874265D01*
X102859711Y-99021936D01*
X103069788Y-99143224D01*
X103157915Y-99179727D01*
X103209124Y-99200939D01*
X103263527Y-99244780D01*
X103285592Y-99311074D01*
X103268313Y-99378773D01*
X103217176Y-99426384D01*
X103161671Y-99439500D01*
X101204500Y-99439500D01*
X101137461Y-99419815D01*
X101091706Y-99367011D01*
X101080500Y-99315500D01*
X101080500Y-90540468D01*
X101100185Y-90473429D01*
X101152989Y-90427674D01*
X101222147Y-90417730D01*
X101285703Y-90446755D01*
G37*
%TD.AperFunction*%
%TA.AperFunction,Conductor*%
G36*
X175673332Y-79753745D02*
G01*
X175717682Y-79782247D01*
X175758151Y-79822717D01*
X175758155Y-79822720D01*
X175917927Y-79929477D01*
X175917928Y-79929477D01*
X175917929Y-79929478D01*
X175917931Y-79929479D01*
X176095452Y-80003010D01*
X176095457Y-80003012D01*
X176256272Y-80035000D01*
X176283917Y-80040499D01*
X176283920Y-80040500D01*
X176283922Y-80040500D01*
X176476080Y-80040500D01*
X176476081Y-80040499D01*
X176664543Y-80003012D01*
X176842073Y-79929477D01*
X177001845Y-79822720D01*
X177001848Y-79822716D01*
X177002380Y-79822281D01*
X177002716Y-79822138D01*
X177006910Y-79819336D01*
X177007441Y-79820130D01*
X177066687Y-79794962D01*
X177135556Y-79806747D01*
X177187120Y-79853895D01*
X177205053Y-79918034D01*
X177219541Y-99315407D01*
X177199906Y-99382462D01*
X177147137Y-99428256D01*
X177095541Y-99439500D01*
X175869001Y-99439500D01*
X175801962Y-99419815D01*
X175756207Y-99367011D01*
X175746263Y-99297853D01*
X175769734Y-99241189D01*
X175813796Y-99182331D01*
X175864091Y-99047483D01*
X175870500Y-98987873D01*
X175870499Y-97592128D01*
X175864091Y-97532517D01*
X175822724Y-97421606D01*
X175817740Y-97351914D01*
X175824342Y-97330828D01*
X175858012Y-97249543D01*
X175895500Y-97061078D01*
X175895500Y-95818922D01*
X175895500Y-95818919D01*
X175895499Y-95818917D01*
X175876608Y-95723946D01*
X175858012Y-95630457D01*
X175854162Y-95621162D01*
X175784479Y-95452931D01*
X175784478Y-95452929D01*
X175702491Y-95330228D01*
X175677720Y-95293155D01*
X175677717Y-95293151D01*
X175541848Y-95157282D01*
X175541844Y-95157279D01*
X175382070Y-95050521D01*
X175382068Y-95050520D01*
X175204547Y-94976989D01*
X175204535Y-94976986D01*
X175016081Y-94939500D01*
X175016078Y-94939500D01*
X174823922Y-94939500D01*
X174823919Y-94939500D01*
X174635464Y-94976986D01*
X174635452Y-94976989D01*
X174457931Y-95050520D01*
X174457929Y-95050521D01*
X174298155Y-95157279D01*
X174298151Y-95157282D01*
X174257681Y-95197753D01*
X174196358Y-95231238D01*
X174126666Y-95226254D01*
X174082319Y-95197753D01*
X174041848Y-95157282D01*
X174041844Y-95157279D01*
X173882070Y-95050521D01*
X173882068Y-95050520D01*
X173704547Y-94976989D01*
X173704535Y-94976986D01*
X173516081Y-94939500D01*
X173516078Y-94939500D01*
X173323922Y-94939500D01*
X173323919Y-94939500D01*
X173135464Y-94976986D01*
X173135452Y-94976989D01*
X172957931Y-95050520D01*
X172957929Y-95050521D01*
X172798155Y-95157279D01*
X172798151Y-95157282D01*
X172757681Y-95197753D01*
X172696358Y-95231238D01*
X172626666Y-95226254D01*
X172582319Y-95197753D01*
X172541848Y-95157282D01*
X172541844Y-95157279D01*
X172382070Y-95050521D01*
X172382068Y-95050520D01*
X172204547Y-94976989D01*
X172204535Y-94976986D01*
X172016081Y-94939500D01*
X172016078Y-94939500D01*
X171823922Y-94939500D01*
X171823919Y-94939500D01*
X171635464Y-94976986D01*
X171635452Y-94976989D01*
X171457931Y-95050520D01*
X171457929Y-95050521D01*
X171298155Y-95157279D01*
X171298151Y-95157282D01*
X171257681Y-95197753D01*
X171196358Y-95231238D01*
X171126666Y-95226254D01*
X171082319Y-95197753D01*
X171041848Y-95157282D01*
X171041844Y-95157279D01*
X170882070Y-95050521D01*
X170882068Y-95050520D01*
X170704547Y-94976989D01*
X170704535Y-94976986D01*
X170516081Y-94939500D01*
X170516078Y-94939500D01*
X170323922Y-94939500D01*
X170323919Y-94939500D01*
X170135464Y-94976986D01*
X170135452Y-94976989D01*
X169957931Y-95050520D01*
X169957929Y-95050521D01*
X169798155Y-95157279D01*
X169798151Y-95157282D01*
X169662282Y-95293151D01*
X169662279Y-95293155D01*
X169555521Y-95452929D01*
X169555520Y-95452931D01*
X169481989Y-95630452D01*
X169481986Y-95630464D01*
X169444500Y-95818917D01*
X169444500Y-97061082D01*
X169481986Y-97249535D01*
X169481989Y-97249547D01*
X169515654Y-97330822D01*
X169523123Y-97400291D01*
X169517275Y-97421607D01*
X169475908Y-97532517D01*
X169470500Y-97582826D01*
X169469501Y-97592123D01*
X169469500Y-97592135D01*
X169469500Y-98987870D01*
X169469501Y-98987876D01*
X169475908Y-99047483D01*
X169526202Y-99182328D01*
X169526204Y-99182331D01*
X169570265Y-99241189D01*
X169594683Y-99306652D01*
X169579832Y-99374925D01*
X169530427Y-99424331D01*
X169470999Y-99439500D01*
X168369001Y-99439500D01*
X168301962Y-99419815D01*
X168256207Y-99367011D01*
X168246263Y-99297853D01*
X168269734Y-99241189D01*
X168313796Y-99182331D01*
X168364091Y-99047483D01*
X168370500Y-98987873D01*
X168370499Y-97592128D01*
X168364091Y-97532517D01*
X168322724Y-97421606D01*
X168317740Y-97351914D01*
X168324342Y-97330828D01*
X168358012Y-97249543D01*
X168395500Y-97061078D01*
X168395500Y-95818922D01*
X168395500Y-95818919D01*
X168395499Y-95818917D01*
X168376608Y-95723946D01*
X168358012Y-95630457D01*
X168354162Y-95621162D01*
X168284479Y-95452931D01*
X168284478Y-95452929D01*
X168202491Y-95330228D01*
X168177720Y-95293155D01*
X168177717Y-95293151D01*
X168056819Y-95172253D01*
X168023334Y-95110930D01*
X168020500Y-95084572D01*
X168020500Y-94490943D01*
X168015784Y-94473345D01*
X168015783Y-94473341D01*
X168013774Y-94465843D01*
X167979577Y-94338215D01*
X167941223Y-94271785D01*
X167900520Y-94201284D01*
X167788716Y-94089480D01*
X167788715Y-94089479D01*
X167784385Y-94085149D01*
X167784374Y-94085139D01*
X166207590Y-92508355D01*
X166207588Y-92508352D01*
X166088717Y-92389481D01*
X166088709Y-92389475D01*
X165969106Y-92320423D01*
X165969106Y-92320422D01*
X165969101Y-92320421D01*
X165963058Y-92316932D01*
X165951786Y-92310423D01*
X165913603Y-92300192D01*
X165799057Y-92269499D01*
X165640943Y-92269499D01*
X165633347Y-92269499D01*
X165633331Y-92269500D01*
X162941229Y-92269500D01*
X162874190Y-92249815D01*
X162828435Y-92197011D01*
X162818491Y-92127853D01*
X162847516Y-92064297D01*
X162853548Y-92057819D01*
X162890477Y-92020890D01*
X162890481Y-92020884D01*
X162980452Y-91877697D01*
X162980454Y-91877694D01*
X162980454Y-91877692D01*
X162980456Y-91877690D01*
X163036313Y-91718059D01*
X163036313Y-91718058D01*
X163036314Y-91718056D01*
X163055249Y-91550002D01*
X163055249Y-91549997D01*
X163036314Y-91381943D01*
X162980454Y-91222305D01*
X162980452Y-91222302D01*
X162890481Y-91079115D01*
X162890476Y-91079109D01*
X162770890Y-90959523D01*
X162770884Y-90959518D01*
X162627697Y-90869547D01*
X162627694Y-90869545D01*
X162468056Y-90813685D01*
X162300003Y-90794751D01*
X162299997Y-90794751D01*
X162131940Y-90813686D01*
X162131938Y-90813686D01*
X162049479Y-90842541D01*
X162008524Y-90849500D01*
X161666987Y-90849500D01*
X161599948Y-90829815D01*
X161554193Y-90777011D01*
X161549281Y-90764504D01*
X161524814Y-90690666D01*
X161432712Y-90541344D01*
X161308656Y-90417288D01*
X161159334Y-90325186D01*
X160992797Y-90270001D01*
X160992795Y-90270000D01*
X160890010Y-90259500D01*
X159889998Y-90259500D01*
X159889980Y-90259501D01*
X159787203Y-90270000D01*
X159787200Y-90270001D01*
X159620668Y-90325185D01*
X159620654Y-90325192D01*
X159559595Y-90362853D01*
X159492203Y-90381293D01*
X159425540Y-90360370D01*
X159380771Y-90306727D01*
X159370500Y-90257314D01*
X159370500Y-85700097D01*
X159390185Y-85633058D01*
X159406819Y-85612416D01*
X159732416Y-85286819D01*
X159793739Y-85253334D01*
X159820097Y-85250500D01*
X161633331Y-85250500D01*
X161633347Y-85250501D01*
X161640943Y-85250501D01*
X161799054Y-85250501D01*
X161799057Y-85250501D01*
X161951785Y-85209577D01*
X162001904Y-85180639D01*
X162088716Y-85130520D01*
X162200520Y-85018716D01*
X162200520Y-85018714D01*
X162210728Y-85008507D01*
X162210730Y-85008504D01*
X162272542Y-84946691D01*
X162333863Y-84913208D01*
X162403555Y-84918192D01*
X162413942Y-84923316D01*
X162414206Y-84922769D01*
X162420478Y-84925789D01*
X162590737Y-84985366D01*
X162590743Y-84985367D01*
X162590745Y-84985368D01*
X162590746Y-84985368D01*
X162590750Y-84985369D01*
X162769996Y-85005565D01*
X162770000Y-85005565D01*
X162770004Y-85005565D01*
X162949249Y-84985369D01*
X162949252Y-84985368D01*
X162949255Y-84985368D01*
X163119522Y-84925789D01*
X163272262Y-84829816D01*
X163399816Y-84702262D01*
X163495789Y-84549522D01*
X163555368Y-84379255D01*
X163555369Y-84379249D01*
X163575565Y-84200003D01*
X163575565Y-84199996D01*
X163555369Y-84020750D01*
X163555368Y-84020745D01*
X163544276Y-83989047D01*
X163495789Y-83850478D01*
X163399816Y-83697738D01*
X163272262Y-83570184D01*
X163210350Y-83531282D01*
X163119523Y-83474211D01*
X162949254Y-83414631D01*
X162949249Y-83414630D01*
X162770004Y-83394435D01*
X162769996Y-83394435D01*
X162590750Y-83414630D01*
X162590745Y-83414631D01*
X162420476Y-83474211D01*
X162267736Y-83570185D01*
X162264903Y-83572445D01*
X162262724Y-83573334D01*
X162261842Y-83573889D01*
X162261744Y-83573734D01*
X162200217Y-83598855D01*
X162187588Y-83599500D01*
X162090943Y-83599500D01*
X161938215Y-83640423D01*
X161938214Y-83640423D01*
X161938212Y-83640424D01*
X161938209Y-83640425D01*
X161903066Y-83660716D01*
X161903064Y-83660717D01*
X161801290Y-83719475D01*
X161801282Y-83719481D01*
X161689478Y-83831286D01*
X161507584Y-84013181D01*
X161446261Y-84046666D01*
X161419903Y-84049500D01*
X159440943Y-84049500D01*
X159288213Y-84090423D01*
X159259202Y-84107174D01*
X159259201Y-84107174D01*
X159151287Y-84169477D01*
X159151283Y-84169480D01*
X159149235Y-84171529D01*
X159147083Y-84172703D01*
X159144839Y-84174426D01*
X159144570Y-84174075D01*
X159087909Y-84205010D01*
X159018218Y-84200021D01*
X158962287Y-84158146D01*
X158942572Y-84111487D01*
X158940844Y-84111902D01*
X158939709Y-84107173D01*
X158878882Y-83919970D01*
X158831743Y-83827455D01*
X158789524Y-83744595D01*
X158673828Y-83585354D01*
X158667149Y-83578675D01*
X158658312Y-83567906D01*
X158657986Y-83568174D01*
X158654120Y-83563464D01*
X158654116Y-83563460D01*
X158654114Y-83563457D01*
X158556543Y-83465886D01*
X158556539Y-83465883D01*
X158551835Y-83462022D01*
X158552102Y-83461696D01*
X158541326Y-83452852D01*
X158534648Y-83446174D01*
X158534646Y-83446172D01*
X158375405Y-83330476D01*
X158360167Y-83322712D01*
X158200029Y-83241117D01*
X158012826Y-83180290D01*
X157818422Y-83149500D01*
X157818417Y-83149500D01*
X157621583Y-83149500D01*
X157621578Y-83149500D01*
X157427173Y-83180290D01*
X157239970Y-83241117D01*
X157064594Y-83330476D01*
X156905354Y-83446172D01*
X156844126Y-83507399D01*
X156782802Y-83540883D01*
X156713111Y-83535897D01*
X156668765Y-83507397D01*
X156629049Y-83467681D01*
X156595564Y-83406358D01*
X156600548Y-83336666D01*
X156629049Y-83292319D01*
X156722712Y-83198656D01*
X156814814Y-83049334D01*
X156869999Y-82882797D01*
X156880500Y-82780009D01*
X156880499Y-81979992D01*
X156878160Y-81957101D01*
X156890928Y-81888411D01*
X156913831Y-81856824D01*
X157103839Y-81666816D01*
X157165162Y-81633334D01*
X157191519Y-81630500D01*
X158138482Y-81630500D01*
X158205521Y-81650185D01*
X158226162Y-81666818D01*
X158298386Y-81739042D01*
X158356143Y-81796799D01*
X158395959Y-81836615D01*
X158510682Y-81913271D01*
X158510689Y-81913275D01*
X158567566Y-81936834D01*
X158638171Y-81966080D01*
X158638173Y-81966080D01*
X158638175Y-81966081D01*
X158658997Y-81970223D01*
X158659018Y-81970226D01*
X158659025Y-81970228D01*
X158687645Y-81975921D01*
X158773504Y-81993000D01*
X158773507Y-81993000D01*
X159470622Y-81993000D01*
X159537661Y-82012685D01*
X159576159Y-82051901D01*
X159597288Y-82086156D01*
X159721344Y-82210212D01*
X159870666Y-82302314D01*
X160037203Y-82357499D01*
X160139991Y-82368000D01*
X161140008Y-82367999D01*
X161140016Y-82367998D01*
X161140019Y-82367998D01*
X161196302Y-82362248D01*
X161242797Y-82357499D01*
X161409334Y-82302314D01*
X161558656Y-82210212D01*
X161682712Y-82086156D01*
X161774814Y-81936834D01*
X161829999Y-81770297D01*
X161840500Y-81667509D01*
X161840499Y-81020517D01*
X161860183Y-80953479D01*
X161912987Y-80907724D01*
X161982146Y-80897780D01*
X162045702Y-80926805D01*
X162052180Y-80932837D01*
X162623453Y-81504111D01*
X162623454Y-81504112D01*
X162738190Y-81580776D01*
X162836790Y-81621617D01*
X162865671Y-81633580D01*
X162865672Y-81633580D01*
X162865677Y-81633582D01*
X162892545Y-81638925D01*
X162892551Y-81638926D01*
X162892591Y-81638934D01*
X162982937Y-81656905D01*
X163001006Y-81660500D01*
X163001007Y-81660500D01*
X171538996Y-81660500D01*
X171647457Y-81638925D01*
X171674328Y-81633580D01*
X171738069Y-81607177D01*
X171801807Y-81580777D01*
X171801808Y-81580776D01*
X171801811Y-81580775D01*
X171916543Y-81504114D01*
X172424114Y-80996543D01*
X172500775Y-80881811D01*
X172505527Y-80870340D01*
X172553578Y-80754332D01*
X172553580Y-80754328D01*
X172567729Y-80683196D01*
X172580500Y-80618996D01*
X172580500Y-79936002D01*
X172600185Y-79868963D01*
X172652989Y-79823208D01*
X172722147Y-79813264D01*
X172773389Y-79832899D01*
X172917927Y-79929477D01*
X172917930Y-79929478D01*
X172917931Y-79929479D01*
X173095452Y-80003010D01*
X173095457Y-80003012D01*
X173256272Y-80035000D01*
X173283917Y-80040499D01*
X173283920Y-80040500D01*
X173283922Y-80040500D01*
X173476080Y-80040500D01*
X173476081Y-80040499D01*
X173664543Y-80003012D01*
X173842073Y-79929477D01*
X174001845Y-79822720D01*
X174042318Y-79782247D01*
X174103641Y-79748761D01*
X174173332Y-79753745D01*
X174217682Y-79782247D01*
X174258151Y-79822717D01*
X174258155Y-79822720D01*
X174417927Y-79929477D01*
X174417928Y-79929477D01*
X174417929Y-79929478D01*
X174417931Y-79929479D01*
X174595452Y-80003010D01*
X174595457Y-80003012D01*
X174756272Y-80035000D01*
X174783917Y-80040499D01*
X174783920Y-80040500D01*
X174783922Y-80040500D01*
X174976080Y-80040500D01*
X174976081Y-80040499D01*
X175164543Y-80003012D01*
X175342073Y-79929477D01*
X175501845Y-79822720D01*
X175542318Y-79782247D01*
X175603641Y-79748761D01*
X175673332Y-79753745D01*
G37*
%TD.AperFunction*%
%TA.AperFunction,Conductor*%
G36*
X116755808Y-72090185D02*
G01*
X116801563Y-72142989D01*
X116811507Y-72212147D01*
X116782482Y-72275703D01*
X116776450Y-72282181D01*
X116767288Y-72291342D01*
X116767285Y-72291346D01*
X116675189Y-72440655D01*
X116675184Y-72440666D01*
X116620001Y-72607198D01*
X116609500Y-72709980D01*
X116609500Y-78710019D01*
X116620001Y-78812801D01*
X116675184Y-78979333D01*
X116675189Y-78979344D01*
X116767285Y-79128653D01*
X116767288Y-79128657D01*
X116891342Y-79252711D01*
X116891346Y-79252714D01*
X117040655Y-79344810D01*
X117040658Y-79344811D01*
X117040664Y-79344815D01*
X117207200Y-79399999D01*
X117309988Y-79410500D01*
X117309991Y-79410500D01*
X120359991Y-79410500D01*
X121055500Y-79410500D01*
X121122539Y-79430185D01*
X121168294Y-79482989D01*
X121179500Y-79534500D01*
X121179500Y-79751715D01*
X121159815Y-79818754D01*
X121107011Y-79864509D01*
X121037853Y-79874453D01*
X121017182Y-79869646D01*
X120849663Y-79815216D01*
X120624162Y-79779500D01*
X120624157Y-79779500D01*
X119395843Y-79779500D01*
X119395838Y-79779500D01*
X119170339Y-79815215D01*
X118953196Y-79885770D01*
X118749771Y-79989421D01*
X118565061Y-80123622D01*
X118403622Y-80285061D01*
X118269421Y-80469771D01*
X118165770Y-80673196D01*
X118095215Y-80890339D01*
X118059500Y-81115837D01*
X118059500Y-81344162D01*
X118095215Y-81569660D01*
X118165770Y-81786803D01*
X118264208Y-81979997D01*
X118269421Y-81990228D01*
X118403621Y-82174937D01*
X118565063Y-82336379D01*
X118749772Y-82470579D01*
X118840500Y-82516807D01*
X118953196Y-82574229D01*
X118953198Y-82574229D01*
X118953201Y-82574231D01*
X119027453Y-82598357D01*
X119170339Y-82644784D01*
X119395838Y-82680500D01*
X119395843Y-82680500D01*
X120624162Y-82680500D01*
X120849660Y-82644784D01*
X121017184Y-82590351D01*
X121087022Y-82588357D01*
X121146855Y-82624437D01*
X121177684Y-82687137D01*
X121179500Y-82708283D01*
X121179500Y-84498422D01*
X121210290Y-84692826D01*
X121271117Y-84880029D01*
X121357381Y-85049331D01*
X121360476Y-85055405D01*
X121476172Y-85214646D01*
X121615354Y-85353828D01*
X121774595Y-85469524D01*
X121796137Y-85480500D01*
X121949970Y-85558882D01*
X121949972Y-85558882D01*
X121949975Y-85558884D01*
X122030269Y-85584973D01*
X122087944Y-85624411D01*
X122115142Y-85688770D01*
X122103227Y-85757616D01*
X122055983Y-85809092D01*
X122036744Y-85818531D01*
X121914982Y-85865701D01*
X121914980Y-85865702D01*
X121733699Y-85977947D01*
X121576127Y-86121593D01*
X121447632Y-86291746D01*
X121352596Y-86482605D01*
X121352596Y-86482607D01*
X121299935Y-86667690D01*
X121294244Y-86687690D01*
X121274571Y-86900000D01*
X121294244Y-87112310D01*
X121346904Y-87297389D01*
X121352596Y-87317392D01*
X121352596Y-87317394D01*
X121447632Y-87508253D01*
X121576127Y-87678406D01*
X121718682Y-87808363D01*
X121754963Y-87868075D01*
X121753202Y-87937922D01*
X121718682Y-87991637D01*
X121576127Y-88121593D01*
X121447632Y-88291746D01*
X121352596Y-88482605D01*
X121352596Y-88482607D01*
X121299935Y-88667690D01*
X121294244Y-88687690D01*
X121274571Y-88900000D01*
X121294244Y-89112310D01*
X121346904Y-89297389D01*
X121352596Y-89317392D01*
X121352596Y-89317394D01*
X121447632Y-89508253D01*
X121576127Y-89678406D01*
X121576128Y-89678407D01*
X121733698Y-89822052D01*
X121914981Y-89934298D01*
X122110065Y-90009873D01*
X122165467Y-90052446D01*
X122189058Y-90118212D01*
X122173347Y-90186293D01*
X122123323Y-90235072D01*
X122065272Y-90249500D01*
X121732130Y-90249500D01*
X121732123Y-90249501D01*
X121672516Y-90255908D01*
X121537671Y-90306202D01*
X121537664Y-90306206D01*
X121422455Y-90392452D01*
X121422452Y-90392455D01*
X121336206Y-90507664D01*
X121336202Y-90507671D01*
X121285908Y-90642517D01*
X121280732Y-90690666D01*
X121279501Y-90702123D01*
X121279500Y-90702135D01*
X121279500Y-92097870D01*
X121279501Y-92097876D01*
X121285908Y-92157483D01*
X121336202Y-92292328D01*
X121336206Y-92292335D01*
X121422452Y-92407544D01*
X121422455Y-92407547D01*
X121537664Y-92493793D01*
X121537671Y-92493797D01*
X121672517Y-92544091D01*
X121672516Y-92544091D01*
X121679444Y-92544835D01*
X121732127Y-92550500D01*
X123127872Y-92550499D01*
X123187483Y-92544091D01*
X123322331Y-92493796D01*
X123437546Y-92407546D01*
X123523796Y-92292331D01*
X123574091Y-92157483D01*
X123580500Y-92097873D01*
X123580499Y-90702128D01*
X123574091Y-90642517D01*
X123566631Y-90622517D01*
X123523797Y-90507671D01*
X123523793Y-90507664D01*
X123437547Y-90392455D01*
X123437544Y-90392452D01*
X123322335Y-90306206D01*
X123322328Y-90306202D01*
X123187482Y-90255908D01*
X123187483Y-90255908D01*
X123127883Y-90249501D01*
X123127881Y-90249500D01*
X123127873Y-90249500D01*
X123127865Y-90249500D01*
X122794729Y-90249500D01*
X122727690Y-90229815D01*
X122681935Y-90177011D01*
X122671991Y-90107853D01*
X122701016Y-90044297D01*
X122749934Y-90009873D01*
X122945019Y-89934298D01*
X123126302Y-89822052D01*
X123283872Y-89678407D01*
X123412366Y-89508255D01*
X123422326Y-89488253D01*
X123507403Y-89317394D01*
X123507403Y-89317393D01*
X123507405Y-89317389D01*
X123565756Y-89112310D01*
X123585429Y-88900000D01*
X123565756Y-88687690D01*
X123507405Y-88482611D01*
X123507403Y-88482606D01*
X123507403Y-88482605D01*
X123412367Y-88291746D01*
X123369534Y-88235027D01*
X123283872Y-88121593D01*
X123141317Y-87991636D01*
X123105036Y-87931926D01*
X123106797Y-87862078D01*
X123141318Y-87808363D01*
X123272901Y-87688408D01*
X123283872Y-87678407D01*
X123412366Y-87508255D01*
X123422326Y-87488253D01*
X123507403Y-87317394D01*
X123507403Y-87317393D01*
X123507405Y-87317389D01*
X123565756Y-87112310D01*
X123585429Y-86900000D01*
X123565756Y-86687690D01*
X123507405Y-86482611D01*
X123507403Y-86482606D01*
X123507403Y-86482605D01*
X123412367Y-86291746D01*
X123283872Y-86121593D01*
X123137271Y-85987948D01*
X123126302Y-85977948D01*
X122945019Y-85865702D01*
X122945017Y-85865701D01*
X122883032Y-85841688D01*
X122823254Y-85818530D01*
X122767854Y-85775958D01*
X122744263Y-85710191D01*
X122759974Y-85642111D01*
X122809998Y-85593332D01*
X122829728Y-85584974D01*
X122910025Y-85558884D01*
X123085405Y-85469524D01*
X123244646Y-85353828D01*
X123383828Y-85214646D01*
X123499524Y-85055405D01*
X123588884Y-84880025D01*
X123649709Y-84692826D01*
X123672406Y-84549522D01*
X123680500Y-84498422D01*
X123680500Y-78674672D01*
X123700185Y-78607633D01*
X123752989Y-78561878D01*
X123822147Y-78551934D01*
X123885703Y-78580959D01*
X123903760Y-78600354D01*
X123917454Y-78618646D01*
X123946095Y-78640087D01*
X124032664Y-78704893D01*
X124032671Y-78704897D01*
X124167517Y-78755191D01*
X124167516Y-78755191D01*
X124174444Y-78755935D01*
X124227127Y-78761600D01*
X125592872Y-78761599D01*
X125652483Y-78755191D01*
X125787331Y-78704896D01*
X125902546Y-78618646D01*
X125988796Y-78503431D01*
X126039091Y-78368583D01*
X126045500Y-78308973D01*
X126045499Y-77578228D01*
X126039091Y-77518617D01*
X126036559Y-77511829D01*
X125988797Y-77383771D01*
X125988793Y-77383764D01*
X125902547Y-77268555D01*
X125902544Y-77268552D01*
X125787335Y-77182306D01*
X125787328Y-77182302D01*
X125652482Y-77132008D01*
X125652483Y-77132008D01*
X125592883Y-77125601D01*
X125592881Y-77125600D01*
X125592873Y-77125600D01*
X125592865Y-77125600D01*
X125280140Y-77125600D01*
X125213101Y-77105915D01*
X125192459Y-77089281D01*
X124866392Y-76763213D01*
X124866388Y-76763210D01*
X124735285Y-76675609D01*
X124735272Y-76675602D01*
X124589601Y-76615264D01*
X124589589Y-76615261D01*
X124434945Y-76584500D01*
X124434942Y-76584500D01*
X123534500Y-76584500D01*
X123467461Y-76564815D01*
X123421706Y-76512011D01*
X123410500Y-76460500D01*
X123410500Y-72709993D01*
X123410499Y-72709980D01*
X123405392Y-72659993D01*
X123399999Y-72607200D01*
X123344815Y-72440664D01*
X123344811Y-72440658D01*
X123344810Y-72440655D01*
X123252714Y-72291346D01*
X123252711Y-72291342D01*
X123243550Y-72282181D01*
X123210065Y-72220858D01*
X123215049Y-72151166D01*
X123256921Y-72095233D01*
X123322385Y-72070816D01*
X123331231Y-72070500D01*
X126740490Y-72070500D01*
X126807529Y-72090185D01*
X126853284Y-72142989D01*
X126863228Y-72212147D01*
X126846028Y-72259597D01*
X126765189Y-72390655D01*
X126765184Y-72390666D01*
X126710001Y-72557198D01*
X126699500Y-72659980D01*
X126699500Y-78660019D01*
X126710001Y-78762801D01*
X126765184Y-78929333D01*
X126765189Y-78929344D01*
X126857285Y-79078653D01*
X126857288Y-79078657D01*
X126981342Y-79202711D01*
X126981346Y-79202714D01*
X127130655Y-79294810D01*
X127130658Y-79294811D01*
X127130664Y-79294815D01*
X127297200Y-79349999D01*
X127399988Y-79360500D01*
X127399991Y-79360500D01*
X130449991Y-79360500D01*
X131075500Y-79360500D01*
X131142539Y-79380185D01*
X131188294Y-79432989D01*
X131199500Y-79484500D01*
X131199500Y-79731715D01*
X131179815Y-79798754D01*
X131127011Y-79844509D01*
X131057853Y-79854453D01*
X131037182Y-79849646D01*
X130869663Y-79795216D01*
X130644162Y-79759500D01*
X130644157Y-79759500D01*
X129415843Y-79759500D01*
X129415838Y-79759500D01*
X129190339Y-79795215D01*
X128973196Y-79865770D01*
X128769771Y-79969421D01*
X128585061Y-80103622D01*
X128423622Y-80265061D01*
X128289421Y-80449771D01*
X128185770Y-80653196D01*
X128115215Y-80870339D01*
X128079500Y-81095837D01*
X128079500Y-81324162D01*
X128115215Y-81549660D01*
X128185770Y-81766803D01*
X128274019Y-81940000D01*
X128289421Y-81970228D01*
X128423621Y-82154937D01*
X128585063Y-82316379D01*
X128769772Y-82450579D01*
X128860500Y-82496807D01*
X128973196Y-82554229D01*
X128973198Y-82554229D01*
X128973201Y-82554231D01*
X129065525Y-82584229D01*
X129190339Y-82624784D01*
X129415838Y-82660500D01*
X129415843Y-82660500D01*
X130644162Y-82660500D01*
X130869660Y-82624784D01*
X130870728Y-82624437D01*
X131037184Y-82570351D01*
X131107022Y-82568357D01*
X131166855Y-82604437D01*
X131197684Y-82667137D01*
X131199500Y-82688283D01*
X131199500Y-84478422D01*
X131230290Y-84672826D01*
X131291117Y-84860029D01*
X131380476Y-85035405D01*
X131496172Y-85194646D01*
X131635354Y-85333828D01*
X131794595Y-85449524D01*
X131855389Y-85480500D01*
X131969970Y-85538882D01*
X131969972Y-85538882D01*
X131969975Y-85538884D01*
X132050269Y-85564973D01*
X132107944Y-85604411D01*
X132135142Y-85668770D01*
X132123227Y-85737616D01*
X132075983Y-85789092D01*
X132056744Y-85798531D01*
X131934982Y-85845701D01*
X131934980Y-85845702D01*
X131753699Y-85957947D01*
X131596127Y-86101593D01*
X131467632Y-86271746D01*
X131372596Y-86462605D01*
X131372596Y-86462607D01*
X131314244Y-86667689D01*
X131294571Y-86879999D01*
X131294571Y-86880000D01*
X131314244Y-87092310D01*
X131372596Y-87297392D01*
X131372596Y-87297394D01*
X131467632Y-87488253D01*
X131596127Y-87658406D01*
X131738682Y-87788363D01*
X131774963Y-87848075D01*
X131773202Y-87917922D01*
X131738682Y-87971637D01*
X131596127Y-88101593D01*
X131467632Y-88271746D01*
X131372596Y-88462605D01*
X131372596Y-88462607D01*
X131314244Y-88667689D01*
X131294571Y-88879999D01*
X131294571Y-88880000D01*
X131314244Y-89092310D01*
X131372596Y-89297392D01*
X131372596Y-89297394D01*
X131467632Y-89488253D01*
X131490289Y-89518255D01*
X131596128Y-89658407D01*
X131753698Y-89802052D01*
X131934981Y-89914298D01*
X132130065Y-89989873D01*
X132185467Y-90032446D01*
X132209058Y-90098212D01*
X132193347Y-90166293D01*
X132143323Y-90215072D01*
X132085272Y-90229500D01*
X131752130Y-90229500D01*
X131752123Y-90229501D01*
X131692516Y-90235908D01*
X131557671Y-90286202D01*
X131557664Y-90286206D01*
X131442455Y-90372452D01*
X131442452Y-90372455D01*
X131356206Y-90487664D01*
X131356202Y-90487671D01*
X131305908Y-90622517D01*
X131299501Y-90682116D01*
X131299501Y-90682123D01*
X131299500Y-90682135D01*
X131299500Y-92077870D01*
X131299501Y-92077876D01*
X131305908Y-92137483D01*
X131356202Y-92272328D01*
X131356206Y-92272335D01*
X131442452Y-92387544D01*
X131442455Y-92387547D01*
X131557664Y-92473793D01*
X131557671Y-92473797D01*
X131692517Y-92524091D01*
X131692516Y-92524091D01*
X131699444Y-92524835D01*
X131752127Y-92530500D01*
X133147872Y-92530499D01*
X133207483Y-92524091D01*
X133342331Y-92473796D01*
X133457546Y-92387546D01*
X133543796Y-92272331D01*
X133594091Y-92137483D01*
X133600500Y-92077873D01*
X133600499Y-90682128D01*
X133594091Y-90622517D01*
X133567156Y-90550301D01*
X133543797Y-90487671D01*
X133543793Y-90487664D01*
X133457547Y-90372455D01*
X133457544Y-90372452D01*
X133342335Y-90286206D01*
X133342328Y-90286202D01*
X133207482Y-90235908D01*
X133207483Y-90235908D01*
X133147883Y-90229501D01*
X133147881Y-90229500D01*
X133147873Y-90229500D01*
X133147865Y-90229500D01*
X132814729Y-90229500D01*
X132747690Y-90209815D01*
X132701935Y-90157011D01*
X132691991Y-90087853D01*
X132721016Y-90024297D01*
X132769934Y-89989873D01*
X132965019Y-89914298D01*
X133146302Y-89802052D01*
X133303872Y-89658407D01*
X133432366Y-89488255D01*
X133432367Y-89488253D01*
X133527403Y-89297394D01*
X133527403Y-89297393D01*
X133527405Y-89297389D01*
X133585756Y-89092310D01*
X133605429Y-88880000D01*
X133585756Y-88667690D01*
X133527405Y-88462611D01*
X133527403Y-88462606D01*
X133527403Y-88462605D01*
X133432367Y-88271746D01*
X133326527Y-88131593D01*
X133303872Y-88101593D01*
X133161317Y-87971636D01*
X133125036Y-87911926D01*
X133126797Y-87842078D01*
X133161318Y-87788363D01*
X133303872Y-87658407D01*
X133432366Y-87488255D01*
X133432367Y-87488253D01*
X133527403Y-87297394D01*
X133527403Y-87297393D01*
X133527405Y-87297389D01*
X133585756Y-87092310D01*
X133605429Y-86880000D01*
X133585756Y-86667690D01*
X133527405Y-86462611D01*
X133527403Y-86462606D01*
X133527403Y-86462605D01*
X133432367Y-86271746D01*
X133303872Y-86101593D01*
X133146302Y-85957948D01*
X132965019Y-85845702D01*
X132965017Y-85845701D01*
X132870517Y-85809092D01*
X132843254Y-85798530D01*
X132787854Y-85755958D01*
X132764263Y-85690191D01*
X132779974Y-85622111D01*
X132829998Y-85573332D01*
X132849728Y-85564974D01*
X132930025Y-85538884D01*
X133105405Y-85449524D01*
X133264646Y-85333828D01*
X133403828Y-85194646D01*
X133519524Y-85035405D01*
X133608884Y-84860025D01*
X133669709Y-84672826D01*
X133700500Y-84478422D01*
X133700500Y-78581556D01*
X133720185Y-78514517D01*
X133772989Y-78468762D01*
X133842147Y-78458818D01*
X133905703Y-78487843D01*
X133923763Y-78507240D01*
X133957454Y-78552246D01*
X133970321Y-78561878D01*
X134072664Y-78638493D01*
X134072671Y-78638497D01*
X134207517Y-78688791D01*
X134207516Y-78688791D01*
X134214444Y-78689535D01*
X134267127Y-78695200D01*
X135632872Y-78695199D01*
X135692483Y-78688791D01*
X135827331Y-78638496D01*
X135942546Y-78552246D01*
X136028796Y-78437031D01*
X136079091Y-78302183D01*
X136085500Y-78242573D01*
X136085499Y-77511828D01*
X136079091Y-77452217D01*
X136077325Y-77447483D01*
X136028797Y-77317371D01*
X136028793Y-77317364D01*
X135942547Y-77202155D01*
X135942544Y-77202152D01*
X135827335Y-77115906D01*
X135827328Y-77115902D01*
X135692482Y-77065608D01*
X135692483Y-77065608D01*
X135632883Y-77059201D01*
X135632881Y-77059200D01*
X135632873Y-77059200D01*
X135632865Y-77059200D01*
X135320140Y-77059200D01*
X135253101Y-77039515D01*
X135232459Y-77022881D01*
X134922792Y-76713213D01*
X134922788Y-76713210D01*
X134791685Y-76625609D01*
X134791672Y-76625602D01*
X134646001Y-76565264D01*
X134645989Y-76565261D01*
X134491345Y-76534500D01*
X134491342Y-76534500D01*
X133624500Y-76534500D01*
X133557461Y-76514815D01*
X133511706Y-76462011D01*
X133500500Y-76410500D01*
X133500500Y-72659993D01*
X133500499Y-72659980D01*
X133495461Y-72610666D01*
X133489999Y-72557200D01*
X133434815Y-72390664D01*
X133434811Y-72390658D01*
X133434810Y-72390655D01*
X133353972Y-72259597D01*
X133335531Y-72192205D01*
X133356453Y-72125541D01*
X133410095Y-72080772D01*
X133459510Y-72070500D01*
X136924212Y-72070500D01*
X136991251Y-72090185D01*
X137037006Y-72142989D01*
X137046950Y-72212147D01*
X137017925Y-72275703D01*
X136989312Y-72300036D01*
X136967869Y-72313262D01*
X136961341Y-72317289D01*
X136837288Y-72441342D01*
X136837285Y-72441346D01*
X136745189Y-72590655D01*
X136745184Y-72590666D01*
X136690001Y-72757198D01*
X136679500Y-72859980D01*
X136679500Y-78860019D01*
X136690001Y-78962801D01*
X136745184Y-79129333D01*
X136745189Y-79129344D01*
X136837285Y-79278653D01*
X136837288Y-79278657D01*
X136961342Y-79402711D01*
X136961346Y-79402714D01*
X137110655Y-79494810D01*
X137110658Y-79494811D01*
X137110664Y-79494815D01*
X137277200Y-79549999D01*
X137379988Y-79560500D01*
X137379991Y-79560500D01*
X139306121Y-79560500D01*
X139373160Y-79580185D01*
X139418915Y-79632989D01*
X139428859Y-79702147D01*
X139399834Y-79765703D01*
X139341056Y-79803477D01*
X139325519Y-79806973D01*
X139210339Y-79825215D01*
X138993196Y-79895770D01*
X138789771Y-79999421D01*
X138605061Y-80133622D01*
X138443622Y-80295061D01*
X138309421Y-80479771D01*
X138205770Y-80683196D01*
X138135215Y-80900339D01*
X138099500Y-81125837D01*
X138099500Y-81354162D01*
X138135215Y-81579660D01*
X138205770Y-81796803D01*
X138277119Y-81936832D01*
X138309421Y-82000228D01*
X138443621Y-82184937D01*
X138605063Y-82346379D01*
X138789772Y-82480579D01*
X138860874Y-82516807D01*
X138993196Y-82584229D01*
X138993198Y-82584229D01*
X138993201Y-82584231D01*
X139109592Y-82622049D01*
X139210339Y-82654784D01*
X139435838Y-82690500D01*
X139435843Y-82690500D01*
X140664162Y-82690500D01*
X140889660Y-82654784D01*
X141057184Y-82600351D01*
X141127022Y-82598357D01*
X141186855Y-82634437D01*
X141217684Y-82697137D01*
X141219500Y-82718283D01*
X141219500Y-84508422D01*
X141250290Y-84702826D01*
X141311117Y-84890029D01*
X141369986Y-85005565D01*
X141400476Y-85065405D01*
X141516172Y-85224646D01*
X141655354Y-85363828D01*
X141814595Y-85479524D01*
X141816509Y-85480499D01*
X141989970Y-85568882D01*
X141989972Y-85568882D01*
X141989975Y-85568884D01*
X142070269Y-85594973D01*
X142127944Y-85634411D01*
X142155142Y-85698770D01*
X142143227Y-85767616D01*
X142095983Y-85819092D01*
X142076744Y-85828531D01*
X141954982Y-85875701D01*
X141954980Y-85875702D01*
X141773699Y-85987947D01*
X141616127Y-86131593D01*
X141487632Y-86301746D01*
X141392596Y-86492605D01*
X141392596Y-86492607D01*
X141334244Y-86697689D01*
X141314571Y-86909999D01*
X141314571Y-86910000D01*
X141334244Y-87122310D01*
X141392596Y-87327392D01*
X141392596Y-87327394D01*
X141487632Y-87518253D01*
X141616127Y-87688406D01*
X141758682Y-87818363D01*
X141794963Y-87878075D01*
X141793202Y-87947922D01*
X141758682Y-88001637D01*
X141616127Y-88131593D01*
X141487632Y-88301746D01*
X141392596Y-88492605D01*
X141392596Y-88492607D01*
X141334244Y-88697689D01*
X141314571Y-88909999D01*
X141314571Y-88910000D01*
X141334244Y-89122310D01*
X141392596Y-89327392D01*
X141392596Y-89327394D01*
X141487632Y-89518253D01*
X141608576Y-89678407D01*
X141616128Y-89688407D01*
X141773698Y-89832052D01*
X141954981Y-89944298D01*
X142150065Y-90019873D01*
X142205467Y-90062446D01*
X142229058Y-90128212D01*
X142213347Y-90196293D01*
X142163323Y-90245072D01*
X142105272Y-90259500D01*
X141772130Y-90259500D01*
X141772123Y-90259501D01*
X141712516Y-90265908D01*
X141577671Y-90316202D01*
X141577664Y-90316206D01*
X141462455Y-90402452D01*
X141462452Y-90402455D01*
X141376206Y-90517664D01*
X141376202Y-90517671D01*
X141325908Y-90652517D01*
X141320575Y-90702127D01*
X141319501Y-90712123D01*
X141319500Y-90712135D01*
X141319500Y-92107870D01*
X141319501Y-92107876D01*
X141325908Y-92167483D01*
X141376202Y-92302328D01*
X141376206Y-92302335D01*
X141462452Y-92417544D01*
X141462455Y-92417547D01*
X141577664Y-92503793D01*
X141577671Y-92503797D01*
X141712517Y-92554091D01*
X141712516Y-92554091D01*
X141719444Y-92554835D01*
X141772127Y-92560500D01*
X143167872Y-92560499D01*
X143227483Y-92554091D01*
X143362331Y-92503796D01*
X143477546Y-92417546D01*
X143563796Y-92302331D01*
X143614091Y-92167483D01*
X143620500Y-92107873D01*
X143620499Y-90712128D01*
X143614091Y-90652517D01*
X143610361Y-90642517D01*
X143563797Y-90517671D01*
X143563793Y-90517664D01*
X143477547Y-90402455D01*
X143477544Y-90402452D01*
X143362335Y-90316206D01*
X143362328Y-90316202D01*
X143227482Y-90265908D01*
X143227483Y-90265908D01*
X143167883Y-90259501D01*
X143167881Y-90259500D01*
X143167873Y-90259500D01*
X143167865Y-90259500D01*
X142834729Y-90259500D01*
X142767690Y-90239815D01*
X142721935Y-90187011D01*
X142711991Y-90117853D01*
X142741016Y-90054297D01*
X142789934Y-90019873D01*
X142985019Y-89944298D01*
X143166302Y-89832052D01*
X143323872Y-89688407D01*
X143452366Y-89518255D01*
X143547405Y-89327389D01*
X143605756Y-89122310D01*
X143625429Y-88910000D01*
X143605756Y-88697690D01*
X143547405Y-88492611D01*
X143547403Y-88492606D01*
X143547403Y-88492605D01*
X143452367Y-88301746D01*
X143323870Y-88131591D01*
X143181318Y-88001637D01*
X143145036Y-87941926D01*
X143146797Y-87872078D01*
X143181318Y-87818363D01*
X143214226Y-87788363D01*
X143323872Y-87688407D01*
X143452366Y-87518255D01*
X143547405Y-87327389D01*
X143605756Y-87122310D01*
X143625429Y-86910000D01*
X143605756Y-86697690D01*
X143547405Y-86492611D01*
X143547403Y-86492606D01*
X143547403Y-86492605D01*
X143452367Y-86301746D01*
X143323872Y-86131593D01*
X143290964Y-86101593D01*
X143166302Y-85987948D01*
X142985019Y-85875702D01*
X142985017Y-85875701D01*
X142907577Y-85845701D01*
X142863254Y-85828530D01*
X142807854Y-85785958D01*
X142784263Y-85720191D01*
X142799974Y-85652111D01*
X142849998Y-85603332D01*
X142869728Y-85594974D01*
X142950025Y-85568884D01*
X143125405Y-85479524D01*
X143284646Y-85363828D01*
X143423828Y-85224646D01*
X143539524Y-85065405D01*
X143628884Y-84890025D01*
X143689709Y-84702826D01*
X143691293Y-84692826D01*
X143720500Y-84508422D01*
X143720500Y-78459500D01*
X143740185Y-78392461D01*
X143792989Y-78346706D01*
X143844500Y-78335500D01*
X143877241Y-78335500D01*
X143944280Y-78355185D01*
X143990035Y-78407989D01*
X143993423Y-78416168D01*
X144001205Y-78437033D01*
X144001205Y-78437034D01*
X144087452Y-78552244D01*
X144087455Y-78552247D01*
X144202664Y-78638493D01*
X144202671Y-78638497D01*
X144337517Y-78688791D01*
X144337516Y-78688791D01*
X144344444Y-78689535D01*
X144397127Y-78695200D01*
X145762872Y-78695199D01*
X145822483Y-78688791D01*
X145957331Y-78638496D01*
X146072546Y-78552246D01*
X146158796Y-78437031D01*
X146209091Y-78302183D01*
X146215500Y-78242573D01*
X146215499Y-77511828D01*
X146209091Y-77452217D01*
X146207325Y-77447483D01*
X146158797Y-77317371D01*
X146158793Y-77317364D01*
X146072547Y-77202155D01*
X146072544Y-77202152D01*
X145957335Y-77115906D01*
X145957328Y-77115902D01*
X145822482Y-77065608D01*
X145822483Y-77065608D01*
X145762883Y-77059201D01*
X145762881Y-77059200D01*
X145762873Y-77059200D01*
X145762865Y-77059200D01*
X145450140Y-77059200D01*
X145383101Y-77039515D01*
X145362463Y-77022885D01*
X145252789Y-76913211D01*
X145252788Y-76913210D01*
X145252787Y-76913209D01*
X145121685Y-76825609D01*
X145121672Y-76825602D01*
X144976001Y-76765264D01*
X144975989Y-76765261D01*
X144821345Y-76734500D01*
X144821342Y-76734500D01*
X143604500Y-76734500D01*
X143537461Y-76714815D01*
X143491706Y-76662011D01*
X143480500Y-76610500D01*
X143480500Y-72859993D01*
X143480499Y-72859980D01*
X143479699Y-72852147D01*
X143469999Y-72757200D01*
X143414815Y-72590664D01*
X143414811Y-72590658D01*
X143414810Y-72590655D01*
X143322714Y-72441346D01*
X143322711Y-72441342D01*
X143198658Y-72317289D01*
X143198657Y-72317288D01*
X143170689Y-72300037D01*
X143123967Y-72248091D01*
X143112744Y-72179128D01*
X143140588Y-72115046D01*
X143198656Y-72076190D01*
X143235788Y-72070500D01*
X147256636Y-72070500D01*
X147323675Y-72090185D01*
X147369430Y-72142989D01*
X147379374Y-72212147D01*
X147350349Y-72275703D01*
X147321734Y-72300038D01*
X147261343Y-72337287D01*
X147137288Y-72461342D01*
X147137285Y-72461346D01*
X147045189Y-72610655D01*
X147045184Y-72610666D01*
X146990001Y-72777198D01*
X146979500Y-72879980D01*
X146979500Y-78880019D01*
X146990001Y-78982801D01*
X147045184Y-79149333D01*
X147045189Y-79149344D01*
X147137285Y-79298653D01*
X147137288Y-79298657D01*
X147261342Y-79422711D01*
X147261346Y-79422714D01*
X147410655Y-79514810D01*
X147410658Y-79514811D01*
X147410664Y-79514815D01*
X147577200Y-79569999D01*
X147679988Y-79580500D01*
X147679991Y-79580500D01*
X149088262Y-79580500D01*
X149155301Y-79600185D01*
X149201056Y-79652989D01*
X149211000Y-79722147D01*
X149181975Y-79785703D01*
X149126581Y-79822431D01*
X148993196Y-79865770D01*
X148789771Y-79969421D01*
X148605061Y-80103622D01*
X148443622Y-80265061D01*
X148309421Y-80449771D01*
X148205770Y-80653196D01*
X148135215Y-80870339D01*
X148099500Y-81095837D01*
X148099500Y-81324162D01*
X148135215Y-81549660D01*
X148205770Y-81766803D01*
X148294019Y-81940000D01*
X148309421Y-81970228D01*
X148443621Y-82154937D01*
X148605063Y-82316379D01*
X148789772Y-82450579D01*
X148880500Y-82496807D01*
X148993196Y-82554229D01*
X148993198Y-82554229D01*
X148993201Y-82554231D01*
X149085525Y-82584229D01*
X149210339Y-82624784D01*
X149435838Y-82660500D01*
X149435843Y-82660500D01*
X150664162Y-82660500D01*
X150889660Y-82624784D01*
X150890728Y-82624437D01*
X151057184Y-82570351D01*
X151127022Y-82568357D01*
X151186855Y-82604437D01*
X151217684Y-82667137D01*
X151219500Y-82688283D01*
X151219500Y-84478422D01*
X151250290Y-84672826D01*
X151311117Y-84860029D01*
X151400476Y-85035405D01*
X151516172Y-85194646D01*
X151655354Y-85333828D01*
X151814595Y-85449524D01*
X151875389Y-85480500D01*
X151989970Y-85538882D01*
X151989972Y-85538882D01*
X151989975Y-85538884D01*
X152070269Y-85564973D01*
X152127944Y-85604411D01*
X152155142Y-85668770D01*
X152143227Y-85737616D01*
X152095983Y-85789092D01*
X152076744Y-85798531D01*
X151954982Y-85845701D01*
X151954980Y-85845702D01*
X151773699Y-85957947D01*
X151616127Y-86101593D01*
X151487632Y-86271746D01*
X151392596Y-86462605D01*
X151392596Y-86462607D01*
X151334244Y-86667689D01*
X151314571Y-86879999D01*
X151314571Y-86880000D01*
X151334244Y-87092310D01*
X151392596Y-87297392D01*
X151392596Y-87297394D01*
X151487632Y-87488253D01*
X151616127Y-87658406D01*
X151758682Y-87788363D01*
X151794963Y-87848075D01*
X151793202Y-87917922D01*
X151758682Y-87971637D01*
X151616127Y-88101593D01*
X151487632Y-88271746D01*
X151392596Y-88462605D01*
X151392596Y-88462607D01*
X151334244Y-88667689D01*
X151314571Y-88879999D01*
X151314571Y-88880000D01*
X151334244Y-89092310D01*
X151392596Y-89297392D01*
X151392596Y-89297394D01*
X151487632Y-89488253D01*
X151510289Y-89518255D01*
X151616128Y-89658407D01*
X151773698Y-89802052D01*
X151954981Y-89914298D01*
X152150065Y-89989873D01*
X152205467Y-90032446D01*
X152229058Y-90098212D01*
X152213347Y-90166293D01*
X152163323Y-90215072D01*
X152105272Y-90229500D01*
X151772130Y-90229500D01*
X151772123Y-90229501D01*
X151712516Y-90235908D01*
X151577671Y-90286202D01*
X151577664Y-90286206D01*
X151462455Y-90372452D01*
X151462452Y-90372455D01*
X151376206Y-90487664D01*
X151376202Y-90487671D01*
X151325908Y-90622517D01*
X151319501Y-90682116D01*
X151319501Y-90682123D01*
X151319500Y-90682135D01*
X151319500Y-92077870D01*
X151319501Y-92077876D01*
X151325908Y-92137483D01*
X151376202Y-92272328D01*
X151376206Y-92272335D01*
X151462452Y-92387544D01*
X151462455Y-92387547D01*
X151577664Y-92473793D01*
X151577671Y-92473797D01*
X151712517Y-92524091D01*
X151712516Y-92524091D01*
X151719444Y-92524835D01*
X151772127Y-92530500D01*
X153167872Y-92530499D01*
X153227483Y-92524091D01*
X153362331Y-92473796D01*
X153477546Y-92387546D01*
X153563796Y-92272331D01*
X153614091Y-92137483D01*
X153620500Y-92077873D01*
X153620499Y-90682128D01*
X153614091Y-90622517D01*
X153587156Y-90550301D01*
X153563797Y-90487671D01*
X153563793Y-90487664D01*
X153477547Y-90372455D01*
X153477544Y-90372452D01*
X153362335Y-90286206D01*
X153362328Y-90286202D01*
X153227482Y-90235908D01*
X153227483Y-90235908D01*
X153167883Y-90229501D01*
X153167881Y-90229500D01*
X153167873Y-90229500D01*
X153167865Y-90229500D01*
X152834729Y-90229500D01*
X152767690Y-90209815D01*
X152721935Y-90157011D01*
X152711991Y-90087853D01*
X152741016Y-90024297D01*
X152789934Y-89989873D01*
X152985019Y-89914298D01*
X153166302Y-89802052D01*
X153323872Y-89658407D01*
X153452366Y-89488255D01*
X153452367Y-89488253D01*
X153547403Y-89297394D01*
X153547403Y-89297393D01*
X153547405Y-89297389D01*
X153605756Y-89092310D01*
X153625429Y-88880000D01*
X153605756Y-88667690D01*
X153547405Y-88462611D01*
X153547403Y-88462606D01*
X153547403Y-88462605D01*
X153452367Y-88271746D01*
X153346527Y-88131593D01*
X153323872Y-88101593D01*
X153181317Y-87971636D01*
X153145036Y-87911926D01*
X153146797Y-87842078D01*
X153181318Y-87788363D01*
X153323872Y-87658407D01*
X153452366Y-87488255D01*
X153452367Y-87488253D01*
X153547403Y-87297394D01*
X153547403Y-87297393D01*
X153547405Y-87297389D01*
X153605756Y-87092310D01*
X153625429Y-86880000D01*
X153605756Y-86667690D01*
X153547405Y-86462611D01*
X153547403Y-86462606D01*
X153547403Y-86462605D01*
X153452367Y-86271746D01*
X153323872Y-86101593D01*
X153166302Y-85957948D01*
X152985019Y-85845702D01*
X152985017Y-85845701D01*
X152890517Y-85809092D01*
X152863254Y-85798530D01*
X152807854Y-85755958D01*
X152784263Y-85690191D01*
X152799974Y-85622111D01*
X152849998Y-85573332D01*
X152869728Y-85564974D01*
X152950025Y-85538884D01*
X153125405Y-85449524D01*
X153284646Y-85333828D01*
X153423828Y-85194646D01*
X153539524Y-85035405D01*
X153628884Y-84860025D01*
X153689709Y-84672826D01*
X153720500Y-84478422D01*
X153720500Y-79152188D01*
X153726794Y-79113184D01*
X153769999Y-78982800D01*
X153780500Y-78880012D01*
X153780500Y-78479500D01*
X153800185Y-78412461D01*
X153852989Y-78366706D01*
X153904500Y-78355500D01*
X154005015Y-78355500D01*
X154072054Y-78375185D01*
X154117809Y-78427989D01*
X154121197Y-78436167D01*
X154161202Y-78543428D01*
X154161206Y-78543435D01*
X154247452Y-78658644D01*
X154247455Y-78658647D01*
X154362664Y-78744893D01*
X154362671Y-78744897D01*
X154497517Y-78795191D01*
X154497516Y-78795191D01*
X154504444Y-78795935D01*
X154557127Y-78801600D01*
X155922872Y-78801599D01*
X155982483Y-78795191D01*
X156117331Y-78744896D01*
X156232546Y-78658646D01*
X156318796Y-78543431D01*
X156369091Y-78408583D01*
X156375500Y-78348973D01*
X156375499Y-77618228D01*
X156369091Y-77558617D01*
X156357901Y-77528616D01*
X156318797Y-77423771D01*
X156318793Y-77423764D01*
X156232547Y-77308555D01*
X156232544Y-77308552D01*
X156117335Y-77222306D01*
X156117328Y-77222302D01*
X155982482Y-77172008D01*
X155982483Y-77172008D01*
X155922883Y-77165601D01*
X155922881Y-77165600D01*
X155922873Y-77165600D01*
X155922865Y-77165600D01*
X155610140Y-77165600D01*
X155543101Y-77145915D01*
X155522459Y-77129281D01*
X155326392Y-76933213D01*
X155326388Y-76933210D01*
X155195285Y-76845609D01*
X155195272Y-76845602D01*
X155049601Y-76785264D01*
X155049589Y-76785261D01*
X154894945Y-76754500D01*
X154894942Y-76754500D01*
X153904500Y-76754500D01*
X153837461Y-76734815D01*
X153791706Y-76682011D01*
X153780500Y-76630500D01*
X153780500Y-72879993D01*
X153780499Y-72879983D01*
X153780037Y-72875456D01*
X153777140Y-72847102D01*
X153789909Y-72778411D01*
X153837788Y-72727526D01*
X153900498Y-72710500D01*
X154322414Y-72710500D01*
X154389453Y-72730185D01*
X154435208Y-72782989D01*
X154445152Y-72852147D01*
X154439455Y-72875456D01*
X154433686Y-72891941D01*
X154414751Y-73059997D01*
X154414751Y-73060002D01*
X154433685Y-73228056D01*
X154489545Y-73387694D01*
X154489547Y-73387697D01*
X154579518Y-73530884D01*
X154579523Y-73530890D01*
X154699110Y-73650477D01*
X154842310Y-73740456D01*
X154842494Y-73740520D01*
X154842658Y-73740623D01*
X154848584Y-73743477D01*
X154848262Y-73744144D01*
X154889225Y-73769882D01*
X161124662Y-80005319D01*
X161158147Y-80066642D01*
X161153163Y-80136334D01*
X161111291Y-80192267D01*
X161045827Y-80216684D01*
X161036981Y-80217000D01*
X160139998Y-80217000D01*
X160139980Y-80217001D01*
X160037203Y-80227500D01*
X160037200Y-80227501D01*
X159870668Y-80282685D01*
X159870663Y-80282687D01*
X159721342Y-80374789D01*
X159597289Y-80498842D01*
X159576161Y-80533097D01*
X159524213Y-80579821D01*
X159470622Y-80592000D01*
X159184019Y-80592000D01*
X159116980Y-80572315D01*
X159096338Y-80555681D01*
X158926546Y-80385888D01*
X158926545Y-80385887D01*
X158811807Y-80309222D01*
X158684332Y-80256421D01*
X158684322Y-80256418D01*
X158548996Y-80229500D01*
X158548994Y-80229500D01*
X158548993Y-80229500D01*
X156918994Y-80229500D01*
X156781006Y-80229500D01*
X156781004Y-80229500D01*
X156645677Y-80256418D01*
X156645667Y-80256421D01*
X156518192Y-80309222D01*
X156403454Y-80385887D01*
X155546160Y-81243181D01*
X155484837Y-81276666D01*
X155458479Y-81279500D01*
X155179999Y-81279500D01*
X155179980Y-81279501D01*
X155077203Y-81290000D01*
X155077200Y-81290001D01*
X154910668Y-81345185D01*
X154910663Y-81345187D01*
X154761342Y-81437289D01*
X154637289Y-81561342D01*
X154545187Y-81710663D01*
X154545186Y-81710666D01*
X154490001Y-81877203D01*
X154490001Y-81877204D01*
X154490000Y-81877204D01*
X154479500Y-81979983D01*
X154479500Y-82780001D01*
X154479501Y-82780019D01*
X154490000Y-82882796D01*
X154490001Y-82882799D01*
X154527336Y-82995466D01*
X154545186Y-83049334D01*
X154625960Y-83180291D01*
X154637289Y-83198657D01*
X154730951Y-83292319D01*
X154764436Y-83353642D01*
X154759452Y-83423334D01*
X154730951Y-83467681D01*
X154637289Y-83561342D01*
X154545187Y-83710663D01*
X154545186Y-83710666D01*
X154490001Y-83877203D01*
X154490001Y-83877204D01*
X154490000Y-83877204D01*
X154479500Y-83979983D01*
X154479500Y-84780001D01*
X154479501Y-84780019D01*
X154490000Y-84882796D01*
X154490001Y-84882799D01*
X154545185Y-85049331D01*
X154545187Y-85049336D01*
X154580069Y-85105888D01*
X154637288Y-85198656D01*
X154761344Y-85322712D01*
X154910666Y-85414814D01*
X155077203Y-85469999D01*
X155179991Y-85480500D01*
X156180008Y-85480499D01*
X156180016Y-85480498D01*
X156180019Y-85480498D01*
X156236302Y-85474748D01*
X156282797Y-85469999D01*
X156306495Y-85462145D01*
X156376324Y-85459744D01*
X156436366Y-85495475D01*
X156467559Y-85557996D01*
X156469500Y-85579852D01*
X156469500Y-90270663D01*
X156449815Y-90337702D01*
X156433181Y-90358344D01*
X152202181Y-94589344D01*
X152140858Y-94622829D01*
X152071166Y-94617845D01*
X152015233Y-94575973D01*
X151990816Y-94510509D01*
X151990500Y-94501663D01*
X151990500Y-94435837D01*
X151954784Y-94210339D01*
X151914107Y-94085149D01*
X151884231Y-93993201D01*
X151884229Y-93993198D01*
X151884229Y-93993196D01*
X151829550Y-93885884D01*
X151780579Y-93789772D01*
X151646379Y-93605063D01*
X151484937Y-93443621D01*
X151300228Y-93309421D01*
X151096803Y-93205770D01*
X150879660Y-93135215D01*
X150654162Y-93099500D01*
X150654157Y-93099500D01*
X149425843Y-93099500D01*
X149425838Y-93099500D01*
X149200339Y-93135215D01*
X148983196Y-93205770D01*
X148779771Y-93309421D01*
X148595061Y-93443622D01*
X148433622Y-93605061D01*
X148299421Y-93789771D01*
X148195770Y-93993196D01*
X148125215Y-94210339D01*
X148089500Y-94435837D01*
X148089500Y-94664162D01*
X148125215Y-94889660D01*
X148195770Y-95106803D01*
X148259174Y-95231239D01*
X148299421Y-95310228D01*
X148433621Y-95494937D01*
X148595063Y-95656379D01*
X148779772Y-95790579D01*
X148875884Y-95839550D01*
X148983196Y-95894229D01*
X148983198Y-95894229D01*
X148983201Y-95894231D01*
X149096420Y-95931018D01*
X149154095Y-95970456D01*
X149181293Y-96034815D01*
X149169378Y-96103661D01*
X149122134Y-96155137D01*
X149114396Y-96159434D01*
X148994594Y-96220476D01*
X148943962Y-96257263D01*
X148835354Y-96336172D01*
X148835352Y-96336174D01*
X148835351Y-96336174D01*
X148696174Y-96475351D01*
X148696174Y-96475352D01*
X148696172Y-96475354D01*
X148646485Y-96543741D01*
X148580476Y-96634594D01*
X148491117Y-96809970D01*
X148430290Y-96997173D01*
X148399500Y-97191577D01*
X148399500Y-97388422D01*
X148430290Y-97582826D01*
X148453666Y-97654766D01*
X148467448Y-97697182D01*
X148469443Y-97767022D01*
X148433363Y-97826855D01*
X148370663Y-97857684D01*
X148349517Y-97859500D01*
X111580097Y-97859500D01*
X111513058Y-97839815D01*
X111492416Y-97823181D01*
X109911416Y-96242181D01*
X109877931Y-96180858D01*
X109882915Y-96111166D01*
X109924787Y-96055233D01*
X109990251Y-96030816D01*
X109999097Y-96030500D01*
X110594162Y-96030500D01*
X110819660Y-95994784D01*
X111036799Y-95924231D01*
X111240228Y-95820579D01*
X111424937Y-95686379D01*
X111586379Y-95524937D01*
X111720579Y-95340228D01*
X111824231Y-95136799D01*
X111894784Y-94919660D01*
X111906809Y-94843739D01*
X111930500Y-94694162D01*
X111930500Y-94465837D01*
X111928916Y-94455837D01*
X118049500Y-94455837D01*
X118049500Y-94684162D01*
X118085215Y-94909660D01*
X118155770Y-95126803D01*
X118259421Y-95330228D01*
X118393621Y-95514937D01*
X118555063Y-95676379D01*
X118739772Y-95810579D01*
X118835884Y-95859550D01*
X118943196Y-95914229D01*
X118943198Y-95914229D01*
X118943201Y-95914231D01*
X119059592Y-95952049D01*
X119160339Y-95984784D01*
X119385838Y-96020500D01*
X119385843Y-96020500D01*
X120614162Y-96020500D01*
X120839660Y-95984784D01*
X120870566Y-95974742D01*
X121056799Y-95914231D01*
X121260228Y-95810579D01*
X121444937Y-95676379D01*
X121606379Y-95514937D01*
X121740579Y-95330228D01*
X121844231Y-95126799D01*
X121914784Y-94909660D01*
X121925225Y-94843739D01*
X121950500Y-94684162D01*
X121950500Y-94455837D01*
X121947332Y-94435837D01*
X128069500Y-94435837D01*
X128069500Y-94664162D01*
X128105215Y-94889660D01*
X128175770Y-95106803D01*
X128239174Y-95231239D01*
X128279421Y-95310228D01*
X128413621Y-95494937D01*
X128575063Y-95656379D01*
X128759772Y-95790579D01*
X128855884Y-95839550D01*
X128963196Y-95894229D01*
X128963198Y-95894229D01*
X128963201Y-95894231D01*
X129055525Y-95924229D01*
X129180339Y-95964784D01*
X129405838Y-96000500D01*
X129405843Y-96000500D01*
X130634162Y-96000500D01*
X130859660Y-95964784D01*
X131076799Y-95894231D01*
X131280228Y-95790579D01*
X131464937Y-95656379D01*
X131626379Y-95494937D01*
X131760579Y-95310228D01*
X131864231Y-95106799D01*
X131934784Y-94889660D01*
X131970500Y-94664162D01*
X131970500Y-94465837D01*
X138089500Y-94465837D01*
X138089500Y-94694162D01*
X138125215Y-94919660D01*
X138195770Y-95136803D01*
X138275434Y-95293151D01*
X138299421Y-95340228D01*
X138433621Y-95524937D01*
X138595063Y-95686379D01*
X138779772Y-95820579D01*
X138875884Y-95869550D01*
X138983196Y-95924229D01*
X138983198Y-95924229D01*
X138983201Y-95924231D01*
X139025784Y-95938067D01*
X139200339Y-95994784D01*
X139425838Y-96030500D01*
X139425843Y-96030500D01*
X140654162Y-96030500D01*
X140879660Y-95994784D01*
X141096799Y-95924231D01*
X141300228Y-95820579D01*
X141484937Y-95686379D01*
X141646379Y-95524937D01*
X141780579Y-95340228D01*
X141884231Y-95136799D01*
X141954784Y-94919660D01*
X141966809Y-94843739D01*
X141990500Y-94694162D01*
X141990500Y-94465837D01*
X141954784Y-94240339D01*
X141911400Y-94106819D01*
X141884231Y-94023201D01*
X141884229Y-94023198D01*
X141884229Y-94023196D01*
X141780578Y-93819771D01*
X141646379Y-93635063D01*
X141484937Y-93473621D01*
X141300228Y-93339421D01*
X141241350Y-93309421D01*
X141096803Y-93235770D01*
X140879660Y-93165215D01*
X140654162Y-93129500D01*
X140654157Y-93129500D01*
X139425843Y-93129500D01*
X139425838Y-93129500D01*
X139200339Y-93165215D01*
X138983196Y-93235770D01*
X138779771Y-93339421D01*
X138595061Y-93473622D01*
X138433622Y-93635061D01*
X138299421Y-93819771D01*
X138195770Y-94023196D01*
X138125215Y-94240339D01*
X138089500Y-94465837D01*
X131970500Y-94465837D01*
X131970500Y-94435837D01*
X131934784Y-94210339D01*
X131894107Y-94085149D01*
X131864231Y-93993201D01*
X131864229Y-93993198D01*
X131864229Y-93993196D01*
X131809550Y-93885884D01*
X131760579Y-93789772D01*
X131626379Y-93605063D01*
X131464937Y-93443621D01*
X131280228Y-93309421D01*
X131076803Y-93205770D01*
X130859660Y-93135215D01*
X130634162Y-93099500D01*
X130634157Y-93099500D01*
X129405843Y-93099500D01*
X129405838Y-93099500D01*
X129180339Y-93135215D01*
X128963196Y-93205770D01*
X128759771Y-93309421D01*
X128575061Y-93443622D01*
X128413622Y-93605061D01*
X128279421Y-93789771D01*
X128175770Y-93993196D01*
X128105215Y-94210339D01*
X128069500Y-94435837D01*
X121947332Y-94435837D01*
X121914784Y-94230339D01*
X121863769Y-94073334D01*
X121844231Y-94013201D01*
X121844229Y-94013198D01*
X121844229Y-94013196D01*
X121745674Y-93819772D01*
X121740579Y-93809772D01*
X121606379Y-93625063D01*
X121444937Y-93463621D01*
X121260228Y-93329421D01*
X121220976Y-93309421D01*
X121056803Y-93225770D01*
X120839660Y-93155215D01*
X120614162Y-93119500D01*
X120614157Y-93119500D01*
X119385843Y-93119500D01*
X119385838Y-93119500D01*
X119160339Y-93155215D01*
X118943196Y-93225770D01*
X118739771Y-93329421D01*
X118555061Y-93463622D01*
X118393622Y-93625061D01*
X118259421Y-93809771D01*
X118155770Y-94013196D01*
X118085215Y-94230339D01*
X118049500Y-94455837D01*
X111928916Y-94455837D01*
X111894784Y-94240339D01*
X111851400Y-94106819D01*
X111824231Y-94023201D01*
X111824229Y-94023198D01*
X111824229Y-94023196D01*
X111720578Y-93819771D01*
X111586379Y-93635063D01*
X111424937Y-93473621D01*
X111240228Y-93339421D01*
X111181350Y-93309421D01*
X111036803Y-93235770D01*
X110819660Y-93165215D01*
X110594162Y-93129500D01*
X110594157Y-93129500D01*
X109365843Y-93129500D01*
X109365838Y-93129500D01*
X109140339Y-93165215D01*
X108923196Y-93235770D01*
X108719771Y-93339421D01*
X108535061Y-93473622D01*
X108373622Y-93635061D01*
X108239421Y-93819771D01*
X108135770Y-94023196D01*
X108089576Y-94165367D01*
X108050138Y-94223042D01*
X107985779Y-94250240D01*
X107916933Y-94238325D01*
X107883964Y-94214729D01*
X105096819Y-91427584D01*
X105063334Y-91366261D01*
X105060500Y-91339903D01*
X105060500Y-83989060D01*
X105060501Y-83989047D01*
X105060501Y-83820944D01*
X105040043Y-83744594D01*
X105019577Y-83668216D01*
X105019573Y-83668209D01*
X104940524Y-83531290D01*
X104940518Y-83531282D01*
X103532814Y-82123579D01*
X103499329Y-82062256D01*
X103497092Y-82023747D01*
X103505341Y-81940000D01*
X103486024Y-81743868D01*
X103428814Y-81555273D01*
X103335910Y-81381462D01*
X103335907Y-81381458D01*
X103332523Y-81376393D01*
X103334164Y-81375296D01*
X103310405Y-81319361D01*
X103322194Y-81250493D01*
X103332888Y-81233851D01*
X103332523Y-81233607D01*
X103335904Y-81228544D01*
X103335910Y-81228538D01*
X103428814Y-81054727D01*
X103486024Y-80866132D01*
X103505341Y-80670000D01*
X103486024Y-80473868D01*
X103428814Y-80285273D01*
X103335910Y-80111462D01*
X103335907Y-80111458D01*
X103332523Y-80106393D01*
X103334164Y-80105296D01*
X103310405Y-80049361D01*
X103322194Y-79980493D01*
X103332888Y-79963851D01*
X103332523Y-79963607D01*
X103335904Y-79958544D01*
X103335910Y-79958538D01*
X103428814Y-79784727D01*
X103486024Y-79596132D01*
X103505341Y-79400000D01*
X103486024Y-79203868D01*
X103428814Y-79015273D01*
X103427677Y-79013146D01*
X103427418Y-79011904D01*
X103426483Y-79009645D01*
X103426911Y-79009467D01*
X103413435Y-78944746D01*
X103437771Y-78880379D01*
X103443796Y-78872331D01*
X103494091Y-78737483D01*
X103500500Y-78677873D01*
X103500499Y-77582128D01*
X103494091Y-77522517D01*
X103492636Y-77518617D01*
X103443797Y-77387671D01*
X103443793Y-77387664D01*
X103357547Y-77272455D01*
X103357544Y-77272452D01*
X103242335Y-77186206D01*
X103242328Y-77186202D01*
X103181167Y-77163391D01*
X103125233Y-77121520D01*
X103100816Y-77056056D01*
X103100500Y-77047209D01*
X103100500Y-76570097D01*
X103120185Y-76503058D01*
X103136819Y-76482416D01*
X106352819Y-73266416D01*
X106414142Y-73232931D01*
X106483834Y-73237915D01*
X106539767Y-73279787D01*
X106564184Y-73345251D01*
X106564500Y-73354097D01*
X106564500Y-78445019D01*
X106575001Y-78547801D01*
X106630184Y-78714333D01*
X106630189Y-78714344D01*
X106722285Y-78863653D01*
X106722288Y-78863657D01*
X106846342Y-78987711D01*
X106846346Y-78987714D01*
X106995655Y-79079810D01*
X106995658Y-79079811D01*
X106995664Y-79079815D01*
X107162200Y-79134999D01*
X107264988Y-79145500D01*
X107264991Y-79145500D01*
X110314991Y-79145500D01*
X111035500Y-79145500D01*
X111102539Y-79165185D01*
X111148294Y-79217989D01*
X111159500Y-79269500D01*
X111159500Y-79761715D01*
X111139815Y-79828754D01*
X111087011Y-79874509D01*
X111017853Y-79884453D01*
X110997182Y-79879646D01*
X110829663Y-79825216D01*
X110604162Y-79789500D01*
X110604157Y-79789500D01*
X109375843Y-79789500D01*
X109375838Y-79789500D01*
X109150339Y-79825215D01*
X108933196Y-79895770D01*
X108729771Y-79999421D01*
X108545061Y-80133622D01*
X108383622Y-80295061D01*
X108249421Y-80479771D01*
X108145770Y-80683196D01*
X108075215Y-80900339D01*
X108039500Y-81125837D01*
X108039500Y-81354162D01*
X108075215Y-81579660D01*
X108145770Y-81796803D01*
X108217119Y-81936832D01*
X108249421Y-82000228D01*
X108383621Y-82184937D01*
X108545063Y-82346379D01*
X108729772Y-82480579D01*
X108800874Y-82516807D01*
X108933196Y-82584229D01*
X108933198Y-82584229D01*
X108933201Y-82584231D01*
X109049592Y-82622049D01*
X109150339Y-82654784D01*
X109375838Y-82690500D01*
X109375843Y-82690500D01*
X110604162Y-82690500D01*
X110829660Y-82654784D01*
X110997184Y-82600351D01*
X111067022Y-82598357D01*
X111126855Y-82634437D01*
X111157684Y-82697137D01*
X111159500Y-82718283D01*
X111159500Y-84508422D01*
X111190290Y-84702826D01*
X111251117Y-84890029D01*
X111309986Y-85005565D01*
X111340476Y-85065405D01*
X111456172Y-85224646D01*
X111595354Y-85363828D01*
X111754595Y-85479524D01*
X111756509Y-85480499D01*
X111929970Y-85568882D01*
X111929972Y-85568882D01*
X111929975Y-85568884D01*
X112010269Y-85594973D01*
X112067944Y-85634411D01*
X112095142Y-85698770D01*
X112083227Y-85767616D01*
X112035983Y-85819092D01*
X112016744Y-85828531D01*
X111894982Y-85875701D01*
X111894980Y-85875702D01*
X111713699Y-85987947D01*
X111556127Y-86131593D01*
X111427632Y-86301746D01*
X111332596Y-86492605D01*
X111332596Y-86492607D01*
X111274244Y-86697689D01*
X111254571Y-86909999D01*
X111254571Y-86910000D01*
X111274244Y-87122310D01*
X111332596Y-87327392D01*
X111332596Y-87327394D01*
X111427632Y-87518253D01*
X111556127Y-87688406D01*
X111698682Y-87818363D01*
X111734963Y-87878075D01*
X111733202Y-87947922D01*
X111698682Y-88001637D01*
X111556127Y-88131593D01*
X111427632Y-88301746D01*
X111332596Y-88492605D01*
X111332596Y-88492607D01*
X111274244Y-88697689D01*
X111254571Y-88909999D01*
X111254571Y-88910000D01*
X111274244Y-89122310D01*
X111332596Y-89327392D01*
X111332596Y-89327394D01*
X111427632Y-89518253D01*
X111548576Y-89678407D01*
X111556128Y-89688407D01*
X111713698Y-89832052D01*
X111894981Y-89944298D01*
X112090065Y-90019873D01*
X112145467Y-90062446D01*
X112169058Y-90128212D01*
X112153347Y-90196293D01*
X112103323Y-90245072D01*
X112045272Y-90259500D01*
X111712130Y-90259500D01*
X111712123Y-90259501D01*
X111652516Y-90265908D01*
X111517671Y-90316202D01*
X111517664Y-90316206D01*
X111402455Y-90402452D01*
X111402452Y-90402455D01*
X111316206Y-90517664D01*
X111316202Y-90517671D01*
X111265908Y-90652517D01*
X111260575Y-90702127D01*
X111259501Y-90712123D01*
X111259500Y-90712135D01*
X111259500Y-92107870D01*
X111259501Y-92107876D01*
X111265908Y-92167483D01*
X111316202Y-92302328D01*
X111316206Y-92302335D01*
X111402452Y-92417544D01*
X111402455Y-92417547D01*
X111517664Y-92503793D01*
X111517671Y-92503797D01*
X111652517Y-92554091D01*
X111652516Y-92554091D01*
X111659444Y-92554835D01*
X111712127Y-92560500D01*
X113107872Y-92560499D01*
X113167483Y-92554091D01*
X113302331Y-92503796D01*
X113417546Y-92417546D01*
X113503796Y-92302331D01*
X113554091Y-92167483D01*
X113560500Y-92107873D01*
X113560499Y-90712128D01*
X113554091Y-90652517D01*
X113550361Y-90642517D01*
X113503797Y-90517671D01*
X113503793Y-90517664D01*
X113417547Y-90402455D01*
X113417544Y-90402452D01*
X113302335Y-90316206D01*
X113302328Y-90316202D01*
X113167482Y-90265908D01*
X113167483Y-90265908D01*
X113107883Y-90259501D01*
X113107881Y-90259500D01*
X113107873Y-90259500D01*
X113107865Y-90259500D01*
X112774729Y-90259500D01*
X112707690Y-90239815D01*
X112661935Y-90187011D01*
X112651991Y-90117853D01*
X112681016Y-90054297D01*
X112729934Y-90019873D01*
X112925019Y-89944298D01*
X113106302Y-89832052D01*
X113263872Y-89688407D01*
X113392366Y-89518255D01*
X113487405Y-89327389D01*
X113545756Y-89122310D01*
X113565429Y-88910000D01*
X113545756Y-88697690D01*
X113487405Y-88492611D01*
X113487403Y-88492606D01*
X113487403Y-88492605D01*
X113392367Y-88301746D01*
X113263870Y-88131591D01*
X113121318Y-88001637D01*
X113085036Y-87941926D01*
X113086797Y-87872078D01*
X113121318Y-87818363D01*
X113154226Y-87788363D01*
X113263872Y-87688407D01*
X113392366Y-87518255D01*
X113487405Y-87327389D01*
X113545756Y-87122310D01*
X113565429Y-86910000D01*
X113545756Y-86697690D01*
X113487405Y-86492611D01*
X113487403Y-86492606D01*
X113487403Y-86492605D01*
X113392367Y-86301746D01*
X113263872Y-86131593D01*
X113230964Y-86101593D01*
X113106302Y-85987948D01*
X112925019Y-85875702D01*
X112925017Y-85875701D01*
X112847577Y-85845701D01*
X112803254Y-85828530D01*
X112747854Y-85785958D01*
X112724263Y-85720191D01*
X112739974Y-85652111D01*
X112789998Y-85603332D01*
X112809728Y-85594974D01*
X112890025Y-85568884D01*
X113065405Y-85479524D01*
X113224646Y-85363828D01*
X113363828Y-85224646D01*
X113479524Y-85065405D01*
X113568884Y-84890025D01*
X113629709Y-84702826D01*
X113631293Y-84692826D01*
X113660500Y-84508422D01*
X113660500Y-78773844D01*
X113680185Y-78706805D01*
X113732989Y-78661050D01*
X113802147Y-78651106D01*
X113858810Y-78674577D01*
X113911917Y-78714333D01*
X113912668Y-78714895D01*
X113912671Y-78714897D01*
X114047517Y-78765191D01*
X114047516Y-78765191D01*
X114054444Y-78765935D01*
X114107127Y-78771600D01*
X115472872Y-78771599D01*
X115532483Y-78765191D01*
X115667331Y-78714896D01*
X115782546Y-78628646D01*
X115868796Y-78513431D01*
X115919091Y-78378583D01*
X115925500Y-78318973D01*
X115925499Y-77588228D01*
X115919091Y-77528617D01*
X115916815Y-77522516D01*
X115868797Y-77393771D01*
X115868793Y-77393764D01*
X115782547Y-77278555D01*
X115782544Y-77278552D01*
X115667335Y-77192306D01*
X115667328Y-77192302D01*
X115532482Y-77142008D01*
X115532483Y-77142008D01*
X115472883Y-77135601D01*
X115472881Y-77135600D01*
X115472873Y-77135600D01*
X115472865Y-77135600D01*
X115160140Y-77135600D01*
X115093101Y-77115915D01*
X115072459Y-77099281D01*
X114471392Y-76498213D01*
X114471388Y-76498210D01*
X114340285Y-76410609D01*
X114340272Y-76410602D01*
X114194601Y-76350264D01*
X114194589Y-76350261D01*
X114039945Y-76319500D01*
X114039942Y-76319500D01*
X113489500Y-76319500D01*
X113422461Y-76299815D01*
X113376706Y-76247011D01*
X113365500Y-76195500D01*
X113365500Y-72444993D01*
X113365499Y-72444980D01*
X113365128Y-72441346D01*
X113354999Y-72342200D01*
X113318980Y-72233503D01*
X113316579Y-72163676D01*
X113352311Y-72103634D01*
X113414831Y-72072441D01*
X113436687Y-72070500D01*
X116688769Y-72070500D01*
X116755808Y-72090185D01*
G37*
%TD.AperFunction*%
%TA.AperFunction,Conductor*%
G36*
X102652389Y-82950110D02*
G01*
X102683579Y-82972814D01*
X103823181Y-84112416D01*
X103856666Y-84173739D01*
X103859500Y-84200097D01*
X103859500Y-90456588D01*
X103839815Y-90523627D01*
X103787011Y-90569382D01*
X103717853Y-90579326D01*
X103654297Y-90550301D01*
X103647819Y-90544269D01*
X102336819Y-89233269D01*
X102303334Y-89171946D01*
X102300500Y-89145588D01*
X102300500Y-83062505D01*
X102320185Y-82995466D01*
X102372989Y-82949711D01*
X102436653Y-82939102D01*
X102500000Y-82945341D01*
X102583745Y-82937092D01*
X102652389Y-82950110D01*
G37*
%TD.AperFunction*%
%TA.AperFunction,Conductor*%
G36*
X164165039Y-68900185D02*
G01*
X164210794Y-68952989D01*
X164222000Y-69004500D01*
X164222000Y-70345370D01*
X164222001Y-70345376D01*
X164228408Y-70404983D01*
X164278702Y-70539828D01*
X164278706Y-70539835D01*
X164364952Y-70655044D01*
X164364955Y-70655047D01*
X164480164Y-70741293D01*
X164480171Y-70741297D01*
X164615017Y-70791591D01*
X164615016Y-70791591D01*
X164621944Y-70792335D01*
X164674627Y-70798000D01*
X166345372Y-70797999D01*
X166404983Y-70791591D01*
X166539831Y-70741296D01*
X166655046Y-70655046D01*
X166741296Y-70539831D01*
X166791591Y-70404983D01*
X166798000Y-70345373D01*
X166797999Y-69968016D01*
X166817683Y-69900979D01*
X166870487Y-69855224D01*
X166939646Y-69845280D01*
X167003201Y-69874305D01*
X167009680Y-69880337D01*
X169643181Y-72513837D01*
X169676666Y-72575160D01*
X169679500Y-72601518D01*
X169679500Y-75457581D01*
X169659815Y-75524620D01*
X169607011Y-75570375D01*
X169537853Y-75580319D01*
X169512168Y-75573763D01*
X169437485Y-75545909D01*
X169437483Y-75545908D01*
X169377883Y-75539501D01*
X169377881Y-75539500D01*
X169377873Y-75539500D01*
X169377864Y-75539500D01*
X168382129Y-75539500D01*
X168382123Y-75539501D01*
X168322516Y-75545908D01*
X168179359Y-75599303D01*
X168178714Y-75597575D01*
X168121147Y-75610095D01*
X168081011Y-75598310D01*
X168080641Y-75599303D01*
X167937482Y-75545908D01*
X167937483Y-75545908D01*
X167877883Y-75539501D01*
X167877881Y-75539500D01*
X167877873Y-75539500D01*
X167877864Y-75539500D01*
X166882129Y-75539500D01*
X166882123Y-75539501D01*
X166822516Y-75545908D01*
X166679359Y-75599303D01*
X166678714Y-75597575D01*
X166621147Y-75610095D01*
X166581011Y-75598310D01*
X166580641Y-75599303D01*
X166437482Y-75545908D01*
X166437483Y-75545908D01*
X166377883Y-75539501D01*
X166377881Y-75539500D01*
X166377873Y-75539500D01*
X166377864Y-75539500D01*
X165382129Y-75539500D01*
X165382123Y-75539501D01*
X165322516Y-75545908D01*
X165187671Y-75596202D01*
X165187664Y-75596206D01*
X165072455Y-75682452D01*
X165072452Y-75682455D01*
X164986206Y-75797664D01*
X164986202Y-75797671D01*
X164935908Y-75932517D01*
X164929501Y-75992116D01*
X164929500Y-75992135D01*
X164929500Y-77387870D01*
X164929501Y-77387876D01*
X164935908Y-77447483D01*
X164977275Y-77558392D01*
X164982259Y-77628084D01*
X164975655Y-77649176D01*
X164941987Y-77730460D01*
X164941985Y-77730464D01*
X164904500Y-77918917D01*
X164904500Y-79161082D01*
X164941986Y-79349535D01*
X164941989Y-79349547D01*
X165015520Y-79527068D01*
X165015521Y-79527070D01*
X165122279Y-79686844D01*
X165122282Y-79686848D01*
X165258151Y-79822717D01*
X165258155Y-79822720D01*
X165417927Y-79929477D01*
X165417928Y-79929477D01*
X165417929Y-79929478D01*
X165417931Y-79929479D01*
X165595452Y-80003010D01*
X165595457Y-80003012D01*
X165616159Y-80007129D01*
X165650106Y-80013883D01*
X165712017Y-80046268D01*
X165746592Y-80106984D01*
X165742852Y-80176753D01*
X165701985Y-80233425D01*
X165636967Y-80259006D01*
X165625915Y-80259500D01*
X163411519Y-80259500D01*
X163344480Y-80239815D01*
X163323838Y-80223181D01*
X156022838Y-72922181D01*
X155989353Y-72860858D01*
X155994337Y-72791166D01*
X156036209Y-72735233D01*
X156101673Y-72710816D01*
X156110519Y-72710500D01*
X158269903Y-72710500D01*
X158336942Y-72730185D01*
X158357584Y-72746819D01*
X160885139Y-75274374D01*
X160885149Y-75274385D01*
X160889479Y-75278715D01*
X160889480Y-75278716D01*
X161001284Y-75390520D01*
X161061328Y-75425186D01*
X161138215Y-75469577D01*
X161290943Y-75510501D01*
X161290946Y-75510501D01*
X161456653Y-75510501D01*
X161456669Y-75510500D01*
X162339337Y-75510500D01*
X162405308Y-75529505D01*
X162502310Y-75590456D01*
X162623621Y-75632904D01*
X162661943Y-75646314D01*
X162829997Y-75665249D01*
X162830000Y-75665249D01*
X162830003Y-75665249D01*
X162998056Y-75646314D01*
X162998059Y-75646313D01*
X163157690Y-75590456D01*
X163157692Y-75590454D01*
X163157694Y-75590454D01*
X163157697Y-75590452D01*
X163300884Y-75500481D01*
X163300885Y-75500480D01*
X163300890Y-75500477D01*
X163420477Y-75380890D01*
X163437713Y-75353459D01*
X163510452Y-75237697D01*
X163510454Y-75237694D01*
X163510454Y-75237692D01*
X163510456Y-75237690D01*
X163566313Y-75078059D01*
X163566313Y-75078058D01*
X163566314Y-75078056D01*
X163585249Y-74910002D01*
X163585249Y-74909997D01*
X163566314Y-74741943D01*
X163510454Y-74582305D01*
X163510452Y-74582302D01*
X163420481Y-74439115D01*
X163420476Y-74439109D01*
X163300890Y-74319523D01*
X163300884Y-74319518D01*
X163157697Y-74229547D01*
X163157694Y-74229545D01*
X162998056Y-74173685D01*
X162830003Y-74154751D01*
X162829997Y-74154751D01*
X162661943Y-74173685D01*
X162502307Y-74229545D01*
X162432862Y-74273181D01*
X162406390Y-74289815D01*
X162405309Y-74290494D01*
X162339337Y-74309500D01*
X161670097Y-74309500D01*
X161603058Y-74289815D01*
X161582416Y-74273181D01*
X159057590Y-71748355D01*
X159057588Y-71748352D01*
X158938717Y-71629481D01*
X158938716Y-71629480D01*
X158851904Y-71579360D01*
X158851904Y-71579359D01*
X158851900Y-71579358D01*
X158801785Y-71550423D01*
X158649057Y-71509499D01*
X158490943Y-71509499D01*
X158483347Y-71509499D01*
X158483331Y-71509500D01*
X156080518Y-71509500D01*
X156013479Y-71489815D01*
X155967724Y-71437011D01*
X155957780Y-71367853D01*
X155986805Y-71304297D01*
X155992837Y-71297819D01*
X157142858Y-70147799D01*
X158373838Y-68916819D01*
X158435161Y-68883334D01*
X158461519Y-68880500D01*
X164098000Y-68880500D01*
X164165039Y-68900185D01*
G37*
%TD.AperFunction*%
%TA.AperFunction,Conductor*%
G36*
X111584689Y-64140185D02*
G01*
X111630444Y-64192989D01*
X111640388Y-64262147D01*
X111620752Y-64313391D01*
X111535609Y-64440814D01*
X111535602Y-64440827D01*
X111475264Y-64586498D01*
X111475261Y-64586510D01*
X111444500Y-64741153D01*
X111444500Y-67632769D01*
X111424815Y-67699808D01*
X111408182Y-67720450D01*
X111302287Y-67826345D01*
X111210187Y-67975663D01*
X111210185Y-67975668D01*
X111190903Y-68033859D01*
X111155001Y-68142203D01*
X111155001Y-68142204D01*
X111155000Y-68142204D01*
X111144500Y-68244983D01*
X111144500Y-70045001D01*
X111144501Y-70045018D01*
X111155000Y-70147796D01*
X111155001Y-70147799D01*
X111208753Y-70310009D01*
X111210186Y-70314334D01*
X111302288Y-70463656D01*
X111426344Y-70587712D01*
X111511054Y-70639961D01*
X111557778Y-70691909D01*
X111569001Y-70760872D01*
X111541157Y-70824954D01*
X111483089Y-70863810D01*
X111445957Y-70869500D01*
X107379057Y-70869500D01*
X107220943Y-70869500D01*
X107068215Y-70910423D01*
X107068214Y-70910423D01*
X107068212Y-70910424D01*
X107068209Y-70910425D01*
X107018096Y-70939359D01*
X107018095Y-70939360D01*
X106994934Y-70952732D01*
X106931285Y-70989479D01*
X106931282Y-70989481D01*
X102019481Y-75901282D01*
X102019480Y-75901284D01*
X101985196Y-75960666D01*
X101940423Y-76038215D01*
X101899499Y-76190943D01*
X101899499Y-76190945D01*
X101899499Y-76359046D01*
X101899500Y-76359059D01*
X101899500Y-77047209D01*
X101879815Y-77114248D01*
X101827011Y-77160003D01*
X101818833Y-77163391D01*
X101757671Y-77186202D01*
X101757664Y-77186206D01*
X101642455Y-77272452D01*
X101642452Y-77272455D01*
X101556206Y-77387664D01*
X101556202Y-77387671D01*
X101505908Y-77522517D01*
X101499920Y-77578223D01*
X101499501Y-77582123D01*
X101499500Y-77582135D01*
X101499500Y-78677870D01*
X101499501Y-78677876D01*
X101505908Y-78737483D01*
X101556202Y-78872328D01*
X101556204Y-78872331D01*
X101562231Y-78880382D01*
X101586648Y-78945846D01*
X101573105Y-79009470D01*
X101573518Y-79009641D01*
X101572595Y-79011869D01*
X101572324Y-79013143D01*
X101571188Y-79015267D01*
X101513975Y-79203870D01*
X101494659Y-79400000D01*
X101494659Y-79400001D01*
X101502906Y-79483746D01*
X101489886Y-79552391D01*
X101467184Y-79583579D01*
X101292181Y-79758583D01*
X101230858Y-79792068D01*
X101161167Y-79787084D01*
X101105233Y-79745213D01*
X101080816Y-79679748D01*
X101080500Y-79670902D01*
X101080500Y-66218711D01*
X101339500Y-66218711D01*
X101339500Y-66461288D01*
X101366028Y-66662797D01*
X101371162Y-66701789D01*
X101376176Y-66720500D01*
X101433947Y-66936104D01*
X101526773Y-67160205D01*
X101526777Y-67160214D01*
X101539162Y-67181666D01*
X101648064Y-67370289D01*
X101648066Y-67370292D01*
X101648067Y-67370293D01*
X101795733Y-67562736D01*
X101795739Y-67562743D01*
X101967256Y-67734260D01*
X101967263Y-67734266D01*
X102077485Y-67818842D01*
X102159711Y-67881936D01*
X102369788Y-68003224D01*
X102593900Y-68096054D01*
X102828211Y-68158838D01*
X102992753Y-68180500D01*
X103068711Y-68190500D01*
X103068712Y-68190500D01*
X103311289Y-68190500D01*
X103359388Y-68184167D01*
X103551789Y-68158838D01*
X103786100Y-68096054D01*
X104010212Y-68003224D01*
X104220289Y-67881936D01*
X104412738Y-67734265D01*
X104584265Y-67562738D01*
X104731936Y-67370289D01*
X104853224Y-67160212D01*
X104946054Y-66936100D01*
X105008838Y-66701789D01*
X105040500Y-66461288D01*
X105040500Y-66218712D01*
X105039183Y-66208712D01*
X105032584Y-66158586D01*
X105008838Y-65978211D01*
X104946054Y-65743900D01*
X104869873Y-65559983D01*
X108589500Y-65559983D01*
X108589500Y-66560001D01*
X108589501Y-66560019D01*
X108600000Y-66662796D01*
X108600001Y-66662799D01*
X108645244Y-66799331D01*
X108655186Y-66829334D01*
X108721039Y-66936100D01*
X108747289Y-66978657D01*
X108853181Y-67084549D01*
X108886666Y-67145872D01*
X108889500Y-67172230D01*
X108889500Y-67888846D01*
X108920261Y-68043489D01*
X108920264Y-68043501D01*
X108980602Y-68189172D01*
X108980609Y-68189185D01*
X109068210Y-68320288D01*
X109068213Y-68320292D01*
X109179707Y-68431786D01*
X109179711Y-68431789D01*
X109310814Y-68519390D01*
X109310827Y-68519397D01*
X109431844Y-68569523D01*
X109456503Y-68579737D01*
X109590541Y-68606399D01*
X109611153Y-68610499D01*
X109611156Y-68610500D01*
X109611158Y-68610500D01*
X109768844Y-68610500D01*
X109768845Y-68610499D01*
X109923497Y-68579737D01*
X110069179Y-68519394D01*
X110200289Y-68431789D01*
X110311789Y-68320289D01*
X110399394Y-68189179D01*
X110459737Y-68043497D01*
X110490500Y-67888842D01*
X110490500Y-67172230D01*
X110510185Y-67105191D01*
X110526819Y-67084549D01*
X110575481Y-67035887D01*
X110632712Y-66978656D01*
X110724814Y-66829334D01*
X110779999Y-66662797D01*
X110790500Y-66560009D01*
X110790499Y-65559992D01*
X110789477Y-65549992D01*
X110779999Y-65457203D01*
X110779998Y-65457200D01*
X110738069Y-65330668D01*
X110724814Y-65290666D01*
X110632712Y-65141344D01*
X110508656Y-65017288D01*
X110392656Y-64945739D01*
X110359336Y-64925187D01*
X110359331Y-64925185D01*
X110329153Y-64915185D01*
X110192797Y-64870001D01*
X110192795Y-64870000D01*
X110090010Y-64859500D01*
X109289998Y-64859500D01*
X109289980Y-64859501D01*
X109187203Y-64870000D01*
X109187200Y-64870001D01*
X109020668Y-64925185D01*
X109020663Y-64925187D01*
X108871342Y-65017289D01*
X108747289Y-65141342D01*
X108655187Y-65290663D01*
X108655185Y-65290668D01*
X108639004Y-65339500D01*
X108600001Y-65457203D01*
X108600001Y-65457204D01*
X108600000Y-65457204D01*
X108589500Y-65559983D01*
X104869873Y-65559983D01*
X104853224Y-65519788D01*
X104731936Y-65309711D01*
X104602742Y-65141342D01*
X104584266Y-65117263D01*
X104584260Y-65117256D01*
X104412743Y-64945739D01*
X104412736Y-64945733D01*
X104220293Y-64798067D01*
X104220292Y-64798066D01*
X104220289Y-64798064D01*
X104010212Y-64676776D01*
X104010205Y-64676773D01*
X103786104Y-64583947D01*
X103617771Y-64538842D01*
X103551789Y-64521162D01*
X103551788Y-64521161D01*
X103551785Y-64521161D01*
X103311289Y-64489500D01*
X103311288Y-64489500D01*
X103068712Y-64489500D01*
X103068711Y-64489500D01*
X102828214Y-64521161D01*
X102593895Y-64583947D01*
X102369794Y-64676773D01*
X102369785Y-64676777D01*
X102192168Y-64779325D01*
X102163633Y-64795800D01*
X102159706Y-64798067D01*
X101967263Y-64945733D01*
X101967256Y-64945739D01*
X101795739Y-65117256D01*
X101795733Y-65117263D01*
X101648067Y-65309706D01*
X101648064Y-65309710D01*
X101648064Y-65309711D01*
X101632241Y-65337117D01*
X101526777Y-65519785D01*
X101526773Y-65519794D01*
X101433947Y-65743895D01*
X101371161Y-65978214D01*
X101339500Y-66218711D01*
X101080500Y-66218711D01*
X101080500Y-64244500D01*
X101100185Y-64177461D01*
X101152989Y-64131706D01*
X101204500Y-64120500D01*
X111517650Y-64120500D01*
X111584689Y-64140185D01*
G37*
%TD.AperFunction*%
%TA.AperFunction,Conductor*%
G36*
X183472539Y-64140185D02*
G01*
X183518294Y-64192989D01*
X183529500Y-64244500D01*
X183529500Y-73026000D01*
X183509815Y-73093039D01*
X183457011Y-73138794D01*
X183405500Y-73150000D01*
X177200000Y-73150000D01*
X177201649Y-75359953D01*
X177182014Y-75427008D01*
X177129245Y-75472802D01*
X177060094Y-75482797D01*
X176996516Y-75453819D01*
X176974549Y-75428940D01*
X176948878Y-75390520D01*
X176942440Y-75380884D01*
X176924116Y-75353459D01*
X176924114Y-75353457D01*
X167956546Y-66385888D01*
X167956545Y-66385887D01*
X167899177Y-66347555D01*
X167841811Y-66309225D01*
X167841809Y-66309224D01*
X167829647Y-66304186D01*
X167775245Y-66260343D01*
X167758062Y-66208711D01*
X171169500Y-66208711D01*
X171169500Y-66451288D01*
X171196028Y-66652797D01*
X171201162Y-66691789D01*
X171203842Y-66701789D01*
X171263946Y-66926100D01*
X171356773Y-67150205D01*
X171356777Y-67150214D01*
X171362551Y-67160214D01*
X171478064Y-67360289D01*
X171478066Y-67360292D01*
X171478067Y-67360293D01*
X171625733Y-67552736D01*
X171625739Y-67552743D01*
X171797256Y-67724260D01*
X171797263Y-67724266D01*
X171879720Y-67787537D01*
X171989711Y-67871936D01*
X172199788Y-67993224D01*
X172423900Y-68086054D01*
X172658211Y-68148838D01*
X172780642Y-68164956D01*
X172898711Y-68180500D01*
X172898712Y-68180500D01*
X173141289Y-68180500D01*
X173189388Y-68174167D01*
X173381789Y-68148838D01*
X173616100Y-68086054D01*
X173840212Y-67993224D01*
X174050289Y-67871936D01*
X174242738Y-67724265D01*
X174414265Y-67552738D01*
X174561936Y-67360289D01*
X174683224Y-67150212D01*
X174776054Y-66926100D01*
X174838838Y-66691789D01*
X174870500Y-66451288D01*
X174870500Y-66208712D01*
X174838838Y-65968211D01*
X174776054Y-65733900D01*
X174683224Y-65509788D01*
X174561936Y-65299711D01*
X174471110Y-65181344D01*
X174414266Y-65107263D01*
X174414260Y-65107256D01*
X174242743Y-64935739D01*
X174242736Y-64935733D01*
X174050293Y-64788067D01*
X174050292Y-64788066D01*
X174050289Y-64788064D01*
X173840212Y-64666776D01*
X173840205Y-64666773D01*
X173616104Y-64573947D01*
X173381785Y-64511161D01*
X173141289Y-64479500D01*
X173141288Y-64479500D01*
X172898712Y-64479500D01*
X172898711Y-64479500D01*
X172658214Y-64511161D01*
X172423895Y-64573947D01*
X172199794Y-64666773D01*
X172199785Y-64666777D01*
X171989706Y-64788067D01*
X171797263Y-64935733D01*
X171797256Y-64935739D01*
X171625739Y-65107256D01*
X171625733Y-65107263D01*
X171478067Y-65299706D01*
X171478064Y-65299710D01*
X171478064Y-65299711D01*
X171466639Y-65319500D01*
X171356777Y-65509785D01*
X171356773Y-65509794D01*
X171263947Y-65733895D01*
X171201161Y-65968214D01*
X171169500Y-66208711D01*
X167758062Y-66208711D01*
X167753182Y-66194049D01*
X167770463Y-66126350D01*
X167789415Y-66101952D01*
X167902712Y-65988656D01*
X167994814Y-65839334D01*
X168049999Y-65672797D01*
X168060500Y-65570009D01*
X168060499Y-64569992D01*
X168057317Y-64538846D01*
X168049999Y-64467203D01*
X168049998Y-64467200D01*
X168044040Y-64449219D01*
X167994814Y-64300666D01*
X167994811Y-64300662D01*
X167993059Y-64296903D01*
X167992629Y-64294075D01*
X167992542Y-64293811D01*
X167992587Y-64293796D01*
X167982568Y-64227825D01*
X168011089Y-64164042D01*
X168069567Y-64125803D01*
X168105442Y-64120500D01*
X183405500Y-64120500D01*
X183472539Y-64140185D01*
G37*
%TD.AperFunction*%
%TA.AperFunction,Conductor*%
G36*
X163881597Y-64140185D02*
G01*
X163927352Y-64192989D01*
X163937296Y-64262147D01*
X163926953Y-64296876D01*
X163926487Y-64297876D01*
X163880328Y-64350327D01*
X163814092Y-64369500D01*
X163481004Y-64369500D01*
X163345677Y-64396418D01*
X163345667Y-64396421D01*
X163218192Y-64449222D01*
X163103454Y-64525887D01*
X163103453Y-64525888D01*
X162341118Y-65288224D01*
X162279795Y-65321709D01*
X162277630Y-65322160D01*
X162225549Y-65332520D01*
X162202439Y-65337117D01*
X162178250Y-65339500D01*
X161005908Y-65339500D01*
X160938869Y-65319815D01*
X160900363Y-65275728D01*
X160898605Y-65276813D01*
X160888647Y-65260668D01*
X160802712Y-65121344D01*
X160678656Y-64997288D01*
X160561761Y-64925187D01*
X160529336Y-64905187D01*
X160529331Y-64905185D01*
X160499153Y-64895185D01*
X160362797Y-64850001D01*
X160362795Y-64850000D01*
X160260010Y-64839500D01*
X159509998Y-64839500D01*
X159509980Y-64839501D01*
X159407203Y-64850000D01*
X159407200Y-64850001D01*
X159240668Y-64905185D01*
X159240663Y-64905187D01*
X159091342Y-64997289D01*
X158967289Y-65121342D01*
X158875187Y-65270663D01*
X158875185Y-65270668D01*
X158855305Y-65330663D01*
X158820001Y-65437203D01*
X158820001Y-65437204D01*
X158820000Y-65437204D01*
X158809500Y-65539983D01*
X158809500Y-66540001D01*
X158809501Y-66540019D01*
X158820000Y-66642796D01*
X158826628Y-66662796D01*
X158844423Y-66716497D01*
X158846825Y-66786323D01*
X158811094Y-66846365D01*
X158748574Y-66877559D01*
X158726717Y-66879500D01*
X156921003Y-66879500D01*
X156812590Y-66901065D01*
X156812589Y-66901065D01*
X156785671Y-66906420D01*
X156738160Y-66926100D01*
X156738159Y-66926100D01*
X156658193Y-66959222D01*
X156658191Y-66959223D01*
X156569245Y-67018656D01*
X156569244Y-67018657D01*
X156543454Y-67035888D01*
X156543453Y-67035889D01*
X155129224Y-68450117D01*
X155088267Y-68475855D01*
X155088588Y-68476521D01*
X155082682Y-68479365D01*
X155082511Y-68479473D01*
X155082319Y-68479539D01*
X155082310Y-68479544D01*
X154939109Y-68569523D01*
X154819523Y-68689109D01*
X154819518Y-68689115D01*
X154729547Y-68832302D01*
X154729545Y-68832305D01*
X154673685Y-68991943D01*
X154654751Y-69159997D01*
X154654751Y-69160002D01*
X154673685Y-69328056D01*
X154729545Y-69487694D01*
X154729547Y-69487697D01*
X154819518Y-69630884D01*
X154819523Y-69630890D01*
X154939109Y-69750476D01*
X154939115Y-69750481D01*
X155082302Y-69840452D01*
X155082308Y-69840455D01*
X155082310Y-69840456D01*
X155124515Y-69855224D01*
X155182409Y-69875482D01*
X155239186Y-69916204D01*
X155264933Y-69981157D01*
X155251477Y-70049718D01*
X155229136Y-70080205D01*
X154869224Y-70440117D01*
X154828267Y-70465855D01*
X154828588Y-70466521D01*
X154822682Y-70469365D01*
X154822511Y-70469473D01*
X154822319Y-70469539D01*
X154822310Y-70469544D01*
X154679109Y-70559523D01*
X154559523Y-70679109D01*
X154559518Y-70679115D01*
X154469547Y-70822302D01*
X154469545Y-70822305D01*
X154413685Y-70981943D01*
X154394751Y-71149997D01*
X154394751Y-71150002D01*
X154413686Y-71318059D01*
X154413686Y-71318061D01*
X154422954Y-71344545D01*
X154426516Y-71414324D01*
X154391788Y-71474951D01*
X154329795Y-71507179D01*
X154305913Y-71509500D01*
X154070098Y-71509500D01*
X154003059Y-71489815D01*
X153982417Y-71473181D01*
X153617590Y-71108355D01*
X153617588Y-71108352D01*
X153592983Y-71083747D01*
X153559498Y-71022424D01*
X153564482Y-70952732D01*
X153592983Y-70908385D01*
X153602712Y-70898656D01*
X153694814Y-70749334D01*
X153749999Y-70582797D01*
X153760500Y-70480009D01*
X153760499Y-68679992D01*
X153758902Y-68664363D01*
X153749999Y-68577203D01*
X153749998Y-68577200D01*
X153730843Y-68519394D01*
X153694814Y-68410666D01*
X153602712Y-68261344D01*
X153526819Y-68185451D01*
X153493334Y-68124128D01*
X153490500Y-68097770D01*
X153490500Y-64711600D01*
X153492883Y-64687408D01*
X153510500Y-64598845D01*
X153510500Y-64441157D01*
X153502543Y-64401159D01*
X153502543Y-64401156D01*
X153481999Y-64297876D01*
X153479737Y-64286503D01*
X153479732Y-64286492D01*
X153477969Y-64280676D01*
X153480720Y-64279841D01*
X153474497Y-64222641D01*
X153505691Y-64160122D01*
X153565734Y-64124392D01*
X153596555Y-64120500D01*
X163814558Y-64120500D01*
X163881597Y-64140185D01*
G37*
%TD.AperFunction*%
%TA.AperFunction,Conductor*%
G36*
X121557293Y-64140185D02*
G01*
X121603048Y-64192989D01*
X121612992Y-64262147D01*
X121611871Y-64268692D01*
X121589500Y-64381155D01*
X121589500Y-64538846D01*
X121620261Y-64693494D01*
X121622032Y-64699330D01*
X121620283Y-64699860D01*
X121627426Y-64736539D01*
X121600792Y-67819303D01*
X121580529Y-67886170D01*
X121541896Y-67923769D01*
X121471346Y-67967285D01*
X121347289Y-68091342D01*
X121255187Y-68240663D01*
X121255185Y-68240668D01*
X121227349Y-68324670D01*
X121200001Y-68407203D01*
X121200001Y-68407204D01*
X121200000Y-68407204D01*
X121189500Y-68509983D01*
X121189500Y-70310001D01*
X121189501Y-70310018D01*
X121200000Y-70412796D01*
X121200001Y-70412799D01*
X121255185Y-70579331D01*
X121255187Y-70579336D01*
X121274720Y-70611004D01*
X121317526Y-70680404D01*
X121335966Y-70747796D01*
X121315043Y-70814459D01*
X121261401Y-70859229D01*
X121211987Y-70869500D01*
X113044043Y-70869500D01*
X112977004Y-70849815D01*
X112931249Y-70797011D01*
X112921305Y-70727853D01*
X112950330Y-70664297D01*
X112978946Y-70639961D01*
X113063656Y-70587712D01*
X113187712Y-70463656D01*
X113279814Y-70314334D01*
X113334999Y-70147797D01*
X113345500Y-70045009D01*
X113345499Y-68244992D01*
X113334999Y-68142203D01*
X113279814Y-67975666D01*
X113187712Y-67826344D01*
X113081818Y-67720450D01*
X113048334Y-67659127D01*
X113045500Y-67632769D01*
X113045500Y-65599983D01*
X118619500Y-65599983D01*
X118619500Y-66600001D01*
X118619501Y-66600019D01*
X118630000Y-66702796D01*
X118630001Y-66702799D01*
X118671930Y-66829331D01*
X118685186Y-66869334D01*
X118777288Y-67018656D01*
X118831344Y-67072712D01*
X118880743Y-67122111D01*
X118914227Y-67183434D01*
X118917033Y-67212414D01*
X118901469Y-67948381D01*
X118900723Y-67959592D01*
X118900659Y-67960159D01*
X118899621Y-68035618D01*
X118899605Y-68036533D01*
X118898011Y-68111895D01*
X118898055Y-68112455D01*
X118898066Y-68112804D01*
X118898209Y-68114499D01*
X118898277Y-68115342D01*
X118898401Y-68116948D01*
X118898443Y-68117267D01*
X118898489Y-68117818D01*
X118912199Y-68192064D01*
X118912361Y-68192964D01*
X118925498Y-68267176D01*
X118925654Y-68267730D01*
X118925730Y-68268057D01*
X118926177Y-68269606D01*
X118926425Y-68270478D01*
X118926857Y-68272019D01*
X118926963Y-68272333D01*
X118927122Y-68272886D01*
X118955026Y-68342964D01*
X118955362Y-68343815D01*
X118980062Y-68407204D01*
X118982747Y-68414095D01*
X118982749Y-68414099D01*
X118982998Y-68414589D01*
X118983140Y-68414905D01*
X118983888Y-68416350D01*
X118984308Y-68417170D01*
X118985027Y-68418587D01*
X118985194Y-68418877D01*
X118985455Y-68419382D01*
X119026456Y-68482610D01*
X119026951Y-68483379D01*
X119067562Y-68547030D01*
X119067905Y-68547466D01*
X119068097Y-68547734D01*
X119069089Y-68548978D01*
X119069631Y-68549663D01*
X119070681Y-68550999D01*
X119070918Y-68551269D01*
X119071248Y-68551683D01*
X119071252Y-68551689D01*
X119071256Y-68551693D01*
X119071260Y-68551698D01*
X119123836Y-68605741D01*
X119124401Y-68606324D01*
X119176678Y-68660861D01*
X119176682Y-68660864D01*
X119177098Y-68661220D01*
X119177345Y-68661453D01*
X119178507Y-68662433D01*
X119179225Y-68663043D01*
X119180514Y-68664147D01*
X119180795Y-68664363D01*
X119181202Y-68664706D01*
X119181208Y-68664712D01*
X119243423Y-68707532D01*
X119243918Y-68707875D01*
X119305906Y-68751218D01*
X119305907Y-68751218D01*
X119305908Y-68751219D01*
X119306376Y-68751482D01*
X119315934Y-68757439D01*
X119347579Y-68779219D01*
X119492417Y-68841560D01*
X119492420Y-68841560D01*
X119492421Y-68841561D01*
X119522536Y-68847983D01*
X119646634Y-68874447D01*
X119793601Y-68876468D01*
X119804299Y-68876616D01*
X119804299Y-68876615D01*
X119804304Y-68876616D01*
X119959368Y-68847983D01*
X120105865Y-68789649D01*
X120238168Y-68703855D01*
X120351191Y-68593899D01*
X120440590Y-68464007D01*
X120442319Y-68459992D01*
X120502932Y-68319169D01*
X120518750Y-68244992D01*
X120535819Y-68164952D01*
X120537988Y-68007282D01*
X120509355Y-67852218D01*
X120508249Y-67846228D01*
X120509120Y-67846067D01*
X120505567Y-67818842D01*
X120508032Y-67702288D01*
X120518406Y-67211727D01*
X120539503Y-67145122D01*
X120554697Y-67126671D01*
X120608656Y-67072712D01*
X120662712Y-67018656D01*
X120754814Y-66869334D01*
X120809999Y-66702797D01*
X120820500Y-66600009D01*
X120820499Y-65599992D01*
X120815391Y-65549992D01*
X120809999Y-65497203D01*
X120809998Y-65497200D01*
X120754814Y-65330666D01*
X120662712Y-65181344D01*
X120538656Y-65057288D01*
X120389334Y-64965186D01*
X120222797Y-64910001D01*
X120222795Y-64910000D01*
X120120010Y-64899500D01*
X119319998Y-64899500D01*
X119319980Y-64899501D01*
X119217203Y-64910000D01*
X119217200Y-64910001D01*
X119050668Y-64965185D01*
X119050663Y-64965187D01*
X118901342Y-65057289D01*
X118777289Y-65181342D01*
X118685187Y-65330663D01*
X118685185Y-65330668D01*
X118657349Y-65414670D01*
X118630001Y-65497203D01*
X118630001Y-65497204D01*
X118630000Y-65497204D01*
X118619500Y-65599983D01*
X113045500Y-65599983D01*
X113045500Y-64741155D01*
X113045499Y-64741153D01*
X113044581Y-64736539D01*
X113014737Y-64586503D01*
X113011564Y-64578843D01*
X112954397Y-64440827D01*
X112954390Y-64440814D01*
X112869248Y-64313391D01*
X112848370Y-64246714D01*
X112866854Y-64179334D01*
X112918833Y-64132643D01*
X112972350Y-64120500D01*
X121490254Y-64120500D01*
X121557293Y-64140185D01*
G37*
%TD.AperFunction*%
%TA.AperFunction,Conductor*%
G36*
X131631271Y-64140185D02*
G01*
X131677026Y-64192989D01*
X131686970Y-64262147D01*
X131685849Y-64268692D01*
X131659500Y-64401155D01*
X131659500Y-67787537D01*
X131639815Y-67854576D01*
X131600599Y-67893075D01*
X131561342Y-67917289D01*
X131437289Y-68041342D01*
X131345187Y-68190663D01*
X131345185Y-68190668D01*
X131328393Y-68241344D01*
X131290001Y-68357203D01*
X131290001Y-68357204D01*
X131290000Y-68357204D01*
X131279500Y-68459983D01*
X131279500Y-70260001D01*
X131279501Y-70260018D01*
X131290000Y-70362796D01*
X131290001Y-70362799D01*
X131345185Y-70529331D01*
X131345189Y-70529340D01*
X131438366Y-70680404D01*
X131456806Y-70747796D01*
X131435883Y-70814459D01*
X131382241Y-70859229D01*
X131332827Y-70869500D01*
X123368013Y-70869500D01*
X123300974Y-70849815D01*
X123255219Y-70797011D01*
X123245275Y-70727853D01*
X123262474Y-70680404D01*
X123324814Y-70579334D01*
X123379999Y-70412797D01*
X123390500Y-70310009D01*
X123390499Y-68509992D01*
X123387780Y-68483379D01*
X123379999Y-68407203D01*
X123379998Y-68407200D01*
X123363431Y-68357204D01*
X123324814Y-68240666D01*
X123232712Y-68091344D01*
X123232709Y-68091341D01*
X123228234Y-68085681D01*
X123230418Y-68083953D01*
X123203065Y-68033859D01*
X123200236Y-68006430D01*
X123200688Y-67954128D01*
X123221025Y-65599983D01*
X128739500Y-65599983D01*
X128739500Y-66600001D01*
X128739501Y-66600019D01*
X128750000Y-66702796D01*
X128750001Y-66702799D01*
X128791930Y-66829331D01*
X128805186Y-66869334D01*
X128897288Y-67018656D01*
X129021344Y-67142712D01*
X129025589Y-67145330D01*
X129072317Y-67197273D01*
X129084500Y-67250873D01*
X129084500Y-68078846D01*
X129115261Y-68233489D01*
X129115264Y-68233501D01*
X129175602Y-68379172D01*
X129175609Y-68379185D01*
X129263210Y-68510288D01*
X129263213Y-68510292D01*
X129374707Y-68621786D01*
X129374711Y-68621789D01*
X129505814Y-68709390D01*
X129505827Y-68709397D01*
X129651498Y-68769735D01*
X129651503Y-68769737D01*
X129751602Y-68789648D01*
X129806153Y-68800499D01*
X129806156Y-68800500D01*
X129806158Y-68800500D01*
X129963844Y-68800500D01*
X129963845Y-68800499D01*
X130118497Y-68769737D01*
X130231166Y-68723067D01*
X130264172Y-68709397D01*
X130264172Y-68709396D01*
X130264179Y-68709394D01*
X130395289Y-68621789D01*
X130506789Y-68510289D01*
X130594394Y-68379179D01*
X130654737Y-68233497D01*
X130685500Y-68078842D01*
X130685500Y-67167230D01*
X130705185Y-67100191D01*
X130721819Y-67079549D01*
X130751819Y-67049549D01*
X130782712Y-67018656D01*
X130874814Y-66869334D01*
X130929999Y-66702797D01*
X130940500Y-66600009D01*
X130940499Y-65599992D01*
X130935391Y-65549992D01*
X130929999Y-65497203D01*
X130929998Y-65497200D01*
X130874814Y-65330666D01*
X130782712Y-65181344D01*
X130658656Y-65057288D01*
X130509334Y-64965186D01*
X130342797Y-64910001D01*
X130342795Y-64910000D01*
X130240010Y-64899500D01*
X129439998Y-64899500D01*
X129439980Y-64899501D01*
X129337203Y-64910000D01*
X129337200Y-64910001D01*
X129170668Y-64965185D01*
X129170663Y-64965187D01*
X129021342Y-65057289D01*
X128897289Y-65181342D01*
X128805187Y-65330663D01*
X128805185Y-65330668D01*
X128777349Y-65414670D01*
X128750001Y-65497203D01*
X128750001Y-65497204D01*
X128750000Y-65497204D01*
X128739500Y-65599983D01*
X123221025Y-65599983D01*
X123229736Y-64591643D01*
X123230331Y-64580551D01*
X123230500Y-64578839D01*
X123230500Y-64503921D01*
X123230505Y-64502849D01*
X123231151Y-64428084D01*
X123231150Y-64428083D01*
X123231151Y-64428076D01*
X123231149Y-64428068D01*
X123230996Y-64426354D01*
X123230982Y-64426063D01*
X123230891Y-64425130D01*
X123230788Y-64424040D01*
X123230707Y-64423143D01*
X123230670Y-64422882D01*
X123230500Y-64421158D01*
X123226522Y-64401159D01*
X123215852Y-64347520D01*
X123215681Y-64346639D01*
X123206234Y-64296903D01*
X123201725Y-64273161D01*
X123200676Y-64267638D01*
X123207505Y-64198103D01*
X123250844Y-64143299D01*
X123316932Y-64120625D01*
X123322498Y-64120500D01*
X131564232Y-64120500D01*
X131631271Y-64140185D01*
G37*
%TD.AperFunction*%
%TA.AperFunction,Conductor*%
G36*
X141537293Y-64140185D02*
G01*
X141583048Y-64192989D01*
X141592992Y-64262147D01*
X141591871Y-64268692D01*
X141569500Y-64381155D01*
X141569500Y-68037770D01*
X141549815Y-68104809D01*
X141533181Y-68125451D01*
X141417289Y-68241342D01*
X141325187Y-68390663D01*
X141325185Y-68390668D01*
X141316403Y-68417170D01*
X141270001Y-68557203D01*
X141270001Y-68557204D01*
X141270000Y-68557204D01*
X141259500Y-68659983D01*
X141259500Y-70460001D01*
X141259501Y-70460018D01*
X141270000Y-70562796D01*
X141276628Y-70582796D01*
X141317619Y-70706498D01*
X141320021Y-70776324D01*
X141284290Y-70836366D01*
X141221769Y-70867559D01*
X141199913Y-70869500D01*
X133427173Y-70869500D01*
X133360134Y-70849815D01*
X133314379Y-70797011D01*
X133304435Y-70727853D01*
X133321634Y-70680404D01*
X133378806Y-70587712D01*
X133414814Y-70529334D01*
X133469999Y-70362797D01*
X133480500Y-70260009D01*
X133480499Y-68459992D01*
X133476269Y-68418587D01*
X133469999Y-68357203D01*
X133469998Y-68357200D01*
X133457767Y-68320289D01*
X133414814Y-68190666D01*
X133322712Y-68041344D01*
X133296819Y-68015451D01*
X133263334Y-67954128D01*
X133260500Y-67927770D01*
X133260500Y-65549983D01*
X138649500Y-65549983D01*
X138649500Y-66550001D01*
X138649501Y-66550019D01*
X138660000Y-66652796D01*
X138660001Y-66652799D01*
X138689063Y-66740500D01*
X138715186Y-66819334D01*
X138787207Y-66936100D01*
X138807289Y-66968657D01*
X138918181Y-67079549D01*
X138951666Y-67140872D01*
X138954500Y-67167230D01*
X138954500Y-68278846D01*
X138985261Y-68433489D01*
X138985264Y-68433501D01*
X139045602Y-68579172D01*
X139045609Y-68579185D01*
X139133210Y-68710288D01*
X139133213Y-68710292D01*
X139244707Y-68821786D01*
X139244711Y-68821789D01*
X139375814Y-68909390D01*
X139375827Y-68909397D01*
X139521498Y-68969735D01*
X139521503Y-68969737D01*
X139676153Y-69000499D01*
X139676156Y-69000500D01*
X139676158Y-69000500D01*
X139833842Y-69000500D01*
X139907727Y-68985802D01*
X139917974Y-68984208D01*
X139988059Y-68976313D01*
X140147690Y-68920456D01*
X140147693Y-68920453D01*
X140147697Y-68920452D01*
X140290884Y-68830481D01*
X140290885Y-68830480D01*
X140290890Y-68830477D01*
X140410477Y-68710890D01*
X140412644Y-68707441D01*
X140500452Y-68567697D01*
X140500454Y-68567694D01*
X140500454Y-68567692D01*
X140500456Y-68567690D01*
X140556313Y-68408059D01*
X140556313Y-68408058D01*
X140556314Y-68408056D01*
X140575249Y-68240002D01*
X140575249Y-68239997D01*
X140556280Y-68071644D01*
X140555500Y-68057760D01*
X140555500Y-67157230D01*
X140575185Y-67090191D01*
X140591819Y-67069549D01*
X140625481Y-67035887D01*
X140692712Y-66968656D01*
X140784814Y-66819334D01*
X140839999Y-66652797D01*
X140850500Y-66550009D01*
X140850499Y-65549992D01*
X140849477Y-65539991D01*
X140839999Y-65447203D01*
X140839998Y-65447200D01*
X140833371Y-65427200D01*
X140784814Y-65280666D01*
X140692712Y-65131344D01*
X140568656Y-65007288D01*
X140452656Y-64935739D01*
X140419336Y-64915187D01*
X140419331Y-64915185D01*
X140389153Y-64905185D01*
X140252797Y-64860001D01*
X140252795Y-64860000D01*
X140150010Y-64849500D01*
X139349998Y-64849500D01*
X139349980Y-64849501D01*
X139247203Y-64860000D01*
X139247200Y-64860001D01*
X139080668Y-64915185D01*
X139080663Y-64915187D01*
X138931342Y-65007289D01*
X138807289Y-65131342D01*
X138715187Y-65280663D01*
X138715185Y-65280668D01*
X138698617Y-65330668D01*
X138660001Y-65447203D01*
X138660001Y-65447204D01*
X138660000Y-65447204D01*
X138649500Y-65549983D01*
X133260500Y-65549983D01*
X133260500Y-64820465D01*
X133268643Y-64779529D01*
X133267970Y-64779325D01*
X133269732Y-64773510D01*
X133269738Y-64773498D01*
X133300500Y-64618843D01*
X133300500Y-64461158D01*
X133298127Y-64449225D01*
X133296522Y-64441158D01*
X133277931Y-64347694D01*
X133269738Y-64306502D01*
X133267321Y-64300666D01*
X133263711Y-64291950D01*
X133256244Y-64222480D01*
X133287520Y-64160002D01*
X133347610Y-64124351D01*
X133378273Y-64120500D01*
X141470254Y-64120500D01*
X141537293Y-64140185D01*
G37*
%TD.AperFunction*%
%TA.AperFunction,Conductor*%
G36*
X151865249Y-64140185D02*
G01*
X151911004Y-64192989D01*
X151920948Y-64262147D01*
X151919827Y-64268691D01*
X151889500Y-64421153D01*
X151889500Y-68039178D01*
X151869815Y-68106217D01*
X151846359Y-68132089D01*
X151846451Y-68132181D01*
X151844588Y-68134043D01*
X151842415Y-68136441D01*
X151841344Y-68137287D01*
X151717289Y-68261342D01*
X151625187Y-68410663D01*
X151625185Y-68410668D01*
X151603584Y-68475855D01*
X151570001Y-68577203D01*
X151570001Y-68577204D01*
X151570000Y-68577204D01*
X151559500Y-68679983D01*
X151559500Y-70480001D01*
X151559501Y-70480018D01*
X151570000Y-70582796D01*
X151570001Y-70582799D01*
X151610991Y-70706496D01*
X151613393Y-70776324D01*
X151577661Y-70836366D01*
X151515141Y-70867559D01*
X151493285Y-70869500D01*
X143520087Y-70869500D01*
X143453048Y-70849815D01*
X143407293Y-70797011D01*
X143397349Y-70727853D01*
X143402379Y-70706504D01*
X143449999Y-70562797D01*
X143460500Y-70460009D01*
X143460499Y-68659992D01*
X143452244Y-68579185D01*
X143449999Y-68557203D01*
X143449998Y-68557200D01*
X143425536Y-68483379D01*
X143394814Y-68390666D01*
X143302712Y-68241344D01*
X143206819Y-68145451D01*
X143173334Y-68084128D01*
X143170500Y-68057770D01*
X143170500Y-65529983D01*
X148959500Y-65529983D01*
X148959500Y-66530001D01*
X148959501Y-66530019D01*
X148970000Y-66632796D01*
X148970001Y-66632799D01*
X148999063Y-66720500D01*
X149025186Y-66799334D01*
X149109543Y-66936100D01*
X149117289Y-66948657D01*
X149228181Y-67059549D01*
X149261666Y-67120872D01*
X149264500Y-67147230D01*
X149264500Y-68238846D01*
X149295261Y-68393489D01*
X149295264Y-68393501D01*
X149355602Y-68539172D01*
X149355609Y-68539185D01*
X149443210Y-68670288D01*
X149443213Y-68670292D01*
X149554707Y-68781786D01*
X149554711Y-68781789D01*
X149685814Y-68869390D01*
X149685827Y-68869397D01*
X149831498Y-68929735D01*
X149831503Y-68929737D01*
X149948398Y-68952989D01*
X149986153Y-68960499D01*
X149986156Y-68960500D01*
X149986158Y-68960500D01*
X150143844Y-68960500D01*
X150143845Y-68960499D01*
X150298497Y-68929737D01*
X150417367Y-68880500D01*
X150444172Y-68869397D01*
X150444172Y-68869396D01*
X150444179Y-68869394D01*
X150575289Y-68781789D01*
X150686789Y-68670289D01*
X150774394Y-68539179D01*
X150834737Y-68393497D01*
X150865500Y-68238842D01*
X150865500Y-67137230D01*
X150885185Y-67070191D01*
X150901819Y-67049549D01*
X150932714Y-67018654D01*
X151002712Y-66948656D01*
X151094814Y-66799334D01*
X151149999Y-66632797D01*
X151160500Y-66530009D01*
X151160499Y-65529992D01*
X151159456Y-65519785D01*
X151149999Y-65427203D01*
X151149998Y-65427200D01*
X151118010Y-65330668D01*
X151094814Y-65260666D01*
X151002712Y-65111344D01*
X150878656Y-64987288D01*
X150761761Y-64915187D01*
X150729336Y-64895187D01*
X150729331Y-64895185D01*
X150727862Y-64894698D01*
X150562797Y-64840001D01*
X150562795Y-64840000D01*
X150460010Y-64829500D01*
X149659998Y-64829500D01*
X149659980Y-64829501D01*
X149557203Y-64840000D01*
X149557200Y-64840001D01*
X149390668Y-64895185D01*
X149390663Y-64895187D01*
X149241342Y-64987289D01*
X149117289Y-65111342D01*
X149025187Y-65260663D01*
X149025185Y-65260668D01*
X149018558Y-65280668D01*
X148970001Y-65427203D01*
X148970001Y-65427204D01*
X148970000Y-65427204D01*
X148959500Y-65529983D01*
X143170500Y-65529983D01*
X143170500Y-64381155D01*
X143148129Y-64268692D01*
X143154356Y-64199100D01*
X143197219Y-64143923D01*
X143263108Y-64120678D01*
X143269746Y-64120500D01*
X151798210Y-64120500D01*
X151865249Y-64140185D01*
G37*
%TD.AperFunction*%
%TD*%
M02*
