%TF.GenerationSoftware,KiCad,Pcbnew,8.0.4*%
%TF.CreationDate,2025-06-08T15:43:54+10:00*%
%TF.ProjectId,USBPowerBlock,55534250-6f77-4657-9242-6c6f636b2e6b,rev?*%
%TF.SameCoordinates,Original*%
%TF.FileFunction,Copper,L2,Bot*%
%TF.FilePolarity,Positive*%
%FSLAX46Y46*%
G04 Gerber Fmt 4.6, Leading zero omitted, Abs format (unit mm)*
G04 Created by KiCad (PCBNEW 8.0.4) date 2025-06-08 15:43:54*
%MOMM*%
%LPD*%
G01*
G04 APERTURE LIST*
G04 Aperture macros list*
%AMRoundRect*
0 Rectangle with rounded corners*
0 $1 Rounding radius*
0 $2 $3 $4 $5 $6 $7 $8 $9 X,Y pos of 4 corners*
0 Add a 4 corners polygon primitive as box body*
4,1,4,$2,$3,$4,$5,$6,$7,$8,$9,$2,$3,0*
0 Add four circle primitives for the rounded corners*
1,1,$1+$1,$2,$3*
1,1,$1+$1,$4,$5*
1,1,$1+$1,$6,$7*
1,1,$1+$1,$8,$9*
0 Add four rect primitives between the rounded corners*
20,1,$1+$1,$2,$3,$4,$5,0*
20,1,$1+$1,$4,$5,$6,$7,0*
20,1,$1+$1,$6,$7,$8,$9,0*
20,1,$1+$1,$8,$9,$2,$3,0*%
G04 Aperture macros list end*
%TA.AperFunction,ComponentPad*%
%ADD10R,1.575000X1.575000*%
%TD*%
%TA.AperFunction,ComponentPad*%
%ADD11C,1.575000*%
%TD*%
%TA.AperFunction,ComponentPad*%
%ADD12R,1.300000X1.300000*%
%TD*%
%TA.AperFunction,ComponentPad*%
%ADD13C,1.300000*%
%TD*%
%TA.AperFunction,ComponentPad*%
%ADD14O,2.900000X1.900000*%
%TD*%
%TA.AperFunction,ComponentPad*%
%ADD15R,1.000000X1.000000*%
%TD*%
%TA.AperFunction,ComponentPad*%
%ADD16O,1.000000X1.000000*%
%TD*%
%TA.AperFunction,ComponentPad*%
%ADD17R,0.900000X1.300000*%
%TD*%
%TA.AperFunction,ComponentPad*%
%ADD18O,0.950000X2.000000*%
%TD*%
%TA.AperFunction,SMDPad,CuDef*%
%ADD19RoundRect,0.250000X0.450000X-0.350000X0.450000X0.350000X-0.450000X0.350000X-0.450000X-0.350000X0*%
%TD*%
%TA.AperFunction,SMDPad,CuDef*%
%ADD20RoundRect,0.250000X0.450000X-0.325000X0.450000X0.325000X-0.450000X0.325000X-0.450000X-0.325000X0*%
%TD*%
%TA.AperFunction,SMDPad,CuDef*%
%ADD21RoundRect,0.250000X-0.450000X0.350000X-0.450000X-0.350000X0.450000X-0.350000X0.450000X0.350000X0*%
%TD*%
%TA.AperFunction,SMDPad,CuDef*%
%ADD22RoundRect,0.250000X0.475000X-0.337500X0.475000X0.337500X-0.475000X0.337500X-0.475000X-0.337500X0*%
%TD*%
%TA.AperFunction,SMDPad,CuDef*%
%ADD23RoundRect,0.250000X-0.350000X-0.450000X0.350000X-0.450000X0.350000X0.450000X-0.350000X0.450000X0*%
%TD*%
%TA.AperFunction,SMDPad,CuDef*%
%ADD24RoundRect,0.250000X-0.475000X0.337500X-0.475000X-0.337500X0.475000X-0.337500X0.475000X0.337500X0*%
%TD*%
%TA.AperFunction,SMDPad,CuDef*%
%ADD25RoundRect,0.375000X0.375000X-0.625000X0.375000X0.625000X-0.375000X0.625000X-0.375000X-0.625000X0*%
%TD*%
%TA.AperFunction,SMDPad,CuDef*%
%ADD26RoundRect,0.500000X1.400000X-0.500000X1.400000X0.500000X-1.400000X0.500000X-1.400000X-0.500000X0*%
%TD*%
%TA.AperFunction,SMDPad,CuDef*%
%ADD27RoundRect,0.250000X0.337500X0.475000X-0.337500X0.475000X-0.337500X-0.475000X0.337500X-0.475000X0*%
%TD*%
%TA.AperFunction,SMDPad,CuDef*%
%ADD28RoundRect,0.250000X0.350000X0.450000X-0.350000X0.450000X-0.350000X-0.450000X0.350000X-0.450000X0*%
%TD*%
%TA.AperFunction,SMDPad,CuDef*%
%ADD29RoundRect,0.250000X-0.450000X0.325000X-0.450000X-0.325000X0.450000X-0.325000X0.450000X0.325000X0*%
%TD*%
%TA.AperFunction,ViaPad*%
%ADD30C,1.000000*%
%TD*%
%TA.AperFunction,ViaPad*%
%ADD31C,0.500000*%
%TD*%
%TA.AperFunction,ViaPad*%
%ADD32C,0.600000*%
%TD*%
%TA.AperFunction,Conductor*%
%ADD33C,0.600000*%
%TD*%
%TA.AperFunction,Conductor*%
%ADD34C,1.500000*%
%TD*%
%TA.AperFunction,Conductor*%
%ADD35C,0.400000*%
%TD*%
%TA.AperFunction,Conductor*%
%ADD36C,0.200000*%
%TD*%
G04 APERTURE END LIST*
D10*
%TO.P,J7,1,1*%
%TO.N,5V*%
X165510000Y-69510000D03*
D11*
%TO.P,J7,2,2*%
%TO.N,GND*%
X165510000Y-72010000D03*
%TD*%
D12*
%TO.P,J3,1,VBUS*%
%TO.N,5V3*%
X132450000Y-91380000D03*
D13*
%TO.P,J3,2,D-*%
%TO.N,unconnected-(J3-D--Pad2)*%
X132450000Y-88880000D03*
%TO.P,J3,3,D+*%
%TO.N,unconnected-(J3-D+-Pad3)*%
X132450000Y-86880000D03*
%TO.P,J3,4,GND*%
%TO.N,GND3*%
X132450000Y-84380000D03*
D14*
%TO.P,J3,5,Shield*%
%TO.N,unconnected-(J3-Shield-Pad5)*%
X130020000Y-94550000D03*
X130030000Y-81210000D03*
%TD*%
D12*
%TO.P,J5,1,VBUS*%
%TO.N,5V5*%
X152470000Y-91380000D03*
D13*
%TO.P,J5,2,D-*%
%TO.N,unconnected-(J5-D--Pad2)*%
X152470000Y-88880000D03*
%TO.P,J5,3,D+*%
%TO.N,unconnected-(J5-D+-Pad3)*%
X152470000Y-86880000D03*
%TO.P,J5,4,GND*%
%TO.N,GND5*%
X152470000Y-84380000D03*
D14*
%TO.P,J5,5,Shield*%
%TO.N,unconnected-(J5-Shield-Pad5)*%
X150040000Y-94550000D03*
X150050000Y-81210000D03*
%TD*%
D15*
%TO.P,J6,1,Pin_1*%
%TO.N,3V3*%
X102500000Y-78130000D03*
D16*
%TO.P,J6,2,Pin_2*%
%TO.N,RXD*%
X102500000Y-79400000D03*
%TO.P,J6,3,Pin_3*%
%TO.N,TXD*%
X102500000Y-80670000D03*
%TO.P,J6,4,Pin_4*%
%TO.N,IO0*%
X102500000Y-81940000D03*
%TO.P,J6,5,Pin_5*%
%TO.N,GND*%
X102500000Y-83210000D03*
%TD*%
D17*
%TO.P,U1,1,VDD*%
%TO.N,3V3*%
X176380000Y-76690000D03*
D18*
X176380000Y-78540000D03*
D17*
%TO.P,U1,2,EN*%
%TO.N,EN*%
X174880000Y-76690000D03*
D18*
X174880000Y-78540000D03*
D17*
%TO.P,U1,3,IO14*%
%TO.N,IO14*%
X173380000Y-76690000D03*
D18*
X173380000Y-78540000D03*
D17*
%TO.P,U1,4,IO12*%
%TO.N,IO12*%
X171880000Y-76690000D03*
D18*
X171880000Y-78540000D03*
D17*
%TO.P,U1,5,IO13*%
%TO.N,IO13*%
X170380000Y-76690000D03*
D18*
X170380000Y-78540000D03*
D17*
%TO.P,U1,6,IO15*%
%TO.N,IO15*%
X168880000Y-76690000D03*
D18*
X168880000Y-78540000D03*
D17*
%TO.P,U1,7,IO2*%
%TO.N,IO2*%
X167380000Y-76690000D03*
D18*
X167380000Y-78540000D03*
D17*
%TO.P,U1,8,IO0*%
%TO.N,IO0*%
X165880000Y-76690000D03*
D18*
X165880000Y-78540000D03*
D17*
%TO.P,U1,9,GND*%
%TO.N,GND*%
X164380000Y-76690000D03*
D18*
X164380000Y-78540000D03*
%TO.P,U1,10,IO4*%
%TO.N,IO4*%
X164420000Y-96440000D03*
D17*
X164420000Y-98290000D03*
D18*
%TO.P,U1,11,RXD*%
%TO.N,RXD*%
X165920000Y-96440000D03*
D17*
X165920000Y-98290000D03*
D18*
%TO.P,U1,12,TXD*%
%TO.N,TXD*%
X167420000Y-96440000D03*
D17*
X167420000Y-98290000D03*
D18*
%TO.P,U1,13,GND*%
%TO.N,GND*%
X168920000Y-96440000D03*
D17*
X168920000Y-98290000D03*
D18*
%TO.P,U1,14,IO5*%
%TO.N,IO5*%
X170420000Y-96440000D03*
D17*
X170420000Y-98290000D03*
D18*
%TO.P,U1,15,RST*%
%TO.N,unconnected-(U1-RST-Pad15)*%
X171920000Y-96440000D03*
D17*
X171920000Y-98290000D03*
D18*
%TO.P,U1,16,TOUT*%
%TO.N,unconnected-(U1-TOUT-Pad16)*%
X173420000Y-96440000D03*
D17*
X173420000Y-98290000D03*
D18*
%TO.P,U1,17,IO16*%
%TO.N,IO16*%
X174920000Y-96440000D03*
D17*
X174920000Y-98290000D03*
D18*
%TO.P,U1,18,GND*%
%TO.N,GND*%
X176420000Y-96440000D03*
D17*
X176420000Y-98290000D03*
%TD*%
D12*
%TO.P,J1,1,VBUS*%
%TO.N,5V1*%
X112410000Y-91410000D03*
D13*
%TO.P,J1,2,D-*%
%TO.N,unconnected-(J1-D--Pad2)*%
X112410000Y-88910000D03*
%TO.P,J1,3,D+*%
%TO.N,unconnected-(J1-D+-Pad3)*%
X112410000Y-86910000D03*
%TO.P,J1,4,GND*%
%TO.N,GND1*%
X112410000Y-84410000D03*
D14*
%TO.P,J1,5,Shield*%
%TO.N,unconnected-(J1-Shield-Pad5)*%
X109980000Y-94580000D03*
X109990000Y-81240000D03*
%TD*%
D12*
%TO.P,J2,1,VBUS*%
%TO.N,5V2*%
X122430000Y-91400000D03*
D13*
%TO.P,J2,2,D-*%
%TO.N,unconnected-(J2-D--Pad2)*%
X122430000Y-88900000D03*
%TO.P,J2,3,D+*%
%TO.N,unconnected-(J2-D+-Pad3)*%
X122430000Y-86900000D03*
%TO.P,J2,4,GND*%
%TO.N,GND2*%
X122430000Y-84400000D03*
D14*
%TO.P,J2,5,Shield*%
%TO.N,unconnected-(J2-Shield-Pad5)*%
X120000000Y-94570000D03*
X120010000Y-81230000D03*
%TD*%
D12*
%TO.P,J4,1,VBUS*%
%TO.N,5V4*%
X142470000Y-91410000D03*
D13*
%TO.P,J4,2,D-*%
%TO.N,unconnected-(J4-D--Pad2)*%
X142470000Y-88910000D03*
%TO.P,J4,3,D+*%
%TO.N,unconnected-(J4-D+-Pad3)*%
X142470000Y-86910000D03*
%TO.P,J4,4,GND*%
%TO.N,GND4*%
X142470000Y-84410000D03*
D14*
%TO.P,J4,5,Shield*%
%TO.N,unconnected-(J4-Shield-Pad5)*%
X140040000Y-94580000D03*
X140050000Y-81240000D03*
%TD*%
D19*
%TO.P,R10,1*%
%TO.N,IO13*%
X142340000Y-68290000D03*
%TO.P,R10,2*%
%TO.N,Net-(Q4-G)*%
X142340000Y-66290000D03*
%TD*%
D20*
%TO.P,F1,1*%
%TO.N,5V*%
X115340000Y-96995000D03*
%TO.P,F1,2*%
%TO.N,5V1*%
X115340000Y-94945000D03*
%TD*%
D21*
%TO.P,R15,1,1*%
%TO.N,IO15*%
X168730000Y-81530000D03*
%TO.P,R15,2,2*%
%TO.N,GND*%
X168730000Y-83530000D03*
%TD*%
D22*
%TO.P,C3,1,1*%
%TO.N,3V3*%
X168410000Y-66907500D03*
%TO.P,C3,2,2*%
%TO.N,GND*%
X168410000Y-64832500D03*
%TD*%
D20*
%TO.P,F3,1*%
%TO.N,5V*%
X135650000Y-97015000D03*
%TO.P,F3,2*%
%TO.N,5V3*%
X135650000Y-94965000D03*
%TD*%
D23*
%TO.P,R3,1,1*%
%TO.N,EN*%
X173610000Y-83140000D03*
%TO.P,R3,2,2*%
%TO.N,3V3*%
X175610000Y-83140000D03*
%TD*%
D19*
%TO.P,R8,1*%
%TO.N,IO12*%
X132360000Y-67940000D03*
%TO.P,R8,2*%
%TO.N,Net-(Q3-G)*%
X132360000Y-65940000D03*
%TD*%
D21*
%TO.P,R4,1,1*%
%TO.N,IO0*%
X163470000Y-86260000D03*
%TO.P,R4,2,2*%
%TO.N,3V3*%
X163470000Y-88260000D03*
%TD*%
D22*
%TO.P,C6,1*%
%TO.N,3V3*%
X165470000Y-66917500D03*
%TO.P,C6,2*%
%TO.N,GND*%
X165470000Y-64842500D03*
%TD*%
D24*
%TO.P,C1,1,1*%
%TO.N,EN*%
X171250000Y-83142500D03*
%TO.P,C1,2,2*%
%TO.N,GND*%
X171250000Y-85217500D03*
%TD*%
D19*
%TO.P,R12,1*%
%TO.N,IO14*%
X152660000Y-68160000D03*
%TO.P,R12,2*%
%TO.N,Net-(Q5-G)*%
X152660000Y-66160000D03*
%TD*%
D25*
%TO.P,U2,1,GND*%
%TO.N,GND*%
X162332500Y-72800000D03*
%TO.P,U2,2,VO*%
%TO.N,3V3*%
X160032500Y-72800000D03*
D26*
X160032500Y-66500000D03*
D25*
%TO.P,U2,3,VI*%
%TO.N,5V*%
X157732500Y-72800000D03*
%TD*%
D19*
%TO.P,R2,1*%
%TO.N,IO4*%
X112290000Y-67880000D03*
%TO.P,R2,2*%
%TO.N,Net-(Q1-G)*%
X112290000Y-65880000D03*
%TD*%
D27*
%TO.P,C5,1*%
%TO.N,GND*%
X159807500Y-81730000D03*
%TO.P,C5,2*%
%TO.N,5V*%
X157732500Y-81730000D03*
%TD*%
D28*
%TO.P,R17,1*%
%TO.N,IO16*%
X173810000Y-93190000D03*
%TO.P,R17,2*%
%TO.N,Net-(D3-A)*%
X171810000Y-93190000D03*
%TD*%
D20*
%TO.P,F2,1*%
%TO.N,5V*%
X125710000Y-97015000D03*
%TO.P,F2,2*%
%TO.N,5V2*%
X125710000Y-94965000D03*
%TD*%
D19*
%TO.P,R6,1*%
%TO.N,IO5*%
X122320000Y-67990000D03*
%TO.P,R6,2*%
%TO.N,Net-(Q2-G)*%
X122320000Y-65990000D03*
%TD*%
D27*
%TO.P,C4,1,1*%
%TO.N,IO0*%
X165917500Y-81650000D03*
%TO.P,C4,2,2*%
%TO.N,GND*%
X163842500Y-81650000D03*
%TD*%
D24*
%TO.P,C2,1,1*%
%TO.N,3V3*%
X175520000Y-86452500D03*
%TO.P,C2,2,2*%
%TO.N,GND*%
X175520000Y-88527500D03*
%TD*%
D29*
%TO.P,F5,1*%
%TO.N,5V*%
X157730000Y-87915000D03*
%TO.P,F5,2*%
%TO.N,5V5*%
X157730000Y-89965000D03*
%TD*%
D21*
%TO.P,R16,1,1*%
%TO.N,IO2*%
X166260000Y-87130000D03*
%TO.P,R16,2,2*%
%TO.N,3V3*%
X166260000Y-89130000D03*
%TD*%
D20*
%TO.P,F4,1*%
%TO.N,5V*%
X145710000Y-97045000D03*
%TO.P,F4,2*%
%TO.N,5V4*%
X145710000Y-94995000D03*
%TD*%
D30*
%TO.N,5V*%
X157720000Y-84400000D03*
X149650000Y-97290000D03*
D31*
%TO.N,3V3*%
X163760000Y-66500000D03*
X162830000Y-74910000D03*
D30*
%TO.N,GND*%
X161870000Y-77140000D03*
X109650000Y-69630000D03*
X103000000Y-73850000D03*
X155730000Y-65550000D03*
X169850000Y-88700000D03*
X135730000Y-66660000D03*
X103120000Y-85600000D03*
X150050000Y-92050000D03*
X115830000Y-66700000D03*
X120120000Y-70010000D03*
X114930000Y-89740000D03*
X125700000Y-66720000D03*
X160450000Y-86140000D03*
X145850000Y-66600000D03*
X176760000Y-70790000D03*
X102460000Y-92860000D03*
D32*
%TO.N,IO0*%
X162770000Y-84200000D03*
D31*
%TO.N,Net-(Q1-G)*%
X112245000Y-64820000D03*
%TO.N,Net-(Q2-G)*%
X122430000Y-64500000D03*
%TO.N,Net-(Q3-G)*%
X132500000Y-64540000D03*
%TO.N,Net-(Q4-G)*%
X142370000Y-64460000D03*
%TO.N,Net-(Q5-G)*%
X152710000Y-64520000D03*
%TO.N,IO4*%
X109700000Y-67820000D03*
%TO.N,IO5*%
X119700000Y-68050000D03*
%TO.N,IO12*%
X129930000Y-67990000D03*
X155170000Y-73060000D03*
%TO.N,IO13*%
X139820000Y-68240000D03*
X155150000Y-71150000D03*
%TO.N,IO14*%
X150090000Y-68190000D03*
X155410000Y-69160000D03*
%TO.N,Net-(D3-A)*%
X162300000Y-91550000D03*
%TD*%
D33*
%TO.N,3V3*%
X163760000Y-66500000D02*
X160032500Y-66500000D01*
X163760000Y-66500000D02*
X164177500Y-66917500D01*
X164177500Y-66917500D02*
X165470000Y-66917500D01*
D34*
%TO.N,5V*%
X157732500Y-84387500D02*
X157720000Y-84400000D01*
X157732500Y-71087500D02*
X159310000Y-69510000D01*
X157732500Y-74790000D02*
X157732500Y-72800000D01*
X149650000Y-97290000D02*
X115475000Y-97290000D01*
X157730000Y-84410000D02*
X157730000Y-87915000D01*
X157732500Y-81730000D02*
X157732500Y-74790000D01*
X157720000Y-84400000D02*
X157730000Y-84410000D01*
X157732500Y-74790000D02*
X157732500Y-71087500D01*
X157732500Y-81730000D02*
X157732500Y-84387500D01*
X159310000Y-69510000D02*
X165510000Y-69510000D01*
D35*
%TO.N,EN*%
X174880000Y-78540000D02*
X174880000Y-80140000D01*
X173610000Y-81410000D02*
X173610000Y-83140000D01*
X173607500Y-83142500D02*
X173610000Y-83140000D01*
X171250000Y-83142500D02*
X173607500Y-83142500D01*
X174880000Y-80140000D02*
X173610000Y-81410000D01*
X173302500Y-82832500D02*
X173610000Y-83140000D01*
%TO.N,3V3*%
X176380000Y-75040000D02*
X176380000Y-76990000D01*
X166260000Y-89130000D02*
X165750000Y-89130000D01*
X173500000Y-87280000D02*
X173500000Y-91540000D01*
X162840000Y-74920000D02*
X176260000Y-74920000D01*
X165750000Y-89130000D02*
X164105000Y-90775000D01*
X175520000Y-86452500D02*
X175520000Y-83230000D01*
X175520000Y-86452500D02*
X174327500Y-86452500D01*
X175960000Y-80900000D02*
X176380000Y-80480000D01*
X173480000Y-91560000D02*
X164890000Y-91560000D01*
X175740000Y-80900000D02*
X175960000Y-80900000D01*
X163470000Y-90140000D02*
X163470000Y-88260000D01*
X175610000Y-83140000D02*
X175610000Y-81030000D01*
D33*
X168410000Y-66907500D02*
X165480000Y-66907500D01*
D35*
X161330000Y-74920000D02*
X162820000Y-74920000D01*
X162820000Y-74920000D02*
X162830000Y-74910000D01*
X176260000Y-74920000D02*
X176380000Y-75040000D01*
X164890000Y-91560000D02*
X164105000Y-90775000D01*
X164105000Y-90775000D02*
X163470000Y-90140000D01*
X175520000Y-83230000D02*
X175610000Y-83140000D01*
X162830000Y-74910000D02*
X162840000Y-74920000D01*
X173500000Y-91540000D02*
X173480000Y-91560000D01*
X174327500Y-86452500D02*
X173500000Y-87280000D01*
X175610000Y-81030000D02*
X175740000Y-80900000D01*
D33*
X165480000Y-66907500D02*
X165470000Y-66917500D01*
D35*
X160032500Y-73622500D02*
X161330000Y-74920000D01*
X176380000Y-80480000D02*
X176380000Y-78540000D01*
X160032500Y-72800000D02*
X160032500Y-73622500D01*
D33*
%TO.N,GND*%
X176420000Y-96440000D02*
X176420000Y-97990000D01*
X176420000Y-92270000D02*
X175520000Y-91370000D01*
X168920000Y-96440000D02*
X168920000Y-97990000D01*
X175520000Y-91370000D02*
X175520000Y-88527500D01*
X176420000Y-96440000D02*
X176420000Y-92270000D01*
X164380000Y-76990000D02*
X164380000Y-78540000D01*
D34*
X164720000Y-72800000D02*
X165510000Y-72010000D01*
X162332500Y-72800000D02*
X164720000Y-72800000D01*
D36*
X113160000Y-64220000D02*
X111410000Y-64220000D01*
D35*
%TO.N,IO0*%
X165917500Y-81650000D02*
X165917500Y-83852500D01*
X163470000Y-84900000D02*
X162770000Y-84200000D01*
X165880000Y-78540000D02*
X165880000Y-81612500D01*
X165880000Y-81612500D02*
X165917500Y-81650000D01*
X165917500Y-83852500D02*
X163117500Y-83852500D01*
X165927500Y-78587500D02*
X165880000Y-78540000D01*
X163117500Y-83852500D02*
X162770000Y-84200000D01*
X163470000Y-86260000D02*
X163470000Y-84900000D01*
D34*
%TO.N,5V1*%
X115290000Y-94890000D02*
X115340000Y-94890000D01*
X115290000Y-92080000D02*
X115290000Y-94890000D01*
X115290000Y-92080000D02*
X114620000Y-91410000D01*
X114620000Y-91410000D02*
X112410000Y-91410000D01*
%TO.N,5V2*%
X125540000Y-94890000D02*
X125710000Y-94890000D01*
X125520000Y-91780000D02*
X125140000Y-91400000D01*
X125520000Y-94870000D02*
X125540000Y-94890000D01*
X125520000Y-91780000D02*
X125520000Y-94870000D01*
X125140000Y-91400000D02*
X122430000Y-91400000D01*
D33*
%TO.N,Net-(Q1-G)*%
X112245000Y-64820000D02*
X112245000Y-65835000D01*
X112245000Y-65835000D02*
X112290000Y-65880000D01*
%TO.N,Net-(Q2-G)*%
X122430000Y-65880000D02*
X122320000Y-65990000D01*
X122430000Y-64500000D02*
X122430000Y-65880000D01*
%TO.N,Net-(Q3-G)*%
X132500000Y-65800000D02*
X132360000Y-65940000D01*
X132500000Y-64540000D02*
X132500000Y-65800000D01*
%TO.N,Net-(Q4-G)*%
X142370000Y-66260000D02*
X142340000Y-66290000D01*
X142370000Y-64460000D02*
X142370000Y-66260000D01*
%TO.N,Net-(Q5-G)*%
X152710000Y-66110000D02*
X152660000Y-66160000D01*
X152710000Y-64520000D02*
X152710000Y-66110000D01*
D35*
%TO.N,IO4*%
X157480000Y-93510000D02*
X161390000Y-93510000D01*
X112290000Y-67880000D02*
X112290000Y-69790000D01*
X161390000Y-93510000D02*
X164320000Y-96440000D01*
X110950000Y-99210000D02*
X151780000Y-99210000D01*
X104330000Y-77750000D02*
X104330000Y-92590000D01*
X151780000Y-99210000D02*
X157480000Y-93510000D01*
X104330000Y-92590000D02*
X110950000Y-99210000D01*
X112230000Y-67820000D02*
X112290000Y-67880000D01*
X112290000Y-69790000D02*
X104330000Y-77750000D01*
X164320000Y-96440000D02*
X164420000Y-96440000D01*
X109700000Y-67820000D02*
X112230000Y-67820000D01*
%TO.N,IO5*%
X122320000Y-67990000D02*
X116360000Y-67990000D01*
X119746479Y-68085107D02*
X122276479Y-68085107D01*
X111450000Y-98540000D02*
X151010000Y-98540000D01*
X151010000Y-98540000D02*
X156720000Y-92830000D01*
X116360000Y-67990000D02*
X105620000Y-78730000D01*
X170050000Y-93940000D02*
X170420000Y-94310000D01*
X163590000Y-93940000D02*
X170050000Y-93940000D01*
X105620000Y-78730000D02*
X105620000Y-92710000D01*
X170420000Y-94310000D02*
X170420000Y-96440000D01*
X162480000Y-92830000D02*
X163590000Y-93940000D01*
X156720000Y-92830000D02*
X162480000Y-92830000D01*
X105620000Y-92710000D02*
X111450000Y-98540000D01*
%TO.N,IO12*%
X129910000Y-68010000D02*
X129930000Y-67990000D01*
X139420000Y-73030000D02*
X155170000Y-73060000D01*
X132360000Y-67940000D02*
X134330000Y-67940000D01*
X129930000Y-67990000D02*
X129950000Y-68010000D01*
X137870000Y-71480000D02*
X139420000Y-73030000D01*
X129895000Y-68010000D02*
X129910000Y-68010000D01*
X155170000Y-73060000D02*
X155170000Y-73030000D01*
X134330000Y-67940000D02*
X137870000Y-71480000D01*
X129950000Y-68010000D02*
X132425000Y-68010000D01*
%TO.N,IO13*%
X147390000Y-71150000D02*
X155150000Y-71150000D01*
X139765000Y-68210000D02*
X139790000Y-68210000D01*
X139790000Y-68210000D02*
X139820000Y-68240000D01*
X144530000Y-68290000D02*
X146480000Y-70240000D01*
X146480000Y-70240000D02*
X147390000Y-71150000D01*
X139850000Y-68210000D02*
X142295000Y-68210000D01*
X139820000Y-68240000D02*
X139850000Y-68210000D01*
X142340000Y-68290000D02*
X144530000Y-68290000D01*
X155150000Y-71150000D02*
X155120000Y-71150000D01*
%TO.N,IO14*%
X155410000Y-69160000D02*
X155430000Y-69180000D01*
X150075000Y-68170000D02*
X150090000Y-68190000D01*
X152660000Y-68160000D02*
X154410000Y-68160000D01*
X150090000Y-68190000D02*
X152605000Y-68170000D01*
X154410000Y-68160000D02*
X155410000Y-69160000D01*
D34*
%TO.N,5V3*%
X135610000Y-91690000D02*
X135300000Y-91380000D01*
X135300000Y-91380000D02*
X132450000Y-91380000D01*
X135610000Y-91690000D02*
X135610000Y-94890000D01*
X135610000Y-94890000D02*
X135650000Y-94890000D01*
%TO.N,5V4*%
X145610000Y-92030000D02*
X145610000Y-94890000D01*
X144990000Y-91410000D02*
X145610000Y-92030000D01*
X145610000Y-94890000D02*
X145710000Y-94890000D01*
X142470000Y-91410000D02*
X144990000Y-91410000D01*
%TO.N,5V5*%
X152495000Y-91355000D02*
X152470000Y-91380000D01*
X157730000Y-91005000D02*
X157730000Y-89965000D01*
X157380000Y-91355000D02*
X157730000Y-91005000D01*
X157380000Y-91355000D02*
X152495000Y-91355000D01*
D35*
%TO.N,Net-(D3-A)*%
X162790000Y-91520000D02*
X162330000Y-91520000D01*
X162330000Y-91520000D02*
X162300000Y-91550000D01*
X164460000Y-93190000D02*
X162790000Y-91520000D01*
X162300000Y-91550000D02*
X162270000Y-91520000D01*
X171810000Y-93190000D02*
X164460000Y-93190000D01*
X162270000Y-91520000D02*
X162240000Y-91520000D01*
%TO.N,IO15*%
X168730000Y-78690000D02*
X168880000Y-78540000D01*
X168730000Y-81530000D02*
X168730000Y-78690000D01*
%TO.N,IO2*%
X167380000Y-79850000D02*
X167380000Y-78540000D01*
X167260000Y-79970000D02*
X167380000Y-79850000D01*
X167260000Y-84170000D02*
X167260000Y-79970000D01*
X166260000Y-85170000D02*
X167260000Y-84170000D01*
X166260000Y-87130000D02*
X166260000Y-85170000D01*
%TO.N,IO16*%
X174920000Y-94300000D02*
X174920000Y-96440000D01*
X173810000Y-93190000D02*
X174920000Y-94300000D01*
%TD*%
%TA.AperFunction,Conductor*%
%TO.N,GND*%
G36*
X111584689Y-64140185D02*
G01*
X111630444Y-64192989D01*
X111640388Y-64262147D01*
X111620752Y-64313391D01*
X111535609Y-64440814D01*
X111535602Y-64440827D01*
X111475264Y-64586498D01*
X111475261Y-64586510D01*
X111444500Y-64741153D01*
X111444500Y-64822958D01*
X111424815Y-64889997D01*
X111385597Y-64928496D01*
X111371347Y-64937285D01*
X111371343Y-64937288D01*
X111247289Y-65061342D01*
X111155187Y-65210663D01*
X111155185Y-65210668D01*
X111152991Y-65217289D01*
X111100001Y-65377203D01*
X111100001Y-65377204D01*
X111100000Y-65377204D01*
X111089500Y-65479983D01*
X111089500Y-66280001D01*
X111089501Y-66280019D01*
X111100000Y-66382796D01*
X111100001Y-66382799D01*
X111155185Y-66549331D01*
X111155187Y-66549336D01*
X111190069Y-66605888D01*
X111243052Y-66691789D01*
X111247289Y-66698657D01*
X111340951Y-66792319D01*
X111374436Y-66853642D01*
X111369452Y-66923334D01*
X111340951Y-66967681D01*
X111247288Y-67061343D01*
X111242807Y-67067011D01*
X111241642Y-67066089D01*
X111195797Y-67107323D01*
X111142210Y-67119500D01*
X109991476Y-67119500D01*
X109950521Y-67112541D01*
X109868060Y-67083686D01*
X109700003Y-67064751D01*
X109699997Y-67064751D01*
X109531943Y-67083685D01*
X109372305Y-67139545D01*
X109372302Y-67139547D01*
X109229115Y-67229518D01*
X109229109Y-67229523D01*
X109109523Y-67349109D01*
X109109518Y-67349115D01*
X109019547Y-67492302D01*
X109019545Y-67492305D01*
X108963685Y-67651943D01*
X108944751Y-67819997D01*
X108944751Y-67820002D01*
X108963685Y-67988056D01*
X109019545Y-68147694D01*
X109019547Y-68147697D01*
X109109518Y-68290884D01*
X109109523Y-68290890D01*
X109229109Y-68410476D01*
X109229115Y-68410481D01*
X109372302Y-68500452D01*
X109372305Y-68500454D01*
X109372309Y-68500455D01*
X109372310Y-68500456D01*
X109421562Y-68517690D01*
X109531943Y-68556314D01*
X109699997Y-68575249D01*
X109700000Y-68575249D01*
X109700003Y-68575249D01*
X109868059Y-68556313D01*
X109868061Y-68556313D01*
X109950521Y-68527459D01*
X109991476Y-68520500D01*
X111068194Y-68520500D01*
X111135233Y-68540185D01*
X111173731Y-68579401D01*
X111247288Y-68698656D01*
X111371344Y-68822712D01*
X111520666Y-68914814D01*
X111520667Y-68914814D01*
X111526813Y-68918605D01*
X111525706Y-68920399D01*
X111570337Y-68959687D01*
X111589500Y-69025908D01*
X111589500Y-69448480D01*
X111569815Y-69515519D01*
X111553181Y-69536161D01*
X103785888Y-77303453D01*
X103785887Y-77303454D01*
X103709223Y-77418192D01*
X103696153Y-77449745D01*
X103652311Y-77504147D01*
X103586017Y-77526211D01*
X103518318Y-77508931D01*
X103470708Y-77457793D01*
X103465411Y-77445622D01*
X103443798Y-77387673D01*
X103443793Y-77387664D01*
X103357547Y-77272455D01*
X103357544Y-77272452D01*
X103242335Y-77186206D01*
X103242328Y-77186202D01*
X103107482Y-77135908D01*
X103107483Y-77135908D01*
X103047883Y-77129501D01*
X103047881Y-77129500D01*
X103047873Y-77129500D01*
X103047864Y-77129500D01*
X101952129Y-77129500D01*
X101952123Y-77129501D01*
X101892516Y-77135908D01*
X101757671Y-77186202D01*
X101757664Y-77186206D01*
X101642455Y-77272452D01*
X101642452Y-77272455D01*
X101556206Y-77387664D01*
X101556202Y-77387671D01*
X101505908Y-77522517D01*
X101499501Y-77582116D01*
X101499500Y-77582135D01*
X101499500Y-78677870D01*
X101499501Y-78677876D01*
X101505908Y-78737483D01*
X101556202Y-78872328D01*
X101556204Y-78872331D01*
X101562231Y-78880382D01*
X101586648Y-78945846D01*
X101573105Y-79009470D01*
X101573518Y-79009641D01*
X101572595Y-79011869D01*
X101572324Y-79013143D01*
X101571188Y-79015267D01*
X101571186Y-79015272D01*
X101571186Y-79015273D01*
X101554124Y-79071519D01*
X101513975Y-79203870D01*
X101494659Y-79400000D01*
X101513975Y-79596129D01*
X101513976Y-79596132D01*
X101569600Y-79779500D01*
X101571188Y-79784733D01*
X101664086Y-79958532D01*
X101667473Y-79963601D01*
X101665836Y-79964694D01*
X101689596Y-80020663D01*
X101677795Y-80089529D01*
X101667109Y-80106156D01*
X101667473Y-80106399D01*
X101664086Y-80111467D01*
X101571188Y-80285266D01*
X101513975Y-80473870D01*
X101494659Y-80670000D01*
X101513975Y-80866129D01*
X101513976Y-80866132D01*
X101543498Y-80963454D01*
X101571188Y-81054733D01*
X101664086Y-81228532D01*
X101667473Y-81233601D01*
X101665836Y-81234694D01*
X101689596Y-81290663D01*
X101677795Y-81359529D01*
X101667109Y-81376156D01*
X101667473Y-81376399D01*
X101664086Y-81381467D01*
X101571188Y-81555266D01*
X101513975Y-81743870D01*
X101494659Y-81940000D01*
X101513975Y-82136129D01*
X101513976Y-82136132D01*
X101556950Y-82277799D01*
X101571188Y-82324733D01*
X101664086Y-82498532D01*
X101664090Y-82498539D01*
X101789116Y-82650883D01*
X101941460Y-82775909D01*
X101941467Y-82775913D01*
X102115266Y-82868811D01*
X102115269Y-82868811D01*
X102115273Y-82868814D01*
X102303868Y-82926024D01*
X102500000Y-82945341D01*
X102696132Y-82926024D01*
X102884727Y-82868814D01*
X103058538Y-82775910D01*
X103210883Y-82650883D01*
X103335910Y-82498538D01*
X103366130Y-82442000D01*
X103396142Y-82385853D01*
X103445104Y-82336009D01*
X103513242Y-82320548D01*
X103578921Y-82344379D01*
X103621290Y-82399937D01*
X103629500Y-82444306D01*
X103629500Y-92521006D01*
X103629500Y-92658994D01*
X103629500Y-92658996D01*
X103629499Y-92658996D01*
X103656418Y-92794322D01*
X103656421Y-92794332D01*
X103709222Y-92921807D01*
X103785887Y-93036545D01*
X103785888Y-93036546D01*
X109977162Y-99227819D01*
X110010647Y-99289142D01*
X110005663Y-99358834D01*
X109963791Y-99414767D01*
X109898327Y-99439184D01*
X109889481Y-99439500D01*
X104618329Y-99439500D01*
X104551290Y-99419815D01*
X104505535Y-99367011D01*
X104495591Y-99297853D01*
X104524616Y-99234297D01*
X104570876Y-99200939D01*
X104615806Y-99182328D01*
X104710212Y-99143224D01*
X104920289Y-99021936D01*
X105112738Y-98874265D01*
X105284265Y-98702738D01*
X105431936Y-98510289D01*
X105553224Y-98300212D01*
X105646054Y-98076100D01*
X105708838Y-97841789D01*
X105740500Y-97601288D01*
X105740500Y-97358712D01*
X105708838Y-97118211D01*
X105646054Y-96883900D01*
X105553224Y-96659788D01*
X105431936Y-96449711D01*
X105284265Y-96257262D01*
X105284260Y-96257256D01*
X105112743Y-96085739D01*
X105112736Y-96085733D01*
X104920293Y-95938067D01*
X104920292Y-95938066D01*
X104920289Y-95938064D01*
X104713924Y-95818919D01*
X104710214Y-95816777D01*
X104710205Y-95816773D01*
X104486104Y-95723947D01*
X104251785Y-95661161D01*
X104011289Y-95629500D01*
X104011288Y-95629500D01*
X103768712Y-95629500D01*
X103768711Y-95629500D01*
X103528214Y-95661161D01*
X103293895Y-95723947D01*
X103069794Y-95816773D01*
X103069785Y-95816777D01*
X102859706Y-95938067D01*
X102667263Y-96085733D01*
X102667256Y-96085739D01*
X102495739Y-96257256D01*
X102495733Y-96257263D01*
X102348067Y-96449706D01*
X102226777Y-96659785D01*
X102226773Y-96659794D01*
X102133947Y-96883895D01*
X102071161Y-97118214D01*
X102039500Y-97358711D01*
X102039500Y-97601288D01*
X102071161Y-97841785D01*
X102133947Y-98076104D01*
X102210207Y-98260212D01*
X102226776Y-98300212D01*
X102348064Y-98510289D01*
X102348066Y-98510292D01*
X102348067Y-98510293D01*
X102495733Y-98702736D01*
X102495739Y-98702743D01*
X102667256Y-98874260D01*
X102667262Y-98874265D01*
X102859711Y-99021936D01*
X103069788Y-99143224D01*
X103157915Y-99179727D01*
X103209124Y-99200939D01*
X103263527Y-99244780D01*
X103285592Y-99311074D01*
X103268313Y-99378773D01*
X103217176Y-99426384D01*
X103161671Y-99439500D01*
X101204500Y-99439500D01*
X101137461Y-99419815D01*
X101091706Y-99367011D01*
X101080500Y-99315500D01*
X101080500Y-66218711D01*
X101339500Y-66218711D01*
X101339500Y-66461288D01*
X101371161Y-66701785D01*
X101433947Y-66936104D01*
X101510676Y-67121344D01*
X101526776Y-67160212D01*
X101648064Y-67370289D01*
X101648066Y-67370292D01*
X101648067Y-67370293D01*
X101795733Y-67562736D01*
X101795739Y-67562743D01*
X101967256Y-67734260D01*
X101967263Y-67734266D01*
X101982407Y-67745886D01*
X102159711Y-67881936D01*
X102369788Y-68003224D01*
X102593900Y-68096054D01*
X102828211Y-68158838D01*
X102992753Y-68180500D01*
X103068711Y-68190500D01*
X103068712Y-68190500D01*
X103311289Y-68190500D01*
X103359388Y-68184167D01*
X103551789Y-68158838D01*
X103786100Y-68096054D01*
X104010212Y-68003224D01*
X104220289Y-67881936D01*
X104412738Y-67734265D01*
X104584265Y-67562738D01*
X104731936Y-67370289D01*
X104853224Y-67160212D01*
X104946054Y-66936100D01*
X105008838Y-66701789D01*
X105040500Y-66461288D01*
X105040500Y-66218712D01*
X105039183Y-66208712D01*
X105025048Y-66101342D01*
X105008838Y-65978211D01*
X104946054Y-65743900D01*
X104853224Y-65519788D01*
X104731936Y-65309711D01*
X104661018Y-65217289D01*
X104584266Y-65117263D01*
X104584260Y-65117256D01*
X104412743Y-64945739D01*
X104412736Y-64945733D01*
X104220293Y-64798067D01*
X104220292Y-64798066D01*
X104220289Y-64798064D01*
X104010212Y-64676776D01*
X104010205Y-64676773D01*
X103786104Y-64583947D01*
X103551785Y-64521161D01*
X103311289Y-64489500D01*
X103311288Y-64489500D01*
X103068712Y-64489500D01*
X103068711Y-64489500D01*
X102828214Y-64521161D01*
X102593895Y-64583947D01*
X102369794Y-64676773D01*
X102369785Y-64676777D01*
X102159706Y-64798067D01*
X101967263Y-64945733D01*
X101967256Y-64945739D01*
X101795739Y-65117256D01*
X101795733Y-65117263D01*
X101648067Y-65309706D01*
X101526777Y-65519785D01*
X101526773Y-65519794D01*
X101433947Y-65743895D01*
X101371161Y-65978214D01*
X101339500Y-66218711D01*
X101080500Y-66218711D01*
X101080500Y-64244500D01*
X101100185Y-64177461D01*
X101152989Y-64131706D01*
X101204500Y-64120500D01*
X111517650Y-64120500D01*
X111584689Y-64140185D01*
G37*
%TD.AperFunction*%
%TA.AperFunction,Conductor*%
G36*
X169662539Y-94660185D02*
G01*
X169708294Y-94712989D01*
X169719500Y-94764500D01*
X169719500Y-95184572D01*
X169699815Y-95251611D01*
X169683181Y-95272253D01*
X169662282Y-95293151D01*
X169662279Y-95293155D01*
X169555521Y-95452929D01*
X169555520Y-95452931D01*
X169481989Y-95630452D01*
X169481986Y-95630464D01*
X169444500Y-95818917D01*
X169444500Y-97061082D01*
X169481986Y-97249535D01*
X169481989Y-97249547D01*
X169515654Y-97330822D01*
X169523123Y-97400291D01*
X169517275Y-97421607D01*
X169475908Y-97532517D01*
X169470500Y-97582826D01*
X169469501Y-97592123D01*
X169469500Y-97592135D01*
X169469500Y-98987870D01*
X169469501Y-98987876D01*
X169475908Y-99047483D01*
X169526202Y-99182328D01*
X169526204Y-99182331D01*
X169570265Y-99241189D01*
X169594683Y-99306652D01*
X169579832Y-99374925D01*
X169530427Y-99424331D01*
X169470999Y-99439500D01*
X168369001Y-99439500D01*
X168301962Y-99419815D01*
X168256207Y-99367011D01*
X168246263Y-99297853D01*
X168269734Y-99241189D01*
X168313796Y-99182331D01*
X168364091Y-99047483D01*
X168370500Y-98987873D01*
X168370499Y-97592128D01*
X168364091Y-97532517D01*
X168344744Y-97480646D01*
X168322724Y-97421606D01*
X168317740Y-97351914D01*
X168324342Y-97330828D01*
X168358012Y-97249543D01*
X168395500Y-97061078D01*
X168395500Y-95818922D01*
X168395500Y-95818919D01*
X168395499Y-95818917D01*
X168387116Y-95776773D01*
X168358012Y-95630457D01*
X168354162Y-95621162D01*
X168284479Y-95452931D01*
X168284478Y-95452929D01*
X168264344Y-95422797D01*
X168177720Y-95293155D01*
X168177717Y-95293151D01*
X168041848Y-95157282D01*
X168041844Y-95157279D01*
X167882070Y-95050521D01*
X167882068Y-95050520D01*
X167704547Y-94976989D01*
X167704535Y-94976986D01*
X167516081Y-94939500D01*
X167516078Y-94939500D01*
X167323922Y-94939500D01*
X167323919Y-94939500D01*
X167135464Y-94976986D01*
X167135452Y-94976989D01*
X166957931Y-95050520D01*
X166957929Y-95050521D01*
X166798155Y-95157279D01*
X166798151Y-95157282D01*
X166757681Y-95197753D01*
X166696358Y-95231238D01*
X166626666Y-95226254D01*
X166582319Y-95197753D01*
X166541848Y-95157282D01*
X166541844Y-95157279D01*
X166382070Y-95050521D01*
X166382068Y-95050520D01*
X166204547Y-94976989D01*
X166204535Y-94976986D01*
X166016081Y-94939500D01*
X166016078Y-94939500D01*
X165823922Y-94939500D01*
X165823919Y-94939500D01*
X165635464Y-94976986D01*
X165635452Y-94976989D01*
X165457931Y-95050520D01*
X165457929Y-95050521D01*
X165298155Y-95157279D01*
X165298151Y-95157282D01*
X165257681Y-95197753D01*
X165196358Y-95231238D01*
X165126666Y-95226254D01*
X165082319Y-95197753D01*
X165041848Y-95157282D01*
X165041844Y-95157279D01*
X164882070Y-95050521D01*
X164882068Y-95050520D01*
X164704547Y-94976989D01*
X164704535Y-94976986D01*
X164516081Y-94939500D01*
X164516078Y-94939500D01*
X164323922Y-94939500D01*
X164323919Y-94939500D01*
X164135464Y-94976986D01*
X164135452Y-94976989D01*
X164008489Y-95029579D01*
X163939020Y-95037048D01*
X163876541Y-95005773D01*
X163873356Y-95002699D01*
X163722838Y-94852181D01*
X163689353Y-94790858D01*
X163694337Y-94721166D01*
X163736209Y-94665233D01*
X163801673Y-94640816D01*
X163810519Y-94640500D01*
X169595500Y-94640500D01*
X169662539Y-94660185D01*
G37*
%TD.AperFunction*%
%TA.AperFunction,Conductor*%
G36*
X177164659Y-80821498D02*
G01*
X177201379Y-80880941D01*
X177205797Y-80913654D01*
X177219541Y-99315407D01*
X177199906Y-99382462D01*
X177147137Y-99428256D01*
X177095541Y-99439500D01*
X175869001Y-99439500D01*
X175801962Y-99419815D01*
X175756207Y-99367011D01*
X175746263Y-99297853D01*
X175769734Y-99241189D01*
X175813796Y-99182331D01*
X175864091Y-99047483D01*
X175870500Y-98987873D01*
X175870499Y-97592128D01*
X175864091Y-97532517D01*
X175844744Y-97480646D01*
X175822724Y-97421606D01*
X175817740Y-97351914D01*
X175824342Y-97330828D01*
X175858012Y-97249543D01*
X175895500Y-97061078D01*
X175895500Y-95818922D01*
X175895500Y-95818919D01*
X175895499Y-95818917D01*
X175887116Y-95776773D01*
X175858012Y-95630457D01*
X175854162Y-95621162D01*
X175784479Y-95452931D01*
X175784478Y-95452929D01*
X175764344Y-95422797D01*
X175677720Y-95293155D01*
X175677717Y-95293151D01*
X175656819Y-95272253D01*
X175623334Y-95210930D01*
X175620500Y-95184572D01*
X175620500Y-94231008D01*
X175620500Y-94231007D01*
X175620367Y-94230340D01*
X175620336Y-94230185D01*
X175607966Y-94167996D01*
X175593580Y-94095672D01*
X175579761Y-94062310D01*
X175540777Y-93968192D01*
X175464112Y-93853454D01*
X174946818Y-93336160D01*
X174913333Y-93274837D01*
X174910499Y-93248479D01*
X174910499Y-92689998D01*
X174910498Y-92689981D01*
X174899999Y-92587203D01*
X174899998Y-92587200D01*
X174890615Y-92558884D01*
X174844814Y-92420666D01*
X174752712Y-92271344D01*
X174628656Y-92147288D01*
X174516109Y-92077869D01*
X174479336Y-92055187D01*
X174479331Y-92055185D01*
X174477862Y-92054698D01*
X174312797Y-92000001D01*
X174312795Y-92000000D01*
X174243326Y-91992903D01*
X174178635Y-91966506D01*
X174138484Y-91909325D01*
X174135622Y-91839514D01*
X174141369Y-91822092D01*
X174173580Y-91744329D01*
X174186061Y-91681583D01*
X174200500Y-91608993D01*
X174200500Y-87621518D01*
X174220185Y-87554479D01*
X174236815Y-87533841D01*
X174394463Y-87376192D01*
X174455786Y-87342708D01*
X174525478Y-87347692D01*
X174569825Y-87376193D01*
X174576344Y-87382712D01*
X174725666Y-87474814D01*
X174892203Y-87529999D01*
X174994991Y-87540500D01*
X176045008Y-87540499D01*
X176045016Y-87540498D01*
X176045019Y-87540498D01*
X176110225Y-87533837D01*
X176147797Y-87529999D01*
X176314334Y-87474814D01*
X176463656Y-87382712D01*
X176587712Y-87258656D01*
X176679814Y-87109334D01*
X176734999Y-86942797D01*
X176745500Y-86840009D01*
X176745499Y-86064992D01*
X176734999Y-85962203D01*
X176679814Y-85795666D01*
X176587712Y-85646344D01*
X176463656Y-85522288D01*
X176314334Y-85430186D01*
X176314333Y-85430185D01*
X176314332Y-85430185D01*
X176305493Y-85427256D01*
X176248049Y-85387482D01*
X176221228Y-85322965D01*
X176220500Y-85309551D01*
X176220500Y-84380309D01*
X176240185Y-84313270D01*
X176279401Y-84274772D01*
X176428656Y-84182712D01*
X176552712Y-84058656D01*
X176644814Y-83909334D01*
X176699999Y-83742797D01*
X176710500Y-83640009D01*
X176710499Y-82639992D01*
X176709529Y-82630500D01*
X176699999Y-82537203D01*
X176699998Y-82537200D01*
X176682920Y-82485663D01*
X176644814Y-82370666D01*
X176552712Y-82221344D01*
X176428656Y-82097288D01*
X176428655Y-82097287D01*
X176369402Y-82060739D01*
X176322678Y-82008791D01*
X176310500Y-81955201D01*
X176310500Y-81574566D01*
X176330185Y-81507527D01*
X176365609Y-81471464D01*
X176406543Y-81444114D01*
X176924114Y-80926543D01*
X176978695Y-80844856D01*
X177032306Y-80800052D01*
X177101631Y-80791344D01*
X177164659Y-80821498D01*
G37*
%TD.AperFunction*%
%TA.AperFunction,Conductor*%
G36*
X131688768Y-64140185D02*
G01*
X131734523Y-64192989D01*
X131744467Y-64262147D01*
X131736290Y-64291953D01*
X131730263Y-64306502D01*
X131730261Y-64306510D01*
X131699500Y-64461153D01*
X131699500Y-64779580D01*
X131679815Y-64846619D01*
X131627011Y-64892374D01*
X131614507Y-64897285D01*
X131590667Y-64905185D01*
X131441342Y-64997289D01*
X131317289Y-65121342D01*
X131225187Y-65270663D01*
X131225185Y-65270668D01*
X131208617Y-65320668D01*
X131170001Y-65437203D01*
X131170001Y-65437204D01*
X131170000Y-65437204D01*
X131159500Y-65539983D01*
X131159500Y-66340001D01*
X131159501Y-66340019D01*
X131170000Y-66442796D01*
X131170001Y-66442799D01*
X131225185Y-66609331D01*
X131225186Y-66609334D01*
X131282212Y-66701789D01*
X131317289Y-66758657D01*
X131410951Y-66852319D01*
X131444436Y-66913642D01*
X131439452Y-66983334D01*
X131410951Y-67027681D01*
X131317289Y-67121342D01*
X131306060Y-67139547D01*
X131239364Y-67247681D01*
X131237565Y-67250597D01*
X131185617Y-67297321D01*
X131132026Y-67309500D01*
X130278633Y-67309500D01*
X130237678Y-67302541D01*
X130098060Y-67253686D01*
X129930003Y-67234751D01*
X129929997Y-67234751D01*
X129761943Y-67253685D01*
X129602305Y-67309545D01*
X129602302Y-67309547D01*
X129459115Y-67399518D01*
X129459109Y-67399523D01*
X129339523Y-67519109D01*
X129339518Y-67519115D01*
X129249547Y-67662302D01*
X129249545Y-67662305D01*
X129193685Y-67821943D01*
X129174751Y-67989997D01*
X129174751Y-67990002D01*
X129193685Y-68158056D01*
X129249545Y-68317694D01*
X129249547Y-68317697D01*
X129339518Y-68460884D01*
X129339523Y-68460890D01*
X129459109Y-68580476D01*
X129459115Y-68580481D01*
X129602302Y-68670452D01*
X129602305Y-68670454D01*
X129602309Y-68670455D01*
X129602310Y-68670456D01*
X129655635Y-68689115D01*
X129761943Y-68726314D01*
X129929997Y-68745249D01*
X129930000Y-68745249D01*
X129930003Y-68745249D01*
X130098055Y-68726314D01*
X130098057Y-68726313D01*
X130098059Y-68726313D01*
X130112638Y-68721211D01*
X130123366Y-68717458D01*
X130164319Y-68710500D01*
X131219178Y-68710500D01*
X131286217Y-68730185D01*
X131312089Y-68753640D01*
X131312181Y-68753549D01*
X131314043Y-68755411D01*
X131316441Y-68757585D01*
X131317287Y-68758655D01*
X131317288Y-68758656D01*
X131441344Y-68882712D01*
X131590666Y-68974814D01*
X131757203Y-69029999D01*
X131859991Y-69040500D01*
X132860008Y-69040499D01*
X132860016Y-69040498D01*
X132860019Y-69040498D01*
X132916302Y-69034748D01*
X132962797Y-69029999D01*
X133129334Y-68974814D01*
X133278656Y-68882712D01*
X133402712Y-68758656D01*
X133439259Y-68699402D01*
X133491207Y-68652679D01*
X133544798Y-68640500D01*
X133988481Y-68640500D01*
X134055520Y-68660185D01*
X134076162Y-68676819D01*
X137325886Y-71926543D01*
X138924385Y-73525042D01*
X138972422Y-73573262D01*
X138972425Y-73573264D01*
X138972436Y-73573275D01*
X138973248Y-73573942D01*
X138973450Y-73574108D01*
X138973455Y-73574112D01*
X138973457Y-73574114D01*
X138973460Y-73574116D01*
X139030178Y-73612014D01*
X139030374Y-73612145D01*
X139087019Y-73650150D01*
X139087363Y-73650334D01*
X139087576Y-73650448D01*
X139088166Y-73650764D01*
X139088183Y-73650771D01*
X139088189Y-73650775D01*
X139150920Y-73676759D01*
X139151109Y-73676911D01*
X139151136Y-73676849D01*
X139190702Y-73693325D01*
X139214389Y-73703190D01*
X139214390Y-73703190D01*
X139214392Y-73703191D01*
X139214803Y-73703316D01*
X139215015Y-73703381D01*
X139215657Y-73703577D01*
X139282699Y-73716912D01*
X139282697Y-73716917D01*
X139282895Y-73716951D01*
X139349673Y-73730367D01*
X139349676Y-73730367D01*
X139349691Y-73730370D01*
X139350645Y-73730464D01*
X139350864Y-73730486D01*
X139351004Y-73730500D01*
X139419498Y-73730500D01*
X154877167Y-73759943D01*
X154917885Y-73766901D01*
X154951464Y-73778650D01*
X155001941Y-73796313D01*
X155023499Y-73798742D01*
X155169997Y-73815249D01*
X155170000Y-73815249D01*
X155170003Y-73815249D01*
X155338056Y-73796314D01*
X155338059Y-73796313D01*
X155497690Y-73740456D01*
X155497692Y-73740454D01*
X155497694Y-73740454D01*
X155497697Y-73740452D01*
X155640884Y-73650481D01*
X155640885Y-73650480D01*
X155640890Y-73650477D01*
X155760477Y-73530890D01*
X155850452Y-73387697D01*
X155850454Y-73387694D01*
X155850454Y-73387692D01*
X155850456Y-73387690D01*
X155906313Y-73228059D01*
X155906313Y-73228058D01*
X155906314Y-73228056D01*
X155925249Y-73060002D01*
X155925249Y-73059997D01*
X155906314Y-72891943D01*
X155850454Y-72732305D01*
X155850452Y-72732302D01*
X155760481Y-72589115D01*
X155760476Y-72589109D01*
X155640890Y-72469523D01*
X155640884Y-72469518D01*
X155497697Y-72379547D01*
X155497694Y-72379545D01*
X155338056Y-72323685D01*
X155170003Y-72304751D01*
X155169997Y-72304751D01*
X155001941Y-72323686D01*
X154921059Y-72351987D01*
X154879870Y-72358945D01*
X139761932Y-72330149D01*
X139694930Y-72310337D01*
X139674487Y-72293830D01*
X138316543Y-70935886D01*
X134776546Y-67395888D01*
X134776545Y-67395887D01*
X134661807Y-67319222D01*
X134534332Y-67266421D01*
X134534322Y-67266418D01*
X134398996Y-67239500D01*
X134398994Y-67239500D01*
X134398993Y-67239500D01*
X133544798Y-67239500D01*
X133477759Y-67219815D01*
X133439259Y-67180597D01*
X133402712Y-67121344D01*
X133309049Y-67027681D01*
X133275564Y-66966358D01*
X133280548Y-66896666D01*
X133309049Y-66852319D01*
X133352712Y-66808656D01*
X133402712Y-66758656D01*
X133494814Y-66609334D01*
X133549999Y-66442797D01*
X133560500Y-66340009D01*
X133560499Y-65539992D01*
X133549999Y-65437203D01*
X133494814Y-65270666D01*
X133402712Y-65121344D01*
X133336819Y-65055451D01*
X133303334Y-64994128D01*
X133300500Y-64967770D01*
X133300500Y-64461155D01*
X133300499Y-64461153D01*
X133269738Y-64306510D01*
X133269737Y-64306503D01*
X133263709Y-64291952D01*
X133256241Y-64222483D01*
X133287516Y-64160004D01*
X133347605Y-64124352D01*
X133378271Y-64120500D01*
X141470254Y-64120500D01*
X141537293Y-64140185D01*
X141583048Y-64192989D01*
X141592992Y-64262147D01*
X141591871Y-64268692D01*
X141569500Y-64381155D01*
X141569500Y-65186697D01*
X141549815Y-65253736D01*
X141510597Y-65292235D01*
X141421347Y-65347285D01*
X141421343Y-65347288D01*
X141297289Y-65471342D01*
X141205187Y-65620663D01*
X141205185Y-65620668D01*
X141201256Y-65632525D01*
X141150001Y-65787203D01*
X141150001Y-65787204D01*
X141150000Y-65787204D01*
X141139500Y-65889983D01*
X141139500Y-66690001D01*
X141139501Y-66690019D01*
X141150000Y-66792796D01*
X141150001Y-66792799D01*
X141170163Y-66853642D01*
X141205186Y-66959334D01*
X141281886Y-67083686D01*
X141297289Y-67108657D01*
X141390951Y-67202319D01*
X141424436Y-67263642D01*
X141419452Y-67333334D01*
X141390951Y-67377681D01*
X141295451Y-67473181D01*
X141234128Y-67506666D01*
X141207770Y-67509500D01*
X140025741Y-67509500D01*
X139995064Y-67504287D01*
X139994848Y-67505236D01*
X139988058Y-67503686D01*
X139820003Y-67484751D01*
X139819997Y-67484751D01*
X139651943Y-67503685D01*
X139522250Y-67549067D01*
X139492310Y-67559544D01*
X139492308Y-67559544D01*
X139492308Y-67559545D01*
X139476911Y-67569219D01*
X139458397Y-67578783D01*
X139433188Y-67589225D01*
X139433186Y-67589226D01*
X139318462Y-67665882D01*
X139318454Y-67665888D01*
X139220888Y-67763454D01*
X139220885Y-67763458D01*
X139144228Y-67878182D01*
X139144221Y-67878195D01*
X139091421Y-68005667D01*
X139091418Y-68005677D01*
X139064500Y-68141004D01*
X139064500Y-68278992D01*
X139074195Y-68327737D01*
X139075796Y-68338038D01*
X139083687Y-68408059D01*
X139095030Y-68440476D01*
X139139544Y-68567692D01*
X139139547Y-68567697D01*
X139229518Y-68710884D01*
X139229523Y-68710890D01*
X139349109Y-68830476D01*
X139349115Y-68830481D01*
X139492302Y-68920452D01*
X139492305Y-68920454D01*
X139492309Y-68920455D01*
X139492310Y-68920456D01*
X139520114Y-68930185D01*
X139651943Y-68976314D01*
X139819997Y-68995249D01*
X139820000Y-68995249D01*
X139820003Y-68995249D01*
X139988056Y-68976314D01*
X139992343Y-68974814D01*
X140147690Y-68920456D01*
X140147691Y-68920455D01*
X140154262Y-68918156D01*
X140154918Y-68920031D01*
X140196666Y-68910500D01*
X141105858Y-68910500D01*
X141172897Y-68930185D01*
X141211395Y-68969401D01*
X141297288Y-69108656D01*
X141421344Y-69232712D01*
X141570666Y-69324814D01*
X141737203Y-69379999D01*
X141839991Y-69390500D01*
X142840008Y-69390499D01*
X142840016Y-69390498D01*
X142840019Y-69390498D01*
X142896302Y-69384748D01*
X142942797Y-69379999D01*
X143109334Y-69324814D01*
X143258656Y-69232712D01*
X143382712Y-69108656D01*
X143419259Y-69049402D01*
X143471207Y-69002679D01*
X143524798Y-68990500D01*
X144188481Y-68990500D01*
X144255520Y-69010185D01*
X144276162Y-69026819D01*
X145931545Y-70682201D01*
X145931566Y-70682224D01*
X146845886Y-71596542D01*
X146943458Y-71694114D01*
X146943459Y-71694115D01*
X147058182Y-71770771D01*
X147058189Y-71770775D01*
X147129951Y-71800499D01*
X147129953Y-71800501D01*
X147185666Y-71823578D01*
X147185671Y-71823580D01*
X147185680Y-71823581D01*
X147185681Y-71823582D01*
X147212545Y-71828925D01*
X147212551Y-71828926D01*
X147212591Y-71828934D01*
X147302937Y-71846905D01*
X147321006Y-71850500D01*
X147321007Y-71850500D01*
X154858524Y-71850500D01*
X154899479Y-71857459D01*
X154981939Y-71886313D01*
X155149997Y-71905249D01*
X155150000Y-71905249D01*
X155150003Y-71905249D01*
X155318056Y-71886314D01*
X155318059Y-71886313D01*
X155477690Y-71830456D01*
X155477692Y-71830454D01*
X155477694Y-71830454D01*
X155477697Y-71830452D01*
X155620884Y-71740481D01*
X155620885Y-71740480D01*
X155620890Y-71740477D01*
X155740477Y-71620890D01*
X155755776Y-71596542D01*
X155830452Y-71477697D01*
X155830454Y-71477694D01*
X155830454Y-71477692D01*
X155830456Y-71477690D01*
X155886313Y-71318059D01*
X155886313Y-71318058D01*
X155886314Y-71318056D01*
X155905249Y-71150002D01*
X155905249Y-71149997D01*
X155886314Y-70981943D01*
X155830454Y-70822305D01*
X155830452Y-70822302D01*
X155740481Y-70679115D01*
X155740476Y-70679109D01*
X155620890Y-70559523D01*
X155620884Y-70559518D01*
X155477697Y-70469547D01*
X155477694Y-70469545D01*
X155318056Y-70413685D01*
X155150003Y-70394751D01*
X155149997Y-70394751D01*
X154981940Y-70413686D01*
X154981938Y-70413686D01*
X154899479Y-70442541D01*
X154858524Y-70449500D01*
X147731518Y-70449500D01*
X147664479Y-70429815D01*
X147643837Y-70413181D01*
X146922224Y-69691566D01*
X146922201Y-69691545D01*
X144976546Y-67745888D01*
X144976545Y-67745887D01*
X144861807Y-67669222D01*
X144734332Y-67616421D01*
X144734322Y-67616418D01*
X144598996Y-67589500D01*
X144598994Y-67589500D01*
X144598993Y-67589500D01*
X143524798Y-67589500D01*
X143457759Y-67569815D01*
X143419259Y-67530597D01*
X143412174Y-67519110D01*
X143382712Y-67471344D01*
X143289049Y-67377681D01*
X143255564Y-67316358D01*
X143260548Y-67246666D01*
X143289049Y-67202319D01*
X143331368Y-67160000D01*
X143382712Y-67108656D01*
X143474814Y-66959334D01*
X143529999Y-66792797D01*
X143540500Y-66690009D01*
X143540499Y-65889992D01*
X143539295Y-65878209D01*
X143529999Y-65787203D01*
X143529998Y-65787200D01*
X143494414Y-65679815D01*
X143474814Y-65620666D01*
X143382712Y-65471344D01*
X143258656Y-65347288D01*
X143258652Y-65347285D01*
X143229401Y-65329242D01*
X143182677Y-65277293D01*
X143170500Y-65223705D01*
X143170500Y-64381155D01*
X143148129Y-64268692D01*
X143154356Y-64199100D01*
X143197219Y-64143923D01*
X143263108Y-64120678D01*
X143269746Y-64120500D01*
X151823445Y-64120500D01*
X151890484Y-64140185D01*
X151936239Y-64192989D01*
X151946183Y-64262147D01*
X151941159Y-64280411D01*
X151942031Y-64280676D01*
X151940261Y-64286510D01*
X151909500Y-64441153D01*
X151909500Y-65044362D01*
X151889815Y-65111401D01*
X151850598Y-65149899D01*
X151790940Y-65186697D01*
X151741342Y-65217289D01*
X151617289Y-65341342D01*
X151525187Y-65490663D01*
X151525185Y-65490668D01*
X151515537Y-65519785D01*
X151470001Y-65657203D01*
X151470001Y-65657204D01*
X151470000Y-65657204D01*
X151459500Y-65759983D01*
X151459500Y-66560001D01*
X151459501Y-66560019D01*
X151470000Y-66662796D01*
X151470001Y-66662799D01*
X151501766Y-66758657D01*
X151525186Y-66829334D01*
X151608027Y-66963642D01*
X151617289Y-66978657D01*
X151710951Y-67072319D01*
X151744436Y-67133642D01*
X151739452Y-67203334D01*
X151710951Y-67247681D01*
X151617288Y-67341343D01*
X151617285Y-67341347D01*
X151568988Y-67419649D01*
X151517040Y-67466374D01*
X151464436Y-67478548D01*
X150375913Y-67487204D01*
X150333973Y-67480250D01*
X150258057Y-67453686D01*
X150090003Y-67434751D01*
X150089997Y-67434751D01*
X149921943Y-67453685D01*
X149762305Y-67509545D01*
X149762302Y-67509547D01*
X149619115Y-67599518D01*
X149619109Y-67599523D01*
X149499523Y-67719109D01*
X149499518Y-67719115D01*
X149409547Y-67862302D01*
X149409545Y-67862305D01*
X149353685Y-68021943D01*
X149334751Y-68189997D01*
X149334751Y-68190002D01*
X149353685Y-68358056D01*
X149409545Y-68517694D01*
X149409547Y-68517697D01*
X149499518Y-68660884D01*
X149499523Y-68660890D01*
X149619109Y-68780476D01*
X149619115Y-68780481D01*
X149762302Y-68870452D01*
X149762305Y-68870454D01*
X149762309Y-68870455D01*
X149762310Y-68870456D01*
X149786342Y-68878865D01*
X149921943Y-68926314D01*
X150089997Y-68945249D01*
X150090000Y-68945249D01*
X150090003Y-68945249D01*
X150258054Y-68926314D01*
X150258055Y-68926313D01*
X150258059Y-68926313D01*
X150347227Y-68895111D01*
X150387188Y-68888157D01*
X151485885Y-68879420D01*
X151553078Y-68898571D01*
X151592406Y-68938316D01*
X151617288Y-68978656D01*
X151741344Y-69102712D01*
X151890666Y-69194814D01*
X152057203Y-69249999D01*
X152159991Y-69260500D01*
X153160008Y-69260499D01*
X153160016Y-69260498D01*
X153160019Y-69260498D01*
X153216302Y-69254748D01*
X153262797Y-69249999D01*
X153429334Y-69194814D01*
X153578656Y-69102712D01*
X153702712Y-68978656D01*
X153739259Y-68919402D01*
X153791207Y-68872679D01*
X153844798Y-68860500D01*
X154068481Y-68860500D01*
X154135520Y-68880185D01*
X154156162Y-68896819D01*
X154700117Y-69440774D01*
X154725857Y-69481735D01*
X154726522Y-69481415D01*
X154729362Y-69487312D01*
X154729474Y-69487490D01*
X154729544Y-69487690D01*
X154747030Y-69515519D01*
X154819523Y-69630890D01*
X154939109Y-69750476D01*
X154939115Y-69750481D01*
X155082302Y-69840452D01*
X155082305Y-69840454D01*
X155082309Y-69840455D01*
X155082310Y-69840456D01*
X155135289Y-69858994D01*
X155241943Y-69896314D01*
X155409997Y-69915249D01*
X155410000Y-69915249D01*
X155410003Y-69915249D01*
X155578056Y-69896314D01*
X155578059Y-69896313D01*
X155737690Y-69840456D01*
X155737692Y-69840454D01*
X155737694Y-69840454D01*
X155737697Y-69840452D01*
X155880884Y-69750481D01*
X155880885Y-69750480D01*
X155880890Y-69750477D01*
X156000477Y-69630890D01*
X156000481Y-69630884D01*
X156090452Y-69487697D01*
X156090454Y-69487694D01*
X156090454Y-69487692D01*
X156090456Y-69487690D01*
X156146313Y-69328059D01*
X156146313Y-69328058D01*
X156146314Y-69328056D01*
X156165249Y-69160002D01*
X156165249Y-69159997D01*
X156146314Y-68991943D01*
X156090454Y-68832305D01*
X156090452Y-68832302D01*
X156000481Y-68689115D01*
X156000476Y-68689109D01*
X155880890Y-68569523D01*
X155859868Y-68556314D01*
X155737690Y-68479544D01*
X155737689Y-68479543D01*
X155737688Y-68479543D01*
X155737587Y-68479508D01*
X155737490Y-68479474D01*
X155737312Y-68479362D01*
X155731415Y-68476522D01*
X155731735Y-68475857D01*
X155690774Y-68450117D01*
X154856546Y-67615888D01*
X154856545Y-67615887D01*
X154741807Y-67539222D01*
X154614332Y-67486421D01*
X154614322Y-67486418D01*
X154478996Y-67459500D01*
X154478994Y-67459500D01*
X154478993Y-67459500D01*
X153844798Y-67459500D01*
X153777759Y-67439815D01*
X153739259Y-67400597D01*
X153738597Y-67399523D01*
X153702712Y-67341344D01*
X153609049Y-67247681D01*
X153575564Y-67186358D01*
X153580548Y-67116666D01*
X153609049Y-67072319D01*
X153653687Y-67027681D01*
X153702712Y-66978656D01*
X153794814Y-66829334D01*
X153849999Y-66662797D01*
X153860500Y-66560009D01*
X153860499Y-65759992D01*
X153849999Y-65657203D01*
X153794814Y-65490666D01*
X153702712Y-65341344D01*
X153578656Y-65217288D01*
X153578655Y-65217287D01*
X153569402Y-65211580D01*
X153522678Y-65159632D01*
X153510500Y-65106042D01*
X153510500Y-64441155D01*
X153510499Y-64441153D01*
X153498565Y-64381158D01*
X153479737Y-64286503D01*
X153479732Y-64286492D01*
X153477969Y-64280676D01*
X153480720Y-64279841D01*
X153474497Y-64222641D01*
X153505691Y-64160122D01*
X153565734Y-64124392D01*
X153596555Y-64120500D01*
X183405500Y-64120500D01*
X183472539Y-64140185D01*
X183518294Y-64192989D01*
X183529500Y-64244500D01*
X183529500Y-73026000D01*
X183509815Y-73093039D01*
X183457011Y-73138794D01*
X183405500Y-73150000D01*
X177200000Y-73150000D01*
X177201082Y-74599102D01*
X177181447Y-74666157D01*
X177128678Y-74711951D01*
X177059527Y-74721946D01*
X176995949Y-74692969D01*
X176973981Y-74668087D01*
X176932146Y-74605478D01*
X176932141Y-74605470D01*
X176924119Y-74593462D01*
X176924115Y-74593458D01*
X176706546Y-74375888D01*
X176706545Y-74375887D01*
X176591807Y-74299222D01*
X176464332Y-74246421D01*
X176464322Y-74246418D01*
X176328996Y-74219500D01*
X176328994Y-74219500D01*
X176328993Y-74219500D01*
X163150055Y-74219500D01*
X163109102Y-74212542D01*
X163072729Y-74199815D01*
X162998056Y-74173685D01*
X162830003Y-74154751D01*
X162829997Y-74154751D01*
X162661943Y-74173685D01*
X162575026Y-74204099D01*
X162550897Y-74212542D01*
X162509945Y-74219500D01*
X161671519Y-74219500D01*
X161604480Y-74199815D01*
X161583838Y-74183181D01*
X161262031Y-73861374D01*
X161228546Y-73800051D01*
X161233014Y-73735341D01*
X161232518Y-73735218D01*
X161233216Y-73732407D01*
X161233319Y-73730929D01*
X161234138Y-73728698D01*
X161234141Y-73728693D01*
X161280100Y-73543889D01*
X161283000Y-73501123D01*
X161282999Y-72098878D01*
X161280100Y-72056111D01*
X161234141Y-71871307D01*
X161169255Y-71740476D01*
X161149532Y-71700707D01*
X161149530Y-71700704D01*
X161030222Y-71552278D01*
X161030221Y-71552277D01*
X160881795Y-71432969D01*
X160881792Y-71432967D01*
X160711197Y-71348360D01*
X160526392Y-71302400D01*
X160500729Y-71300660D01*
X160483623Y-71299500D01*
X160483621Y-71299500D01*
X159588334Y-71299500D01*
X159521295Y-71279815D01*
X159475540Y-71227011D01*
X159465596Y-71157853D01*
X159494621Y-71094297D01*
X159500618Y-71087855D01*
X159791657Y-70796816D01*
X159852978Y-70763334D01*
X159879336Y-70760500D01*
X164509286Y-70760500D01*
X164552618Y-70768317D01*
X164615017Y-70791591D01*
X164674627Y-70798000D01*
X166345372Y-70797999D01*
X166404983Y-70791591D01*
X166539831Y-70741296D01*
X166655046Y-70655046D01*
X166741296Y-70539831D01*
X166791591Y-70404983D01*
X166798000Y-70345373D01*
X166797999Y-68674628D01*
X166791591Y-68615017D01*
X166778708Y-68580477D01*
X166741297Y-68480171D01*
X166741293Y-68480164D01*
X166655047Y-68364955D01*
X166655044Y-68364952D01*
X166539835Y-68278706D01*
X166539828Y-68278702D01*
X166404982Y-68228408D01*
X166404983Y-68228408D01*
X166345383Y-68222001D01*
X166345381Y-68222000D01*
X166345373Y-68222000D01*
X166345365Y-68222000D01*
X166181177Y-68222000D01*
X166114138Y-68202315D01*
X166068383Y-68149511D01*
X166058439Y-68080353D01*
X166087464Y-68016797D01*
X166142172Y-67980294D01*
X166264334Y-67939814D01*
X166413656Y-67847712D01*
X166517050Y-67744318D01*
X166578373Y-67710834D01*
X166604731Y-67708000D01*
X167285270Y-67708000D01*
X167352309Y-67727685D01*
X167372950Y-67744318D01*
X167466344Y-67837712D01*
X167615666Y-67929814D01*
X167782203Y-67984999D01*
X167884991Y-67995500D01*
X168935008Y-67995499D01*
X168935016Y-67995498D01*
X168935019Y-67995498D01*
X169007841Y-67988059D01*
X169037797Y-67984999D01*
X169204334Y-67929814D01*
X169353656Y-67837712D01*
X169477712Y-67713656D01*
X169569814Y-67564334D01*
X169624999Y-67397797D01*
X169635500Y-67295009D01*
X169635499Y-66519992D01*
X169627613Y-66442797D01*
X169624999Y-66417203D01*
X169624998Y-66417200D01*
X169615985Y-66390001D01*
X169569814Y-66250666D01*
X169543936Y-66208711D01*
X171169500Y-66208711D01*
X171169500Y-66451288D01*
X171200928Y-66690016D01*
X171201162Y-66691789D01*
X171203842Y-66701789D01*
X171263947Y-66926104D01*
X171356773Y-67150205D01*
X171356777Y-67150214D01*
X171372482Y-67177415D01*
X171478064Y-67360289D01*
X171478066Y-67360292D01*
X171478067Y-67360293D01*
X171625733Y-67552736D01*
X171625739Y-67552743D01*
X171797256Y-67724260D01*
X171797263Y-67724266D01*
X171836429Y-67754319D01*
X171989711Y-67871936D01*
X172199788Y-67993224D01*
X172395269Y-68074195D01*
X172410136Y-68080353D01*
X172423900Y-68086054D01*
X172658211Y-68148838D01*
X172838586Y-68172584D01*
X172898711Y-68180500D01*
X172898712Y-68180500D01*
X173141289Y-68180500D01*
X173189388Y-68174167D01*
X173381789Y-68148838D01*
X173616100Y-68086054D01*
X173840212Y-67993224D01*
X174050289Y-67871936D01*
X174242738Y-67724265D01*
X174414265Y-67552738D01*
X174561936Y-67360289D01*
X174683224Y-67150212D01*
X174776054Y-66926100D01*
X174838838Y-66691789D01*
X174870500Y-66451288D01*
X174870500Y-66208712D01*
X174838838Y-65968211D01*
X174776054Y-65733900D01*
X174683224Y-65509788D01*
X174561936Y-65299711D01*
X174493607Y-65210663D01*
X174414266Y-65107263D01*
X174414260Y-65107256D01*
X174242743Y-64935739D01*
X174242736Y-64935733D01*
X174050293Y-64788067D01*
X174050292Y-64788066D01*
X174050289Y-64788064D01*
X173840212Y-64666776D01*
X173840205Y-64666773D01*
X173616104Y-64573947D01*
X173381785Y-64511161D01*
X173141289Y-64479500D01*
X173141288Y-64479500D01*
X172898712Y-64479500D01*
X172898711Y-64479500D01*
X172658214Y-64511161D01*
X172423895Y-64573947D01*
X172199794Y-64666773D01*
X172199785Y-64666777D01*
X171989706Y-64788067D01*
X171797263Y-64935733D01*
X171797256Y-64935739D01*
X171625739Y-65107256D01*
X171625733Y-65107263D01*
X171478067Y-65299706D01*
X171478064Y-65299710D01*
X171478064Y-65299711D01*
X171461817Y-65327851D01*
X171356777Y-65509785D01*
X171356773Y-65509794D01*
X171263947Y-65733895D01*
X171201161Y-65968214D01*
X171169500Y-66208711D01*
X169543936Y-66208711D01*
X169477712Y-66101344D01*
X169353656Y-65977288D01*
X169260888Y-65920069D01*
X169204336Y-65885187D01*
X169204331Y-65885185D01*
X169183279Y-65878209D01*
X169037797Y-65830001D01*
X169037795Y-65830000D01*
X168935010Y-65819500D01*
X167884998Y-65819500D01*
X167884980Y-65819501D01*
X167782203Y-65830000D01*
X167782200Y-65830001D01*
X167615668Y-65885185D01*
X167615663Y-65885187D01*
X167466342Y-65977289D01*
X167372951Y-66070681D01*
X167311628Y-66104166D01*
X167285270Y-66107000D01*
X166584730Y-66107000D01*
X166517691Y-66087315D01*
X166497049Y-66070681D01*
X166413657Y-65987289D01*
X166413656Y-65987288D01*
X166264334Y-65895186D01*
X166097797Y-65840001D01*
X166097795Y-65840000D01*
X165995010Y-65829500D01*
X164944998Y-65829500D01*
X164944980Y-65829501D01*
X164842203Y-65840000D01*
X164842200Y-65840001D01*
X164675668Y-65895185D01*
X164675663Y-65895187D01*
X164599828Y-65941963D01*
X164526344Y-65987288D01*
X164526342Y-65987289D01*
X164520197Y-65991080D01*
X164518698Y-65988650D01*
X164465953Y-66009890D01*
X164397320Y-65996807D01*
X164366237Y-65974159D01*
X164270289Y-65878211D01*
X164270288Y-65878210D01*
X164270287Y-65878209D01*
X164139185Y-65790609D01*
X164139172Y-65790602D01*
X163993501Y-65730264D01*
X163993489Y-65730261D01*
X163838845Y-65699500D01*
X163838842Y-65699500D01*
X162479384Y-65699500D01*
X162412345Y-65679815D01*
X162370729Y-65631788D01*
X162369320Y-65632525D01*
X162366409Y-65626953D01*
X162366409Y-65626951D01*
X162272198Y-65446593D01*
X162215618Y-65377203D01*
X162143609Y-65288890D01*
X161985909Y-65160304D01*
X161985910Y-65160304D01*
X161985907Y-65160302D01*
X161805549Y-65066091D01*
X161805548Y-65066090D01*
X161805545Y-65066089D01*
X161688329Y-65032550D01*
X161609918Y-65010114D01*
X161609915Y-65010113D01*
X161609913Y-65010113D01*
X161543602Y-65004217D01*
X161490537Y-64999500D01*
X161490532Y-64999500D01*
X158574471Y-64999500D01*
X158574465Y-64999500D01*
X158574464Y-64999501D01*
X158562816Y-65000536D01*
X158455084Y-65010113D01*
X158259454Y-65066089D01*
X158180633Y-65107262D01*
X158079093Y-65160302D01*
X158079091Y-65160303D01*
X158079090Y-65160304D01*
X157921390Y-65288890D01*
X157792804Y-65446590D01*
X157792802Y-65446593D01*
X157775356Y-65479992D01*
X157698589Y-65626954D01*
X157653832Y-65783376D01*
X157651764Y-65790606D01*
X157642614Y-65822583D01*
X157642613Y-65822586D01*
X157632000Y-65941966D01*
X157632000Y-67058028D01*
X157632001Y-67058034D01*
X157642613Y-67177415D01*
X157698589Y-67373045D01*
X157698590Y-67373048D01*
X157698591Y-67373049D01*
X157792802Y-67553407D01*
X157822008Y-67589225D01*
X157921390Y-67711109D01*
X157985587Y-67763454D01*
X158079093Y-67839698D01*
X158259451Y-67933909D01*
X158455082Y-67989886D01*
X158574463Y-68000500D01*
X161490536Y-68000499D01*
X161609918Y-67989886D01*
X161805549Y-67933909D01*
X161985907Y-67839698D01*
X162143609Y-67711109D01*
X162272198Y-67553407D01*
X162366409Y-67373049D01*
X162366410Y-67373045D01*
X162369320Y-67367475D01*
X162371831Y-67368787D01*
X162407472Y-67323482D01*
X162473503Y-67300640D01*
X162479384Y-67300500D01*
X163377060Y-67300500D01*
X163444099Y-67320185D01*
X163464741Y-67336819D01*
X163555711Y-67427789D01*
X163612673Y-67484751D01*
X163667212Y-67539290D01*
X163798317Y-67626892D01*
X163798319Y-67626892D01*
X163798321Y-67626894D01*
X163919861Y-67677237D01*
X163919862Y-67677238D01*
X163943998Y-67687235D01*
X163944003Y-67687237D01*
X163944007Y-67687237D01*
X163944008Y-67687238D01*
X164098654Y-67718000D01*
X164098657Y-67718000D01*
X164098658Y-67718000D01*
X164345270Y-67718000D01*
X164412309Y-67737685D01*
X164432951Y-67754319D01*
X164526344Y-67847712D01*
X164675666Y-67939814D01*
X164797831Y-67980295D01*
X164855274Y-68020066D01*
X164882098Y-68084582D01*
X164869783Y-68153358D01*
X164822241Y-68204558D01*
X164758827Y-68222000D01*
X164674630Y-68222000D01*
X164674623Y-68222001D01*
X164615016Y-68228408D01*
X164552619Y-68251682D01*
X164509286Y-68259500D01*
X159211578Y-68259500D01*
X159082099Y-68280008D01*
X159082098Y-68280008D01*
X159017174Y-68290290D01*
X159017173Y-68290290D01*
X158829969Y-68351117D01*
X158654594Y-68440476D01*
X158572043Y-68500454D01*
X158495354Y-68556172D01*
X158495352Y-68556174D01*
X158495351Y-68556174D01*
X156778674Y-70272851D01*
X156778674Y-70272852D01*
X156778672Y-70272854D01*
X156728985Y-70341241D01*
X156662976Y-70432094D01*
X156573615Y-70607473D01*
X156573614Y-70607476D01*
X156530135Y-70741295D01*
X156512790Y-70794676D01*
X156512790Y-70794677D01*
X156482000Y-70989077D01*
X156482000Y-84212902D01*
X156480473Y-84232301D01*
X156469500Y-84301578D01*
X156469500Y-84498420D01*
X156477973Y-84551913D01*
X156479500Y-84571312D01*
X156479500Y-88013422D01*
X156510291Y-88207826D01*
X156510292Y-88207833D01*
X156523431Y-88248270D01*
X156529500Y-88286568D01*
X156529500Y-88290005D01*
X156540001Y-88392797D01*
X156540001Y-88392799D01*
X156563135Y-88462611D01*
X156595186Y-88559334D01*
X156657282Y-88660009D01*
X156687289Y-88708657D01*
X156811346Y-88832714D01*
X156814182Y-88834463D01*
X156815717Y-88836170D01*
X156817011Y-88837193D01*
X156816836Y-88837414D01*
X156860905Y-88886411D01*
X156872126Y-88955374D01*
X156844282Y-89019456D01*
X156814182Y-89045537D01*
X156811346Y-89047285D01*
X156687289Y-89171342D01*
X156595187Y-89320663D01*
X156595185Y-89320668D01*
X156588883Y-89339687D01*
X156540001Y-89487203D01*
X156540001Y-89487204D01*
X156540000Y-89487204D01*
X156529500Y-89589983D01*
X156529500Y-89593414D01*
X156523431Y-89631733D01*
X156510290Y-89672173D01*
X156479500Y-89866577D01*
X156479500Y-89980500D01*
X156459815Y-90047539D01*
X156407011Y-90093294D01*
X156355500Y-90104500D01*
X153113647Y-90104500D01*
X153046608Y-90084815D01*
X153000853Y-90032011D01*
X152990909Y-89962853D01*
X153019934Y-89899297D01*
X153048369Y-89875073D01*
X153062081Y-89866583D01*
X153166302Y-89802052D01*
X153323872Y-89658407D01*
X153452366Y-89488255D01*
X153493370Y-89405908D01*
X153547403Y-89297394D01*
X153547403Y-89297393D01*
X153547405Y-89297389D01*
X153605756Y-89092310D01*
X153625429Y-88880000D01*
X153605756Y-88667690D01*
X153547405Y-88462611D01*
X153547403Y-88462606D01*
X153547403Y-88462605D01*
X153452367Y-88271746D01*
X153346527Y-88131593D01*
X153323872Y-88101593D01*
X153181317Y-87971636D01*
X153145036Y-87911926D01*
X153146797Y-87842078D01*
X153181318Y-87788363D01*
X153323872Y-87658407D01*
X153452366Y-87488255D01*
X153508166Y-87376193D01*
X153547403Y-87297394D01*
X153547403Y-87297393D01*
X153547405Y-87297389D01*
X153605756Y-87092310D01*
X153625429Y-86880000D01*
X153605756Y-86667690D01*
X153547405Y-86462611D01*
X153547403Y-86462606D01*
X153547403Y-86462605D01*
X153452367Y-86271746D01*
X153323872Y-86101593D01*
X153283723Y-86064992D01*
X153166302Y-85957948D01*
X152985019Y-85845702D01*
X152985017Y-85845701D01*
X152863640Y-85798680D01*
X152786198Y-85768679D01*
X152696375Y-85751888D01*
X152634096Y-85720221D01*
X152598823Y-85659908D01*
X152601757Y-85590100D01*
X152641966Y-85532960D01*
X152696374Y-85508111D01*
X152786198Y-85491321D01*
X152985019Y-85414298D01*
X153166302Y-85302052D01*
X153323872Y-85158407D01*
X153452366Y-84988255D01*
X153527089Y-84838190D01*
X153547403Y-84797394D01*
X153547403Y-84797393D01*
X153547405Y-84797389D01*
X153605756Y-84592310D01*
X153625429Y-84380000D01*
X153625359Y-84379249D01*
X153620796Y-84329998D01*
X153605756Y-84167690D01*
X153547405Y-83962611D01*
X153547403Y-83962606D01*
X153547403Y-83962605D01*
X153452367Y-83771746D01*
X153323872Y-83601593D01*
X153289418Y-83570184D01*
X153166302Y-83457948D01*
X152985019Y-83345702D01*
X152985017Y-83345701D01*
X152863640Y-83298680D01*
X152786198Y-83268679D01*
X152576610Y-83229500D01*
X152363390Y-83229500D01*
X152153802Y-83268679D01*
X152153799Y-83268679D01*
X152153799Y-83268680D01*
X151954982Y-83345701D01*
X151954980Y-83345702D01*
X151773699Y-83457947D01*
X151616127Y-83601593D01*
X151487632Y-83771746D01*
X151392596Y-83962605D01*
X151392596Y-83962607D01*
X151334244Y-84167689D01*
X151314571Y-84379999D01*
X151314571Y-84380000D01*
X151334244Y-84592310D01*
X151392596Y-84797392D01*
X151392596Y-84797394D01*
X151487632Y-84988253D01*
X151599202Y-85135994D01*
X151616128Y-85158407D01*
X151773698Y-85302052D01*
X151954981Y-85414298D01*
X152153802Y-85491321D01*
X152243623Y-85508111D01*
X152305903Y-85539780D01*
X152341176Y-85600092D01*
X152338242Y-85669900D01*
X152298033Y-85727040D01*
X152243623Y-85751888D01*
X152153802Y-85768679D01*
X152153799Y-85768679D01*
X152153799Y-85768680D01*
X151954982Y-85845701D01*
X151954980Y-85845702D01*
X151773699Y-85957947D01*
X151616127Y-86101593D01*
X151487632Y-86271746D01*
X151392596Y-86462605D01*
X151392596Y-86462607D01*
X151336427Y-86660019D01*
X151334244Y-86667690D01*
X151314571Y-86880000D01*
X151334244Y-87092310D01*
X151368016Y-87211006D01*
X151392596Y-87297392D01*
X151392596Y-87297394D01*
X151487632Y-87488253D01*
X151616127Y-87658406D01*
X151758682Y-87788363D01*
X151794963Y-87848075D01*
X151793202Y-87917922D01*
X151758682Y-87971637D01*
X151616127Y-88101593D01*
X151487632Y-88271746D01*
X151392596Y-88462605D01*
X151392596Y-88462607D01*
X151334244Y-88667689D01*
X151318538Y-88837193D01*
X151314571Y-88880000D01*
X151334244Y-89092310D01*
X151356731Y-89171344D01*
X151392596Y-89297392D01*
X151392596Y-89297394D01*
X151487632Y-89488253D01*
X151596788Y-89632797D01*
X151616128Y-89658407D01*
X151773698Y-89802052D01*
X151954981Y-89914298D01*
X152043673Y-89948657D01*
X152053051Y-89952290D01*
X152108452Y-89994863D01*
X152132043Y-90060630D01*
X152116332Y-90128710D01*
X152066308Y-90177489D01*
X152046576Y-90185848D01*
X152014973Y-90196116D01*
X151975975Y-90215986D01*
X151919684Y-90229500D01*
X151772130Y-90229500D01*
X151772123Y-90229501D01*
X151712516Y-90235908D01*
X151577671Y-90286202D01*
X151577664Y-90286206D01*
X151462455Y-90372452D01*
X151462452Y-90372455D01*
X151376206Y-90487664D01*
X151376202Y-90487671D01*
X151325908Y-90622517D01*
X151319501Y-90682116D01*
X151319500Y-90682135D01*
X151319500Y-90855067D01*
X151311559Y-90894996D01*
X151312621Y-90895341D01*
X151250291Y-91087169D01*
X151250291Y-91087172D01*
X151219500Y-91281577D01*
X151219500Y-91478422D01*
X151250291Y-91672827D01*
X151250291Y-91672830D01*
X151312621Y-91864659D01*
X151311556Y-91865004D01*
X151319500Y-91904931D01*
X151319500Y-92077869D01*
X151319501Y-92077876D01*
X151325908Y-92137483D01*
X151376202Y-92272328D01*
X151376206Y-92272335D01*
X151462452Y-92387544D01*
X151462455Y-92387547D01*
X151577664Y-92473793D01*
X151577671Y-92473797D01*
X151619774Y-92489500D01*
X151712517Y-92524091D01*
X151772127Y-92530500D01*
X151945065Y-92530499D01*
X151984993Y-92538442D01*
X151985339Y-92537378D01*
X151989974Y-92538884D01*
X152177174Y-92599709D01*
X152254660Y-92611981D01*
X152371578Y-92630500D01*
X152371583Y-92630500D01*
X152568422Y-92630500D01*
X152716622Y-92607027D01*
X152736020Y-92605500D01*
X155654482Y-92605500D01*
X155721521Y-92625185D01*
X155767276Y-92677989D01*
X155777220Y-92747147D01*
X155748195Y-92810703D01*
X155742164Y-92817179D01*
X154566147Y-93993196D01*
X151112181Y-97447161D01*
X151050858Y-97480646D01*
X150981166Y-97475662D01*
X150925233Y-97433790D01*
X150900816Y-97368326D01*
X150900500Y-97359480D01*
X150900500Y-97191577D01*
X150869709Y-96997173D01*
X150808882Y-96809970D01*
X150719523Y-96634594D01*
X150603828Y-96475354D01*
X150464646Y-96336172D01*
X150311380Y-96224817D01*
X150268716Y-96169488D01*
X150262737Y-96099874D01*
X150295343Y-96038079D01*
X150356182Y-96003722D01*
X150384267Y-96000500D01*
X150654162Y-96000500D01*
X150879660Y-95964784D01*
X151096799Y-95894231D01*
X151300228Y-95790579D01*
X151484937Y-95656379D01*
X151646379Y-95494937D01*
X151780579Y-95310228D01*
X151884231Y-95106799D01*
X151954784Y-94889660D01*
X151970433Y-94790858D01*
X151990500Y-94664162D01*
X151990500Y-94435837D01*
X151954784Y-94210339D01*
X151900379Y-94042900D01*
X151884231Y-93993201D01*
X151884229Y-93993198D01*
X151884229Y-93993196D01*
X151813028Y-93853457D01*
X151780579Y-93789772D01*
X151646379Y-93605063D01*
X151484937Y-93443621D01*
X151300228Y-93309421D01*
X151281428Y-93299842D01*
X151096803Y-93205770D01*
X150879660Y-93135215D01*
X150654162Y-93099500D01*
X150654157Y-93099500D01*
X149425843Y-93099500D01*
X149425838Y-93099500D01*
X149200339Y-93135215D01*
X148983196Y-93205770D01*
X148779771Y-93309421D01*
X148595061Y-93443622D01*
X148433622Y-93605061D01*
X148299421Y-93789771D01*
X148195770Y-93993196D01*
X148125215Y-94210339D01*
X148089500Y-94435837D01*
X148089500Y-94664162D01*
X148125215Y-94889660D01*
X148195770Y-95106803D01*
X148280072Y-95272253D01*
X148299421Y-95310228D01*
X148433621Y-95494937D01*
X148595063Y-95656379D01*
X148688060Y-95723946D01*
X148779773Y-95790580D01*
X148808104Y-95805015D01*
X148858900Y-95852989D01*
X148875696Y-95920810D01*
X148853159Y-95986945D01*
X148798444Y-96030397D01*
X148751810Y-96039500D01*
X146801230Y-96039500D01*
X146734191Y-96019815D01*
X146688436Y-95967011D01*
X146678492Y-95897853D01*
X146707517Y-95834297D01*
X146713549Y-95827819D01*
X146730789Y-95810579D01*
X146752712Y-95788656D01*
X146844814Y-95639334D01*
X146899999Y-95472797D01*
X146910500Y-95370009D01*
X146910499Y-95261584D01*
X146916569Y-95223263D01*
X146916570Y-95223261D01*
X146929709Y-95182826D01*
X146946504Y-95076784D01*
X146960500Y-94988422D01*
X146960500Y-94791577D01*
X146936571Y-94640500D01*
X146929709Y-94597174D01*
X146929708Y-94597170D01*
X146929708Y-94597169D01*
X146867379Y-94405342D01*
X146868440Y-94404997D01*
X146860500Y-94365068D01*
X146860500Y-91931578D01*
X146849167Y-91860027D01*
X146829709Y-91737175D01*
X146829709Y-91737173D01*
X146794559Y-91628994D01*
X146768884Y-91549975D01*
X146768882Y-91549972D01*
X146768882Y-91549970D01*
X146705000Y-91424595D01*
X146679524Y-91374595D01*
X146563828Y-91215354D01*
X146424646Y-91076172D01*
X145804646Y-90456172D01*
X145645405Y-90340476D01*
X145625779Y-90330476D01*
X145470030Y-90251117D01*
X145282826Y-90190290D01*
X145088422Y-90159500D01*
X145088417Y-90159500D01*
X143073270Y-90159500D01*
X143006231Y-90139815D01*
X142960476Y-90087011D01*
X142950532Y-90017853D01*
X142979557Y-89954297D01*
X143007993Y-89930073D01*
X143166302Y-89832052D01*
X143323872Y-89688407D01*
X143452366Y-89518255D01*
X143508308Y-89405908D01*
X143547403Y-89327394D01*
X143547403Y-89327393D01*
X143547405Y-89327389D01*
X143605756Y-89122310D01*
X143625429Y-88910000D01*
X143605756Y-88697690D01*
X143547405Y-88492611D01*
X143547403Y-88492606D01*
X143547403Y-88492605D01*
X143452367Y-88301746D01*
X143365931Y-88187288D01*
X143323872Y-88131593D01*
X143312900Y-88121591D01*
X143181318Y-88001637D01*
X143145036Y-87941926D01*
X143146797Y-87872078D01*
X143181318Y-87818363D01*
X143199210Y-87802052D01*
X143323872Y-87688407D01*
X143452366Y-87518255D01*
X143523104Y-87376193D01*
X143547403Y-87327394D01*
X143547403Y-87327393D01*
X143547405Y-87327389D01*
X143605756Y-87122310D01*
X143625429Y-86910000D01*
X143605756Y-86697690D01*
X143547405Y-86492611D01*
X143547403Y-86492606D01*
X143547403Y-86492605D01*
X143452367Y-86301746D01*
X143323872Y-86131593D01*
X143290964Y-86101593D01*
X143166302Y-85987948D01*
X142985019Y-85875702D01*
X142985017Y-85875701D01*
X142871500Y-85831725D01*
X142786198Y-85798679D01*
X142696375Y-85781888D01*
X142634096Y-85750221D01*
X142598823Y-85689908D01*
X142601757Y-85620100D01*
X142641966Y-85562960D01*
X142696374Y-85538111D01*
X142786198Y-85521321D01*
X142985019Y-85444298D01*
X143166302Y-85332052D01*
X143323872Y-85188407D01*
X143452366Y-85018255D01*
X143457346Y-85008253D01*
X143547403Y-84827394D01*
X143547403Y-84827393D01*
X143547405Y-84827389D01*
X143605756Y-84622310D01*
X143625429Y-84410000D01*
X143605756Y-84197690D01*
X143547405Y-83992611D01*
X143547403Y-83992606D01*
X143547403Y-83992605D01*
X143452367Y-83801746D01*
X143323872Y-83631593D01*
X143212439Y-83530008D01*
X143166302Y-83487948D01*
X142985019Y-83375702D01*
X142985017Y-83375701D01*
X142885608Y-83337190D01*
X142786198Y-83298679D01*
X142576610Y-83259500D01*
X142363390Y-83259500D01*
X142153802Y-83298679D01*
X142153799Y-83298679D01*
X142153799Y-83298680D01*
X141954982Y-83375701D01*
X141954980Y-83375702D01*
X141773699Y-83487947D01*
X141616127Y-83631593D01*
X141487632Y-83801746D01*
X141392596Y-83992605D01*
X141392596Y-83992607D01*
X141334244Y-84197689D01*
X141314571Y-84409999D01*
X141314571Y-84410000D01*
X141334244Y-84622310D01*
X141392596Y-84827392D01*
X141392596Y-84827394D01*
X141487632Y-85018253D01*
X141608576Y-85178407D01*
X141616128Y-85188407D01*
X141773698Y-85332052D01*
X141954981Y-85444298D01*
X142153802Y-85521321D01*
X142243623Y-85538111D01*
X142305903Y-85569780D01*
X142341176Y-85630092D01*
X142338242Y-85699900D01*
X142298033Y-85757040D01*
X142243623Y-85781888D01*
X142153802Y-85798679D01*
X142153799Y-85798679D01*
X142153799Y-85798680D01*
X141954982Y-85875701D01*
X141954980Y-85875702D01*
X141773699Y-85987947D01*
X141616127Y-86131593D01*
X141487632Y-86301746D01*
X141392596Y-86492605D01*
X141392596Y-86492607D01*
X141337090Y-86687689D01*
X141334244Y-86697690D01*
X141314571Y-86910000D01*
X141334244Y-87122310D01*
X141380920Y-87286358D01*
X141392596Y-87327392D01*
X141392596Y-87327394D01*
X141487632Y-87518253D01*
X141608576Y-87678407D01*
X141616128Y-87688407D01*
X141740790Y-87802052D01*
X141758682Y-87818363D01*
X141794963Y-87878075D01*
X141793202Y-87947922D01*
X141758682Y-88001637D01*
X141616127Y-88131593D01*
X141487632Y-88301746D01*
X141392596Y-88492605D01*
X141392596Y-88492607D01*
X141337090Y-88687689D01*
X141334244Y-88697690D01*
X141314571Y-88910000D01*
X141334244Y-89122310D01*
X141383326Y-89294814D01*
X141392596Y-89327392D01*
X141392596Y-89327394D01*
X141487632Y-89518253D01*
X141608576Y-89678407D01*
X141616128Y-89688407D01*
X141773698Y-89832052D01*
X141954981Y-89944298D01*
X142076744Y-89991468D01*
X142132145Y-90034041D01*
X142155736Y-90099807D01*
X142140025Y-90167888D01*
X142090002Y-90216667D01*
X142070270Y-90225026D01*
X142036780Y-90235908D01*
X141989975Y-90251116D01*
X141989971Y-90251117D01*
X141985345Y-90252621D01*
X141985001Y-90251562D01*
X141945069Y-90259500D01*
X141772130Y-90259500D01*
X141772123Y-90259501D01*
X141712516Y-90265908D01*
X141577671Y-90316202D01*
X141577664Y-90316206D01*
X141462455Y-90402452D01*
X141462452Y-90402455D01*
X141376206Y-90517664D01*
X141376202Y-90517671D01*
X141325908Y-90652517D01*
X141319501Y-90712116D01*
X141319500Y-90712135D01*
X141319500Y-90885068D01*
X141311559Y-90924997D01*
X141312621Y-90925342D01*
X141250291Y-91117169D01*
X141250291Y-91117172D01*
X141219500Y-91311577D01*
X141219500Y-91508422D01*
X141250291Y-91702827D01*
X141250291Y-91702830D01*
X141312621Y-91894658D01*
X141311556Y-91895003D01*
X141319500Y-91934930D01*
X141319500Y-92107869D01*
X141319501Y-92107876D01*
X141325908Y-92167483D01*
X141376202Y-92302328D01*
X141376206Y-92302335D01*
X141462452Y-92417544D01*
X141462455Y-92417547D01*
X141577664Y-92503793D01*
X141577671Y-92503797D01*
X141622618Y-92520561D01*
X141712517Y-92554091D01*
X141772127Y-92560500D01*
X141945066Y-92560499D01*
X141984994Y-92568442D01*
X141985341Y-92567378D01*
X141989973Y-92568883D01*
X141989975Y-92568884D01*
X142046346Y-92587200D01*
X142177173Y-92629709D01*
X142371578Y-92660500D01*
X142371583Y-92660500D01*
X144235500Y-92660500D01*
X144302539Y-92680185D01*
X144348294Y-92732989D01*
X144359500Y-92784500D01*
X144359500Y-94988422D01*
X144390290Y-95182826D01*
X144451118Y-95370032D01*
X144540471Y-95545397D01*
X144540802Y-95545937D01*
X144541378Y-95547177D01*
X144542688Y-95549748D01*
X144542594Y-95549795D01*
X144552784Y-95571729D01*
X144575185Y-95639331D01*
X144575187Y-95639336D01*
X144598034Y-95676377D01*
X144659960Y-95776776D01*
X144667289Y-95788657D01*
X144706451Y-95827819D01*
X144739936Y-95889142D01*
X144734952Y-95958834D01*
X144693080Y-96014767D01*
X144627616Y-96039184D01*
X144618770Y-96039500D01*
X141380542Y-96039500D01*
X141313503Y-96019815D01*
X141267748Y-95967011D01*
X141257804Y-95897853D01*
X141286829Y-95834297D01*
X141307656Y-95815182D01*
X141484937Y-95686379D01*
X141646379Y-95524937D01*
X141780579Y-95340228D01*
X141884231Y-95136799D01*
X141954784Y-94919660D01*
X141965472Y-94852181D01*
X141990500Y-94694162D01*
X141990500Y-94465837D01*
X141954784Y-94240339D01*
X141910992Y-94105564D01*
X141884231Y-94023201D01*
X141884229Y-94023198D01*
X141884229Y-94023196D01*
X141797742Y-93853457D01*
X141780579Y-93819772D01*
X141646379Y-93635063D01*
X141484937Y-93473621D01*
X141300228Y-93339421D01*
X141222550Y-93299842D01*
X141096803Y-93235770D01*
X140879660Y-93165215D01*
X140654162Y-93129500D01*
X140654157Y-93129500D01*
X139425843Y-93129500D01*
X139425838Y-93129500D01*
X139200339Y-93165215D01*
X138983196Y-93235770D01*
X138779771Y-93339421D01*
X138595061Y-93473622D01*
X138433622Y-93635061D01*
X138299421Y-93819771D01*
X138195770Y-94023196D01*
X138125215Y-94240339D01*
X138089500Y-94465837D01*
X138089500Y-94694162D01*
X138125215Y-94919660D01*
X138195770Y-95136803D01*
X138275434Y-95293151D01*
X138299421Y-95340228D01*
X138433621Y-95524937D01*
X138595063Y-95686379D01*
X138772344Y-95815182D01*
X138815009Y-95870512D01*
X138820988Y-95940126D01*
X138788382Y-96001921D01*
X138727543Y-96036278D01*
X138699458Y-96039500D01*
X136711230Y-96039500D01*
X136644191Y-96019815D01*
X136598436Y-95967011D01*
X136588492Y-95897853D01*
X136617517Y-95834297D01*
X136623549Y-95827819D01*
X136646353Y-95805015D01*
X136692712Y-95758656D01*
X136784814Y-95609334D01*
X136839999Y-95442797D01*
X136850500Y-95340009D01*
X136850499Y-95261584D01*
X136856569Y-95223263D01*
X136856570Y-95223261D01*
X136869709Y-95182826D01*
X136886504Y-95076784D01*
X136900500Y-94988422D01*
X136900500Y-94791577D01*
X136876571Y-94640500D01*
X136869709Y-94597174D01*
X136866569Y-94587509D01*
X136860500Y-94549191D01*
X136860500Y-91591577D01*
X136829709Y-91397173D01*
X136803229Y-91315677D01*
X136801899Y-91311583D01*
X136768884Y-91209974D01*
X136768882Y-91209971D01*
X136768882Y-91209969D01*
X136716502Y-91107169D01*
X136679524Y-91034595D01*
X136563828Y-90875354D01*
X136114646Y-90426172D01*
X135955405Y-90310476D01*
X135947017Y-90306202D01*
X135780030Y-90221117D01*
X135592826Y-90160290D01*
X135398422Y-90129500D01*
X135398417Y-90129500D01*
X133053270Y-90129500D01*
X132986231Y-90109815D01*
X132940476Y-90057011D01*
X132930532Y-89987853D01*
X132959557Y-89924297D01*
X132987993Y-89900073D01*
X133097850Y-89832052D01*
X133146302Y-89802052D01*
X133303872Y-89658407D01*
X133432366Y-89488255D01*
X133473370Y-89405908D01*
X133527403Y-89297394D01*
X133527403Y-89297393D01*
X133527405Y-89297389D01*
X133585756Y-89092310D01*
X133605429Y-88880000D01*
X133585756Y-88667690D01*
X133527405Y-88462611D01*
X133527403Y-88462606D01*
X133527403Y-88462605D01*
X133432367Y-88271746D01*
X133326527Y-88131593D01*
X133303872Y-88101593D01*
X133161317Y-87971636D01*
X133125036Y-87911926D01*
X133126797Y-87842078D01*
X133161318Y-87788363D01*
X133303872Y-87658407D01*
X133432366Y-87488255D01*
X133488166Y-87376193D01*
X133527403Y-87297394D01*
X133527403Y-87297393D01*
X133527405Y-87297389D01*
X133585756Y-87092310D01*
X133605429Y-86880000D01*
X133585756Y-86667690D01*
X133527405Y-86462611D01*
X133527403Y-86462606D01*
X133527403Y-86462605D01*
X133432367Y-86271746D01*
X133303872Y-86101593D01*
X133263723Y-86064992D01*
X133146302Y-85957948D01*
X132965019Y-85845702D01*
X132965017Y-85845701D01*
X132843640Y-85798680D01*
X132766198Y-85768679D01*
X132676375Y-85751888D01*
X132614096Y-85720221D01*
X132578823Y-85659908D01*
X132581757Y-85590100D01*
X132621966Y-85532960D01*
X132676374Y-85508111D01*
X132766198Y-85491321D01*
X132965019Y-85414298D01*
X133146302Y-85302052D01*
X133303872Y-85158407D01*
X133432366Y-84988255D01*
X133507089Y-84838190D01*
X133527403Y-84797394D01*
X133527403Y-84797393D01*
X133527405Y-84797389D01*
X133585756Y-84592310D01*
X133605429Y-84380000D01*
X133605359Y-84379249D01*
X133600796Y-84329998D01*
X133585756Y-84167690D01*
X133527405Y-83962611D01*
X133527403Y-83962606D01*
X133527403Y-83962605D01*
X133432367Y-83771746D01*
X133303872Y-83601593D01*
X133269418Y-83570184D01*
X133146302Y-83457948D01*
X132965019Y-83345702D01*
X132965017Y-83345701D01*
X132843640Y-83298680D01*
X132766198Y-83268679D01*
X132556610Y-83229500D01*
X132343390Y-83229500D01*
X132133802Y-83268679D01*
X132133799Y-83268679D01*
X132133799Y-83268680D01*
X131934982Y-83345701D01*
X131934980Y-83345702D01*
X131753699Y-83457947D01*
X131596127Y-83601593D01*
X131467632Y-83771746D01*
X131372596Y-83962605D01*
X131372596Y-83962607D01*
X131314244Y-84167689D01*
X131294571Y-84379999D01*
X131294571Y-84380000D01*
X131314244Y-84592310D01*
X131372596Y-84797392D01*
X131372596Y-84797394D01*
X131467632Y-84988253D01*
X131579202Y-85135994D01*
X131596128Y-85158407D01*
X131753698Y-85302052D01*
X131934981Y-85414298D01*
X132133802Y-85491321D01*
X132223623Y-85508111D01*
X132285903Y-85539780D01*
X132321176Y-85600092D01*
X132318242Y-85669900D01*
X132278033Y-85727040D01*
X132223623Y-85751888D01*
X132133802Y-85768679D01*
X132133799Y-85768679D01*
X132133799Y-85768680D01*
X131934982Y-85845701D01*
X131934980Y-85845702D01*
X131753699Y-85957947D01*
X131596127Y-86101593D01*
X131467632Y-86271746D01*
X131372596Y-86462605D01*
X131372596Y-86462607D01*
X131316427Y-86660019D01*
X131314244Y-86667690D01*
X131294571Y-86880000D01*
X131314244Y-87092310D01*
X131348016Y-87211006D01*
X131372596Y-87297392D01*
X131372596Y-87297394D01*
X131467632Y-87488253D01*
X131596127Y-87658406D01*
X131738682Y-87788363D01*
X131774963Y-87848075D01*
X131773202Y-87917922D01*
X131738682Y-87971637D01*
X131596127Y-88101593D01*
X131467632Y-88271746D01*
X131372596Y-88462605D01*
X131372596Y-88462607D01*
X131314244Y-88667689D01*
X131298538Y-88837193D01*
X131294571Y-88880000D01*
X131314244Y-89092310D01*
X131336731Y-89171344D01*
X131372596Y-89297392D01*
X131372596Y-89297394D01*
X131467632Y-89488253D01*
X131576788Y-89632797D01*
X131596128Y-89658407D01*
X131753698Y-89802052D01*
X131934981Y-89914298D01*
X132056744Y-89961468D01*
X132112145Y-90004041D01*
X132135736Y-90069807D01*
X132120025Y-90137888D01*
X132070002Y-90186667D01*
X132050270Y-90195026D01*
X132015762Y-90206238D01*
X131969975Y-90221116D01*
X131969971Y-90221117D01*
X131965345Y-90222621D01*
X131965001Y-90221562D01*
X131925069Y-90229500D01*
X131752130Y-90229500D01*
X131752123Y-90229501D01*
X131692516Y-90235908D01*
X131557671Y-90286202D01*
X131557664Y-90286206D01*
X131442455Y-90372452D01*
X131442452Y-90372455D01*
X131356206Y-90487664D01*
X131356202Y-90487671D01*
X131305908Y-90622517D01*
X131299501Y-90682116D01*
X131299500Y-90682135D01*
X131299500Y-90855068D01*
X131291559Y-90894997D01*
X131292621Y-90895342D01*
X131230291Y-91087169D01*
X131230291Y-91087172D01*
X131199500Y-91281577D01*
X131199500Y-91478422D01*
X131230291Y-91672827D01*
X131230291Y-91672830D01*
X131292621Y-91864658D01*
X131291556Y-91865003D01*
X131299500Y-91904930D01*
X131299500Y-92077869D01*
X131299501Y-92077876D01*
X131305908Y-92137483D01*
X131356202Y-92272328D01*
X131356206Y-92272335D01*
X131442452Y-92387544D01*
X131442455Y-92387547D01*
X131557664Y-92473793D01*
X131557671Y-92473797D01*
X131599774Y-92489500D01*
X131692517Y-92524091D01*
X131752127Y-92530500D01*
X131925066Y-92530499D01*
X131964994Y-92538442D01*
X131965341Y-92537378D01*
X131969973Y-92538883D01*
X131969975Y-92538884D01*
X132036499Y-92560499D01*
X132157173Y-92599709D01*
X132351578Y-92630500D01*
X132351583Y-92630500D01*
X134235500Y-92630500D01*
X134302539Y-92650185D01*
X134348294Y-92702989D01*
X134359500Y-92754500D01*
X134359500Y-94988422D01*
X134390290Y-95182826D01*
X134449148Y-95363968D01*
X134454575Y-95389685D01*
X134460001Y-95442797D01*
X134515185Y-95609331D01*
X134515187Y-95609336D01*
X134528215Y-95630457D01*
X134585879Y-95723947D01*
X134607289Y-95758657D01*
X134676451Y-95827819D01*
X134709936Y-95889142D01*
X134704952Y-95958834D01*
X134663080Y-96014767D01*
X134597616Y-96039184D01*
X134588770Y-96039500D01*
X131308190Y-96039500D01*
X131241151Y-96019815D01*
X131195396Y-95967011D01*
X131185452Y-95897853D01*
X131214477Y-95834297D01*
X131251896Y-95805015D01*
X131280226Y-95790580D01*
X131280225Y-95790580D01*
X131280228Y-95790579D01*
X131464937Y-95656379D01*
X131626379Y-95494937D01*
X131760579Y-95310228D01*
X131864231Y-95106799D01*
X131934784Y-94889660D01*
X131950433Y-94790858D01*
X131970500Y-94664162D01*
X131970500Y-94435837D01*
X131934784Y-94210339D01*
X131880379Y-94042900D01*
X131864231Y-93993201D01*
X131864229Y-93993198D01*
X131864229Y-93993196D01*
X131793028Y-93853457D01*
X131760579Y-93789772D01*
X131626379Y-93605063D01*
X131464937Y-93443621D01*
X131280228Y-93309421D01*
X131261428Y-93299842D01*
X131076803Y-93205770D01*
X130859660Y-93135215D01*
X130634162Y-93099500D01*
X130634157Y-93099500D01*
X129405843Y-93099500D01*
X129405838Y-93099500D01*
X129180339Y-93135215D01*
X128963196Y-93205770D01*
X128759771Y-93309421D01*
X128575061Y-93443622D01*
X128413622Y-93605061D01*
X128279421Y-93789771D01*
X128175770Y-93993196D01*
X128105215Y-94210339D01*
X128069500Y-94435837D01*
X128069500Y-94664162D01*
X128105215Y-94889660D01*
X128175770Y-95106803D01*
X128260072Y-95272253D01*
X128279421Y-95310228D01*
X128413621Y-95494937D01*
X128575063Y-95656379D01*
X128668060Y-95723946D01*
X128759773Y-95790580D01*
X128788104Y-95805015D01*
X128838900Y-95852989D01*
X128855696Y-95920810D01*
X128833159Y-95986945D01*
X128778444Y-96030397D01*
X128731810Y-96039500D01*
X126771230Y-96039500D01*
X126704191Y-96019815D01*
X126658436Y-95967011D01*
X126648492Y-95897853D01*
X126677517Y-95834297D01*
X126683549Y-95827819D01*
X126706353Y-95805015D01*
X126752712Y-95758656D01*
X126844814Y-95609334D01*
X126899999Y-95442797D01*
X126910500Y-95340009D01*
X126910499Y-95261584D01*
X126916569Y-95223263D01*
X126916570Y-95223261D01*
X126929709Y-95182826D01*
X126946504Y-95076784D01*
X126960500Y-94988422D01*
X126960500Y-94791577D01*
X126936571Y-94640500D01*
X126929709Y-94597174D01*
X126906841Y-94526797D01*
X126901417Y-94501092D01*
X126899999Y-94487203D01*
X126844814Y-94320666D01*
X126788961Y-94230113D01*
X126770500Y-94165017D01*
X126770500Y-91681577D01*
X126743074Y-91508422D01*
X126739709Y-91487174D01*
X126710466Y-91397174D01*
X126683983Y-91315667D01*
X126678885Y-91299976D01*
X126678884Y-91299973D01*
X126589523Y-91124594D01*
X126584131Y-91117172D01*
X126473828Y-90965354D01*
X125954646Y-90446172D01*
X125795405Y-90330476D01*
X125756153Y-90310476D01*
X125620030Y-90241117D01*
X125432826Y-90180290D01*
X125238422Y-90149500D01*
X125238417Y-90149500D01*
X123033270Y-90149500D01*
X122966231Y-90129815D01*
X122920476Y-90077011D01*
X122910532Y-90007853D01*
X122939557Y-89944297D01*
X122967993Y-89920073D01*
X122977320Y-89914298D01*
X123126302Y-89822052D01*
X123283872Y-89678407D01*
X123412366Y-89508255D01*
X123496302Y-89339687D01*
X123507403Y-89317394D01*
X123507403Y-89317393D01*
X123507405Y-89317389D01*
X123565756Y-89112310D01*
X123585429Y-88900000D01*
X123565756Y-88687690D01*
X123507405Y-88482611D01*
X123507403Y-88482606D01*
X123507403Y-88482605D01*
X123412367Y-88291746D01*
X123322945Y-88173334D01*
X123283872Y-88121593D01*
X123230252Y-88072712D01*
X123141318Y-87991637D01*
X123105036Y-87931926D01*
X123106797Y-87862078D01*
X123141318Y-87808363D01*
X123197437Y-87757203D01*
X123283872Y-87678407D01*
X123412366Y-87508255D01*
X123422326Y-87488253D01*
X123507403Y-87317394D01*
X123507403Y-87317393D01*
X123507405Y-87317389D01*
X123565756Y-87112310D01*
X123585429Y-86900000D01*
X123565756Y-86687690D01*
X123507405Y-86482611D01*
X123507403Y-86482606D01*
X123507403Y-86482605D01*
X123412367Y-86291746D01*
X123283872Y-86121593D01*
X123254905Y-86095186D01*
X123126302Y-85977948D01*
X122945019Y-85865702D01*
X122945017Y-85865701D01*
X122845608Y-85827190D01*
X122746198Y-85788679D01*
X122656375Y-85771888D01*
X122594096Y-85740221D01*
X122558823Y-85679908D01*
X122561757Y-85610100D01*
X122601966Y-85552960D01*
X122656374Y-85528111D01*
X122746198Y-85511321D01*
X122945019Y-85434298D01*
X123126302Y-85322052D01*
X123283872Y-85178407D01*
X123412366Y-85008255D01*
X123453429Y-84925788D01*
X123507403Y-84817394D01*
X123507403Y-84817393D01*
X123507405Y-84817389D01*
X123565756Y-84612310D01*
X123585429Y-84400000D01*
X123565756Y-84187690D01*
X123507405Y-83982611D01*
X123507403Y-83982606D01*
X123507403Y-83982605D01*
X123412367Y-83791746D01*
X123283872Y-83621593D01*
X123227479Y-83570184D01*
X123126302Y-83477948D01*
X122945019Y-83365702D01*
X122945017Y-83365701D01*
X122797065Y-83308385D01*
X122746198Y-83288679D01*
X122536610Y-83249500D01*
X122323390Y-83249500D01*
X122113802Y-83288679D01*
X122113799Y-83288679D01*
X122113799Y-83288680D01*
X121914982Y-83365701D01*
X121914980Y-83365702D01*
X121733699Y-83477947D01*
X121576127Y-83621593D01*
X121447632Y-83791746D01*
X121352596Y-83982605D01*
X121352596Y-83982607D01*
X121294244Y-84187689D01*
X121280085Y-84340498D01*
X121274571Y-84400000D01*
X121294244Y-84612310D01*
X121346904Y-84797389D01*
X121352596Y-84817392D01*
X121352596Y-84817394D01*
X121447632Y-85008253D01*
X121576127Y-85178406D01*
X121576128Y-85178407D01*
X121733698Y-85322052D01*
X121914981Y-85434298D01*
X122113802Y-85511321D01*
X122203623Y-85528111D01*
X122265903Y-85559780D01*
X122301176Y-85620092D01*
X122298242Y-85689900D01*
X122258033Y-85747040D01*
X122203623Y-85771888D01*
X122113802Y-85788679D01*
X122113799Y-85788679D01*
X122113799Y-85788680D01*
X121914982Y-85865701D01*
X121914980Y-85865702D01*
X121733699Y-85977947D01*
X121576127Y-86121593D01*
X121447632Y-86291746D01*
X121352596Y-86482605D01*
X121352596Y-86482607D01*
X121294244Y-86687689D01*
X121287285Y-86762796D01*
X121274571Y-86900000D01*
X121294244Y-87112310D01*
X121346904Y-87297389D01*
X121352596Y-87317392D01*
X121352596Y-87317394D01*
X121447632Y-87508253D01*
X121576127Y-87678406D01*
X121718682Y-87808363D01*
X121754963Y-87868075D01*
X121753202Y-87937922D01*
X121718682Y-87991637D01*
X121576127Y-88121593D01*
X121447632Y-88291746D01*
X121352596Y-88482605D01*
X121352596Y-88482607D01*
X121294244Y-88687689D01*
X121287285Y-88762796D01*
X121274571Y-88900000D01*
X121294244Y-89112310D01*
X121347250Y-89298605D01*
X121352596Y-89317392D01*
X121352596Y-89317394D01*
X121447632Y-89508253D01*
X121571420Y-89672173D01*
X121576128Y-89678407D01*
X121733698Y-89822052D01*
X121914981Y-89934298D01*
X122036744Y-89981468D01*
X122092145Y-90024041D01*
X122115736Y-90089807D01*
X122100025Y-90157888D01*
X122050002Y-90206667D01*
X122030270Y-90215026D01*
X121998405Y-90225380D01*
X121949975Y-90241116D01*
X121949971Y-90241117D01*
X121945345Y-90242621D01*
X121945001Y-90241562D01*
X121905069Y-90249500D01*
X121732130Y-90249500D01*
X121732123Y-90249501D01*
X121672516Y-90255908D01*
X121537671Y-90306202D01*
X121537664Y-90306206D01*
X121422455Y-90392452D01*
X121422452Y-90392455D01*
X121336206Y-90507664D01*
X121336202Y-90507671D01*
X121285908Y-90642517D01*
X121279501Y-90702116D01*
X121279500Y-90702135D01*
X121279500Y-90875068D01*
X121271559Y-90914997D01*
X121272621Y-90915342D01*
X121210291Y-91107169D01*
X121210291Y-91107172D01*
X121179500Y-91301577D01*
X121179500Y-91498422D01*
X121210291Y-91692827D01*
X121210291Y-91692830D01*
X121272621Y-91884658D01*
X121271556Y-91885003D01*
X121279500Y-91924930D01*
X121279500Y-92097869D01*
X121279501Y-92097876D01*
X121285908Y-92157483D01*
X121336202Y-92292328D01*
X121336206Y-92292335D01*
X121422452Y-92407544D01*
X121422455Y-92407547D01*
X121537664Y-92493793D01*
X121537671Y-92493797D01*
X121564472Y-92503793D01*
X121672517Y-92544091D01*
X121732127Y-92550500D01*
X121905066Y-92550499D01*
X121944994Y-92558442D01*
X121945341Y-92557378D01*
X121949973Y-92558883D01*
X121949975Y-92558884D01*
X121980752Y-92568884D01*
X122137173Y-92619709D01*
X122331578Y-92650500D01*
X122331583Y-92650500D01*
X124145500Y-92650500D01*
X124212539Y-92670185D01*
X124258294Y-92722989D01*
X124269500Y-92774500D01*
X124269500Y-94968422D01*
X124300290Y-95162826D01*
X124361117Y-95350030D01*
X124423670Y-95472795D01*
X124450476Y-95525405D01*
X124566172Y-95684646D01*
X124566174Y-95684648D01*
X124709345Y-95827819D01*
X124742830Y-95889142D01*
X124737846Y-95958834D01*
X124695974Y-96014767D01*
X124630510Y-96039184D01*
X124621664Y-96039500D01*
X121326334Y-96039500D01*
X121259295Y-96019815D01*
X121213540Y-95967011D01*
X121203596Y-95897853D01*
X121232621Y-95834297D01*
X121256640Y-95813930D01*
X121256286Y-95813443D01*
X121287755Y-95790579D01*
X121444937Y-95676379D01*
X121606379Y-95514937D01*
X121740579Y-95330228D01*
X121844231Y-95126799D01*
X121914784Y-94909660D01*
X121923888Y-94852181D01*
X121950500Y-94684162D01*
X121950500Y-94455837D01*
X121914784Y-94230339D01*
X121871030Y-94095679D01*
X121844231Y-94013201D01*
X121844229Y-94013198D01*
X121844229Y-94013196D01*
X121789550Y-93905884D01*
X121740579Y-93809772D01*
X121606379Y-93625063D01*
X121444937Y-93463621D01*
X121260228Y-93329421D01*
X121202176Y-93299842D01*
X121056803Y-93225770D01*
X120839660Y-93155215D01*
X120614162Y-93119500D01*
X120614157Y-93119500D01*
X119385843Y-93119500D01*
X119385838Y-93119500D01*
X119160339Y-93155215D01*
X118943196Y-93225770D01*
X118739771Y-93329421D01*
X118555061Y-93463622D01*
X118393622Y-93625061D01*
X118259421Y-93809771D01*
X118155770Y-94013196D01*
X118085215Y-94230339D01*
X118049500Y-94455837D01*
X118049500Y-94684162D01*
X118085215Y-94909660D01*
X118155770Y-95126803D01*
X118254214Y-95320009D01*
X118259421Y-95330228D01*
X118393621Y-95514937D01*
X118555063Y-95676379D01*
X118693247Y-95776776D01*
X118743714Y-95813443D01*
X118742850Y-95814631D01*
X118785329Y-95861581D01*
X118796754Y-95930510D01*
X118769099Y-95994674D01*
X118711145Y-96033700D01*
X118673666Y-96039500D01*
X116381230Y-96039500D01*
X116314191Y-96019815D01*
X116268436Y-95967011D01*
X116258492Y-95897853D01*
X116287517Y-95834297D01*
X116293549Y-95827819D01*
X116332712Y-95788656D01*
X116382712Y-95738656D01*
X116474814Y-95589334D01*
X116529999Y-95422797D01*
X116540500Y-95320009D01*
X116540499Y-95261583D01*
X116546569Y-95223263D01*
X116559709Y-95182826D01*
X116576504Y-95076784D01*
X116590500Y-94988422D01*
X116590500Y-94791577D01*
X116559709Y-94597173D01*
X116546569Y-94556733D01*
X116540500Y-94518414D01*
X116540500Y-91981577D01*
X116509709Y-91787173D01*
X116455064Y-91618995D01*
X116455064Y-91618994D01*
X116448884Y-91599973D01*
X116391411Y-91487177D01*
X116359524Y-91424595D01*
X116243828Y-91265354D01*
X115434646Y-90456172D01*
X115275405Y-90340476D01*
X115255779Y-90330476D01*
X115100030Y-90251117D01*
X114912826Y-90190290D01*
X114718422Y-90159500D01*
X114718417Y-90159500D01*
X113013270Y-90159500D01*
X112946231Y-90139815D01*
X112900476Y-90087011D01*
X112890532Y-90017853D01*
X112919557Y-89954297D01*
X112947993Y-89930073D01*
X113106302Y-89832052D01*
X113263872Y-89688407D01*
X113392366Y-89518255D01*
X113448308Y-89405908D01*
X113487403Y-89327394D01*
X113487403Y-89327393D01*
X113487405Y-89327389D01*
X113545756Y-89122310D01*
X113565429Y-88910000D01*
X113545756Y-88697690D01*
X113487405Y-88492611D01*
X113487403Y-88492606D01*
X113487403Y-88492605D01*
X113392367Y-88301746D01*
X113305931Y-88187288D01*
X113263872Y-88131593D01*
X113252900Y-88121591D01*
X113121318Y-88001637D01*
X113085036Y-87941926D01*
X113086797Y-87872078D01*
X113121318Y-87818363D01*
X113139210Y-87802052D01*
X113263872Y-87688407D01*
X113392366Y-87518255D01*
X113463104Y-87376193D01*
X113487403Y-87327394D01*
X113487403Y-87327393D01*
X113487405Y-87327389D01*
X113545756Y-87122310D01*
X113565429Y-86910000D01*
X113545756Y-86697690D01*
X113487405Y-86492611D01*
X113487403Y-86492606D01*
X113487403Y-86492605D01*
X113392367Y-86301746D01*
X113263872Y-86131593D01*
X113230964Y-86101593D01*
X113106302Y-85987948D01*
X112925019Y-85875702D01*
X112925017Y-85875701D01*
X112811500Y-85831725D01*
X112726198Y-85798679D01*
X112636375Y-85781888D01*
X112574096Y-85750221D01*
X112538823Y-85689908D01*
X112541757Y-85620100D01*
X112581966Y-85562960D01*
X112636374Y-85538111D01*
X112726198Y-85521321D01*
X112925019Y-85444298D01*
X113106302Y-85332052D01*
X113263872Y-85188407D01*
X113392366Y-85018255D01*
X113397346Y-85008253D01*
X113487403Y-84827394D01*
X113487403Y-84827393D01*
X113487405Y-84827389D01*
X113545756Y-84622310D01*
X113565429Y-84410000D01*
X113545756Y-84197690D01*
X113487405Y-83992611D01*
X113487403Y-83992606D01*
X113487403Y-83992605D01*
X113392367Y-83801746D01*
X113263872Y-83631593D01*
X113152439Y-83530008D01*
X113106302Y-83487948D01*
X112925019Y-83375702D01*
X112925017Y-83375701D01*
X112825608Y-83337190D01*
X112726198Y-83298679D01*
X112516610Y-83259500D01*
X112303390Y-83259500D01*
X112093802Y-83298679D01*
X112093799Y-83298679D01*
X112093799Y-83298680D01*
X111894982Y-83375701D01*
X111894980Y-83375702D01*
X111713699Y-83487947D01*
X111556127Y-83631593D01*
X111427632Y-83801746D01*
X111332596Y-83992605D01*
X111332596Y-83992607D01*
X111274244Y-84197689D01*
X111254571Y-84409999D01*
X111254571Y-84410000D01*
X111274244Y-84622310D01*
X111332596Y-84827392D01*
X111332596Y-84827394D01*
X111427632Y-85018253D01*
X111548576Y-85178407D01*
X111556128Y-85188407D01*
X111713698Y-85332052D01*
X111894981Y-85444298D01*
X112093802Y-85521321D01*
X112183623Y-85538111D01*
X112245903Y-85569780D01*
X112281176Y-85630092D01*
X112278242Y-85699900D01*
X112238033Y-85757040D01*
X112183623Y-85781888D01*
X112093802Y-85798679D01*
X112093799Y-85798679D01*
X112093799Y-85798680D01*
X111894982Y-85875701D01*
X111894980Y-85875702D01*
X111713699Y-85987947D01*
X111556127Y-86131593D01*
X111427632Y-86301746D01*
X111332596Y-86492605D01*
X111332596Y-86492607D01*
X111277090Y-86687689D01*
X111274244Y-86697690D01*
X111254571Y-86910000D01*
X111274244Y-87122310D01*
X111320920Y-87286358D01*
X111332596Y-87327392D01*
X111332596Y-87327394D01*
X111427632Y-87518253D01*
X111548576Y-87678407D01*
X111556128Y-87688407D01*
X111680790Y-87802052D01*
X111698682Y-87818363D01*
X111734963Y-87878075D01*
X111733202Y-87947922D01*
X111698682Y-88001637D01*
X111556127Y-88131593D01*
X111427632Y-88301746D01*
X111332596Y-88492605D01*
X111332596Y-88492607D01*
X111277090Y-88687689D01*
X111274244Y-88697690D01*
X111254571Y-88910000D01*
X111274244Y-89122310D01*
X111323326Y-89294814D01*
X111332596Y-89327392D01*
X111332596Y-89327394D01*
X111427632Y-89518253D01*
X111548576Y-89678407D01*
X111556128Y-89688407D01*
X111713698Y-89832052D01*
X111894981Y-89944298D01*
X112016744Y-89991468D01*
X112072145Y-90034041D01*
X112095736Y-90099807D01*
X112080025Y-90167888D01*
X112030002Y-90216667D01*
X112010270Y-90225026D01*
X111976780Y-90235908D01*
X111929975Y-90251116D01*
X111929971Y-90251117D01*
X111925345Y-90252621D01*
X111925001Y-90251562D01*
X111885069Y-90259500D01*
X111712130Y-90259500D01*
X111712123Y-90259501D01*
X111652516Y-90265908D01*
X111517671Y-90316202D01*
X111517664Y-90316206D01*
X111402455Y-90402452D01*
X111402452Y-90402455D01*
X111316206Y-90517664D01*
X111316202Y-90517671D01*
X111265908Y-90652517D01*
X111259501Y-90712116D01*
X111259500Y-90712135D01*
X111259500Y-90885068D01*
X111251559Y-90924997D01*
X111252621Y-90925342D01*
X111190291Y-91117169D01*
X111190291Y-91117172D01*
X111159500Y-91311577D01*
X111159500Y-91508422D01*
X111190291Y-91702827D01*
X111190291Y-91702830D01*
X111252621Y-91894658D01*
X111251556Y-91895003D01*
X111259500Y-91934930D01*
X111259500Y-92107869D01*
X111259501Y-92107876D01*
X111265908Y-92167483D01*
X111316202Y-92302328D01*
X111316206Y-92302335D01*
X111402452Y-92417544D01*
X111402455Y-92417547D01*
X111517664Y-92503793D01*
X111517671Y-92503797D01*
X111562618Y-92520561D01*
X111652517Y-92554091D01*
X111712127Y-92560500D01*
X111885066Y-92560499D01*
X111924994Y-92568442D01*
X111925341Y-92567378D01*
X111929973Y-92568883D01*
X111929975Y-92568884D01*
X111986346Y-92587200D01*
X112117173Y-92629709D01*
X112311578Y-92660500D01*
X112311583Y-92660500D01*
X113915500Y-92660500D01*
X113982539Y-92680185D01*
X114028294Y-92732989D01*
X114039500Y-92784500D01*
X114039500Y-94988422D01*
X114070290Y-95182826D01*
X114131118Y-95370032D01*
X114137475Y-95382507D01*
X114147469Y-95416418D01*
X114148584Y-95416180D01*
X114149999Y-95422793D01*
X114205185Y-95589331D01*
X114205187Y-95589336D01*
X114229960Y-95629500D01*
X114288215Y-95723947D01*
X114297289Y-95738657D01*
X114421346Y-95862714D01*
X114424182Y-95864463D01*
X114425717Y-95866170D01*
X114427011Y-95867193D01*
X114426836Y-95867414D01*
X114470905Y-95916411D01*
X114482126Y-95985374D01*
X114454282Y-96049456D01*
X114424182Y-96075537D01*
X114421346Y-96077285D01*
X114297289Y-96201342D01*
X114205187Y-96350663D01*
X114205186Y-96350666D01*
X114150001Y-96517203D01*
X114150001Y-96517204D01*
X114150000Y-96517204D01*
X114139500Y-96619983D01*
X114139500Y-97370001D01*
X114139501Y-97370019D01*
X114150000Y-97472796D01*
X114150001Y-97472799D01*
X114205185Y-97639331D01*
X114205190Y-97639342D01*
X114212013Y-97650403D01*
X114230454Y-97717795D01*
X114209532Y-97784459D01*
X114155890Y-97829228D01*
X114106475Y-97839500D01*
X111791519Y-97839500D01*
X111724480Y-97819815D01*
X111703838Y-97803181D01*
X110142838Y-96242181D01*
X110109353Y-96180858D01*
X110114337Y-96111166D01*
X110156209Y-96055233D01*
X110221673Y-96030816D01*
X110230519Y-96030500D01*
X110594162Y-96030500D01*
X110819660Y-95994784D01*
X110819999Y-95994674D01*
X111036799Y-95924231D01*
X111240228Y-95820579D01*
X111424937Y-95686379D01*
X111586379Y-95524937D01*
X111720579Y-95340228D01*
X111824231Y-95136799D01*
X111894784Y-94919660D01*
X111905472Y-94852181D01*
X111930500Y-94694162D01*
X111930500Y-94465837D01*
X111894784Y-94240339D01*
X111850992Y-94105564D01*
X111824231Y-94023201D01*
X111824229Y-94023198D01*
X111824229Y-94023196D01*
X111737742Y-93853457D01*
X111720579Y-93819772D01*
X111586379Y-93635063D01*
X111424937Y-93473621D01*
X111240228Y-93339421D01*
X111162550Y-93299842D01*
X111036803Y-93235770D01*
X110819660Y-93165215D01*
X110594162Y-93129500D01*
X110594157Y-93129500D01*
X109365843Y-93129500D01*
X109365838Y-93129500D01*
X109140339Y-93165215D01*
X108923196Y-93235770D01*
X108719771Y-93339421D01*
X108535061Y-93473622D01*
X108373622Y-93635061D01*
X108239421Y-93819771D01*
X108141723Y-94011514D01*
X108093748Y-94062310D01*
X108025927Y-94079105D01*
X107959792Y-94056567D01*
X107943557Y-94042900D01*
X106356819Y-92456162D01*
X106323334Y-92394839D01*
X106320500Y-92368481D01*
X106320500Y-81125837D01*
X108039500Y-81125837D01*
X108039500Y-81354162D01*
X108075215Y-81579660D01*
X108145770Y-81796803D01*
X108234135Y-81970228D01*
X108249421Y-82000228D01*
X108383621Y-82184937D01*
X108545063Y-82346379D01*
X108729772Y-82480579D01*
X108765007Y-82498532D01*
X108933196Y-82584229D01*
X108933198Y-82584229D01*
X108933201Y-82584231D01*
X109024020Y-82613740D01*
X109150339Y-82654784D01*
X109375838Y-82690500D01*
X109375843Y-82690500D01*
X110604162Y-82690500D01*
X110829660Y-82654784D01*
X110841666Y-82650883D01*
X111046799Y-82584231D01*
X111250228Y-82480579D01*
X111434937Y-82346379D01*
X111596379Y-82184937D01*
X111730579Y-82000228D01*
X111834231Y-81796799D01*
X111904784Y-81579660D01*
X111912743Y-81529407D01*
X111940500Y-81354162D01*
X111940500Y-81125837D01*
X111938916Y-81115837D01*
X118059500Y-81115837D01*
X118059500Y-81344162D01*
X118095215Y-81569660D01*
X118165770Y-81786803D01*
X118269421Y-81990228D01*
X118403621Y-82174937D01*
X118565063Y-82336379D01*
X118749772Y-82470579D01*
X118804633Y-82498532D01*
X118953196Y-82574229D01*
X118953198Y-82574229D01*
X118953201Y-82574231D01*
X119012985Y-82593656D01*
X119170339Y-82644784D01*
X119395838Y-82680500D01*
X119395843Y-82680500D01*
X120624162Y-82680500D01*
X120849660Y-82644784D01*
X120893621Y-82630500D01*
X121066799Y-82574231D01*
X121270228Y-82470579D01*
X121454937Y-82336379D01*
X121616379Y-82174937D01*
X121750579Y-81990228D01*
X121854231Y-81786799D01*
X121924784Y-81569660D01*
X121928137Y-81548488D01*
X121960500Y-81344162D01*
X121960500Y-81115837D01*
X121957332Y-81095837D01*
X128079500Y-81095837D01*
X128079500Y-81324162D01*
X128115215Y-81549660D01*
X128185770Y-81766803D01*
X128268928Y-81930009D01*
X128289421Y-81970228D01*
X128423621Y-82154937D01*
X128585063Y-82316379D01*
X128769772Y-82450579D01*
X128838638Y-82485668D01*
X128973196Y-82554229D01*
X128973198Y-82554229D01*
X128973201Y-82554231D01*
X129065525Y-82584229D01*
X129190339Y-82624784D01*
X129415838Y-82660500D01*
X129415843Y-82660500D01*
X130644162Y-82660500D01*
X130869660Y-82624784D01*
X130888154Y-82618775D01*
X131086799Y-82554231D01*
X131290228Y-82450579D01*
X131474937Y-82316379D01*
X131636379Y-82154937D01*
X131770579Y-81970228D01*
X131874231Y-81766799D01*
X131944784Y-81549660D01*
X131951457Y-81507527D01*
X131980500Y-81324162D01*
X131980500Y-81125837D01*
X138099500Y-81125837D01*
X138099500Y-81354162D01*
X138135215Y-81579660D01*
X138205770Y-81796803D01*
X138294135Y-81970228D01*
X138309421Y-82000228D01*
X138443621Y-82184937D01*
X138605063Y-82346379D01*
X138789772Y-82480579D01*
X138825007Y-82498532D01*
X138993196Y-82584229D01*
X138993198Y-82584229D01*
X138993201Y-82584231D01*
X139084020Y-82613740D01*
X139210339Y-82654784D01*
X139435838Y-82690500D01*
X139435843Y-82690500D01*
X140664162Y-82690500D01*
X140889660Y-82654784D01*
X140901666Y-82650883D01*
X141106799Y-82584231D01*
X141310228Y-82480579D01*
X141494937Y-82346379D01*
X141656379Y-82184937D01*
X141790579Y-82000228D01*
X141894231Y-81796799D01*
X141964784Y-81579660D01*
X141972743Y-81529407D01*
X142000500Y-81354162D01*
X142000500Y-81125837D01*
X141995748Y-81095837D01*
X148099500Y-81095837D01*
X148099500Y-81324162D01*
X148135215Y-81549660D01*
X148205770Y-81766803D01*
X148288928Y-81930009D01*
X148309421Y-81970228D01*
X148443621Y-82154937D01*
X148605063Y-82316379D01*
X148789772Y-82450579D01*
X148858638Y-82485668D01*
X148993196Y-82554229D01*
X148993198Y-82554229D01*
X148993201Y-82554231D01*
X149085525Y-82584229D01*
X149210339Y-82624784D01*
X149435838Y-82660500D01*
X149435843Y-82660500D01*
X150664162Y-82660500D01*
X150889660Y-82624784D01*
X150908154Y-82618775D01*
X151106799Y-82554231D01*
X151310228Y-82450579D01*
X151494937Y-82316379D01*
X151656379Y-82154937D01*
X151790579Y-81970228D01*
X151894231Y-81766799D01*
X151964784Y-81549660D01*
X151971457Y-81507527D01*
X152000500Y-81324162D01*
X152000500Y-81095837D01*
X151964784Y-80870339D01*
X151911498Y-80706344D01*
X151894231Y-80653201D01*
X151894229Y-80653198D01*
X151894229Y-80653196D01*
X151835575Y-80538081D01*
X151790579Y-80449772D01*
X151656379Y-80265063D01*
X151494937Y-80103621D01*
X151310228Y-79969421D01*
X151288857Y-79958532D01*
X151106803Y-79865770D01*
X150889660Y-79795215D01*
X150664162Y-79759500D01*
X150664157Y-79759500D01*
X149435843Y-79759500D01*
X149435838Y-79759500D01*
X149210339Y-79795215D01*
X148993196Y-79865770D01*
X148789771Y-79969421D01*
X148605061Y-80103622D01*
X148443622Y-80265061D01*
X148309421Y-80449771D01*
X148205770Y-80653196D01*
X148135215Y-80870339D01*
X148099500Y-81095837D01*
X141995748Y-81095837D01*
X141964784Y-80900339D01*
X141903375Y-80711344D01*
X141894231Y-80683201D01*
X141894229Y-80683198D01*
X141894229Y-80683196D01*
X141820289Y-80538081D01*
X141790579Y-80479772D01*
X141656379Y-80295063D01*
X141494937Y-80133621D01*
X141310228Y-79999421D01*
X141273080Y-79980493D01*
X141106803Y-79895770D01*
X140889660Y-79825215D01*
X140664162Y-79789500D01*
X140664157Y-79789500D01*
X139435843Y-79789500D01*
X139435838Y-79789500D01*
X139210339Y-79825215D01*
X138993196Y-79895770D01*
X138789771Y-79999421D01*
X138605061Y-80133622D01*
X138443622Y-80295061D01*
X138309421Y-80479771D01*
X138205770Y-80683196D01*
X138135215Y-80900339D01*
X138099500Y-81125837D01*
X131980500Y-81125837D01*
X131980500Y-81095837D01*
X131944784Y-80870339D01*
X131891498Y-80706344D01*
X131874231Y-80653201D01*
X131874229Y-80653198D01*
X131874229Y-80653196D01*
X131815575Y-80538081D01*
X131770579Y-80449772D01*
X131636379Y-80265063D01*
X131474937Y-80103621D01*
X131290228Y-79969421D01*
X131268857Y-79958532D01*
X131086803Y-79865770D01*
X130869660Y-79795215D01*
X130644162Y-79759500D01*
X130644157Y-79759500D01*
X129415843Y-79759500D01*
X129415838Y-79759500D01*
X129190339Y-79795215D01*
X128973196Y-79865770D01*
X128769771Y-79969421D01*
X128585061Y-80103622D01*
X128423622Y-80265061D01*
X128289421Y-80449771D01*
X128185770Y-80653196D01*
X128115215Y-80870339D01*
X128079500Y-81095837D01*
X121957332Y-81095837D01*
X121924784Y-80890339D01*
X121857480Y-80683201D01*
X121854231Y-80673201D01*
X121854229Y-80673198D01*
X121854229Y-80673196D01*
X121799550Y-80565884D01*
X121750579Y-80469772D01*
X121616379Y-80285063D01*
X121454937Y-80123621D01*
X121270228Y-79989421D01*
X121252706Y-79980493D01*
X121066803Y-79885770D01*
X120849660Y-79815215D01*
X120624162Y-79779500D01*
X120624157Y-79779500D01*
X119395843Y-79779500D01*
X119395838Y-79779500D01*
X119170339Y-79815215D01*
X118953196Y-79885770D01*
X118749771Y-79989421D01*
X118565061Y-80123622D01*
X118403622Y-80285061D01*
X118269421Y-80469771D01*
X118165770Y-80673196D01*
X118095215Y-80890339D01*
X118059500Y-81115837D01*
X111938916Y-81115837D01*
X111904784Y-80900339D01*
X111843375Y-80711344D01*
X111834231Y-80683201D01*
X111834229Y-80683198D01*
X111834229Y-80683196D01*
X111760289Y-80538081D01*
X111730579Y-80479772D01*
X111596379Y-80295063D01*
X111434937Y-80133621D01*
X111250228Y-79999421D01*
X111213080Y-79980493D01*
X111046803Y-79895770D01*
X110829660Y-79825215D01*
X110604162Y-79789500D01*
X110604157Y-79789500D01*
X109375843Y-79789500D01*
X109375838Y-79789500D01*
X109150339Y-79825215D01*
X108933196Y-79895770D01*
X108729771Y-79999421D01*
X108545061Y-80133622D01*
X108383622Y-80295061D01*
X108249421Y-80479771D01*
X108145770Y-80683196D01*
X108075215Y-80900339D01*
X108039500Y-81125837D01*
X106320500Y-81125837D01*
X106320500Y-79071519D01*
X106340185Y-79004480D01*
X106356819Y-78983838D01*
X116613838Y-68726819D01*
X116675161Y-68693334D01*
X116701519Y-68690500D01*
X119272996Y-68690500D01*
X119338968Y-68709506D01*
X119341171Y-68710890D01*
X119372310Y-68730456D01*
X119493621Y-68772904D01*
X119531943Y-68786314D01*
X119699997Y-68805249D01*
X119700000Y-68805249D01*
X119700003Y-68805249D01*
X119867406Y-68786387D01*
X119881290Y-68785607D01*
X121202876Y-68785607D01*
X121269915Y-68805292D01*
X121290557Y-68821925D01*
X121401344Y-68932712D01*
X121550666Y-69024814D01*
X121717203Y-69079999D01*
X121819991Y-69090500D01*
X122820008Y-69090499D01*
X122820016Y-69090498D01*
X122820019Y-69090498D01*
X122876302Y-69084748D01*
X122922797Y-69079999D01*
X123089334Y-69024814D01*
X123238656Y-68932712D01*
X123362712Y-68808656D01*
X123454814Y-68659334D01*
X123509999Y-68492797D01*
X123520500Y-68390009D01*
X123520499Y-67589992D01*
X123517715Y-67562743D01*
X123509999Y-67487203D01*
X123509998Y-67487200D01*
X123507611Y-67479998D01*
X123454814Y-67320666D01*
X123362712Y-67171344D01*
X123269049Y-67077681D01*
X123235564Y-67016358D01*
X123240548Y-66946666D01*
X123269049Y-66902319D01*
X123291368Y-66880000D01*
X123362712Y-66808656D01*
X123454814Y-66659334D01*
X123509999Y-66492797D01*
X123520500Y-66390009D01*
X123520499Y-65589992D01*
X123515391Y-65539992D01*
X123509999Y-65487203D01*
X123509998Y-65487200D01*
X123507611Y-65479998D01*
X123454814Y-65320666D01*
X123362712Y-65171344D01*
X123266819Y-65075451D01*
X123233334Y-65014128D01*
X123230500Y-64987770D01*
X123230500Y-64421155D01*
X123230499Y-64421153D01*
X123200173Y-64268691D01*
X123206400Y-64199100D01*
X123249263Y-64143922D01*
X123315153Y-64120678D01*
X123321790Y-64120500D01*
X131621729Y-64120500D01*
X131688768Y-64140185D01*
G37*
%TD.AperFunction*%
%TA.AperFunction,Conductor*%
G36*
X159176690Y-74164746D02*
G01*
X159177544Y-74163412D01*
X159183207Y-74167032D01*
X159353802Y-74251639D01*
X159353803Y-74251639D01*
X159353807Y-74251641D01*
X159538611Y-74297600D01*
X159581377Y-74300500D01*
X159668480Y-74300499D01*
X159735518Y-74320183D01*
X159756161Y-74336818D01*
X160883453Y-75464111D01*
X160883454Y-75464112D01*
X160998192Y-75540777D01*
X161125667Y-75593578D01*
X161125672Y-75593580D01*
X161125676Y-75593580D01*
X161125677Y-75593581D01*
X161261003Y-75620500D01*
X161261006Y-75620500D01*
X161261007Y-75620500D01*
X162567102Y-75620500D01*
X162608056Y-75627458D01*
X162661941Y-75646313D01*
X162661942Y-75646313D01*
X162661945Y-75646314D01*
X162829997Y-75665249D01*
X162830000Y-75665249D01*
X162830003Y-75665249D01*
X162998054Y-75646314D01*
X162998055Y-75646313D01*
X162998059Y-75646313D01*
X163051944Y-75627458D01*
X163092898Y-75620500D01*
X164873954Y-75620500D01*
X164940993Y-75640185D01*
X164986748Y-75692989D01*
X164996692Y-75762147D01*
X164987820Y-75788806D01*
X164989303Y-75789359D01*
X164935908Y-75932517D01*
X164929501Y-75992116D01*
X164929500Y-75992135D01*
X164929500Y-77387870D01*
X164929501Y-77387876D01*
X164935908Y-77447483D01*
X164977275Y-77558392D01*
X164982259Y-77628084D01*
X164975655Y-77649176D01*
X164941987Y-77730460D01*
X164941985Y-77730464D01*
X164904500Y-77918917D01*
X164904500Y-79161082D01*
X164941986Y-79349535D01*
X164941989Y-79349547D01*
X165015520Y-79527068D01*
X165015521Y-79527070D01*
X165122278Y-79686843D01*
X165122279Y-79686844D01*
X165122280Y-79686845D01*
X165143181Y-79707746D01*
X165176666Y-79769067D01*
X165179500Y-79795427D01*
X165179500Y-80471042D01*
X165159815Y-80538081D01*
X165120598Y-80576580D01*
X165111344Y-80582287D01*
X164987289Y-80706342D01*
X164895187Y-80855663D01*
X164895185Y-80855668D01*
X164883696Y-80890339D01*
X164840001Y-81022203D01*
X164840001Y-81022204D01*
X164840000Y-81022204D01*
X164829500Y-81124983D01*
X164829500Y-82175001D01*
X164829501Y-82175019D01*
X164840000Y-82277796D01*
X164840001Y-82277799D01*
X164895185Y-82444331D01*
X164895187Y-82444336D01*
X164917541Y-82480578D01*
X164987288Y-82593656D01*
X165111344Y-82717712D01*
X165158096Y-82746548D01*
X165204820Y-82798494D01*
X165217000Y-82852087D01*
X165217000Y-83028000D01*
X165197315Y-83095039D01*
X165144511Y-83140794D01*
X165093000Y-83152000D01*
X163048503Y-83152000D01*
X162940090Y-83173565D01*
X162940089Y-83173565D01*
X162913171Y-83178920D01*
X162785689Y-83231724D01*
X162670957Y-83308385D01*
X162670953Y-83308389D01*
X162570707Y-83408633D01*
X162523983Y-83437992D01*
X162420476Y-83474211D01*
X162420475Y-83474212D01*
X162267737Y-83570184D01*
X162140184Y-83697737D01*
X162044211Y-83850476D01*
X161984631Y-84020745D01*
X161984630Y-84020750D01*
X161964435Y-84199996D01*
X161964435Y-84200003D01*
X161984630Y-84379249D01*
X161984631Y-84379254D01*
X162044211Y-84549523D01*
X162095783Y-84631599D01*
X162140184Y-84702262D01*
X162267738Y-84829816D01*
X162420478Y-84925789D01*
X162523986Y-84962008D01*
X162570712Y-84991369D01*
X162654014Y-85074671D01*
X162687499Y-85135994D01*
X162682515Y-85205686D01*
X162640643Y-85261619D01*
X162631430Y-85267891D01*
X162551342Y-85317289D01*
X162427289Y-85441342D01*
X162335187Y-85590663D01*
X162335185Y-85590668D01*
X162322121Y-85630092D01*
X162280001Y-85757203D01*
X162280001Y-85757204D01*
X162280000Y-85757204D01*
X162269500Y-85859983D01*
X162269500Y-86660001D01*
X162269501Y-86660019D01*
X162280000Y-86762796D01*
X162280001Y-86762799D01*
X162335185Y-86929331D01*
X162335187Y-86929336D01*
X162370069Y-86985888D01*
X162425447Y-87075672D01*
X162427289Y-87078657D01*
X162520951Y-87172319D01*
X162554436Y-87233642D01*
X162549452Y-87303334D01*
X162520951Y-87347681D01*
X162427289Y-87441342D01*
X162335187Y-87590663D01*
X162335185Y-87590668D01*
X162321226Y-87632795D01*
X162280001Y-87757203D01*
X162280001Y-87757204D01*
X162280000Y-87757204D01*
X162269500Y-87859983D01*
X162269500Y-88660001D01*
X162269501Y-88660019D01*
X162280000Y-88762796D01*
X162280001Y-88762799D01*
X162335185Y-88929331D01*
X162335187Y-88929336D01*
X162353487Y-88959005D01*
X162427288Y-89078656D01*
X162551344Y-89202712D01*
X162700666Y-89294814D01*
X162700667Y-89294814D01*
X162706813Y-89298605D01*
X162705706Y-89300399D01*
X162750337Y-89339687D01*
X162769500Y-89405908D01*
X162769500Y-90071006D01*
X162769500Y-90208994D01*
X162769500Y-90208996D01*
X162769499Y-90208996D01*
X162796418Y-90344322D01*
X162796421Y-90344332D01*
X162849222Y-90471807D01*
X162925887Y-90586545D01*
X162947161Y-90607819D01*
X162980646Y-90669142D01*
X162975662Y-90738834D01*
X162933790Y-90794767D01*
X162868326Y-90819184D01*
X162859480Y-90819500D01*
X162505741Y-90819500D01*
X162475064Y-90814287D01*
X162474848Y-90815236D01*
X162468058Y-90813686D01*
X162300003Y-90794751D01*
X162299997Y-90794751D01*
X162131941Y-90813686D01*
X162050188Y-90842292D01*
X162041092Y-90844775D01*
X162035668Y-90846421D01*
X162024062Y-90851227D01*
X162017586Y-90853699D01*
X161972313Y-90869542D01*
X161972306Y-90869546D01*
X161966581Y-90873143D01*
X161948073Y-90882703D01*
X161908192Y-90899222D01*
X161908186Y-90899226D01*
X161793462Y-90975882D01*
X161793454Y-90975888D01*
X161695888Y-91073454D01*
X161695885Y-91073458D01*
X161619228Y-91188182D01*
X161619221Y-91188195D01*
X161566421Y-91315667D01*
X161566418Y-91315677D01*
X161539500Y-91451004D01*
X161539500Y-91588997D01*
X161560725Y-91695703D01*
X161562327Y-91706001D01*
X161563686Y-91718054D01*
X161563687Y-91718059D01*
X161587871Y-91787173D01*
X161619544Y-91877692D01*
X161658399Y-91939527D01*
X161677400Y-92006764D01*
X161657033Y-92073599D01*
X161603765Y-92118813D01*
X161553406Y-92129500D01*
X158673337Y-92129500D01*
X158606298Y-92109815D01*
X158560543Y-92057011D01*
X158550599Y-91987853D01*
X158579624Y-91924297D01*
X158585656Y-91917819D01*
X158631664Y-91871811D01*
X158683829Y-91819646D01*
X158799524Y-91660405D01*
X158888884Y-91485026D01*
X158949709Y-91297826D01*
X158954852Y-91265352D01*
X158980500Y-91103421D01*
X158980500Y-89866577D01*
X158949709Y-89672173D01*
X158936568Y-89631730D01*
X158930499Y-89593411D01*
X158930499Y-89589998D01*
X158930498Y-89589981D01*
X158919999Y-89487203D01*
X158919998Y-89487200D01*
X158893060Y-89405908D01*
X158864814Y-89320666D01*
X158772712Y-89171344D01*
X158648656Y-89047288D01*
X158645819Y-89045538D01*
X158644283Y-89043830D01*
X158642989Y-89042807D01*
X158643163Y-89042585D01*
X158599096Y-88993594D01*
X158587872Y-88924632D01*
X158615713Y-88860549D01*
X158645817Y-88834462D01*
X158648656Y-88832712D01*
X158772712Y-88708656D01*
X158864814Y-88559334D01*
X158919999Y-88392797D01*
X158930500Y-88290009D01*
X158930499Y-88286595D01*
X158936567Y-88248268D01*
X158949709Y-88207826D01*
X158961783Y-88131593D01*
X158980500Y-88013422D01*
X158980500Y-84511457D01*
X158982027Y-84492059D01*
X158983000Y-84485915D01*
X158983000Y-74264869D01*
X159002685Y-74197830D01*
X159055489Y-74152075D01*
X159124647Y-74142131D01*
X159176690Y-74164746D01*
G37*
%TD.AperFunction*%
%TA.AperFunction,Conductor*%
G36*
X172673332Y-79753745D02*
G01*
X172717682Y-79782247D01*
X172758151Y-79822717D01*
X172758154Y-79822719D01*
X172758155Y-79822720D01*
X172917927Y-79929477D01*
X172917928Y-79929477D01*
X172917929Y-79929478D01*
X172917931Y-79929479D01*
X173095452Y-80003010D01*
X173095457Y-80003012D01*
X173256272Y-80035000D01*
X173283917Y-80040499D01*
X173283920Y-80040500D01*
X173283922Y-80040500D01*
X173476080Y-80040500D01*
X173476081Y-80040499D01*
X173664543Y-80003012D01*
X173706217Y-79985749D01*
X173775685Y-79978281D01*
X173838164Y-80009556D01*
X173873817Y-80069644D01*
X173871324Y-80139470D01*
X173841350Y-80187992D01*
X173065888Y-80963453D01*
X173065887Y-80963454D01*
X172989223Y-81078192D01*
X172936421Y-81205668D01*
X172936418Y-81205680D01*
X172927607Y-81249976D01*
X172927607Y-81249977D01*
X172909500Y-81341004D01*
X172909500Y-81955201D01*
X172889815Y-82022240D01*
X172850598Y-82060739D01*
X172791344Y-82097287D01*
X172667289Y-82221342D01*
X172667288Y-82221344D01*
X172588762Y-82348657D01*
X172571395Y-82376813D01*
X172570273Y-82376121D01*
X172529140Y-82422842D01*
X172462926Y-82442000D01*
X172452088Y-82442000D01*
X172385049Y-82422315D01*
X172346549Y-82383097D01*
X172342673Y-82376813D01*
X172317712Y-82336344D01*
X172193656Y-82212288D01*
X172044334Y-82120186D01*
X171877797Y-82065001D01*
X171877795Y-82065000D01*
X171775010Y-82054500D01*
X170724998Y-82054500D01*
X170724980Y-82054501D01*
X170622203Y-82065000D01*
X170622200Y-82065001D01*
X170455668Y-82120185D01*
X170455663Y-82120187D01*
X170306342Y-82212289D01*
X170182289Y-82336342D01*
X170090187Y-82485663D01*
X170090185Y-82485668D01*
X170085920Y-82498539D01*
X170035001Y-82652203D01*
X170035001Y-82652204D01*
X170035000Y-82652204D01*
X170024500Y-82754983D01*
X170024500Y-83530001D01*
X170024501Y-83530019D01*
X170035000Y-83632796D01*
X170035001Y-83632799D01*
X170037393Y-83640016D01*
X170090186Y-83799334D01*
X170182288Y-83948656D01*
X170306344Y-84072712D01*
X170455666Y-84164814D01*
X170622203Y-84219999D01*
X170724991Y-84230500D01*
X171775008Y-84230499D01*
X171775016Y-84230498D01*
X171775019Y-84230498D01*
X171851747Y-84222660D01*
X171877797Y-84219999D01*
X172044334Y-84164814D01*
X172193656Y-84072712D01*
X172317712Y-83948656D01*
X172346549Y-83901902D01*
X172398497Y-83855179D01*
X172452088Y-83843000D01*
X172465257Y-83843000D01*
X172532296Y-83862685D01*
X172568980Y-83904676D01*
X172571395Y-83903187D01*
X172575185Y-83909331D01*
X172575186Y-83909334D01*
X172667288Y-84058656D01*
X172791344Y-84182712D01*
X172940666Y-84274814D01*
X173107203Y-84329999D01*
X173209991Y-84340500D01*
X174010008Y-84340499D01*
X174010016Y-84340498D01*
X174010019Y-84340498D01*
X174066302Y-84334748D01*
X174112797Y-84329999D01*
X174279334Y-84274814D01*
X174428656Y-84182712D01*
X174522321Y-84089046D01*
X174583640Y-84055564D01*
X174653332Y-84060548D01*
X174697680Y-84089048D01*
X174783182Y-84174550D01*
X174816666Y-84235871D01*
X174819500Y-84262230D01*
X174819500Y-85309551D01*
X174799815Y-85376590D01*
X174747011Y-85422345D01*
X174734507Y-85427256D01*
X174725667Y-85430185D01*
X174576342Y-85522289D01*
X174452289Y-85646342D01*
X174423451Y-85693097D01*
X174371503Y-85739821D01*
X174317912Y-85752000D01*
X174258504Y-85752000D01*
X174123177Y-85778918D01*
X174123167Y-85778921D01*
X173995692Y-85831722D01*
X173880954Y-85908387D01*
X172955887Y-86833454D01*
X172879222Y-86948192D01*
X172826421Y-87075667D01*
X172826418Y-87075679D01*
X172806215Y-87177249D01*
X172806215Y-87177252D01*
X172799500Y-87211006D01*
X172799500Y-90735500D01*
X172779815Y-90802539D01*
X172727011Y-90848294D01*
X172675500Y-90859500D01*
X165310517Y-90859500D01*
X165243478Y-90839815D01*
X165197723Y-90787011D01*
X165187779Y-90717853D01*
X165216804Y-90654297D01*
X165222836Y-90647819D01*
X165414483Y-90456172D01*
X165609599Y-90261055D01*
X165670920Y-90227572D01*
X165709877Y-90225380D01*
X165759991Y-90230500D01*
X166760008Y-90230499D01*
X166760016Y-90230498D01*
X166760019Y-90230498D01*
X166837129Y-90222621D01*
X166862797Y-90219999D01*
X167029334Y-90164814D01*
X167178656Y-90072712D01*
X167302712Y-89948656D01*
X167394814Y-89799334D01*
X167449999Y-89632797D01*
X167460500Y-89530009D01*
X167460499Y-88729992D01*
X167449999Y-88627203D01*
X167394814Y-88460666D01*
X167302712Y-88311344D01*
X167209049Y-88217681D01*
X167175564Y-88156358D01*
X167180548Y-88086666D01*
X167209049Y-88042319D01*
X167249731Y-88001637D01*
X167302712Y-87948656D01*
X167394814Y-87799334D01*
X167449999Y-87632797D01*
X167460500Y-87530009D01*
X167460499Y-86729992D01*
X167449999Y-86627203D01*
X167394814Y-86460666D01*
X167302712Y-86311344D01*
X167178656Y-86187288D01*
X167029334Y-86095186D01*
X167029332Y-86095185D01*
X167023187Y-86091395D01*
X167024290Y-86089605D01*
X166979649Y-86050290D01*
X166960500Y-85984091D01*
X166960500Y-85511519D01*
X166980185Y-85444480D01*
X166996819Y-85423838D01*
X167804112Y-84616545D01*
X167804114Y-84616543D01*
X167880775Y-84501811D01*
X167884815Y-84492059D01*
X167918804Y-84410000D01*
X167933580Y-84374328D01*
X167960500Y-84238994D01*
X167960500Y-84101006D01*
X167960500Y-82736478D01*
X167980185Y-82669439D01*
X168032989Y-82623684D01*
X168102147Y-82613740D01*
X168123499Y-82618771D01*
X168127203Y-82619999D01*
X168229991Y-82630500D01*
X169230008Y-82630499D01*
X169230016Y-82630498D01*
X169230019Y-82630498D01*
X169296723Y-82623684D01*
X169332797Y-82619999D01*
X169499334Y-82564814D01*
X169648656Y-82472712D01*
X169772712Y-82348656D01*
X169864814Y-82199334D01*
X169919999Y-82032797D01*
X169930500Y-81930009D01*
X169930499Y-81129992D01*
X169930493Y-81129936D01*
X169919999Y-81027203D01*
X169919998Y-81027200D01*
X169918342Y-81022203D01*
X169864814Y-80860666D01*
X169772712Y-80711344D01*
X169648656Y-80587288D01*
X169499334Y-80495186D01*
X169499332Y-80495185D01*
X169493187Y-80491395D01*
X169494290Y-80489605D01*
X169449649Y-80450290D01*
X169430500Y-80384091D01*
X169430500Y-79936670D01*
X169450185Y-79869631D01*
X169485610Y-79833567D01*
X169501845Y-79822720D01*
X169542318Y-79782247D01*
X169603641Y-79748761D01*
X169673332Y-79753745D01*
X169717682Y-79782247D01*
X169758151Y-79822717D01*
X169758154Y-79822719D01*
X169758155Y-79822720D01*
X169917927Y-79929477D01*
X169917928Y-79929477D01*
X169917929Y-79929478D01*
X169917931Y-79929479D01*
X170095452Y-80003010D01*
X170095457Y-80003012D01*
X170256272Y-80035000D01*
X170283917Y-80040499D01*
X170283920Y-80040500D01*
X170283922Y-80040500D01*
X170476080Y-80040500D01*
X170476081Y-80040499D01*
X170664543Y-80003012D01*
X170842073Y-79929477D01*
X171001845Y-79822720D01*
X171042318Y-79782247D01*
X171103641Y-79748761D01*
X171173332Y-79753745D01*
X171217682Y-79782247D01*
X171258151Y-79822717D01*
X171258154Y-79822719D01*
X171258155Y-79822720D01*
X171417927Y-79929477D01*
X171417928Y-79929477D01*
X171417929Y-79929478D01*
X171417931Y-79929479D01*
X171595452Y-80003010D01*
X171595457Y-80003012D01*
X171756272Y-80035000D01*
X171783917Y-80040499D01*
X171783920Y-80040500D01*
X171783922Y-80040500D01*
X171976080Y-80040500D01*
X171976081Y-80040499D01*
X172164543Y-80003012D01*
X172342073Y-79929477D01*
X172501845Y-79822720D01*
X172542318Y-79782247D01*
X172603641Y-79748761D01*
X172673332Y-79753745D01*
G37*
%TD.AperFunction*%
%TA.AperFunction,Conductor*%
G36*
X121605249Y-64140185D02*
G01*
X121651004Y-64192989D01*
X121660948Y-64262147D01*
X121659827Y-64268691D01*
X121629500Y-64421153D01*
X121629500Y-64839522D01*
X121609815Y-64906561D01*
X121557011Y-64952316D01*
X121555804Y-64952789D01*
X121550669Y-64955184D01*
X121401342Y-65047289D01*
X121277289Y-65171342D01*
X121185187Y-65320663D01*
X121185185Y-65320668D01*
X121178334Y-65341344D01*
X121130001Y-65487203D01*
X121130001Y-65487204D01*
X121130000Y-65487204D01*
X121119500Y-65589983D01*
X121119500Y-66390001D01*
X121119501Y-66390019D01*
X121130000Y-66492796D01*
X121130001Y-66492799D01*
X121185185Y-66659331D01*
X121185187Y-66659336D01*
X121205202Y-66691785D01*
X121267507Y-66792799D01*
X121277289Y-66808657D01*
X121370951Y-66902319D01*
X121404436Y-66963642D01*
X121399452Y-67033334D01*
X121370951Y-67077681D01*
X121277289Y-67171342D01*
X121271581Y-67180597D01*
X121241407Y-67229518D01*
X121240741Y-67230597D01*
X121188793Y-67277321D01*
X121135202Y-67289500D01*
X116291004Y-67289500D01*
X116155677Y-67316418D01*
X116155667Y-67316421D01*
X116028192Y-67369222D01*
X115913454Y-67445887D01*
X113120526Y-70238815D01*
X113059203Y-70272300D01*
X112989511Y-70267316D01*
X112933578Y-70225444D01*
X112909161Y-70159980D01*
X112918283Y-70103683D01*
X112963580Y-69994328D01*
X112979310Y-69915249D01*
X112990500Y-69858996D01*
X112990500Y-69025908D01*
X113010185Y-68958869D01*
X113054271Y-68920363D01*
X113053187Y-68918605D01*
X113059332Y-68914814D01*
X113059334Y-68914814D01*
X113208656Y-68822712D01*
X113332712Y-68698656D01*
X113424814Y-68549334D01*
X113479999Y-68382797D01*
X113490500Y-68280009D01*
X113490499Y-67479992D01*
X113490351Y-67478548D01*
X113479999Y-67377203D01*
X113479998Y-67377200D01*
X113476775Y-67367475D01*
X113424814Y-67210666D01*
X113332712Y-67061344D01*
X113239049Y-66967681D01*
X113205564Y-66906358D01*
X113210548Y-66836666D01*
X113239049Y-66792319D01*
X113272712Y-66758656D01*
X113332712Y-66698656D01*
X113424814Y-66549334D01*
X113479999Y-66382797D01*
X113490500Y-66280009D01*
X113490499Y-65479992D01*
X113489615Y-65471342D01*
X113479999Y-65377203D01*
X113479998Y-65377200D01*
X113457634Y-65309711D01*
X113424814Y-65210666D01*
X113332712Y-65061344D01*
X113208656Y-64937288D01*
X113104402Y-64872984D01*
X113057679Y-64821037D01*
X113045500Y-64767446D01*
X113045500Y-64741155D01*
X113045499Y-64741153D01*
X113032694Y-64676777D01*
X113014737Y-64586503D01*
X112983530Y-64511161D01*
X112954397Y-64440827D01*
X112954390Y-64440814D01*
X112869248Y-64313391D01*
X112848370Y-64246714D01*
X112866854Y-64179334D01*
X112918833Y-64132643D01*
X112972350Y-64120500D01*
X121538210Y-64120500D01*
X121605249Y-64140185D01*
G37*
%TD.AperFunction*%
%TD*%
M02*
