%TF.GenerationSoftware,KiCad,Pcbnew,8.0.4*%
%TF.CreationDate,2025-06-08T15:43:56+10:00*%
%TF.ProjectId,USBPowerBlock,55534250-6f77-4657-9242-6c6f636b2e6b,rev?*%
%TF.SameCoordinates,Original*%
%TF.FileFunction,Drillmap*%
%TF.FilePolarity,Positive*%
%FSLAX45Y45*%
G04 Gerber Fmt 4.5, Leading zero omitted, Abs format (unit mm)*
G04 Created by KiCad (PCBNEW 8.0.4) date 2025-06-08 15:43:56*
%MOMM*%
%LPD*%
G01*
G04 APERTURE LIST*
%ADD10C,0.050000*%
%ADD11C,0.200000*%
%ADD12C,0.320000*%
G04 APERTURE END LIST*
D10*
X10058000Y-6362000D02*
X18403000Y-6362000D01*
X18403000Y-9994000D01*
X10058000Y-9994000D01*
X10058000Y-6362000D01*
D11*
D12*
X10159000Y-6474000D02*
X10479000Y-6794000D01*
X10479000Y-6474000D02*
X10159000Y-6794000D01*
X10229000Y-9588000D02*
X10549000Y-9908000D01*
X10549000Y-9588000D02*
X10229000Y-9908000D01*
X15741000Y-9584000D02*
X16061000Y-9904000D01*
X16061000Y-9584000D02*
X15741000Y-9904000D01*
X17142000Y-6473000D02*
X17462000Y-6793000D01*
X17462000Y-6473000D02*
X17142000Y-6793000D01*
D11*
X10316277Y-10307984D02*
X10316277Y-10107984D01*
X10316277Y-10107984D02*
X10363896Y-10107984D01*
X10363896Y-10107984D02*
X10392467Y-10117508D01*
X10392467Y-10117508D02*
X10411515Y-10136555D01*
X10411515Y-10136555D02*
X10421039Y-10155603D01*
X10421039Y-10155603D02*
X10430563Y-10193698D01*
X10430563Y-10193698D02*
X10430563Y-10222270D01*
X10430563Y-10222270D02*
X10421039Y-10260365D01*
X10421039Y-10260365D02*
X10411515Y-10279412D01*
X10411515Y-10279412D02*
X10392467Y-10298460D01*
X10392467Y-10298460D02*
X10363896Y-10307984D01*
X10363896Y-10307984D02*
X10316277Y-10307984D01*
X10516277Y-10307984D02*
X10516277Y-10174650D01*
X10516277Y-10212746D02*
X10525801Y-10193698D01*
X10525801Y-10193698D02*
X10535324Y-10184174D01*
X10535324Y-10184174D02*
X10554372Y-10174650D01*
X10554372Y-10174650D02*
X10573420Y-10174650D01*
X10640086Y-10307984D02*
X10640086Y-10174650D01*
X10640086Y-10107984D02*
X10630563Y-10117508D01*
X10630563Y-10117508D02*
X10640086Y-10127031D01*
X10640086Y-10127031D02*
X10649610Y-10117508D01*
X10649610Y-10117508D02*
X10640086Y-10107984D01*
X10640086Y-10107984D02*
X10640086Y-10127031D01*
X10763896Y-10307984D02*
X10744848Y-10298460D01*
X10744848Y-10298460D02*
X10735324Y-10279412D01*
X10735324Y-10279412D02*
X10735324Y-10107984D01*
X10868658Y-10307984D02*
X10849610Y-10298460D01*
X10849610Y-10298460D02*
X10840086Y-10279412D01*
X10840086Y-10279412D02*
X10840086Y-10107984D01*
X11097229Y-10307984D02*
X11097229Y-10107984D01*
X11097229Y-10107984D02*
X11163896Y-10250841D01*
X11163896Y-10250841D02*
X11230562Y-10107984D01*
X11230562Y-10107984D02*
X11230562Y-10307984D01*
X11411515Y-10307984D02*
X11411515Y-10203222D01*
X11411515Y-10203222D02*
X11401991Y-10184174D01*
X11401991Y-10184174D02*
X11382943Y-10174650D01*
X11382943Y-10174650D02*
X11344848Y-10174650D01*
X11344848Y-10174650D02*
X11325801Y-10184174D01*
X11411515Y-10298460D02*
X11392467Y-10307984D01*
X11392467Y-10307984D02*
X11344848Y-10307984D01*
X11344848Y-10307984D02*
X11325801Y-10298460D01*
X11325801Y-10298460D02*
X11316277Y-10279412D01*
X11316277Y-10279412D02*
X11316277Y-10260365D01*
X11316277Y-10260365D02*
X11325801Y-10241317D01*
X11325801Y-10241317D02*
X11344848Y-10231793D01*
X11344848Y-10231793D02*
X11392467Y-10231793D01*
X11392467Y-10231793D02*
X11411515Y-10222270D01*
X11506753Y-10174650D02*
X11506753Y-10374650D01*
X11506753Y-10184174D02*
X11525801Y-10174650D01*
X11525801Y-10174650D02*
X11563896Y-10174650D01*
X11563896Y-10174650D02*
X11582943Y-10184174D01*
X11582943Y-10184174D02*
X11592467Y-10193698D01*
X11592467Y-10193698D02*
X11601991Y-10212746D01*
X11601991Y-10212746D02*
X11601991Y-10269889D01*
X11601991Y-10269889D02*
X11592467Y-10288936D01*
X11592467Y-10288936D02*
X11582943Y-10298460D01*
X11582943Y-10298460D02*
X11563896Y-10307984D01*
X11563896Y-10307984D02*
X11525801Y-10307984D01*
X11525801Y-10307984D02*
X11506753Y-10298460D01*
X11687705Y-10288936D02*
X11697229Y-10298460D01*
X11697229Y-10298460D02*
X11687705Y-10307984D01*
X11687705Y-10307984D02*
X11678182Y-10298460D01*
X11678182Y-10298460D02*
X11687705Y-10288936D01*
X11687705Y-10288936D02*
X11687705Y-10307984D01*
X11687705Y-10184174D02*
X11697229Y-10193698D01*
X11697229Y-10193698D02*
X11687705Y-10203222D01*
X11687705Y-10203222D02*
X11678182Y-10193698D01*
X11678182Y-10193698D02*
X11687705Y-10184174D01*
X11687705Y-10184174D02*
X11687705Y-10203222D01*
X9855500Y-10536500D02*
X10055500Y-10736500D01*
X10055500Y-10536500D02*
X9855500Y-10736500D01*
X10297229Y-10527984D02*
X10421039Y-10527984D01*
X10421039Y-10527984D02*
X10354372Y-10604174D01*
X10354372Y-10604174D02*
X10382944Y-10604174D01*
X10382944Y-10604174D02*
X10401991Y-10613698D01*
X10401991Y-10613698D02*
X10411515Y-10623222D01*
X10411515Y-10623222D02*
X10421039Y-10642270D01*
X10421039Y-10642270D02*
X10421039Y-10689889D01*
X10421039Y-10689889D02*
X10411515Y-10708936D01*
X10411515Y-10708936D02*
X10401991Y-10718460D01*
X10401991Y-10718460D02*
X10382944Y-10727984D01*
X10382944Y-10727984D02*
X10325801Y-10727984D01*
X10325801Y-10727984D02*
X10306753Y-10718460D01*
X10306753Y-10718460D02*
X10297229Y-10708936D01*
X10506753Y-10708936D02*
X10516277Y-10718460D01*
X10516277Y-10718460D02*
X10506753Y-10727984D01*
X10506753Y-10727984D02*
X10497229Y-10718460D01*
X10497229Y-10718460D02*
X10506753Y-10708936D01*
X10506753Y-10708936D02*
X10506753Y-10727984D01*
X10592467Y-10547031D02*
X10601991Y-10537508D01*
X10601991Y-10537508D02*
X10621039Y-10527984D01*
X10621039Y-10527984D02*
X10668658Y-10527984D01*
X10668658Y-10527984D02*
X10687705Y-10537508D01*
X10687705Y-10537508D02*
X10697229Y-10547031D01*
X10697229Y-10547031D02*
X10706753Y-10566079D01*
X10706753Y-10566079D02*
X10706753Y-10585127D01*
X10706753Y-10585127D02*
X10697229Y-10613698D01*
X10697229Y-10613698D02*
X10582944Y-10727984D01*
X10582944Y-10727984D02*
X10706753Y-10727984D01*
X10830563Y-10527984D02*
X10849610Y-10527984D01*
X10849610Y-10527984D02*
X10868658Y-10537508D01*
X10868658Y-10537508D02*
X10878182Y-10547031D01*
X10878182Y-10547031D02*
X10887705Y-10566079D01*
X10887705Y-10566079D02*
X10897229Y-10604174D01*
X10897229Y-10604174D02*
X10897229Y-10651793D01*
X10897229Y-10651793D02*
X10887705Y-10689889D01*
X10887705Y-10689889D02*
X10878182Y-10708936D01*
X10878182Y-10708936D02*
X10868658Y-10718460D01*
X10868658Y-10718460D02*
X10849610Y-10727984D01*
X10849610Y-10727984D02*
X10830563Y-10727984D01*
X10830563Y-10727984D02*
X10811515Y-10718460D01*
X10811515Y-10718460D02*
X10801991Y-10708936D01*
X10801991Y-10708936D02*
X10792467Y-10689889D01*
X10792467Y-10689889D02*
X10782944Y-10651793D01*
X10782944Y-10651793D02*
X10782944Y-10604174D01*
X10782944Y-10604174D02*
X10792467Y-10566079D01*
X10792467Y-10566079D02*
X10801991Y-10547031D01*
X10801991Y-10547031D02*
X10811515Y-10537508D01*
X10811515Y-10537508D02*
X10830563Y-10527984D01*
X11021039Y-10527984D02*
X11040086Y-10527984D01*
X11040086Y-10527984D02*
X11059134Y-10537508D01*
X11059134Y-10537508D02*
X11068658Y-10547031D01*
X11068658Y-10547031D02*
X11078182Y-10566079D01*
X11078182Y-10566079D02*
X11087705Y-10604174D01*
X11087705Y-10604174D02*
X11087705Y-10651793D01*
X11087705Y-10651793D02*
X11078182Y-10689889D01*
X11078182Y-10689889D02*
X11068658Y-10708936D01*
X11068658Y-10708936D02*
X11059134Y-10718460D01*
X11059134Y-10718460D02*
X11040086Y-10727984D01*
X11040086Y-10727984D02*
X11021039Y-10727984D01*
X11021039Y-10727984D02*
X11001991Y-10718460D01*
X11001991Y-10718460D02*
X10992467Y-10708936D01*
X10992467Y-10708936D02*
X10982944Y-10689889D01*
X10982944Y-10689889D02*
X10973420Y-10651793D01*
X10973420Y-10651793D02*
X10973420Y-10604174D01*
X10973420Y-10604174D02*
X10982944Y-10566079D01*
X10982944Y-10566079D02*
X10992467Y-10547031D01*
X10992467Y-10547031D02*
X11001991Y-10537508D01*
X11001991Y-10537508D02*
X11021039Y-10527984D01*
X11173420Y-10727984D02*
X11173420Y-10594650D01*
X11173420Y-10613698D02*
X11182944Y-10604174D01*
X11182944Y-10604174D02*
X11201991Y-10594650D01*
X11201991Y-10594650D02*
X11230563Y-10594650D01*
X11230563Y-10594650D02*
X11249610Y-10604174D01*
X11249610Y-10604174D02*
X11259134Y-10623222D01*
X11259134Y-10623222D02*
X11259134Y-10727984D01*
X11259134Y-10623222D02*
X11268658Y-10604174D01*
X11268658Y-10604174D02*
X11287705Y-10594650D01*
X11287705Y-10594650D02*
X11316277Y-10594650D01*
X11316277Y-10594650D02*
X11335324Y-10604174D01*
X11335324Y-10604174D02*
X11344848Y-10623222D01*
X11344848Y-10623222D02*
X11344848Y-10727984D01*
X11440086Y-10727984D02*
X11440086Y-10594650D01*
X11440086Y-10613698D02*
X11449610Y-10604174D01*
X11449610Y-10604174D02*
X11468658Y-10594650D01*
X11468658Y-10594650D02*
X11497229Y-10594650D01*
X11497229Y-10594650D02*
X11516277Y-10604174D01*
X11516277Y-10604174D02*
X11525801Y-10623222D01*
X11525801Y-10623222D02*
X11525801Y-10727984D01*
X11525801Y-10623222D02*
X11535324Y-10604174D01*
X11535324Y-10604174D02*
X11554372Y-10594650D01*
X11554372Y-10594650D02*
X11582943Y-10594650D01*
X11582943Y-10594650D02*
X11601991Y-10604174D01*
X11601991Y-10604174D02*
X11611515Y-10623222D01*
X11611515Y-10623222D02*
X11611515Y-10727984D01*
X12001991Y-10518460D02*
X11830563Y-10775603D01*
X12259134Y-10527984D02*
X12278182Y-10527984D01*
X12278182Y-10527984D02*
X12297229Y-10537508D01*
X12297229Y-10537508D02*
X12306753Y-10547031D01*
X12306753Y-10547031D02*
X12316277Y-10566079D01*
X12316277Y-10566079D02*
X12325801Y-10604174D01*
X12325801Y-10604174D02*
X12325801Y-10651793D01*
X12325801Y-10651793D02*
X12316277Y-10689889D01*
X12316277Y-10689889D02*
X12306753Y-10708936D01*
X12306753Y-10708936D02*
X12297229Y-10718460D01*
X12297229Y-10718460D02*
X12278182Y-10727984D01*
X12278182Y-10727984D02*
X12259134Y-10727984D01*
X12259134Y-10727984D02*
X12240086Y-10718460D01*
X12240086Y-10718460D02*
X12230563Y-10708936D01*
X12230563Y-10708936D02*
X12221039Y-10689889D01*
X12221039Y-10689889D02*
X12211515Y-10651793D01*
X12211515Y-10651793D02*
X12211515Y-10604174D01*
X12211515Y-10604174D02*
X12221039Y-10566079D01*
X12221039Y-10566079D02*
X12230563Y-10547031D01*
X12230563Y-10547031D02*
X12240086Y-10537508D01*
X12240086Y-10537508D02*
X12259134Y-10527984D01*
X12411515Y-10708936D02*
X12421039Y-10718460D01*
X12421039Y-10718460D02*
X12411515Y-10727984D01*
X12411515Y-10727984D02*
X12401991Y-10718460D01*
X12401991Y-10718460D02*
X12411515Y-10708936D01*
X12411515Y-10708936D02*
X12411515Y-10727984D01*
X12611515Y-10727984D02*
X12497229Y-10727984D01*
X12554372Y-10727984D02*
X12554372Y-10527984D01*
X12554372Y-10527984D02*
X12535325Y-10556555D01*
X12535325Y-10556555D02*
X12516277Y-10575603D01*
X12516277Y-10575603D02*
X12497229Y-10585127D01*
X12687706Y-10547031D02*
X12697229Y-10537508D01*
X12697229Y-10537508D02*
X12716277Y-10527984D01*
X12716277Y-10527984D02*
X12763896Y-10527984D01*
X12763896Y-10527984D02*
X12782944Y-10537508D01*
X12782944Y-10537508D02*
X12792467Y-10547031D01*
X12792467Y-10547031D02*
X12801991Y-10566079D01*
X12801991Y-10566079D02*
X12801991Y-10585127D01*
X12801991Y-10585127D02*
X12792467Y-10613698D01*
X12792467Y-10613698D02*
X12678182Y-10727984D01*
X12678182Y-10727984D02*
X12801991Y-10727984D01*
X12973420Y-10527984D02*
X12935325Y-10527984D01*
X12935325Y-10527984D02*
X12916277Y-10537508D01*
X12916277Y-10537508D02*
X12906753Y-10547031D01*
X12906753Y-10547031D02*
X12887706Y-10575603D01*
X12887706Y-10575603D02*
X12878182Y-10613698D01*
X12878182Y-10613698D02*
X12878182Y-10689889D01*
X12878182Y-10689889D02*
X12887706Y-10708936D01*
X12887706Y-10708936D02*
X12897229Y-10718460D01*
X12897229Y-10718460D02*
X12916277Y-10727984D01*
X12916277Y-10727984D02*
X12954372Y-10727984D01*
X12954372Y-10727984D02*
X12973420Y-10718460D01*
X12973420Y-10718460D02*
X12982944Y-10708936D01*
X12982944Y-10708936D02*
X12992467Y-10689889D01*
X12992467Y-10689889D02*
X12992467Y-10642270D01*
X12992467Y-10642270D02*
X12982944Y-10623222D01*
X12982944Y-10623222D02*
X12973420Y-10613698D01*
X12973420Y-10613698D02*
X12954372Y-10604174D01*
X12954372Y-10604174D02*
X12916277Y-10604174D01*
X12916277Y-10604174D02*
X12897229Y-10613698D01*
X12897229Y-10613698D02*
X12887706Y-10623222D01*
X12887706Y-10623222D02*
X12878182Y-10642270D01*
X13116277Y-10527984D02*
X13135325Y-10527984D01*
X13135325Y-10527984D02*
X13154372Y-10537508D01*
X13154372Y-10537508D02*
X13163896Y-10547031D01*
X13163896Y-10547031D02*
X13173420Y-10566079D01*
X13173420Y-10566079D02*
X13182944Y-10604174D01*
X13182944Y-10604174D02*
X13182944Y-10651793D01*
X13182944Y-10651793D02*
X13173420Y-10689889D01*
X13173420Y-10689889D02*
X13163896Y-10708936D01*
X13163896Y-10708936D02*
X13154372Y-10718460D01*
X13154372Y-10718460D02*
X13135325Y-10727984D01*
X13135325Y-10727984D02*
X13116277Y-10727984D01*
X13116277Y-10727984D02*
X13097229Y-10718460D01*
X13097229Y-10718460D02*
X13087706Y-10708936D01*
X13087706Y-10708936D02*
X13078182Y-10689889D01*
X13078182Y-10689889D02*
X13068658Y-10651793D01*
X13068658Y-10651793D02*
X13068658Y-10604174D01*
X13068658Y-10604174D02*
X13078182Y-10566079D01*
X13078182Y-10566079D02*
X13087706Y-10547031D01*
X13087706Y-10547031D02*
X13097229Y-10537508D01*
X13097229Y-10537508D02*
X13116277Y-10527984D01*
X13259134Y-10527984D02*
X13259134Y-10566079D01*
X13335325Y-10527984D02*
X13335325Y-10566079D01*
X13630563Y-10804174D02*
X13621039Y-10794650D01*
X13621039Y-10794650D02*
X13601991Y-10766079D01*
X13601991Y-10766079D02*
X13592468Y-10747031D01*
X13592468Y-10747031D02*
X13582944Y-10718460D01*
X13582944Y-10718460D02*
X13573420Y-10670841D01*
X13573420Y-10670841D02*
X13573420Y-10632746D01*
X13573420Y-10632746D02*
X13582944Y-10585127D01*
X13582944Y-10585127D02*
X13592468Y-10556555D01*
X13592468Y-10556555D02*
X13601991Y-10537508D01*
X13601991Y-10537508D02*
X13621039Y-10508936D01*
X13621039Y-10508936D02*
X13630563Y-10499412D01*
X13792468Y-10594650D02*
X13792468Y-10727984D01*
X13744848Y-10518460D02*
X13697229Y-10661317D01*
X13697229Y-10661317D02*
X13821039Y-10661317D01*
X14049610Y-10727984D02*
X14049610Y-10527984D01*
X14135325Y-10727984D02*
X14135325Y-10623222D01*
X14135325Y-10623222D02*
X14125801Y-10604174D01*
X14125801Y-10604174D02*
X14106753Y-10594650D01*
X14106753Y-10594650D02*
X14078182Y-10594650D01*
X14078182Y-10594650D02*
X14059134Y-10604174D01*
X14059134Y-10604174D02*
X14049610Y-10613698D01*
X14259134Y-10727984D02*
X14240087Y-10718460D01*
X14240087Y-10718460D02*
X14230563Y-10708936D01*
X14230563Y-10708936D02*
X14221039Y-10689889D01*
X14221039Y-10689889D02*
X14221039Y-10632746D01*
X14221039Y-10632746D02*
X14230563Y-10613698D01*
X14230563Y-10613698D02*
X14240087Y-10604174D01*
X14240087Y-10604174D02*
X14259134Y-10594650D01*
X14259134Y-10594650D02*
X14287706Y-10594650D01*
X14287706Y-10594650D02*
X14306753Y-10604174D01*
X14306753Y-10604174D02*
X14316277Y-10613698D01*
X14316277Y-10613698D02*
X14325801Y-10632746D01*
X14325801Y-10632746D02*
X14325801Y-10689889D01*
X14325801Y-10689889D02*
X14316277Y-10708936D01*
X14316277Y-10708936D02*
X14306753Y-10718460D01*
X14306753Y-10718460D02*
X14287706Y-10727984D01*
X14287706Y-10727984D02*
X14259134Y-10727984D01*
X14440087Y-10727984D02*
X14421039Y-10718460D01*
X14421039Y-10718460D02*
X14411515Y-10699412D01*
X14411515Y-10699412D02*
X14411515Y-10527984D01*
X14592468Y-10718460D02*
X14573420Y-10727984D01*
X14573420Y-10727984D02*
X14535325Y-10727984D01*
X14535325Y-10727984D02*
X14516277Y-10718460D01*
X14516277Y-10718460D02*
X14506753Y-10699412D01*
X14506753Y-10699412D02*
X14506753Y-10623222D01*
X14506753Y-10623222D02*
X14516277Y-10604174D01*
X14516277Y-10604174D02*
X14535325Y-10594650D01*
X14535325Y-10594650D02*
X14573420Y-10594650D01*
X14573420Y-10594650D02*
X14592468Y-10604174D01*
X14592468Y-10604174D02*
X14601991Y-10623222D01*
X14601991Y-10623222D02*
X14601991Y-10642270D01*
X14601991Y-10642270D02*
X14506753Y-10661317D01*
X14678182Y-10718460D02*
X14697230Y-10727984D01*
X14697230Y-10727984D02*
X14735325Y-10727984D01*
X14735325Y-10727984D02*
X14754372Y-10718460D01*
X14754372Y-10718460D02*
X14763896Y-10699412D01*
X14763896Y-10699412D02*
X14763896Y-10689889D01*
X14763896Y-10689889D02*
X14754372Y-10670841D01*
X14754372Y-10670841D02*
X14735325Y-10661317D01*
X14735325Y-10661317D02*
X14706753Y-10661317D01*
X14706753Y-10661317D02*
X14687706Y-10651793D01*
X14687706Y-10651793D02*
X14678182Y-10632746D01*
X14678182Y-10632746D02*
X14678182Y-10623222D01*
X14678182Y-10623222D02*
X14687706Y-10604174D01*
X14687706Y-10604174D02*
X14706753Y-10594650D01*
X14706753Y-10594650D02*
X14735325Y-10594650D01*
X14735325Y-10594650D02*
X14754372Y-10604174D01*
X14830563Y-10804174D02*
X14840087Y-10794650D01*
X14840087Y-10794650D02*
X14859134Y-10766079D01*
X14859134Y-10766079D02*
X14868658Y-10747031D01*
X14868658Y-10747031D02*
X14878182Y-10718460D01*
X14878182Y-10718460D02*
X14887706Y-10670841D01*
X14887706Y-10670841D02*
X14887706Y-10632746D01*
X14887706Y-10632746D02*
X14878182Y-10585127D01*
X14878182Y-10585127D02*
X14868658Y-10556555D01*
X14868658Y-10556555D02*
X14859134Y-10537508D01*
X14859134Y-10537508D02*
X14840087Y-10508936D01*
X14840087Y-10508936D02*
X14830563Y-10499412D01*
X15192468Y-10804174D02*
X15182944Y-10794650D01*
X15182944Y-10794650D02*
X15163896Y-10766079D01*
X15163896Y-10766079D02*
X15154372Y-10747031D01*
X15154372Y-10747031D02*
X15144849Y-10718460D01*
X15144849Y-10718460D02*
X15135325Y-10670841D01*
X15135325Y-10670841D02*
X15135325Y-10632746D01*
X15135325Y-10632746D02*
X15144849Y-10585127D01*
X15144849Y-10585127D02*
X15154372Y-10556555D01*
X15154372Y-10556555D02*
X15163896Y-10537508D01*
X15163896Y-10537508D02*
X15182944Y-10508936D01*
X15182944Y-10508936D02*
X15192468Y-10499412D01*
X15268658Y-10594650D02*
X15268658Y-10727984D01*
X15268658Y-10613698D02*
X15278182Y-10604174D01*
X15278182Y-10604174D02*
X15297230Y-10594650D01*
X15297230Y-10594650D02*
X15325801Y-10594650D01*
X15325801Y-10594650D02*
X15344849Y-10604174D01*
X15344849Y-10604174D02*
X15354372Y-10623222D01*
X15354372Y-10623222D02*
X15354372Y-10727984D01*
X15478182Y-10727984D02*
X15459134Y-10718460D01*
X15459134Y-10718460D02*
X15449611Y-10708936D01*
X15449611Y-10708936D02*
X15440087Y-10689889D01*
X15440087Y-10689889D02*
X15440087Y-10632746D01*
X15440087Y-10632746D02*
X15449611Y-10613698D01*
X15449611Y-10613698D02*
X15459134Y-10604174D01*
X15459134Y-10604174D02*
X15478182Y-10594650D01*
X15478182Y-10594650D02*
X15506753Y-10594650D01*
X15506753Y-10594650D02*
X15525801Y-10604174D01*
X15525801Y-10604174D02*
X15535325Y-10613698D01*
X15535325Y-10613698D02*
X15544849Y-10632746D01*
X15544849Y-10632746D02*
X15544849Y-10689889D01*
X15544849Y-10689889D02*
X15535325Y-10708936D01*
X15535325Y-10708936D02*
X15525801Y-10718460D01*
X15525801Y-10718460D02*
X15506753Y-10727984D01*
X15506753Y-10727984D02*
X15478182Y-10727984D01*
X15601992Y-10594650D02*
X15678182Y-10594650D01*
X15630563Y-10527984D02*
X15630563Y-10699412D01*
X15630563Y-10699412D02*
X15640087Y-10718460D01*
X15640087Y-10718460D02*
X15659134Y-10727984D01*
X15659134Y-10727984D02*
X15678182Y-10727984D01*
X15897230Y-10594650D02*
X15897230Y-10794650D01*
X15897230Y-10604174D02*
X15916277Y-10594650D01*
X15916277Y-10594650D02*
X15954373Y-10594650D01*
X15954373Y-10594650D02*
X15973420Y-10604174D01*
X15973420Y-10604174D02*
X15982944Y-10613698D01*
X15982944Y-10613698D02*
X15992468Y-10632746D01*
X15992468Y-10632746D02*
X15992468Y-10689889D01*
X15992468Y-10689889D02*
X15982944Y-10708936D01*
X15982944Y-10708936D02*
X15973420Y-10718460D01*
X15973420Y-10718460D02*
X15954373Y-10727984D01*
X15954373Y-10727984D02*
X15916277Y-10727984D01*
X15916277Y-10727984D02*
X15897230Y-10718460D01*
X16106753Y-10727984D02*
X16087706Y-10718460D01*
X16087706Y-10718460D02*
X16078182Y-10699412D01*
X16078182Y-10699412D02*
X16078182Y-10527984D01*
X16268658Y-10727984D02*
X16268658Y-10623222D01*
X16268658Y-10623222D02*
X16259134Y-10604174D01*
X16259134Y-10604174D02*
X16240087Y-10594650D01*
X16240087Y-10594650D02*
X16201992Y-10594650D01*
X16201992Y-10594650D02*
X16182944Y-10604174D01*
X16268658Y-10718460D02*
X16249611Y-10727984D01*
X16249611Y-10727984D02*
X16201992Y-10727984D01*
X16201992Y-10727984D02*
X16182944Y-10718460D01*
X16182944Y-10718460D02*
X16173420Y-10699412D01*
X16173420Y-10699412D02*
X16173420Y-10680365D01*
X16173420Y-10680365D02*
X16182944Y-10661317D01*
X16182944Y-10661317D02*
X16201992Y-10651793D01*
X16201992Y-10651793D02*
X16249611Y-10651793D01*
X16249611Y-10651793D02*
X16268658Y-10642270D01*
X16335325Y-10594650D02*
X16411515Y-10594650D01*
X16363896Y-10527984D02*
X16363896Y-10699412D01*
X16363896Y-10699412D02*
X16373420Y-10718460D01*
X16373420Y-10718460D02*
X16392468Y-10727984D01*
X16392468Y-10727984D02*
X16411515Y-10727984D01*
X16554373Y-10718460D02*
X16535325Y-10727984D01*
X16535325Y-10727984D02*
X16497230Y-10727984D01*
X16497230Y-10727984D02*
X16478182Y-10718460D01*
X16478182Y-10718460D02*
X16468658Y-10699412D01*
X16468658Y-10699412D02*
X16468658Y-10623222D01*
X16468658Y-10623222D02*
X16478182Y-10604174D01*
X16478182Y-10604174D02*
X16497230Y-10594650D01*
X16497230Y-10594650D02*
X16535325Y-10594650D01*
X16535325Y-10594650D02*
X16554373Y-10604174D01*
X16554373Y-10604174D02*
X16563896Y-10623222D01*
X16563896Y-10623222D02*
X16563896Y-10642270D01*
X16563896Y-10642270D02*
X16468658Y-10661317D01*
X16735325Y-10727984D02*
X16735325Y-10527984D01*
X16735325Y-10718460D02*
X16716277Y-10727984D01*
X16716277Y-10727984D02*
X16678182Y-10727984D01*
X16678182Y-10727984D02*
X16659134Y-10718460D01*
X16659134Y-10718460D02*
X16649611Y-10708936D01*
X16649611Y-10708936D02*
X16640087Y-10689889D01*
X16640087Y-10689889D02*
X16640087Y-10632746D01*
X16640087Y-10632746D02*
X16649611Y-10613698D01*
X16649611Y-10613698D02*
X16659134Y-10604174D01*
X16659134Y-10604174D02*
X16678182Y-10594650D01*
X16678182Y-10594650D02*
X16716277Y-10594650D01*
X16716277Y-10594650D02*
X16735325Y-10604174D01*
X16811516Y-10804174D02*
X16821039Y-10794650D01*
X16821039Y-10794650D02*
X16840087Y-10766079D01*
X16840087Y-10766079D02*
X16849611Y-10747031D01*
X16849611Y-10747031D02*
X16859135Y-10718460D01*
X16859135Y-10718460D02*
X16868658Y-10670841D01*
X16868658Y-10670841D02*
X16868658Y-10632746D01*
X16868658Y-10632746D02*
X16859135Y-10585127D01*
X16859135Y-10585127D02*
X16849611Y-10556555D01*
X16849611Y-10556555D02*
X16840087Y-10537508D01*
X16840087Y-10537508D02*
X16821039Y-10508936D01*
X16821039Y-10508936D02*
X16811516Y-10499412D01*
M02*
