M48
; DRILL file {KiCad 8.0.4} date 2025-06-08T15:43:55+1000
; FORMAT={-:-/ absolute / metric / decimal}
; #@! TF.CreationDate,2025-06-08T15:43:55+10:00
; #@! TF.GenerationSoftware,Kicad,Pcbnew,8.0.4
; #@! TF.FileFunction,Plated,1,2,PTH
FMAT,2
METRIC
; #@! TA.AperFunction,Plated,PTH,ViaDrill
T1C0.300
; #@! TA.AperFunction,Plated,PTH,ComponentDrill
T2C0.600
; #@! TA.AperFunction,Plated,PTH,ComponentDrill
T3C0.650
; #@! TA.AperFunction,Plated,PTH,ViaDrill
T4C0.800
; #@! TA.AperFunction,Plated,PTH,ComponentDrill
T5C0.900
; #@! TA.AperFunction,Plated,PTH,ComponentDrill
T6C1.050
; #@! TA.AperFunction,Plated,PTH,ComponentDrill
T7C1.300
%
G90
G05
T1
X109.7Y-67.82
X112.245Y-64.82
X119.7Y-68.05
X122.43Y-64.5
X129.93Y-67.99
X132.5Y-64.54
X139.82Y-68.24
X142.37Y-64.46
X150.09Y-68.19
X152.71Y-64.52
X155.15Y-71.15
X155.17Y-73.06
X155.41Y-69.16
X162.3Y-91.55
X162.77Y-84.2
X162.83Y-74.91
X163.76Y-66.5
T2
X164.38Y-76.99
X164.42Y-97.99
X165.88Y-76.99
X165.92Y-97.99
X167.38Y-76.99
X167.42Y-97.99
X168.88Y-76.99
X168.92Y-97.99
X170.38Y-76.99
X170.42Y-97.99
X171.88Y-76.99
X171.92Y-97.99
X173.38Y-76.99
X173.42Y-97.99
X174.88Y-76.99
X174.92Y-97.99
X176.38Y-76.99
X176.42Y-97.99
T3
X102.5Y-78.13
X102.5Y-79.4
X102.5Y-80.67
X102.5Y-81.94
X102.5Y-83.21
T4
X102.46Y-92.86
X103.0Y-73.85
X103.12Y-85.6
X109.65Y-69.63
X114.93Y-89.74
X115.83Y-66.7
X120.12Y-70.01
X125.7Y-66.72
X135.73Y-66.66
X145.85Y-66.6
X149.65Y-97.29
X150.05Y-92.05
X155.73Y-65.55
X157.72Y-84.4
X160.45Y-86.14
X161.87Y-77.14
X169.85Y-88.7
X176.76Y-70.79
T5
X112.41Y-84.41
X112.41Y-86.91
X112.41Y-88.91
X112.41Y-91.41
X122.43Y-84.4
X122.43Y-86.9
X122.43Y-88.9
X122.43Y-91.4
X132.45Y-84.38
X132.45Y-86.88
X132.45Y-88.88
X132.45Y-91.38
X142.47Y-84.41
X142.47Y-86.91
X142.47Y-88.91
X142.47Y-91.41
X152.47Y-84.38
X152.47Y-86.88
X152.47Y-88.88
X152.47Y-91.38
T6
X165.51Y-69.51
X165.51Y-72.01
T3
X164.38Y-78.015G85X164.38Y-79.065
G05
X164.42Y-96.965G85X164.42Y-95.915
G05
X165.88Y-78.015G85X165.88Y-79.065
G05
X165.92Y-96.965G85X165.92Y-95.915
G05
X167.38Y-78.015G85X167.38Y-79.065
G05
X167.42Y-96.965G85X167.42Y-95.915
G05
X168.88Y-78.015G85X168.88Y-79.065
G05
X168.92Y-96.965G85X168.92Y-95.915
G05
X170.38Y-78.015G85X170.38Y-79.065
G05
X170.42Y-96.965G85X170.42Y-95.915
G05
X171.88Y-78.015G85X171.88Y-79.065
G05
X171.92Y-96.965G85X171.92Y-95.915
G05
X173.38Y-78.015G85X173.38Y-79.065
G05
X173.42Y-96.965G85X173.42Y-95.915
G05
X174.88Y-78.015G85X174.88Y-79.065
G05
X174.92Y-96.965G85X174.92Y-95.915
G05
X176.38Y-78.015G85X176.38Y-79.065
G05
X176.42Y-96.965G85X176.42Y-95.915
G05
T7
X110.48Y-94.58G85X109.48Y-94.58
G05
X109.49Y-81.24G85X110.49Y-81.24
G05
X120.5Y-94.57G85X119.5Y-94.57
G05
X119.51Y-81.23G85X120.51Y-81.23
G05
X130.52Y-94.55G85X129.52Y-94.55
G05
X129.53Y-81.21G85X130.53Y-81.21
G05
X140.54Y-94.58G85X139.54Y-94.58
G05
X139.55Y-81.24G85X140.55Y-81.24
G05
X150.54Y-94.55G85X149.54Y-94.55
G05
X149.55Y-81.21G85X150.55Y-81.21
G05
M30
