%TF.GenerationSoftware,KiCad,Pcbnew,8.0.4*%
%TF.CreationDate,2025-06-08T15:43:54+10:00*%
%TF.ProjectId,USBPowerBlock,55534250-6f77-4657-9242-6c6f636b2e6b,rev?*%
%TF.SameCoordinates,Original*%
%TF.FileFunction,Paste,Top*%
%TF.FilePolarity,Positive*%
%FSLAX46Y46*%
G04 Gerber Fmt 4.6, Leading zero omitted, Abs format (unit mm)*
G04 Created by KiCad (PCBNEW 8.0.4) date 2025-06-08 15:43:54*
%MOMM*%
%LPD*%
G01*
G04 APERTURE LIST*
G04 Aperture macros list*
%AMRoundRect*
0 Rectangle with rounded corners*
0 $1 Rounding radius*
0 $2 $3 $4 $5 $6 $7 $8 $9 X,Y pos of 4 corners*
0 Add a 4 corners polygon primitive as box body*
4,1,4,$2,$3,$4,$5,$6,$7,$8,$9,$2,$3,0*
0 Add four circle primitives for the rounded corners*
1,1,$1+$1,$2,$3*
1,1,$1+$1,$4,$5*
1,1,$1+$1,$6,$7*
1,1,$1+$1,$8,$9*
0 Add four rect primitives between the rounded corners*
20,1,$1+$1,$2,$3,$4,$5,0*
20,1,$1+$1,$4,$5,$6,$7,0*
20,1,$1+$1,$6,$7,$8,$9,0*
20,1,$1+$1,$8,$9,$2,$3,0*%
G04 Aperture macros list end*
%ADD10RoundRect,0.250000X-0.350000X-0.450000X0.350000X-0.450000X0.350000X0.450000X-0.350000X0.450000X0*%
%ADD11RoundRect,0.250000X0.450000X-0.350000X0.450000X0.350000X-0.450000X0.350000X-0.450000X-0.350000X0*%
%ADD12RoundRect,0.250000X-0.325000X-0.450000X0.325000X-0.450000X0.325000X0.450000X-0.325000X0.450000X0*%
%ADD13RoundRect,0.250000X-0.350000X0.850000X-0.350000X-0.850000X0.350000X-0.850000X0.350000X0.850000X0*%
%ADD14RoundRect,0.250000X-1.125000X1.275000X-1.125000X-1.275000X1.125000X-1.275000X1.125000X1.275000X0*%
%ADD15RoundRect,0.250000X0.450000X-0.325000X0.450000X0.325000X-0.450000X0.325000X-0.450000X-0.325000X0*%
%ADD16RoundRect,0.250000X0.350000X0.450000X-0.350000X0.450000X-0.350000X-0.450000X0.350000X-0.450000X0*%
%ADD17R,4.000000X4.000000*%
%ADD18RoundRect,0.250000X-0.450000X0.325000X-0.450000X-0.325000X0.450000X-0.325000X0.450000X0.325000X0*%
G04 APERTURE END LIST*
D10*
%TO.C,R5*%
X117720000Y-66100000D03*
X119720000Y-66100000D03*
%TD*%
D11*
%TO.C,R14*%
X155680000Y-84380000D03*
X155680000Y-82380000D03*
%TD*%
D12*
%TO.C,D1*%
X157835000Y-66040000D03*
X159885000Y-66040000D03*
%TD*%
D13*
%TO.C,Q2*%
X122290000Y-69410000D03*
D14*
X121535000Y-74035000D03*
X118485000Y-74035000D03*
X121535000Y-77385000D03*
X118485000Y-77385000D03*
D13*
X117730000Y-69410000D03*
%TD*%
D10*
%TO.C,R7*%
X127840000Y-66100000D03*
X129840000Y-66100000D03*
%TD*%
D13*
%TO.C,Q4*%
X142360000Y-69560000D03*
D14*
X141605000Y-74185000D03*
X138555000Y-74185000D03*
X141605000Y-77535000D03*
X138555000Y-77535000D03*
D13*
X137800000Y-69560000D03*
%TD*%
D10*
%TO.C,R11*%
X148060000Y-66030000D03*
X150060000Y-66030000D03*
%TD*%
%TO.C,R1*%
X107690000Y-66060000D03*
X109690000Y-66060000D03*
%TD*%
D13*
%TO.C,Q5*%
X152660000Y-69580000D03*
D14*
X151905000Y-74205000D03*
X148855000Y-74205000D03*
X151905000Y-77555000D03*
X148855000Y-77555000D03*
D13*
X148100000Y-69580000D03*
%TD*%
D10*
%TO.C,R9*%
X137750000Y-66050000D03*
X139750000Y-66050000D03*
%TD*%
D15*
%TO.C,D2*%
X160640000Y-83342500D03*
X160640000Y-81292500D03*
%TD*%
D16*
%TO.C,R13*%
X166960000Y-65070000D03*
X164960000Y-65070000D03*
%TD*%
D17*
%TO.C,U1*%
X169800000Y-88620000D03*
%TD*%
D13*
%TO.C,Q1*%
X112245000Y-69145000D03*
D14*
X111490000Y-73770000D03*
X108440000Y-73770000D03*
X111490000Y-77120000D03*
X108440000Y-77120000D03*
D13*
X107685000Y-69145000D03*
%TD*%
%TO.C,Q3*%
X132380000Y-69360000D03*
D14*
X131625000Y-73985000D03*
X128575000Y-73985000D03*
X131625000Y-77335000D03*
X128575000Y-77335000D03*
D13*
X127820000Y-69360000D03*
%TD*%
D18*
%TO.C,D3*%
X160390000Y-89285000D03*
X160390000Y-91335000D03*
%TD*%
M02*
